<?xml version="1.0" encoding="utf-8"?>
<!-- Generator: Adobe Illustrator 25.0.1, SVG Export Plug-In . SVG Version: 6.00 Build 0)  -->
<svg version="1.1" id="Calque_1" xmlns="http://www.w3.org/2000/svg" xmlns:xlink="http://www.w3.org/1999/xlink" x="0px" y="0px"
	 viewBox="0 0 500 500" style="enable-background:new 0 0 500 500;" xml:space="preserve">
<style type="text/css">
	.st0{fill:#212529;}
	.st1{fill:#0D6EFD;}
	.st2{fill:#FFFFFF;}
	.st3{fill:#959BAB;}
	.st4{fill:#0D3285;}
</style>
<rect class="st0" width="500" height="500"/>
<g>
	<polygon class="st1" points="501.7,212.2 501.8,212.2 501.8,234 501.7,234 501.7,319.9 512,319.9 512,190 501.7,190 	"/>
	<path class="st1" d="M218.6,16.5c0,0-0.3,0.9-0.8,2.4c0.7,0.2,1.5,0.4,2.2,0.7c0.7-1,1.5-1.8,2.3-2.3c-0.1-1.2-0.2-3.6,0.5-6.3
		h-3.5C219.4,12.7,219.2,14.5,218.6,16.5z"/>
	<path class="st1" d="M224.4,16.5c0.6,0,1.3,0.1,1.9,0.2c0.7-1.5,2.1-3.8,4.4-5.7h-3.2c-1.5,1.9-2.9,3.9-4.2,5.7
		C223.7,16.6,224.1,16.5,224.4,16.5z"/>
	<path class="st1" d="M230.6,17.9c2,0.6,4.9,2.2,8.1,4.3h88.8l-55.1,73.5c1.6,0.1,3.3,0.5,5.1,1.3c7.8,3.5,3.5,19.1,3.5,19.1
		s0,0,0,0c-1.8,8.2-6.8,16.1-11.9,17.8c6.1,10.3,15.9,27.5,15.5,31.7c-0.2,1.8-2.4,5.5-5.8,9.9c0,0.1,0,0.2,0,0.2
		c0.1,0.6-0.3,1.1-0.8,1.2c-0.1,0-0.1,0-0.2,0c-0.1,0-0.1,0-0.1-0.1c-4.5,5.6-10.4,12.1-16.1,17.3c-1,2.3-1.8,3.8-1.9,4
		c-0.2,0.3-0.5,0.5-0.9,0.5c-0.2,0-0.4,0-0.5-0.1c-0.4-0.2-0.5-0.6-0.4-1c-2.5,2.1-4.8,3.8-6.7,4.9c-2.7,2.3-5.6,4.6-8.6,6.7
		l4.4,24.9l11.9,3.6c-4.7-2-8-3.4-8-3.4l47,12.1l73.5-108.1v-21.5h14.6L450,22.2h37.4v-0.1h14.3v94.5H512V11h-0.7v95h-4.2V16.2
		h-73.8c0,0,2.9-4.1,3-5.2H240.3c-3.8,1.6-8.4,3.8-12.3,6C228.8,17.2,229.7,17.5,230.6,17.9z"/>
	<path class="st1" d="M501.7,482.1h-0.4v5.8H126.5c0,0.1,0,0.2,0,0.2H92c0,0,0-0.1-0.1-0.2h-0.2l0,0.4H2.9l0-0.4h-95.8v-5.2l-0.2,0
		V340.4c-7.7,3.3-12.1,5-12.1,5v66.9c0.9-0.8,1.7-1.5,1.7-1.5v84.4h78.5v4.6h453.6v-4.6h78.5v-84.4c0,0,4.7,4.4,4.7,3.3v85.8h0.1
		V368.2h-10.3V482.1z"/>
	<rect x="501.7" y="322.3" class="st1" width="10.3" height="43.6"/>
	<rect x="482.9" y="190" class="st0" width="18.8" height="22.1"/>
	<polygon class="st0" points="482.9,75.2 482.9,116.6 501.7,116.6 501.7,22.1 487.4,22.1 487.4,22.2 450,22.2 385.8,116.6 
		460.8,116.6 	"/>
	<path class="st0" d="M260.8,43.5c3.5,8.8,1.4,54.5,1.4,54.5s4.5-2.7,10.2-2.3l55.1-73.5h-88.8C247.3,27.9,258.5,37.7,260.8,43.5z"
		/>
	<path class="st0" d="M303.9,274.2c0,0-0.5-1.1-1.3-2.8l-5,2c1.2,0.6,2.3,1.3,3.5,1.9c-0.1-0.1-0.1-0.1-0.1-0.1s0.4,0.3,1.1,0.7
		c8.4,4.7,16.6,9.7,24,14.8c11.7,7.3,24.4,15.5,31.1,20.4l41-77.1h-29.5v-21.9H410l11.8-22.1h-50.6v-51.9l-73.5,108.1l4.1,1.1
		L303.9,274.2z"/>
	<polygon class="st1" points="247.6,237.6 246.8,234 247.5,237.6 	"/>
	<path class="st1" d="M261.7,162.1c-0.3,0.4-0.5,0.8-0.8,1.3c0.4-0.4,0.7-0.8,1.1-1.2C261.8,162.2,261.7,162.2,261.7,162.1z"/>
	<path class="st1" d="M264,155.5c-0.3,1.7-0.7,3.2-1.3,4.6c0.1,0,0.2,0,0.3,0C263.5,158.8,263.8,157.2,264,155.5z"/>
	<polygon class="st1" points="-7,468.3 1.9,468.3 5.6,468.3 8.3,447.8 	"/>
	<polygon class="st1" points="460.8,116.6 482.9,116.6 482.9,75.2 	"/>
	<polygon class="st1" points="482.9,212.2 482.9,190 421.8,190 410,212.2 	"/>
	<path class="st1" d="M357.3,311.1c1.8,1.3,3.2,2.4,3.9,3.2c5.6,5.6,17,70.5,21.2,95.4l8.1,34.1l1.3,0l91-188.7V234h-84.5
		L357.3,311.1z"/>
	<path class="st0" d="M-93,482.7l0.2,0v5.2H3l2.6-19.6l-3.7,0H-7l15.4-20.5l15.6-116.3c0.1-0.7,0.1-1.3,0.2-1.7l0.1-1.1
		c0,0,0,0,0.1,0c4.1-20.4,38.4-40.6,69.7-55.6l-5.1-2l2.8-20.9l52.8-15.8l-0.5,3.1l-31.7,12.7l20.9,6.7l1.1,0.6l6.8-3.4l0,0
		l2.9-16.6h0l4.6-26.3c0.2,0.1,0.4,0.2,0.6,0.3c16.9,8.4,41.8,19,71.4,8.8c1.9-0.7,3.9-1.4,5.9-2.3c5.6-2.4,11-5.6,16-9.1
		c3-2.1,5.9-4.4,8.6-6.7c-0.2,0.1-0.5,0.3-0.7,0.4c0,0,6.3-8.5,12.1-18.1c0.4-1.6,0.7-3.2,0.8-4.9l-11.6,4.7l-1.5,6l-1.7-4.5
		l-0.2,0.1c-0.7,0.3-1.4,0.6-2.1,0.9c-0.4,6.8-1.9,18.4-2,19c-0.1,0.5-0.5,0.9-1,0.9c0,0-0.1,0-0.1,0c-0.6-0.1-1-0.6-0.9-1.2
		c0-0.1,1.5-11,1.9-17.9c-1.3,0.5-2.7,0.9-4,1.3l-5,6.9v-5.6c-15.8,3.6-28.1,1.5-29.1,1.4c0,0-0.1,0-0.1,0s-3.1,0.4-7.8,0.5
		c-6.5,0.1-15.9-0.3-24.2-3.1c-9.7-3.3-25.7-11.2-35.4-18.5c-4-3-6.8-5.8-7.8-8.2c0.3,0.4,0.6,0.8,1,1.1c-0.5-0.7-1-1.4-1.3-2.1
		c-1.7-8.2,7.8-27.2,7.8-35.4c0-8.3-2.4-14.3-2.4-14.3l-10.9,22.7c-0.6,0-1.1-0.1-1.7-0.2c-0.4-0.1-0.8-0.2-1.2-0.4
		c-0.4,2.2-1.2,4.4-2.5,5.7c-0.9,0.9-2.1,1.4-3.4,1.4c-0.1,0-0.2,0-0.4,0c-2.5-0.2-4.6-1.8-5.2-4.1c-0.6-2.4,0.4-4.8,2.7-6.3
		c0.5-0.3,1.1-0.2,1.4,0.3c0.3,0.5,0.2,1.1-0.3,1.4c-1.8,1.1-2.1,2.8-1.8,4c0.3,1.2,1.3,2.5,3.3,2.6c0.9,0.1,1.6-0.2,2.1-0.8
		c1.1-1.1,1.7-3.1,2-5.2c-7.6-5.1-14-22.6-8.4-31.4c4.7-7.4,15.1-3.9,20.1-1.5c-0.5-6.9-1.2-14.7-1.6-20.3c1.6-2.2,4-5.1,7.5-8
		c2.2-1.8,4.9-3.6,7.9-5.1c12.3-6.1,26.3-9.7,26.3-9.7l-30.4,16.6c0,0,36.8-10.7,49.7-16.6c13-5.9,21.5-25.2,21.5-25.2l0,0
		c0,0,0,0,0,0c0-0.1,0.1-0.1,0.1-0.2c0,0,0,0,0,0c3.5-6.8,1.3-14.8-4.3-19.5c0.1,0.1,0.3,0.3,0.4,0.4c0.4,0.4,0.3,1.1-0.1,1.5
		c-0.4,0.4-1.1,0.3-1.5-0.1c-2-2.4-7.1-4.9-14.2-6.7c-0.6,0-1.3,0-1.9,0c-5.4,0.4-16.4,1.3-28.1,4.2c9.5-1,16.9,0.4,17.8,0.9
		c0.5,0.3,0.6,1,0.3,1.4c-0.3,0.5-0.9,0.6-1.4,0.3c-2.7-1.1-25.3-4-43.6,9.5c-3.4,2.7-6.5,5.8-8.8,9.6c-10.5,17-12,38.7-12.2,48
		c1.3,5.4,3,8.7,3,8.7c0.3,0.5,0.1,1.1-0.4,1.4c-0.2,0.1-0.3,0.1-0.5,0.1c-0.4,0-0.7-0.2-0.9-0.5c0-0.1-0.8-1.6-1.7-4.2
		c-0.8,1.4-1.1,2.2-1.1,2.2s-13-32.6,10.2-65.2c3.7-5.2,7.9-9.3,12.4-12.4h-3.5c-6.4,3-11.7,6.9-15.4,11.6
		c-22.5,27.9-13.1,59.6-13,59.9c0.2,0.5-0.1,1.1-0.7,1.3c-0.1,0-0.2,0.1-0.3,0.1c-0.4,0-0.8-0.3-1-0.7c-0.1-0.3-9.9-33.1,13.3-61.8
		c3.2-4,7.4-7.4,12.4-10.3H-32.5c0.1,1.1,3,5.2,3,5.2h-73.8V106h-1.8v51.7l0.9,0.9l-0.9,0.9v61.8h39v64.4h-39v59.7
		c0,0,4.4-1.6,12.1-5V482.7z M130.1,78.8c-0.2-2.4-0.3-4.4-0.3-5.6c0-0.7,0.1-1.5,0.1-2.4c2.3-1.6,4.5-2.8,5.5-3.5
		c0.4-0.2,0.7-0.4,0.7-0.4l0,0L130.1,78.8z M122.7,76.5c1-1.1,2.5-2.3,4-3.4C125.2,74.2,123.8,75.4,122.7,76.5
		C122.7,76.5,122.7,76.5,122.7,76.5z"/>
	<rect x="-105.1" y="223.6" class="st0" width="36.7" height="59.7"/>
	<path class="st0" d="M482.9,234v21.1l-91,188.7l-1.3,0l10.4,43.9h-54l0,0h-38.7l0,0H126.5c0,0.1,0,0.2,0,0.2h374.7v-5.8h0.4V368.2
		h-26.3v-48.3h26.3V234H482.9z"/>
	<rect x="477.7" y="322.3" class="st0" width="24" height="43.6"/>
	<path class="st0" d="M91.7,487.7l0,0.2h0.2c0-0.1,0-0.1-0.1-0.2H91.7z"/>
	<path class="st2" d="M507.1,16.2V106h4.2V11v-0.3h-75.1c0.1,0,0.2,0.1,0.2,0.3c-0.1,1.1-3,5.2-3,5.2H507.1z"/>
	<path class="st2" d="M507.2,410.7v84.4h-78.5v4.6v0.2h83.2v-0.2V414C511.9,415.1,507.2,410.7,507.2,410.7z"/>
	<path class="st2" d="M-103.3,16.2h73.8c0,0-2.9-4.1-3-5.2c0-0.2,0-0.3,0.2-0.3h-75.1V106h2.4h1.8V16.2z"/>
	<path class="st2" d="M-103.3,495.2v-84.4c0,0-0.8,0.7-1.7,1.5c-1.4,1.1-3,2.4-3,1.7v86h83.2v-0.2v-4.6H-103.3z"/>
	<polygon class="st1" points="512.9,295.5 532.8,295.5 532.8,319.9 512,319.9 501.7,319.9 475.4,319.9 475.4,368.2 501.7,368.2 
		512,368.2 524.4,368.2 524.4,365.9 512,365.9 501.7,365.9 477.7,365.9 477.7,322.3 501.7,322.3 512,322.3 535.1,322.3 535.1,293.1 
		512.9,293.1 	"/>
	<path class="st1" d="M302.2,275.9c3.3,2,13.2,8,24,14.8C318.8,285.6,310.6,280.6,302.2,275.9z"/>
	<path class="st1" d="M91.7,487l0,0.6h0.2C91.8,487.5,91.8,487.3,91.7,487z"/>
	<path class="st1" d="M79.7,422.9c-3.6-27.2-9.1-54.3-16-63.6c-2.9-4-13.5-13.2-21.9-14c-1.4-0.1-2.7-0.3-3.9-0.5
		c-1.7,17.7-7,82.7,5.3,102.5c11.5,18.7,36.3,24.7,45.4,26.4C86,462.1,82.5,444.2,79.7,422.9z"/>
	<path class="st3" d="M181.5,282.6l15.3,28.9l0.3,0.2l0,0l15.1-29l47.6-25.7l-10.7-4.6c-1.1,6.2-5.9,11.4-12.4,12.8
		c-13.2,2.7-33.3,6-52.6,6c-7.2-6.4-17-15.7-18-19.7c-1.7-6.4-2.9-25.3-2.9-25.3c3.4,3.6,34,9.3,46.1,3.3c3.1-1.6,7.2-5,11.4-9.1
		c-29.7,10.2-54.5-0.3-71.4-8.8c-0.2-0.1-0.4-0.2-0.6-0.3l-4.6,26.3h0l-2.9,16.6l0,0l-6.8,3.4L181.5,282.6z"/>
	<path class="st2" d="M163,226.1c0,0,1.2,18.9,2.9,25.3c1.1,4,10.9,13.3,18,19.7c19.4-0.1,39.4-3.3,52.6-6
		c6.5-1.3,11.3-6.5,12.4-12.8l-0.6-0.2l-1-14.5h0l-0.6-3.6l0,0h0l-4.4-24.9c-5,3.5-10.4,6.7-16,9.1c-2,0.8-3.9,1.6-5.9,2.3
		c-4.2,4.1-8.3,7.5-11.4,9.1C197.1,235.4,166.4,229.8,163,226.1z M214.3,235c0,0-1.7,12-22.7,16.4c-21,4.4-13.1-15.7-13.1-15.7
		s6.4,6.3,19.3,6.3C209,242.1,214.3,235,214.3,235z"/>
	<path class="st3" d="M178.5,235.8c0,0-7.9,20.1,13.1,15.7c21-4.4,22.7-16.4,22.7-16.4s-5.3,7.1-16.5,7.1
		C184.9,242.1,178.5,235.8,178.5,235.8z"/>
	<path class="st2" d="M171.8,131.1c0.2,0.7,0.4,1.2,0.4,1.2s-8.2-2.6-8.5-1c-0.7,5.2,6.7,4.5,8,3.9c0.3-0.1,1.5-0.7,3.2-1.4
		C173.4,132.8,172.2,131.9,171.8,131.1z"/>
	<path class="st2" d="M193.1,145.7C193.1,145.7,193.1,145.7,193.1,145.7C193.1,145.7,193.1,145.7,193.1,145.7
		C193.2,145.7,193.4,145.7,193.1,145.7z"/>
	<path class="st2" d="M202.1,137.6c0.4,0.1,0.8,0.1,1.1,0.3C202.9,137.8,202.5,137.7,202.1,137.6z"/>
	<path class="st2" d="M193,145.7C193,145.7,193,145.7,193,145.7C193,145.7,193.1,145.7,193,145.7C193.1,145.7,193,145.7,193,145.7z"
		/>
	<path class="st2" d="M133.1,164.7c-0.9-1.1-1.9-2.2-2.8-3.4c0.4,0.7,0.8,1.4,1.3,2.1c0.1,0.1,0.2,0.2,0.3,0.3
		C132.2,163.9,132.7,164.3,133.1,164.7z"/>
	<path class="st2" d="M242.3,176.3c-0.3-0.4-0.2-1,0.2-1.3c0.5-0.4,1.1-0.3,1.5,0.2c0,0,0,0.1,0.1,0.1c7.4-4.5,13.4-8.9,16.6-11.6
		c0.1-0.1,0.1-0.2,0.2-0.2c0.3-0.4,0.6-0.8,0.8-1.3c-0.2-0.1-0.4-0.3-0.5-0.6c-0.1-0.6,0.2-1.1,0.8-1.3c0,0,0.3-0.1,0.7-0.1
		c0.6-1.4,1.1-2.9,1.3-4.6c0-0.1,0-0.2,0-0.3c-0.2-0.7-6.8-24.3-11-31.8c-4.2-7.6,2.6-14.9,2.6-14.9l6.5,13.5
		c-0.1-0.5-0.2-0.9-0.2-1.5c-0.2-7.5,4.6-20.7,11.9-17.9c-8-3.2-14.8-0.4-14.8-0.4s-6.5-5-6.7-7.7c-0.2-2.7,1.3-11.8,1.3-11.8
		s-7.4-2.7-9.6-9.2c0-0.1,0-0.1-0.1-0.2c-0.1-0.2-0.1-0.3-0.2-0.5c0,0,0-0.1,0-0.2c-1.8-4.8-2.7-13.2-5.3-19.8
		c-1.8-4.1-4.3-7.7-7.9-9.5c-9.3-4.7-19.4-3-19.4-3s3.9-14.4,8.8-20.9c-0.7-0.2-1.5-0.4-2.2-0.7c-1,2.8-2.8,7.8-5.1,12.4
		c0,0,0,0,0,0c0,0.1-0.1,0.1-0.1,0.2v0c0,0-8.5,19.2-21.5,25.2c-13,5.9-49.7,16.6-49.7,16.6l30.4-16.6c0,0-14,3.6-26.3,9.7
		c-3.1,1.5-5.7,3.3-7.9,5.1c0.4,2.3,0.7,4.2,0.8,5c0.3,3.4,2,55.1,7.3,68.9c8.2,21.3,46.6,43.5,52.4,46.7c4.7-0.1,7.8-0.5,7.8-0.5
		s0.1,0,0.1,0c0,0,0.1,0,0.1,0C218.6,189,231.7,182.6,242.3,176.3z M227.7,99.5c0,2.8-2.2,5-5,5c-2.8,0-5-2.2-5-5
		c0-0.9,0.3-1.6,0.6-2.3c-4.8,0-7.1-0.8-7.1-0.8s9-4.8,15.3-1.8c6.3,2.9,8.5,5.5,8.5,5.5s-3.6-1-7.6-1.8
		C227.6,98.7,227.7,99.1,227.7,99.5z M211.6,74.3c0,0,1.2,4.3,4.2,4.9c5.6,1.1,32.7,4.9,32.7,4.9s-1.5,6.6-3.1,7.1
		c-1.4,0.4-34.8,0.8-40-2.1l0,0.1c0,0-0.2-0.1-0.4-0.4c-0.1-0.1-0.2-0.1-0.2-0.2c0,0,0-0.1,0-0.1c-0.7-0.8-1.9-2.5-2.3-5.6
		c-0.7-4.9,3.4-9.8,3.4-9.8l-0.3,10.2C207.6,79.1,211.6,74.3,211.6,74.3z M202.2,88.6c0,0-2.2-1.4-3.2-5.9
		c-1.1-4.9,2.2-10.1,2.2-10.1L202.2,88.6z M174.6,164.3c-7.7-6.2-16.3-15.9-19.5-22.2c-0.3,2.5-1,5.6-1,5.6s-4.5-8.9-1.3-11.2
		c0.5-0.3,1-0.6,1.5-0.8c1.8-4.8,8.6-8.5,11.4-9.8c0.2-0.1,0.3-0.2,0.5-0.2c0.4-0.2,0.7-0.3,0.7-0.3c0.8-0.3,1.4-0.3,1.8,0
		c1.1,0.8,2.2,3.5,2.8,5.3c-0.4-3,8.8-28.8,8.8-29.5c0-1.5-0.7-3.1-2.1-4.3c-1.2,0.2-2.9,0.4-5.1,0.4c0.4,0.7,0.6,1.5,0.6,2.3
		c0,2.8-2.2,5-5,5c-2.8,0-5-2.2-5-5c0-0.5,0.1-0.9,0.3-1.3c-4,0.8-7.6,1.8-7.6,1.8s2-2.3,7.5-5c-5.7,0-11.9-1.3-13.9-3.3
		c-1.4,0-2.4-0.1-2.6-0.2c-1.4-0.4-4.5-7.4-4.5-7.4s27.2-2.9,32.2-5.1c5-2.2,7.5-6.2,7.5-6.2s1.7,5.8,2,10.6l2.4-11.3
		c0,0,2.9,5.3,1.1,9.9c-0.5,1.4-1.2,2.6-1.9,3.7c2.4,1.2,4.7,3.5,4.7,7.9c0,0.3-0.2,0.9-0.5,1.7c0.3-0.1,0.6-0.2,0.9,0
		c0.5,0.3,0.7,0.9,0.5,1.4c-5.8,11.8-11.5,25.7-10.5,27.6c1,1.6,11.3,1.7,20.3,0.9c0.6,0,1.1,0.4,1.1,0.9c0.1,0.6-0.4,1.1-0.9,1.1
		c-0.1,0-0.4,0-0.5,0c-0.3,0.6-0.8,1.4-1.5,2.3c5.2,1.8,12.7,5.1,13.6,5.5c1.3,0.6,8.7,1.2,8-3.9c-0.2-1.6-8.5,1-8.5,1
		s1.7-5.7,3.4-6.9c1.7-1.2,7.2,3.2,7.3,4.1c0.3,2.2,0.5,4,0.7,5.5c1.6,0.2,3.4,0.6,4.8,1.6c3.2,2.3-1.3,11.2-1.3,11.2
		s-0.7-3.2-1-5.7c-0.1-1-1.1-2.3-2.2-3.6c0,0.6-0.2,1.1-0.4,1.6l0,0l0,0c-0.3,0.5-0.7,0.9-1.4,1.2c-2.5,2.2-7.8,6.5-10.3,7.2
		c-3.2,0.8-16.6-2.2-19.5-2.7c0,0-0.1,0-0.1,0c-2.1,0.4-17,3.6-20.3,2.8c-0.4-0.1-1-0.4-1.5-0.7H166c0,0,6.6,5.7,14.4,9.6
		c0.3,0.5,0.6,1.1,0.8,1.6c2,3.8,5.6,6.4,9.9,7c5.7,0.8,13-1.7,13-0.7c-0.4,7.3-17.6,7.8-18.3,7.8
		C184.5,172.9,178.9,167.7,174.6,164.3z"/>
	<path class="st3" d="M204.1,165.2c0-0.9-7.3,1.5-13,0.7c-4.2-0.6-7.9-3.2-9.9-7c-0.3-0.5-0.6-1-0.8-1.6c-7.8-3.9-14.4-9.6-14.4-9.6
		h5.2c-2.7-1.4-6.7-4.7-8.8-6.5c-0.8-0.7-1.3-1.2-1.4-1.2c-0.9-1.6-0.1-4.6,0.6-10.6c0.1-0.5,2.2-2.4,4.2-3.5
		c-2.8,1.4-9.5,5-11.4,9.8c-0.5,0.2-1,0.5-1.5,0.8c-3.2,2.3,1.3,11.2,1.3,11.2s0.7-3.1,1-5.6c3.2,6.3,11.7,16,19.5,22.2
		c4.2,3.4,9.8,8.6,11.1,8.7C186.5,173.1,203.7,172.5,204.1,165.2z"/>
	<path class="st3" d="M166.3,125.7c0.2-0.1,0.5-0.2,0.7-0.3C167,125.3,166.7,125.5,166.3,125.7z"/>
	<path class="st3" d="M175,133.8c5.1-2.2,14.4-6,15.4-5.1c0.8,0.7,1.7,2.3,2.3,3.5c0.7-1.2,1.6-2.8,2.3-3.5c0.4-0.4,2.4,0.1,4.9,1
		c0.8-0.9,1.2-1.7,1.5-2.3c-2.2,0.2-6.1,0.5-10.1,0.5c-5.2,0-10.5-0.5-11.7-2.4c-2.1-3.3,6.6-21.8,10.4-29.6
		c0.1-0.2,0.3-0.4,0.5-0.5c0.3-0.8,0.5-1.4,0.5-1.7c0-4.4-2.2-6.7-4.7-7.9c-0.9,1.4-1.7,2.3-2.3,2.9c0,0,0,0,0,0.1
		c0,0.1-0.2,0.1-0.2,0.2c-0.2,0.2-0.4,0.3-0.4,0.3l0,0c-4,2.5-25.9,2.8-33.5,2.6c2,2,8.2,3.3,13.9,3.3c0.3-0.2,0.6-0.3,1-0.5
		c6.3-2.9,15.3,1.8,15.3,1.8s-0.6,0.2-1.9,0.4c1.3,1.2,2.1,2.8,2.1,4.3c0,0.6-9.2,26.4-8.8,29.5c0.1,0.2,0.1,0.3,0.2,0.5
		C172.2,131.9,173.4,132.8,175,133.8z"/>
	<path class="st4" d="M271.9,162.5c0-0.3,0.1-0.6,0.1-0.9c-0.5-10.5-6.5-31.5-7.5-35.1l-2.2-4.5l-6.5-13.5c0,0-6.8,7.3-2.6,14.9
		c4.2,7.5,10.8,31.1,11,31.8c0,0.1,0,0.2,0,0.3c-0.2,1.7-0.5,3.2-1,4.6C264.7,159.9,268.2,160,271.9,162.5z"/>
	<path class="st4" d="M133.1,164.7c-0.4-0.4-0.9-0.7-1.2-1c-0.1-0.1-0.2-0.2-0.3-0.3c-0.3-0.3-0.7-0.7-1-1.1c1,2.4,3.9,5.3,7.8,8.2
		C136.7,168.7,134.9,166.7,133.1,164.7z"/>
	<path class="st0" d="M179.8,125.4c1.2,1.9,6.4,2.4,11.7,2.4c4,0,7.9-0.3,10.1-0.5c0.2,0,0.4,0,0.5,0c0.6-0.1,1-0.6,0.9-1.1
		c-0.1-0.6-0.6-1-1.1-0.9c-9,0.8-19.3,0.7-20.3-0.9c-0.9-1.9,4.7-15.8,10.5-27.6c0.3-0.5,0-1.1-0.5-1.4c-0.3-0.1-0.6-0.1-0.9,0
		c-0.2,0.1-0.4,0.2-0.5,0.5C186.4,103.6,177.7,122.1,179.8,125.4z"/>
	<path class="st4" d="M183.6,89.2L183.6,89.2c0,0,0.1-0.1,0.4-0.3c0.1-0.1,0.2-0.1,0.2-0.2c0,0,0,0,0-0.1c0.6-0.6,1.4-1.5,2.3-2.9
		c0.7-1,1.3-2.2,1.9-3.7c1.7-4.6-1.1-9.9-1.1-9.9l-2.4,11.3c-0.4-4.8-2-10.6-2-10.6s-2.5,4.1-7.5,6.2c-5,2.2-32.2,5.1-32.2,5.1
		s3,6.9,4.5,7.4c0.2,0.1,1.2,0.1,2.6,0.2C157.7,92,179.6,91.7,183.6,89.2z"/>
	<path class="st0" d="M180.3,96.4c0,0-9-4.8-15.3-1.8c-0.3,0.2-0.6,0.3-1,0.5c-5.5,2.7-7.5,5-7.5,5s3.6-1,7.6-1.8
		c-0.1,0.4-0.3,0.8-0.3,1.3c0,2.8,2.2,5,5,5c2.8,0,5-2.2,5-5c0-0.9-0.3-1.6-0.6-2.3c2.3,0,4-0.2,5.1-0.4
		C179.7,96.6,180.3,96.4,180.3,96.4z"/>
	<path class="st4" d="M202.4,83c0.5,3,1.6,4.7,2.3,5.6c0,0,0,0.1,0,0.1c0,0.1,0.2,0.1,0.2,0.2c0.3,0.2,0.4,0.4,0.4,0.4l0-0.1
		c5.2,3,38.6,2.6,40,2.1c1.5-0.4,3.1-7.1,3.1-7.1s-27.1-3.8-32.7-4.9c-3-0.6-4.2-4.9-4.2-4.9s-4,4.8-6,9l0.3-10.2
		C205.8,73.2,201.6,78.1,202.4,83z"/>
	<path class="st4" d="M199,82.6c1,4.6,3.2,5.9,3.2,5.9l-1-16C201.2,72.6,197.9,77.8,199,82.6z"/>
	<path class="st0" d="M226.6,94.6c-6.3-2.9-15.3,1.8-15.3,1.8s2.3,0.8,7.1,0.8c-0.4,0.7-0.6,1.5-0.6,2.3c0,2.8,2.2,5,5,5
		c2.8,0,5-2.2,5-5c0-0.5-0.1-0.9-0.3-1.3c4,0.8,7.6,1.8,7.6,1.8S232.9,97.5,226.6,94.6z"/>
	<path class="st3" d="M135.5,67.3c-1,0.6-3.2,1.9-5.5,3.5c-0.1,0.8-0.1,1.6-0.1,2.4c0,1.3,0.1,3.2,0.3,5.6l6-11.8
		C135.9,67.1,135.7,67.2,135.5,67.3z"/>
	<path class="st3" d="M145.7,145.4c-5.3-13.7-6.9-65.5-7.3-68.9c-0.1-0.8-0.4-2.7-0.8-5c-3.5,2.9-6,5.8-7.5,8
		c0.4,5.6,1,13.3,1.6,20.3c-5.1-2.4-15.4-5.9-20.1,1.5c-5.6,8.8,0.8,26.3,8.4,31.4c0.4-2.5,0.4-5,0.3-6.3c0-0.6,0.4-1.1,1-1.1
		c0.6-0.1,1.1,0.4,1.1,1c0,0.2,0.2,3.9-0.5,7.4c0.4,0.2,0.8,0.3,1.2,0.4c0.6,0.1,1.2,0.1,1.7,0.2l10.9-22.7c0,0,2.4,6,2.4,14.3
		c0,8.3-9.5,27.2-7.8,35.4c0.9,1.2,1.9,2.3,2.8,3.4c1.8,2.1,3.6,4,5.4,5.8c9.7,7.3,25.7,15.2,35.4,18.5c8.3,2.8,17.7,3.3,24.2,3.1
		C192.3,188.9,153.9,166.7,145.7,145.4z M123.4,128.4c0,0,0.4-11.9-3.2-15.2c-3.5-3.3-6.6,0-6.6,0s-1.8-8.6,3.5-10.6
		c7.4-2.8,12.1,10.4,11.9,17.9C128.8,128,123.4,128.4,123.4,128.4z"/>
	<path class="st4" d="M244.2,73.5c0-0.1,0-0.1-0.1-0.2C244.1,73.4,244.1,73.5,244.2,73.5z"/>
	<path class="st4" d="M243.9,72.7c-1.2-4.5-2.3-12.9-5.3-19.8C241.1,59.5,242.1,67.9,243.9,72.7z"/>
	<path class="st4" d="M208.5,11.8c5.6,4.7,7.8,12.7,4.3,19.5c2.3-4.6,4.1-9.5,5.1-12.4c0.5-1.5,0.8-2.4,0.8-2.4
		c0.6-2,0.8-3.8,0.7-5.5c-0.4-8.9-9.4-12.6-18.8-10.4c-7,1.7-26.4-2.7-45.5,2c4-0.5,8.2-0.8,12.5-0.8C185.7,1.8,203,5.9,208.5,11.8z
		"/>
	<path class="st4" d="M167.5,3.9c-9.4,0.1-18,1.4-25.6,3.6c-1.9,1-3.8,2.2-5.7,3.5c-4.5,3.2-8.7,7.2-12.4,12.4
		c-23.2,32.6-10.2,65.2-10.2,65.2s0.3-0.8,1.1-2.2c-3-8.5-7.4-28.8,7.8-51.7c10.1-15.2,24.4-20.8,34.6-22.8c2.1-0.4,4.1-0.7,6-0.9
		c11.7-2.9,22.7-3.8,28.1-4.2c0.6,0,1.3,0,1.9,0c-6.7-1.7-15.3-2.9-24.7-2.9C168.1,3.9,167.8,3.9,167.5,3.9z"/>
	<path class="st4" d="M124.2,35.9c-12.3,18.5-11.3,35.3-9,45c0.2-9.3,1.7-31.1,12.2-48c2.3-3.7,5.3-6.8,8.8-9.6
		C131.9,26.5,127.8,30.6,124.2,35.9z"/>
	<path class="st4" d="M122.7,76.5C122.7,76.5,122.7,76.5,122.7,76.5c1.2-1.1,2.6-2.3,4-3.4C125.1,74.2,123.7,75.4,122.7,76.5z"/>
	<polygon class="st4" points="212.7,31.5 212.7,31.5 212.7,31.5 	"/>
	<path class="st4" d="M136.1,67c0,0-0.3,0.1-0.7,0.4C135.7,67.2,135.9,67.1,136.1,67L136.1,67z"/>
	<path class="st4" d="M222.3,17.3c-0.8,0.5-1.5,1.3-2.3,2.3c-4.9,6.5-8.8,20.9-8.8,20.9s10.1-1.8,19.4,3c0,0,0,0,0,0
		c0,0,1.1,0.5,5.7,0l4.6-0.5L244,50v-8l6-1.1l3.8,13.3l0-5c-0.3-2.1-0.6-3.8-0.8-5.1c-2.1-10.6-24.4-26.5-24.4-26.5
		c0.4-0.1,1.2,0,2,0.2c-0.9-0.3-1.7-0.6-2.6-0.8c3.8-2.2,8.5-4.4,12.3-6c3.7-1.6,6.5-2.7,6.5-2.7s-5.6-2.5-12.5,0.6
		c-1.4,0.6-2.5,1.4-3.5,2.2c-2.3,1.9-3.7,4.1-4.4,5.7c-0.7-0.1-1.3-0.2-1.9-0.2c-0.4,0-0.7,0.1-1.1,0.2c1.2-1.9,2.7-3.8,4.2-5.7
		c4.2-5.5,8.7-10.4,8.7-10.4s-7.2-1.2-11.4,5.6c-1,1.6-1.6,3.2-2,4.8C222.2,13.7,222.2,16.1,222.3,17.3z"/>
	<path class="st2" d="M117.1,102.6c-5.3,2-3.5,10.6-3.5,10.6s3.1-3.3,6.6,0c3.5,3.3,3.2,15.2,3.2,15.2s5.5-0.4,5.7-7.9
		C129.3,112.9,124.5,99.8,117.1,102.6z"/>
	<path class="st2" d="M274,102.6c5.3,2,3.5,10.6,3.5,10.6s-3.1-3.3-6.6,0c-3.5,3.3-3.2,15.2-3.2,15.2s-1.2-0.1-2.6-1
		c0.9,1.4,2.2,3.7,3.9,6.4c5.1-1.7,10.1-9.6,11.9-17.8C281,115.6,281.8,105.7,274,102.6z"/>
	<path class="st3" d="M264.4,126.5c-0.1-0.4-0.2-0.6-0.2-0.6s0.3,0.5,0.9,1.5c1.3,0.9,2.6,1,2.6,1s-0.4-11.9,3.2-15.2
		c3.5-3.3,6.6,0,6.6,0s1.8-8.6-3.5-10.6c-7.4-2.8-12.1,10.4-11.9,17.9c0,0.6,0.1,1,0.2,1.5L264.4,126.5z"/>
	<path class="st0" d="M238.5,52.9c3,6.9,4.2,15.4,5.3,19.8c0,0,0,0.1,0,0.2c0,0.2,0.1,0.3,0.2,0.5c0,0.1,0,0.1,0.1,0.2
		c2.2,6.5,9.6,9.2,9.6,9.2s-1.6,9.1-1.3,11.8c0.2,2.7,6.7,7.7,6.7,7.7s-3.1-37-5.3-52.9l0,5L250,40.9l-6,1.1v8l-3.1-7.1l-4.6,0.5
		c-4.6,0.5-5.7,0-5.7,0c0,0,0,0,0,0C234.2,45.2,236.7,48.8,238.5,52.9z"/>
	<path class="st3" d="M224.7,138.5c1.1,1.2,2.1,2.6,2.2,3.6c0.3,2.5,1,5.7,1,5.7s4.5-8.9,1.3-11.2c-1.4-1-3.2-1.5-4.8-1.6
		C224.7,136.4,224.8,137.6,224.7,138.5z"/>
	<path class="st0" d="M265.5,178.9c0,0.2,0,0.3,0,0.5c0,0,0,0,0,0c0.1-0.2,0.2-0.5,0.4-0.7L265.5,178.9z"/>
	<path class="st4" d="M244.1,184.4c0-5.5-1.8-8-1.8-8c0,0,0-0.1,0-0.1c-10.5,6.3-23.7,12.7-36.2,15.3c0,0-0.1,0-0.1,0
		c1,0.2,13.3,2.2,29.1-1.4v5.6l5-6.9c1.3-0.4,2.6-0.8,4-1.3C244.1,186.4,244.1,185.3,244.1,184.4z"/>
	<path class="st4" d="M259.3,168.1c-0.5-0.3-0.7-0.9-0.5-1.4c0.3-0.5,0.9-0.7,1.4-0.5c0.2,0.1,5.9,3,5.2,12.7l0.4-0.1
		c2.7-5,4.9-9.9,5.7-13.8c-0.2-0.2-0.5-0.5-0.7-0.7c-4.2-2.9-8.2-2-8.4-2c-0.2,0-0.4,0-0.6-0.1c-0.3,0.5-0.7,0.9-1.1,1.2
		c-0.1,0.1-0.1,0.2-0.2,0.2c-3.3,2.7-9.2,7.1-16.6,11.6c0.3,0.5,2.2,3.3,2.2,9.2c0,0.7,0,1.5-0.1,2.4c0.7-0.3,1.4-0.6,2.1-0.9
		l0.2-0.1l1.7,4.5l1.5-6l11.6-4.7c0-0.2,0.1-0.4,0.1-0.5C264.2,170.6,259.5,168.2,259.3,168.1z"/>
	<path class="st2" d="M257.8,197c0-0.1,3-5.5,4.6-12.4c-5.8,9.6-12.1,18.1-12.1,18.1c0.2-0.1,0.5-0.3,0.7-0.4
		c1.9-1.1,4.2-2.8,6.7-4.9C257.8,197.3,257.8,197.1,257.8,197z"/>
	<path class="st2" d="M276.7,176c0-0.1-1.5-7.6-5.2-11c-0.8,3.9-3,8.8-5.7,13.8c-0.1,0.2-0.2,0.5-0.4,0.7
		c-0.5,5.8-2.4,11.1-3.9,14.6c5.6-5.2,11.6-11.7,16.1-17.3C277.2,176.7,276.8,176.4,276.7,176z"/>
	<path class="st2" d="M264.2,125.9c0,0,0.1,0.3,0.2,0.6c1.1,3.7,7,24.6,7.5,35.1c0,0.3,0,0.6-0.1,0.9c0,0,0.1,0.1,0.1,0.1
		c4.7,3.3,6.5,11.5,6.7,12.8c3.4-4.4,5.6-8,5.8-9.9c0.4-4.2-9.4-21.4-15.5-31.7c-1.6-2.8-3-5-3.9-6.4
		C264.6,126.4,264.2,125.9,264.2,125.9z"/>
	<path class="st0" d="M257.8,197c-0.1,0.1,0,0.3,0,0.4c0,0.4,0.1,0.8,0.4,1c0.2,0.1,0.3,0.1,0.5,0.1c0.4,0,0.7-0.2,0.9-0.5
		c0.1-0.1,0.9-1.7,1.9-4c1.5-3.5,3.4-8.8,3.9-14.6c0,0,0,0,0,0c0-0.2,0-0.3,0-0.5c0.6-9.7-5-12.6-5.2-12.7c-0.5-0.2-1.1,0-1.4,0.5
		c-0.3,0.5,0,1.1,0.5,1.4c0.2,0.1,4.8,2.5,4.1,11.1c0,0.2-0.1,0.4-0.1,0.5c-0.2,1.7-0.5,3.3-0.8,4.9
		C260.9,191.5,257.9,196.9,257.8,197z"/>
	<path class="st0" d="M246.2,184.4c0-5.9-1.9-8.7-2.2-9.2c0,0-0.1-0.1-0.1-0.1c-0.4-0.4-1-0.5-1.5-0.2c-0.4,0.3-0.5,0.9-0.2,1.3
		c0,0,0,0.1,0,0.1c0,0,1.9,2.5,1.8,8c0,0.9-0.1,2-0.1,3.2c-0.4,6.9-1.9,17.8-1.9,17.9c-0.1,0.6,0.3,1.1,0.9,1.2c0,0,0.1,0,0.1,0
		c0.5,0,1-0.4,1-0.9c0.1-0.6,1.6-12.2,2-19C246.2,185.9,246.2,185.1,246.2,184.4z"/>
	<path class="st0" d="M272,162.6c0,0-0.1-0.1-0.1-0.1c-3.7-2.5-7.2-2.5-8.9-2.4c-0.1,0-0.2,0-0.3,0c-0.4,0.1-0.7,0.1-0.7,0.1
		c-0.6,0.1-0.9,0.7-0.8,1.3c0.1,0.3,0.2,0.5,0.5,0.6c0.1,0,0.2,0,0.2,0.1c0.2,0.1,0.4,0.1,0.6,0.1c0.2,0,4.2-1,8.4,2
		c0.3,0.2,0.5,0.4,0.7,0.7c3.7,3.4,5.2,10.9,5.2,11c0.1,0.4,0.5,0.7,0.9,0.8c0.1,0,0.1,0.1,0.1,0.1c0.1,0,0.1,0,0.2,0
		c0.6-0.1,0.9-0.6,0.8-1.2c0,0,0-0.2,0-0.2C278.5,174.1,276.7,165.8,272,162.6z"/>
	<path class="st0" d="M115.5,21.2C92.3,50,102.1,82.7,102.2,83.1c0.1,0.4,0.5,0.7,1,0.7c0.1,0,0.2,0,0.3-0.1
		c0.5-0.2,0.8-0.8,0.7-1.3c-0.1-0.3-9.5-32,13-59.9c3.8-4.7,9.1-8.6,15.4-11.6c2.9-1.3,6-2.5,9.2-3.5c7.6-2.3,16.2-3.5,25.6-3.6
		c0.3,0,0.6,0,0.9,0c9.4,0,18,1.2,24.7,2.9c7.1,1.8,12.2,4.3,14.2,6.7c0.4,0.4,1,0.5,1.5,0.1c0.4-0.4,0.5-1,0.1-1.5
		c-0.1-0.1-0.3-0.3-0.4-0.4c-5.5-5.8-22.8-10-41-10c-4.3,0-8.5,0.3-12.5,0.8c-10.4,1.3-19.6,4.2-27,8.4
		C123,13.8,118.7,17.3,115.5,21.2z"/>
	<path class="st0" d="M122.5,34.7c-15.2,22.8-10.8,43.2-7.8,51.7c0.9,2.6,1.7,4.1,1.7,4.2c0.2,0.3,0.5,0.5,0.9,0.5
		c0.2,0,0.3,0,0.5-0.1c0.5-0.3,0.7-0.9,0.4-1.4c0-0.1-1.7-3.3-3-8.7c-2.3-9.7-3.3-26.5,9-45c3.5-5.3,7.6-9.4,12-12.6
		c18.3-13.5,40.9-10.6,43.6-9.5c0.5,0.3,1.1,0.1,1.4-0.3c0.3-0.5,0.2-1.1-0.3-1.4c-0.9-0.6-8.3-1.9-17.8-0.9c-1.9,0.2-4,0.5-6,0.9
		C146.9,13.9,132.6,19.5,122.5,34.7z"/>
	<path class="st4" d="M224.3,140c-0.1,0.1-0.6,0.5-1.4,1.2C223.6,141,224.1,140.6,224.3,140z"/>
	<path class="st4" d="M161.6,129.4c-0.7,6.1-1.4,9-0.6,10.6c2.7,1.6,10.4,2.7,12.7,1.9c2.4-0.8,5.1-2.7,8.5-4.1
		c3.3-1.4,10.7,0.9,10.7,0.9s5.7-1.9,9.3-1.2c0.4,0.1,0.8,0.1,1.1,0.3c3.3,1.4,6,3.3,8.5,4.1c2.3,0.8,10-0.4,12.7-1.9
		c0.2-0.4,0.3-0.9,0.4-1.6c0.1-0.9,0-2.1-0.2-3.6c-0.2-1.5-0.4-3.3-0.7-5.5c-0.1-0.9-5.6-5.3-7.3-4.1c-1.7,1.2-3.4,6.9-3.4,6.9
		s8.2-2.6,8.5-1c0.7,5.2-6.7,4.5-8,3.9c-0.9-0.4-8.4-3.7-13.6-5.5c-2.5-0.9-4.5-1.4-4.9-1c-0.8,0.7-1.7,2.3-2.3,3.5
		c-0.7-1.2-1.6-2.8-2.3-3.5c-1-0.9-10.3,2.9-15.4,5.1c-1.7,0.7-2.9,1.3-3.2,1.4c-1.3,0.6-8.7,1.2-8-3.9c0.2-1.6,8.5,1,8.5,1
		s-0.1-0.5-0.4-1.2c-0.1-0.1-0.1-0.3-0.2-0.5c-0.6-1.8-1.7-4.5-2.8-5.3c-0.4-0.3-1.1-0.2-1.8,0c-0.2,0.1-0.5,0.2-0.7,0.3
		c-0.2,0.1-0.3,0.1-0.5,0.2C163.8,127,161.6,128.9,161.6,129.4z"/>
	<path class="st0" d="M193,145.7C193,145.7,193.1,145.7,193,145.7C193.1,145.7,193.1,145.7,193,145.7
		C193.1,145.7,193,145.7,193,145.7z"/>
	<path class="st0" d="M211.7,142c-2.4-0.8-5.1-2.7-8.5-4.1c-0.3-0.1-0.7-0.2-1.1-0.3c-3.6-0.6-9.3,1.2-9.3,1.2s-7.4-2.3-10.7-0.9
		c-3.3,1.4-6,3.3-8.5,4.1c-2.3,0.8-10-0.4-12.7-1.9c0.1,0.1,0.6,0.5,1.4,1.2c2.1,1.8,6.1,5.1,8.8,6.5c0.6,0.3,1.1,0.5,1.5,0.7
		c3.4,0.9,18.3-2.3,20.3-2.8c0,0,0,0,0,0c0,0,0,0,0,0c0,0,0,0,0,0c0.3,0,0.1,0,0,0c2.9,0.5,16.4,3.6,19.5,2.7
		c2.5-0.6,7.8-5,10.3-7.2c0.8-0.7,1.3-1.2,1.4-1.2C221.7,141.6,214,142.8,211.7,142z"/>
	<path class="st1" d="M94.5,273.3l5.9,2.3l0,0l71.5,27.6l8-17.6l14.6,29.2l-20.9-1.6l-75.8-27.6c-29.2,8.6-55.9,34.9-53.7,42.8
		c2.3,8,40.7,51.2,52,67.3c14,20.1,29,86.3,30.3,91.9h181.8c0-0.1,3.4-75.6,6-90.9c2.6-15.3,17.9-35.7,17.9-35.7s-6,18.7-8.5,43.4
		c-2.5,24.6,23.3,83.1,23.3,83.3h54l-10.4-43.9l-8.1-34.1c1,6,1.6,9.7,1.6,9.7S370.2,353,355.7,335c-14.1-17.4-52.2-57.2-54.6-59.7
		c-1.2-0.6-2.3-1.3-3.5-1.9l5-2c-2.2-4.7-6.7-14.2-9.8-17.2c-2.9-2.9-22.7-11.7-34.1-16.6l-11.9-3.6h0l0,0l0.8,3.7l32.7,12.6
		l-20.6,6.7l-47.6,25.7l-15.1,29l0,0l-0.3-0.2l-15.3-28.9l-47.2-25l-1.1-0.6l-20.9-6.7l31.7-12.7l0.5-3.1l-52.8,15.8l-2.8,20.9
		l5.1,2c0,0,0,0,0.1,0C94.1,273.1,94.3,273.2,94.5,273.3z M213.7,285.6l7.9,17.6l76.1-29.8l9,7.7l-86.8,32h-22.3L213.7,285.6z"/>
	<path class="st0" d="M173.6,313.1l20.9,1.6L180,285.6l-8,17.6l-71.5-27.6l0,0l-5.9-2.3c1.9,1.2,9.7,6.4,8.8,7.1
		c-2.1,1.6-3.1,4.5-5.3,5.1c-0.1,0-0.1,0-0.2,0L173.6,313.1z"/>
	<polygon class="st0" points="247.5,237.6 248.5,252.1 249,252.3 259.7,256.9 280.3,250.3 247.6,237.6 247.5,237.6 	"/>
	<polygon class="st0" points="197.6,313.1 219.9,313.1 306.7,281.1 297.6,273.4 221.5,303.2 213.7,285.6 	"/>
	<path class="st0" d="M323.6,404.4c2.6-24.7,8.5-43.4,8.5-43.4s-15.3,20.4-17.9,35.7c-2.6,15.3-6,90.8-6,90.9l0,0h38.7l0,0
		C346.8,487.6,321,429.1,323.6,404.4z"/>
	<path class="st0" d="M96.2,395.8c-11.3-16.2-49.7-59.4-52-67.3c-2.3-8,24.4-34.3,53.7-42.8c0.1,0,0.1,0,0.2,0
		c2.2-0.7,3.2-3.5,5.3-5.1c0.9-0.7-6.9-6-8.8-7.1c-0.2-0.1-0.4-0.2-0.4-0.2c0,0-0.1,0-0.1,0c-31.3,15-65.5,35.1-69.7,55.6
		c-0.1,0-0.1,0-0.1,0l-0.1,1.1c-0.1,0.4-0.2,1-0.2,1.7L8.3,447.8l-2.7,20.5L3,487.9l0,0.4h88.8l0-0.4l0-0.2l0-0.6
		c0.1,0.3,0.1,0.5,0.2,0.6c0,0.1,0,0.2,0.1,0.2c0,0.1,0.1,0.2,0.1,0.2h34.6c0,0,0-0.1,0-0.2c0-0.1,0-0.2,0-0.2
		C125.2,482,110.2,415.9,96.2,395.8z M43.2,447.3c-12.3-19.9-7-84.9-5.3-102.5c1.2,0.2,2.5,0.4,3.9,0.5c8.4,0.7,19,10,21.9,14
		c6.8,9.3,12.4,36.4,16,63.6c2.8,21.2,6.3,39.1,8.9,50.8C79.5,472.1,54.7,466,43.2,447.3z"/>
	<path class="st0" d="M122.3,126.3c0-0.6-0.5-1-1.1-1c-0.6,0-1,0.5-1,1.1c0.1,1.3,0.1,3.8-0.3,6.3c-0.3,2.1-0.9,4.1-2,5.2
		c-0.6,0.6-1.3,0.9-2.1,0.8c-2-0.1-3-1.4-3.3-2.6c-0.3-1.2,0-2.9,1.8-4c0.5-0.3,0.6-1,0.3-1.4c-0.3-0.5-1-0.6-1.4-0.3
		c-2.3,1.5-3.3,3.9-2.7,6.3c0.6,2.4,2.6,4,5.2,4.1c0.1,0,0.2,0,0.4,0c1.3,0,2.4-0.5,3.4-1.4c1.3-1.3,2.1-3.5,2.5-5.7
		C122.5,130.2,122.3,126.6,122.3,126.3z"/>
	<path class="st2" d="M292.8,254.2c3.1,3.1,7.6,12.5,9.8,17.2c0.8,1.7,1.3,2.8,1.3,2.8l-2.1-26.9l-4.1-1.1l-47-12.1
		c0,0,3.3,1.4,8,3.4C270.1,242.5,289.9,251.3,292.8,254.2z"/>
	<path class="st2" d="M357.3,311.1c-6.7-4.9-19.4-13.1-31.1-20.4c-10.9-6.8-20.8-12.8-24-14.8c-0.7-0.4-1.1-0.7-1.1-0.7s0,0,0.1,0.1
		c2.4,2.5,40.5,42.3,54.6,59.7c14.5,18,28.3,84.3,28.3,84.3s-0.6-3.7-1.6-9.7c-4.2-24.9-15.6-89.8-21.2-95.4
		C360.5,313.5,359.1,312.4,357.3,311.1z"/>
	<path class="st2" d="M259.1,102.2c0,0,6.8-2.8,14.8,0.4c7.9,3.1,7,13,7,13.4c0,0,0,0,0,0s4.2-15.6-3.5-19.1
		c-1.7-0.8-3.4-1.1-5.1-1.3c-5.7-0.4-10.2,2.3-10.2,2.3s2.1-45.7-1.4-54.5c-2.3-5.8-13.4-15.5-22.1-21.3c-3.3-2.2-6.1-3.7-8.1-4.3
		c-0.8-0.3-1.6-0.4-2-0.2c0,0,22.3,15.9,24.4,26.5c0.2,1.2,0.5,3,0.8,5.1C256,65.2,259.1,102.2,259.1,102.2z"/>
	<path class="st2" d="M482.9,116.6h-22h-75h-14.6v21.5V190h50.6h61.1h18.8H512h110.1v-73.5H512h-10.3H482.9z M509.9,170.9H405.4
		v-9.4h104.5V170.9z M573.2,170.9h-44.2v-9.4h44.2V170.9z M573.7,140.9v9.4H405.4v-9.4H573.7z"/>
	<polygon class="st2" points="482.9,212.2 410,212.2 368.8,212.2 368.8,234 398.4,234 482.9,234 501.7,234 501.8,234 501.8,212.2 
		501.7,212.2 	"/>
	<rect x="518.6" y="212.2" class="st2" width="34.1" height="21.9"/>
	<rect x="570.7" y="212.2" class="st2" width="51.6" height="21.9"/>
	<polygon class="st1" points="-66.1,285.7 -66.1,221.3 -105.1,221.3 -120,221.3 -120,174.4 -105.1,159.5 -104.2,158.6 -105.1,157.7 
		-105.8,156.9 -122.3,173.4 -122.3,223.6 -105.1,223.6 -68.4,223.6 -68.4,283.3 -105.1,283.3 -119,283.3 -119,323.4 -107.2,335.2 
		-105.5,333.6 -116.6,322.4 -116.6,285.7 -105.1,285.7 	"/>
	<rect x="405.4" y="140.9" class="st1" width="168.3" height="9.4"/>
	<rect x="405.4" y="161.5" class="st1" width="104.5" height="9.4"/>
	<rect x="528.9" y="161.5" class="st1" width="44.2" height="9.4"/>
</g>
</svg>
