<?xml version="1.0" encoding="utf-8"?>
<!-- Generator: Adobe Illustrator 25.0.1, SVG Export Plug-In . SVG Version: 6.00 Build 0)  -->
<svg version="1.1" id="Calque_1" xmlns="http://www.w3.org/2000/svg" xmlns:xlink="http://www.w3.org/1999/xlink" x="0px" y="0px"
	 viewBox="0 0 1600 800" style="enable-background:new 0 0 1600 800;" xml:space="preserve">
<style type="text/css">
	.st0{fill:#0D6EFD;}
	.st1{fill:#FFFFFF;}
	.st2{fill:#212529;}
</style>
<rect class="st0" width="1600" height="800"/>
<g>
	<g>
		<g>
			<path class="st1" d="M179.8,406.2c39.8,39.8,102.5,41.6,140.1,4.1s35.7-100.2-4.1-140.1L179.8,406.2z"/>
		</g>
		<g>
			<g>
				<path class="st1" d="M436.3,272.5L659.4,401c68.9-46.3,150.6-73,238.3-73c244.9,0,443.6,209,446.4,467.8l9.5,5.4l302.2-175.8
					l-916.3-530L436.3,272.5z"/>
				<path class="st1" d="M739.6,93.6l917,530.5l2.3,1.3L1353.6,803l-11.1-6.4v-0.8c-1.3-124.7-48.3-241.9-132.1-329.7
					c-84-87.9-195.1-136.2-313-136.2c-84.3,0-166.3,25.2-237.2,72.7l-0.8,0.3L433.2,272.5L739.6,93.6z M897.7,326.5
					c118.7,0,230.5,48.8,315.1,137.2c84,88.2,131.3,205.9,132.9,331l8,4.6l299.2-174L739.6,97.2L439.4,272.5l220,126.7
					C730.6,351.9,813.1,326.8,897.7,326.5z"/>
			</g>
			<g>
				<path class="st1" d="M658.6,399.7l0.8-0.5l685.7,395.3l0.8,0.5v2.8c0,1.3,0,2.3,0,3.6v1.5H449.4v-1.5
					C449.4,637.5,527.6,487.4,658.6,399.7z M1342.6,797.9v-1L659.7,403.1C530.6,490,453.3,638,452.8,799.9h890
					C1342.6,799.1,1342.6,798.6,1342.6,797.9z"/>
			</g>
			<g>
				<path class="st2" d="M897.7,328.3c-87.6,0-169.4,26.7-238.3,73l684.7,394.8C1341.5,537.2,1142.6,328.3,897.7,328.3z"/>
				<path class="st2" d="M658.6,400c71.5-48.1,154.2-73.2,239-73.2c118.7,0,230.5,48.8,315.1,137.2
					c84.3,88.4,131.6,206.1,132.9,331.8v2.8l-687-396.1l-2.1-1.3L658.6,400z M1210.5,466.1c-84-87.9-195.1-136.2-313-136.2
					c-83.3,0-164.7,24.7-235.2,71.2l680.3,392.2C1340.5,669.4,1293.7,553.4,1210.5,466.1z"/>
			</g>
		</g>
		<g>
			<path class="st1" d="M661.5,400L-58.9,815.8V-15.8L661.5,400z M649.1,400L-52.5-5.1v810.1L649.1,400z"/>
		</g>
		<g>
			<g>
				<polygon class="st1" points="-55.6,-10.5 -55.6,117.5 55.2,53.5 				"/>
			</g>
		</g>
		<g>
			<g>
				
					<rect x="350.2" y="92" transform="matrix(0.5012 -0.8653 0.8653 0.5012 -312.3004 587.2362)" class="st1" width="6.2" height="945"/>
			</g>
		</g>
		<g>
			
				<rect x="97.8" y="332.9" transform="matrix(0.7071 -0.7071 0.7071 0.7071 -164.5156 274.7824)" class="st1" width="303.3" height="6.2"/>
		</g>
		<g>
			
				<rect x="41.4" y="298.2" transform="matrix(0.7071 -0.7071 0.7071 0.7071 -156.75 224.2357)" class="st1" width="301.7" height="6.2"/>
		</g>
		<g>
			
				<rect x="-17.6" y="266.9" transform="matrix(0.7071 -0.7071 0.7071 0.7071 -151.661 173.8727)" class="st1" width="303.3" height="6.2"/>
		</g>
	</g>
	<g>
		<g>
			
				<ellipse transform="matrix(0.5938 -0.8046 0.8046 0.5938 -438.791 284.9972)" class="st1" cx="62.9" cy="577.1" rx="35.2" ry="35.2"/>
			<path class="st1" d="M95,594c-9.3,17.7-31.4,24.7-49.1,15.2c-17.7-9.3-24.7-31.4-15.2-49.1c9.3-17.7,31.4-24.7,49.1-15.2
				C97.6,554.2,104.3,576.3,95,594z M93,593c8.7-16.7,2.3-37.3-14.1-46c-16.7-8.7-37.3-2.3-46,14.1c-8.7,16.7-2.3,37.3,14.1,46
				C63.4,615.9,84,609.5,93,593z"/>
		</g>
		<g>
			
				<ellipse transform="matrix(0.7071 -0.7071 0.7071 0.7071 -284.3605 321.7468)" class="st1" cx="246.2" cy="504.1" rx="25.2" ry="25.2"/>
			<path class="st1" d="M269.5,516.4c-6.7,12.9-22.9,18-35.7,11.1c-12.9-6.7-18-22.9-11.1-35.7c6.7-12.9,22.9-18,35.7-11.1
				C271.3,487.6,276.2,503.6,269.5,516.4z M267.5,515.4c6.2-11.8,1.8-26.5-10-32.6c-11.8-6.2-26.5-1.8-32.6,10
				c-6.2,11.8-1.8,26.5,10,32.6S261.3,527.2,267.5,515.4z"/>
		</g>
	</g>
</g>
<g>
	<path class="st1" d="M853.2,412.8l-6.6,11.4l19.6,11.3l-8.7,15l-19.6-11.3l-15.6,27.1L804.4,456l39.7-68.8l39.5,22.8l-8.7,15
		l-21.7-12.5L853.2,412.8z"/>
	<path class="st1" d="M908.4,429.7c-2.9,5-9.5,6.8-14.5,3.9c-5-2.9-6.8-9.5-3.9-14.5s9.5-6.8,14.5-3.9
		C909.5,418,911.3,424.7,908.4,429.7z M870,493.9l-16.6-9.6l27-46.7l16.6,9.6L870,493.9z"/>
	<path class="st1" d="M897.5,509.7l-16.6-9.6l43.8-75.8l16.6,9.6L897.5,509.7z"/>
	<path class="st1" d="M968.3,523.1L933.4,503c-3.9,6.8-2.4,12.5,4.4,16.4c3.6,2.1,6.7,2.3,10.5,0.4l16,9.3
		c-4.3,4.7-10.1,6.8-15.8,6.9c-5.7,0.2-11.9-1.5-17.4-4.7c-15.4-8.9-22-24.4-12.7-40.5c9-15.6,25.1-18.9,40.3-10.1
		c16.2,9.4,19.9,24.8,10.6,40.9l-0.9,1.6L968.3,523.1z M958.4,504.6c1.7-4.9-0.7-10.3-5.1-12.9c-4.8-2.8-10.3-2.5-14.1,1.7
		L958.4,504.6z"/>
	<path class="st1" d="M1031.6,519c-1.6-4.7-4.8-8.9-9.2-11.4c-3.2-1.9-8.8-2.4-11,1.4c-2.3,4,1.6,8.4,4.2,11.2l3.8,4.1
		c8,8.4,12.6,17.5,6.2,28.7c-3.9,6.8-9.6,12.9-17.7,14.4c-8.1,1.5-16.3-0.9-23.2-4.8c-8.6-5-15.3-12.8-19.5-21.7l16-10
		c2.1,6.6,5.8,12.7,11.8,16.2c4.2,2.4,9.8,3,12.7-2s-3.1-10.9-6.3-14.1c-9.4-9.7-15.2-16.8-7.4-30.2c8.1-14,23.3-17.3,37-9.4
		c7,4.1,14.2,11.1,18.2,18L1031.6,519z"/>
	<path class="st1" d="M1080.6,514.4l-20.1,34.9l0.2,0.1c6.7-2.8,12.7-2.6,19.3,1.3c11.8,6.8,13.1,18,6.3,29.8l-16.6,28.7l-16.6-9.6
		l13.9-24.1c3.1-5.4,5.6-11.5-1.1-15.3c-6.6-3.8-11.9,0.6-15,6l-13.9,24.1l-16.6-9.6l43.8-75.8L1080.6,514.4z"/>
	<path class="st1" d="M1131.4,644.8l-16.6-9.6l3-5.2l-0.2-0.1c-5.7,2.9-12.6,1.8-18-1.3c-13.8-8-16.9-25.3-9.2-38.7
		s24-19.3,37.8-11.3c5.4,3.1,9.9,8.4,11,14.3l2.7-4.6l16.6,9.6L1131.4,644.8L1131.4,644.8z M1107.7,599.8c-3.5,6-2,12.7,4.6,16.6
		c6.8,3.9,13.3,1.5,16.6-4.3s2.1-12.9-4.5-16.8C1117.7,591.7,1110.9,594.2,1107.7,599.8z"/>
	<path class="st1" d="M1181.7,621.7L1181.7,621.7c6.8-3.8,13.6-3.1,20,0.6l3.2,1.9l-9.3,16c-1.5-2.5-3.5-4.2-6.1-5.7
		c-9.2-5.3-14.9-0.6-19.5,7.4l-10.9,18.8l-16.6-9.6l27-46.7l16.6,9.6L1181.7,621.7L1181.7,621.7z"/>
	<path class="st1" d="M1243.8,682.1l-34.9-20.1c-3.9,6.8-2.4,12.5,4.4,16.4c3.6,2.1,6.7,2.3,10.5,0.4l16,9.3
		c-4.3,4.7-10.1,6.8-15.8,6.9c-5.7,0.2-11.9-1.5-17.4-4.7c-15.4-8.9-22-24.4-12.7-40.5c9-15.6,25.1-18.9,40.3-10.1
		c16.2,9.4,19.9,24.8,10.6,40.9l-0.9,1.6L1243.8,682.1z M1233.9,663.6c1.7-4.9-0.7-10.3-5.1-12.9c-4.8-2.8-10.3-2.5-14.1,1.7
		L1233.9,663.6z"/>
</g>
</svg>
