<?xml version="1.0" encoding="utf-8"?>
<!-- Generator: Adobe Illustrator 25.0.1, SVG Export Plug-In . SVG Version: 6.00 Build 0)  -->
<svg version="1.1" id="Calque_1" xmlns="http://www.w3.org/2000/svg" xmlns:xlink="http://www.w3.org/1999/xlink" x="0px" y="0px"
	 viewBox="0 0 1600 220" style="enable-background:new 0 0 1600 220;" xml:space="preserve">
<style type="text/css">
	.st0{fill:#0D6EFD;}
	.st1{fill:#FFFFFF;}
	.st2{fill:#212529;}
</style>
<rect class="st0" width="1600" height="220"/>
<g>
	<path class="st1" d="M702.4,85.5v5.7h9.8v7.5h-9.8v13.5h-8.9V77.9h19.7v7.5H702.4z"/>
	<path class="st1" d="M726.7,79.9c0,2.5-2.1,4.6-4.6,4.6c-2.5,0-4.6-2.1-4.6-4.6c0-2.5,2.1-4.6,4.6-4.6
		C724.6,75.3,726.7,77.4,726.7,79.9z M726.2,112.2h-8.3V88.9h8.3V112.2z"/>
	<path class="st1" d="M739.9,112.2h-8.3V74.4h8.3V112.2z"/>
	<path class="st1" d="M769.3,101.9h-17.4c0,3.4,1.8,5.2,5.2,5.2c1.8,0,3-0.6,4-2.1h8c-0.6,2.7-2.3,4.7-4.4,6c-2.1,1.3-4.8,2-7.5,2
		c-7.7,0-13.5-4.4-13.5-12.4c0-7.8,5.3-12.5,12.9-12.5c8.1,0,12.8,5,12.8,13V101.9z M761.6,97.1c-0.4-2.2-2.5-3.7-4.7-3.7
		c-2.4,0-4.4,1.3-4.9,3.7H761.6z"/>
	<path class="st1" d="M792.1,86.7c-1.6-1.4-3.7-2.3-5.9-2.3c-1.6,0-3.8,1-3.8,2.9c0,2,2.4,2.8,4,3.3l2.3,0.7
		c4.8,1.4,8.5,3.8,8.5,9.4c0,3.4-0.8,6.9-3.5,9.2c-2.7,2.3-6.3,3.2-9.7,3.2c-4.3,0-8.5-1.5-12-3.9l3.8-7.2c2.2,2,4.9,3.5,7.9,3.5
		c2.1,0,4.3-1,4.3-3.5c0-2.5-3.5-3.4-5.4-3.9c-5.6-1.6-9.3-3-9.3-9.7c0-7,5-11.5,11.8-11.5c3.5,0,7.7,1.1,10.7,2.8L792.1,86.7z"/>
	<path class="st1" d="M809.4,74.4v17.4h0.1c1.9-2.5,4.2-3.7,7.5-3.7c5.9,0,8.8,3.9,8.8,9.8v14.3h-8.3v-12c0-2.7-0.4-5.5-3.7-5.5
		c-3.3,0-4.3,2.8-4.3,5.5v12h-8.3V74.4H809.4z"/>
	<path class="st1" d="M856.6,112.2h-8.3v-2.6h-0.1c-1.5,2.3-4.3,3.4-7,3.4c-6.9,0-11.8-5.8-11.8-12.5c0-6.7,4.8-12.4,11.7-12.4
		c2.7,0,5.5,1,7.2,3v-2.3h8.3V112.2z M838,100.5c0,3,2,5.2,5.3,5.2c3.4,0,5.3-2.3,5.3-5.2c0-2.9-2-5.3-5.3-5.3
		C840,95.3,838,97.7,838,100.5z"/>
	<path class="st1" d="M870.4,92.7L870.4,92.7c1.7-2.9,4.4-4.1,7.6-4.1h1.6v8c-1.1-0.6-2.2-0.8-3.5-0.8c-4.6,0-5.7,3-5.7,7v9.4h-8.3
		V88.9h8.3V92.7z"/>
	<path class="st1" d="M906.7,101.9h-17.4c0,3.4,1.8,5.2,5.2,5.2c1.8,0,3-0.6,4-2.1h8c-0.6,2.7-2.3,4.7-4.4,6c-2.1,1.3-4.8,2-7.5,2
		c-7.7,0-13.5-4.4-13.5-12.4c0-7.8,5.3-12.5,12.9-12.5c8.1,0,12.8,5,12.8,13V101.9z M899,97.1c-0.4-2.2-2.5-3.7-4.7-3.7
		c-2.4,0-4.4,1.3-4.9,3.7H899z"/>
	<path class="st1" d="M552.5,137.5h5.2l-0.3,2H550l2.7-17.1h2.1L552.5,137.5z"/>
	<path class="st1" d="M568.5,139.5h-2l0.3-1.7h0c-1,1.2-2.4,2-4,2c-3.3,0-4.7-2.7-4.2-5.8c0.5-2.9,2.8-5.6,5.9-5.6
		c1.6,0,2.7,0.8,3.4,2.1h0l0.3-1.8h2L568.5,139.5z M567.4,134.1c0.3-2.1-0.6-3.8-2.8-3.8c-2.1,0-3.7,1.8-4,3.8
		c-0.3,2,0.6,3.9,2.8,3.9C565.6,138,567.1,136.2,567.4,134.1z"/>
	<path class="st1" d="M581,130.6L581,130.6c1.1-1.3,2.5-2.1,4.1-2.1c3.1,0,4.6,2.7,4.1,5.6c-0.5,3-2.8,5.8-6,5.8
		c-1.5,0-2.7-0.8-3.3-2h0l-1.2,7.8h-2l2.6-16.7h2L581,130.6z M587.2,134.1c0.3-2.1-0.6-3.8-2.8-3.8c-2.1,0-3.7,1.8-4,3.8
		c-0.3,2,0.6,3.9,2.8,3.9C585.3,138,586.8,136.2,587.2,134.1z"/>
	<path class="st1" d="M592.5,139.5h-2l3.1-19.7h2L592.5,139.5z"/>
	<path class="st1" d="M605.4,139.5h-2l0.3-1.7h0c-1,1.2-2.4,2-4,2c-3.3,0-4.7-2.7-4.2-5.8c0.5-2.9,2.8-5.6,5.9-5.6
		c1.6,0,2.7,0.8,3.4,2.1h0l0.3-1.8h2L605.4,139.5z M604.3,134.1c0.3-2.1-0.6-3.8-2.8-3.8c-2.1,0-3.7,1.8-4,3.8
		c-0.3,2,0.6,3.9,2.8,3.9C602.5,138,604,136.2,604.3,134.1z"/>
	<path class="st1" d="M610.4,139.5h-2l1.4-8.7h-1.1l0.3-1.9h1.1l0.6-4.1h2l-0.6,4.1h2l-0.3,1.9h-2L610.4,139.5z"/>
	<path class="st1" d="M615.5,134.5c-0.3,1.8,0.7,3.5,2.6,3.5c1.6,0,2.5-0.8,3.5-2.1l1.6,1c-1.3,1.8-3.3,2.9-5.4,2.9
		c-3.3,0-4.8-2.5-4.3-5.6c0.5-3.3,2.7-5.7,6.1-5.7c3.4,0,4.6,2.5,4.1,5.7l0,0.3H615.5z M621.8,132.9c0-1.6-0.9-2.7-2.5-2.7
		c-1.6,0-3,1.1-3.5,2.7H621.8z"/>
	<path class="st1" d="M632.7,121.8c-0.4-0.2-0.9-0.4-1.3-0.4c-1.5,0-1.8,1.8-1.9,2.9l-0.7,4.6h2.8l-0.3,1.9h-2.8l-1.4,8.7h-2
		l1.4-8.7h-0.9l0.3-1.9h0.9l0.8-5.2c0.4-2.3,1.5-4.2,4.1-4.2c0.5,0,1,0.1,1.4,0.3L632.7,121.8z"/>
	<path class="st1" d="M642.1,134.2c-0.5,3.2-3.4,5.7-6.6,5.7c-3.2,0-5.3-2.5-4.8-5.7c0.5-3.2,3.4-5.7,6.6-5.7
		C640.5,128.5,642.6,131,642.1,134.2z M632.8,134.2c-0.3,2,1,3.7,3,3.7c2,0,3.9-1.7,4.2-3.7c0.3-2-1-3.7-3-3.7
		C635,130.5,633.1,132.1,632.8,134.2z"/>
	<path class="st1" d="M646.7,130.5L646.7,130.5c0.8-1.3,1.9-2,3.3-2c0.6,0,1.2,0.2,1.6,0.5l-1.2,1.9c-0.3-0.3-0.7-0.4-1.2-0.4
		c-2.2,0-2.8,2-3.1,3.8l-0.8,5.2h-2l1.7-10.6h2L646.7,130.5z"/>
	<path class="st1" d="M654.7,130.2L654.7,130.2c0.8-0.9,2-1.7,3.1-1.7c1.4,0,2.3,0.7,2.8,1.9c0.8-1.1,2.2-1.9,3.6-1.9
		c2.8,0,3.2,2.2,2.8,4.6l-1,6.4h-2l1-6c0.2-1.4,0.3-3.1-1.5-3.1c-2.2,0-2.7,2.3-3,3.9l-0.8,5.2h-2l0.9-5.6c0.2-1.4,0.5-3.5-1.4-3.5
		c-2.2,0-2.7,2.3-3,3.9l-0.8,5.2h-2l1.7-10.6h2L654.7,130.2z"/>
	<path class="st1" d="M670.7,134.5c-0.3,1.8,0.7,3.5,2.6,3.5c1.6,0,2.5-0.8,3.5-2.1l1.6,1c-1.3,1.8-3.3,2.9-5.4,2.9
		c-3.3,0-4.8-2.5-4.3-5.6c0.5-3.3,2.7-5.7,6.1-5.7c3.4,0,4.6,2.5,4.1,5.7l0,0.3H670.7z M677,132.9c0-1.6-0.9-2.7-2.5-2.7
		c-1.6,0-3,1.1-3.5,2.7H677z"/>
	<path class="st1" d="M694.6,137.8L694.6,137.8c-1.1,1.2-2.5,2-4,2c-3.3,0-4.7-2.7-4.2-5.8c0.5-2.9,2.8-5.6,5.9-5.6
		c1.6,0,2.8,0.8,3.4,2.1h0l1.7-10.9h2l-3.1,19.7h-2L694.6,137.8z M695.3,134.1c0.3-2.1-0.6-3.8-2.8-3.8c-2.1,0-3.7,1.8-4,3.8
		c-0.3,2,0.6,3.9,2.8,3.9C693.4,138,694.9,136.2,695.3,134.1z"/>
	<path class="st1" d="M701,134.5c-0.3,1.8,0.7,3.5,2.6,3.5c1.6,0,2.5-0.8,3.5-2.1l1.6,1c-1.3,1.8-3.3,2.9-5.4,2.9
		c-3.3,0-4.8-2.5-4.3-5.6c0.5-3.3,2.7-5.7,6.1-5.7c3.4,0,4.6,2.5,4.1,5.7l0,0.3H701z M707.3,132.9c0-1.6-0.9-2.7-2.5-2.7
		c-1.6,0-3,1.1-3.5,2.7H707.3z"/>
	<path class="st1" d="M720,130.6L720,130.6c1.1-1.3,2.5-2.1,4.1-2.1c3.1,0,4.6,2.7,4.1,5.6c-0.5,3-2.8,5.8-6,5.8
		c-1.5,0-2.7-0.8-3.3-2h0l-1.2,7.8h-2l2.6-16.7h2L720,130.6z M726.1,134.1c0.3-2.1-0.6-3.8-2.8-3.8c-2.1,0-3.7,1.8-4,3.8
		c-0.3,2,0.6,3.9,2.8,3.9C724.3,138,725.8,136.2,726.1,134.1z"/>
	<path class="st1" d="M739.3,139.5h-2l0.3-1.7h0c-1,1.2-2.4,2-4,2c-3.3,0-4.7-2.7-4.2-5.8c0.5-2.9,2.8-5.6,5.9-5.6
		c1.6,0,2.7,0.8,3.4,2.1h0l0.3-1.8h2L739.3,139.5z M738.2,134.1c0.3-2.1-0.6-3.8-2.8-3.8c-2.1,0-3.7,1.8-4,3.8
		c-0.3,2,0.6,3.9,2.8,3.9C736.4,138,737.9,136.2,738.2,134.1z"/>
	<path class="st1" d="M745.5,130.5L745.5,130.5c0.8-1.3,1.9-2,3.3-2c0.6,0,1.2,0.2,1.6,0.5l-1.2,1.9c-0.3-0.3-0.7-0.4-1.2-0.4
		c-2.2,0-2.8,2-3.1,3.8l-0.8,5.2h-2l1.7-10.6h2L745.5,130.5z"/>
	<path class="st1" d="M752.7,139.5h-2l1.4-8.7H751l0.3-1.9h1.1l0.6-4.1h2l-0.6,4.1h2l-0.3,1.9h-2L752.7,139.5z"/>
	<path class="st1" d="M765.8,139.5h-2l0.3-1.7h0c-1,1.2-2.4,2-4,2c-3.3,0-4.7-2.7-4.2-5.8c0.5-2.9,2.8-5.6,5.9-5.6
		c1.6,0,2.7,0.8,3.4,2.1h0l0.3-1.8h2L765.8,139.5z M764.7,134.1c0.3-2.1-0.6-3.8-2.8-3.8c-2.1,0-3.7,1.8-4,3.8
		c-0.3,2,0.6,3.9,2.8,3.9C762.9,138,764.4,136.2,764.7,134.1z"/>
	<path class="st1" d="M778.5,139.3c-0.6,3.7-2,6.3-6.2,6.3c-3,0-4.8-1.8-4.4-4.8h2c-0.3,1.9,0.8,3,2.7,3c2.5,0,3.3-1.7,3.7-3.9
		l0.3-2h0c-1,1.2-2.5,2-4,2c-3.3,0-4.7-2.7-4.2-5.8c0.5-2.9,2.8-5.6,5.9-5.6c1.6,0,2.8,0.8,3.4,2.1h0l0.3-1.8h2L778.5,139.3z
		 M777.3,134.1c0.3-2.1-0.6-3.8-2.8-3.8c-2.1,0-3.7,1.8-4,3.8c-0.3,2,0.6,3.9,2.8,3.9C775.5,138,777,136.2,777.3,134.1z"/>
	<path class="st1" d="M783.1,134.5c-0.3,1.8,0.7,3.5,2.6,3.5c1.6,0,2.5-0.8,3.5-2.1l1.6,1c-1.3,1.8-3.3,2.9-5.4,2.9
		c-3.3,0-4.8-2.5-4.3-5.6c0.5-3.3,2.7-5.7,6.1-5.7c3.4,0,4.6,2.5,4.1,5.7l0,0.3H783.1z M789.4,132.9c0-1.6-0.9-2.7-2.5-2.7
		c-1.6,0-3,1.1-3.5,2.7H789.4z"/>
	<path class="st1" d="M807,137.8L807,137.8c-1.1,1.2-2.5,2-4,2c-3.3,0-4.7-2.7-4.2-5.8c0.5-2.9,2.8-5.6,5.9-5.6
		c1.6,0,2.8,0.8,3.4,2.1h0l1.7-10.9h2l-3.1,19.7h-2L807,137.8z M807.6,134.1c0.3-2.1-0.6-3.8-2.8-3.8c-2.1,0-3.7,1.8-4,3.8
		c-0.3,2,0.6,3.9,2.8,3.9C805.8,138,807.3,136.2,807.6,134.1z"/>
	<path class="st1" d="M813.4,134.5c-0.3,1.8,0.7,3.5,2.6,3.5c1.6,0,2.5-0.8,3.5-2.1l1.6,1c-1.3,1.8-3.3,2.9-5.4,2.9
		c-3.3,0-4.8-2.5-4.3-5.6c0.5-3.3,2.7-5.7,6.1-5.7c3.4,0,4.6,2.5,4.1,5.7l0,0.3H813.4z M819.7,132.9c0-1.6-0.9-2.7-2.5-2.7
		c-1.6,0-3,1.1-3.5,2.7H819.7z"/>
	<path class="st1" d="M837.1,121.8c-0.4-0.2-0.9-0.4-1.3-0.4c-1.5,0-1.8,1.8-1.9,2.9l-0.7,4.6h2.8l-0.3,1.9h-2.8l-1.4,8.7h-2
		l1.4-8.7h-0.9l0.3-1.9h0.9l0.8-5.2c0.4-2.3,1.5-4.2,4.1-4.2c0.5,0,1,0.1,1.4,0.3L837.1,121.8z M837.4,139.5h-2l1.7-10.6h2
		L837.4,139.5z M840.3,124c-0.1,0.8-0.9,1.4-1.6,1.4s-1.3-0.6-1.2-1.4c0.1-0.8,0.9-1.4,1.6-1.4S840.4,123.2,840.3,124z"/>
	<path class="st1" d="M849.7,131.8c-0.7-0.9-1.6-1.4-2.8-1.4c-2,0-3.8,1.8-4.1,3.7c-0.3,2.2,0.9,3.8,3.1,3.8c1.2,0,2.2-0.5,3.1-1.4
		l-0.4,2.6c-1,0.5-2,0.7-3,0.7c-3.1,0-5.3-2.4-4.8-5.6c0.5-3.3,3.5-5.7,6.7-5.7c1,0,2,0.2,2.7,0.7L849.7,131.8z"/>
	<path class="st1" d="M855.9,119.7l-1.7,10.5h0c0.8-1.1,2.2-1.8,3.5-1.8c3,0,3.5,2,3,4.6l-1,6.3h-2l1-6.1c0.3-1.8,0.2-3-1.8-3
		c-2.6,0-3,2.3-3.3,4.3l-0.8,4.9h-2l3.1-19.7H855.9z"/>
	<path class="st1" d="M865.1,139.5h-2l1.7-10.6h2L865.1,139.5z M867.9,124c-0.1,0.8-0.9,1.4-1.6,1.4c-0.8,0-1.3-0.6-1.2-1.4
		c0.1-0.8,0.9-1.4,1.6-1.4C867.5,122.5,868.1,123.2,867.9,124z"/>
	<path class="st1" d="M870.4,134.5c-0.3,1.8,0.7,3.5,2.6,3.5c1.6,0,2.5-0.8,3.5-2.1l1.6,1c-1.3,1.8-3.3,2.9-5.4,2.9
		c-3.3,0-4.8-2.5-4.3-5.6c0.5-3.3,2.7-5.7,6.1-5.7c3.4,0,4.6,2.5,4.1,5.7l0,0.3H870.4z M876.7,132.9c0-1.6-0.9-2.7-2.5-2.7
		c-1.6,0-3,1.1-3.5,2.7H876.7z"/>
	<path class="st1" d="M883.1,130.5L883.1,130.5c0.8-1.3,1.9-2,3.3-2c0.6,0,1.2,0.2,1.6,0.5l-1.2,1.9c-0.3-0.3-0.7-0.4-1.2-0.4
		c-2.2,0-2.8,2-3.1,3.8l-0.8,5.2h-2l1.7-10.6h2L883.1,130.5z"/>
	<path class="st1" d="M893,131.3c-0.2-0.5-0.6-0.9-1.2-0.9c-0.6,0-1.2,0.5-1.3,1c-0.1,0.9,1,1.3,2.2,1.9c1.2,0.6,2.3,1.3,2,3
		c-0.3,2-2.3,3.5-4.2,3.5c-1.5,0-3-0.9-3.3-2.4l1.9-0.8c0.3,0.8,0.7,1.4,1.7,1.4c0.9,0,1.7-0.6,1.9-1.5c0.1-0.6-0.2-0.8-0.6-1.2
		l-1.8-1.1c-1.1-0.6-1.8-1.2-1.6-2.7c0.3-1.7,1.9-3.1,3.6-3.1c1.3,0,2.2,0.7,2.6,1.9L893,131.3z"/>
	<path class="st1" d="M906.5,124.3l1.5-2h3.8l-2.7,17.1h-2l2.4-15.2H906.5z"/>
	<path class="st1" d="M916.4,130.9c0.5-3.5,3-8.9,7.4-8.9c4.4,0,5.1,5.4,4.6,8.9c-0.6,3.5-3,8.9-7.4,8.9S915.9,134.4,916.4,130.9z
		 M918.5,130.9c-0.4,2.4-0.2,7,2.8,7c3.1,0,4.7-4.7,5-7c0.4-2.4,0.2-7.1-2.8-7.1C920.4,123.8,918.8,128.5,918.5,130.9z"/>
	<path class="st1" d="M929.6,130.9c0.5-3.5,3-8.9,7.4-8.9c4.4,0,5.1,5.4,4.6,8.9c-0.6,3.5-3,8.9-7.4,8.9
		C929.7,139.8,929,134.4,929.6,130.9z M931.6,130.9c-0.4,2.4-0.2,7,2.8,7c3.1,0,4.7-4.7,5-7c0.4-2.4,0.2-7.1-2.8-7.1
		C933.6,123.8,932,128.5,931.6,130.9z"/>
	<path class="st1" d="M951.3,125.9c-0.3,2.2-2.5,3.9-4.6,3.9c-2.1,0-3.7-1.7-3.4-3.9c0.3-2.2,2.5-3.9,4.6-3.9
		C950.1,122,951.6,123.7,951.3,125.9z M957,122.5l-12.8,17.3l-1-0.6l12.8-17.3L957,122.5z M944.6,125.9c-0.2,1.4,0.8,2.5,2.2,2.5
		c1.4,0,2.8-1.1,3-2.5c0.2-1.4-0.8-2.5-2.3-2.5C946.3,123.3,944.9,124.5,944.6,125.9z M957,135.9c-0.3,2.2-2.5,3.9-4.6,3.9
		c-2.1,0-3.7-1.7-3.4-3.9c0.3-2.2,2.5-3.9,4.6-3.9C955.8,132,957.4,133.8,957,135.9z M950.4,135.9c-0.2,1.4,0.8,2.5,2.2,2.5
		c1.4,0,2.8-1.1,3-2.5c0.2-1.4-0.8-2.5-2.3-2.5C952,133.4,950.6,134.5,950.4,135.9z"/>
	<path class="st1" d="M974.8,139.3c-0.6,3.7-2,6.3-6.2,6.3c-3,0-4.8-1.8-4.4-4.8h2c-0.3,1.9,0.8,3,2.7,3c2.5,0,3.3-1.7,3.7-3.9
		l0.3-2h0c-1,1.2-2.5,2-4,2c-3.3,0-4.7-2.7-4.2-5.8c0.5-2.9,2.8-5.6,5.9-5.6c1.6,0,2.8,0.8,3.4,2.1h0l0.3-1.8h2L974.8,139.3z
		 M973.7,134.1c0.3-2.1-0.6-3.8-2.8-3.8c-2.1,0-3.7,1.8-4,3.8c-0.3,2,0.6,3.9,2.8,3.9C971.8,138,973.3,136.2,973.7,134.1z"/>
	<path class="st1" d="M981,130.5L981,130.5c0.8-1.3,1.9-2,3.3-2c0.6,0,1.2,0.2,1.6,0.5l-1.2,1.9c-0.3-0.3-0.7-0.4-1.2-0.4
		c-2.2,0-2.8,2-3.1,3.8l-0.8,5.2h-2l1.7-10.6h2L981,130.5z"/>
	<path class="st1" d="M995.4,139.5h-2l0.3-1.7h0c-1,1.2-2.4,2-4,2c-3.3,0-4.7-2.7-4.2-5.8c0.5-2.9,2.8-5.6,5.9-5.6
		c1.6,0,2.7,0.8,3.4,2.1h0l0.3-1.8h2L995.4,139.5z M994.3,134.1c0.3-2.1-0.6-3.8-2.8-3.8c-2.1,0-3.7,1.8-4,3.8
		c-0.3,2,0.6,3.9,2.8,3.9C992.5,138,994,136.2,994.3,134.1z"/>
	<path class="st1" d="M1000.4,139.5h-2l1.4-8.7h-1.1l0.3-1.9h1.1l0.6-4.1h2l-0.6,4.1h2l-0.3,1.9h-2L1000.4,139.5z"/>
	<path class="st1" d="M1007.1,128.8l-0.9,5.9c-0.3,1.7-0.1,3.2,2,3.2c2,0,2.7-1.5,3-3.2l0.9-5.9h2l-1,6.1c-0.5,2.9-2.2,4.9-5.3,4.9
		c-3.1,0-4.2-2-3.7-4.9l1-6.1H1007.1z"/>
	<path class="st1" d="M1017.6,139.5h-2l1.7-10.6h2L1017.6,139.5z M1020.5,124c-0.1,0.8-0.9,1.4-1.6,1.4s-1.3-0.6-1.2-1.4
		c0.1-0.8,0.9-1.4,1.6-1.4S1020.6,123.2,1020.5,124z"/>
	<path class="st1" d="M1023.2,139.5h-2l1.4-8.7h-1.1l0.3-1.9h1.1l0.6-4.1h2l-0.6,4.1h2l-0.3,1.9h-2L1023.2,139.5z"/>
	<path class="st1" d="M1028.4,134.5c-0.3,1.8,0.7,3.5,2.6,3.5c1.6,0,2.5-0.8,3.5-2.1l1.6,1c-1.3,1.8-3.3,2.9-5.4,2.9
		c-3.3,0-4.8-2.5-4.3-5.6c0.5-3.3,2.7-5.7,6.1-5.7c3.4,0,4.6,2.5,4.1,5.7l0,0.3H1028.4z M1034.7,132.9c0-1.6-0.9-2.7-2.5-2.7
		c-1.6,0-3,1.1-3.5,2.7H1034.7z"/>
	<path class="st1" d="M1047.7,138.5c-0.1,0.7-0.8,1.3-1.5,1.3c-0.7,0-1.2-0.6-1.1-1.3c0.1-0.7,0.8-1.3,1.5-1.3
		C1047.4,137.2,1047.9,137.8,1047.7,138.5z M1048,122.3h2l-2.1,13.2h-2L1048,122.3z"/>
</g>
<g>
	<g>
		<g>
			<path class="st1" d="M355,65.5c-15.5,15.5-16.2,39.9-1.6,54.5c14.6,14.6,39,13.9,54.5-1.6L355,65.5z"/>
		</g>
		<g>
			<g>
				<path class="st1" d="M190.1-2.5l-356.5,206.2l117.6,68.4l3.7-2.1c1.1-100.7,78.4-182,173.7-182c34.1,0,65.9,10.4,92.7,28.4
					l86.8-50L190.1-2.5z"/>
				<path class="st1" d="M309.3,66.4l-88,50.7L221,117c-27.6-18.5-59.5-28.3-92.3-28.3c-45.9,0-89.1,18.8-121.8,53
					c-32.6,34.2-50.9,79.8-51.4,128.3l0,0.3l-4.3,2.5l-118.8-69.1l0.9-0.5L190.1-3.2L309.3,66.4z M221.3,115.7l85.6-49.3L190.1-1.8
					l-355.3,205.5l116.4,67.7l3.1-1.8c0.6-48.7,19-94.5,51.7-128.8c32.9-34.4,76.4-53.4,122.6-53.4
					C161.5,87.5,193.6,97.3,221.3,115.7z"/>
			</g>
			<g>
				<path class="st1" d="M303,272.2v0.6H-45.8v-0.6c0-0.5,0-0.9,0-1.4l0-1.1l0.3-0.2l266.8-153.8l0.3,0.2
					C272.6,150,303,208.4,303,272.2z M-44.6,271.6h346.3c-0.2-63-30.3-120.6-80.5-154.4L-44.5,270.4l0,0.4
					C-44.5,271.1-44.5,271.3-44.6,271.6z"/>
			</g>
			<g>
				<path class="st2" d="M-45.1,270.1l266.4-153.6c-26.8-18-58.6-28.4-92.7-28.4C33.3,88.1-44.1,169.4-45.1,270.1z"/>
				<path class="st2" d="M222.4,116.5l-0.8,0.5L-45.7,271.1l0-1.1c0.5-48.9,18.9-94.7,51.7-129.1c32.9-34.4,76.4-53.4,122.6-53.4
					c33,0,65.2,9.8,93,28.5L222.4,116.5z M-44.5,269l264.7-152.6c-27.4-18.1-59.1-27.7-91.5-27.7c-45.9,0-89.1,18.8-121.8,53
					C-25.5,175.7-43.7,220.8-44.5,269z"/>
			</g>
		</g>
		<g>
			<path class="st1" d="M500.8-45.8v323.6L220.5,116L500.8-45.8z M498.3,273.6V-41.6L225.3,116L498.3,273.6z"/>
		</g>
		<g>
			<g>
				<polygon class="st1" points="456.4,-18.8 499.5,6.1 499.5,-43.7 				"/>
			</g>
		</g>
		<g>
			<g>
				
					<rect x="156.6" y="178.8" transform="matrix(0.8653 -0.5012 0.5012 0.8653 -44.3789 194.8902)" class="st1" width="367.7" height="2.4"/>
			</g>
		</g>
		<g>
			
				<rect x="379.6" y="32.1" transform="matrix(0.7071 -0.7071 0.7071 0.7071 47.1355 295.9374)" class="st1" width="2.4" height="118"/>
		</g>
		<g>
			
				<rect x="401.8" y="18.9" transform="matrix(0.7071 -0.7071 0.7071 0.7071 63.213 307.7002)" class="st1" width="2.4" height="117.4"/>
		</g>
		<g>
			
				<rect x="424.5" y="6.4" transform="matrix(0.7071 -0.7071 0.7071 0.7071 78.4522 320.1902)" class="st1" width="2.4" height="118"/>
		</g>
	</g>
	<g>
		<g>
			
				<ellipse transform="matrix(0.8046 -0.5938 0.5938 0.8046 -21.1954 305.3602)" class="st1" cx="453.4" cy="184.9" rx="13.7" ry="13.7"/>
			<path class="st1" d="M446.8,172.4c6.9-3.7,15.5-1,19.1,5.9c3.7,6.9,1,15.5-5.9,19.1c-6.9,3.7-15.5,1-19.1-5.9
				C437.3,184.6,439.9,176,446.8,172.4z M459.6,196.6c6.4-3.4,8.9-11.4,5.5-17.9c-3.4-6.4-11.4-8.9-17.9-5.5
				c-6.4,3.4-8.9,11.4-5.5,17.9C445.2,197.5,453.2,200,459.6,196.6z"/>
		</g>
		<g>
			
				<ellipse transform="matrix(0.7071 -0.7071 0.7071 0.7071 1.2292 316.0358)" class="st1" cx="382.1" cy="156.5" rx="9.8" ry="9.8"/>
			<path class="st1" d="M377.3,147.4c5-2.7,11.3-0.7,13.9,4.3c2.7,5,0.7,11.3-4.3,13.9c-5,2.7-11.3,0.7-13.9-4.3
				C370.4,156.3,372.3,150.1,377.3,147.4z M386.5,164.8c4.6-2.4,6.3-8.1,3.9-12.7c-2.4-4.6-8.1-6.3-12.7-3.9
				c-4.6,2.4-6.3,8.1-3.9,12.7C376.2,165.5,381.9,167.2,386.5,164.8z"/>
		</g>
	</g>
</g>
<g>
	<g>
		<g>
			<path class="st1" d="M1245.8,65.5c15.5,15.5,16.2,39.9,1.6,54.5c-14.6,14.6-39,13.9-54.5-1.6L1245.8,65.5z"/>
		</g>
		<g>
			<g>
				<path class="st1" d="M1410.7-2.5l356.5,206.2l-117.6,68.4l-3.7-2.1c-1.1-100.7-78.4-182-173.7-182c-34.1,0-65.9,10.4-92.7,28.4
					l-86.8-50L1410.7-2.5z"/>
				<path class="st1" d="M1410.7-3.2l356.8,206.4l0.9,0.5l-118.8,69.1l-4.3-2.5l0-0.3c-0.5-48.6-18.8-94.1-51.4-128.3
					c-32.6-34.2-75.9-53-121.8-53c-32.8,0-64.7,9.8-92.3,28.3l-0.3,0.2l-88-50.7L1410.7-3.2z M1472.1,87.5
					c46.2,0,89.8,19,122.6,53.4c32.7,34.3,51.1,80.1,51.7,128.8l3.1,1.8l116.4-67.7L1410.7-1.8l-116.8,68.2l85.6,49.3
					C1407.2,97.3,1439.2,87.5,1472.1,87.5z"/>
			</g>
			<g>
				<path class="st1" d="M1379.1,115.9l0.3-0.2l266.8,153.8l0.3,0.2l0,1.1c0,0.5,0,0.9,0,1.4v0.6h-348.8v-0.6
					C1297.8,208.4,1328.2,150,1379.1,115.9z M1645.3,270.8l0-0.4l-265.8-153.2c-50.3,33.8-80.3,91.5-80.5,154.4h346.3
					C1645.3,271.3,1645.3,271.1,1645.3,270.8z"/>
			</g>
			<g>
				<path class="st2" d="M1645.9,270.1l-266.4-153.6c26.8-18,58.6-28.4,92.7-28.4C1567.4,88.1,1644.8,169.4,1645.9,270.1z"/>
				<path class="st2" d="M1379.1,115.9c27.8-18.6,60-28.5,93-28.5c46.2,0,89.8,19,122.6,53.4c32.8,34.4,51.2,80.3,51.7,129.1l0,1.1
					L1379.2,117l-0.8-0.5L1379.1,115.9z M1593.9,141.7c-32.6-34.2-75.9-53-121.8-53c-32.5,0-64.1,9.6-91.5,27.7L1645.3,269
					C1644.5,220.8,1626.3,175.7,1593.9,141.7z"/>
			</g>
		</g>
		<g>
			<path class="st1" d="M1380.2,116L1100,277.8V-45.8L1380.2,116z M1375.4,116l-273-157.6v315.2L1375.4,116z"/>
		</g>
		<g>
			<g>
				<polygon class="st1" points="1144.3,-18.8 1101.2,6.1 1101.2,-43.7 				"/>
			</g>
		</g>
		<g>
			<g>
				
					<rect x="1259.1" y="-3.8" transform="matrix(0.5012 -0.8653 0.8653 0.5012 472.8261 1180.3518)" class="st1" width="2.4" height="367.7"/>
			</g>
		</g>
		<g>
			
				<rect x="1161" y="89.9" transform="matrix(0.7071 -0.7071 0.7071 0.7071 292.9218 889.3181)" class="st1" width="118" height="2.4"/>
		</g>
		<g>
			
				<rect x="1139" y="76.3" transform="matrix(0.7071 -0.7071 0.7071 0.7071 295.9728 869.6321)" class="st1" width="117.4" height="2.4"/>
		</g>
		<g>
			
				<rect x="1116" y="64.2" transform="matrix(0.7071 -0.7071 0.7071 0.7071 297.9168 850.0245)" class="st1" width="118" height="2.4"/>
		</g>
	</g>
	<g>
		<g>
			
				<ellipse transform="matrix(0.5938 -0.8046 0.8046 0.5938 317.3062 998.2798)" class="st1" cx="1147.3" cy="184.9" rx="13.7" ry="13.7"/>
			<path class="st1" d="M1159.8,191.5c-3.7,6.9-12.2,9.5-19.1,5.9c-6.9-3.7-9.5-12.2-5.9-19.1c3.7-6.9,12.2-9.5,19.1-5.9
				C1160.8,176,1163.5,184.6,1159.8,191.5z M1159,191.1c3.4-6.4,1-14.5-5.5-17.9c-6.4-3.4-14.5-1-17.9,5.5c-3.4,6.4-1,14.5,5.5,17.9
				C1147.6,200,1155.6,197.5,1159,191.1z"/>
		</g>
		<g>
			
				<ellipse transform="matrix(0.7071 -0.7071 0.7071 0.7071 246.2495 907.567)" class="st1" cx="1218.7" cy="156.5" rx="9.8" ry="9.8"/>
			<path class="st1" d="M1227.7,161.4c-2.7,5-8.9,6.9-13.9,4.3c-5-2.7-6.9-8.9-4.3-13.9c2.7-5,8.9-6.9,13.9-4.3
				C1228.5,150.1,1230.4,156.3,1227.7,161.4z M1226.9,160.9c2.4-4.6,0.7-10.2-3.9-12.7c-4.6-2.4-10.2-0.7-12.7,3.9
				c-2.4,4.6-0.7,10.2,3.9,12.7C1218.8,167.2,1224.5,165.5,1226.9,160.9z"/>
		</g>
	</g>
</g>
</svg>
