<?xml version="1.0" encoding="utf-8"?>
<!-- Generator: Adobe Illustrator 25.0.1, SVG Export Plug-In . SVG Version: 6.00 Build 0)  -->
<svg version="1.1" id="Calque_1" xmlns="http://www.w3.org/2000/svg" xmlns:xlink="http://www.w3.org/1999/xlink" x="0px" y="0px"
	 viewBox="0 0 1600 100" style="enable-background:new 0 0 1600 100;" xml:space="preserve">
<style type="text/css">
	.st0{fill:#0D6EFD;}
	.st1{fill:#FFFFFF;}
	.st2{fill:#212529;}
	.st3{fill:#202326;}
</style>
<rect y="-0.6" class="st0" width="1600" height="101.2"/>
<g>
	<g>
		<g>
			<path class="st1" d="M1145.7-57.6c0-44,33.7-79.7,75.2-79.7c41.5,0,75.2,35.7,75.2,79.7H1145.7z"/>
		</g>
		<g>
			<g>
				<path class="st1" d="M1311.6,246.3L913.4,15.9l131.3-76.4l4.1,2.4c1.2,112.5,87.6,203.3,194.1,203.3
					c38.1,0,73.6-11.6,103.5-31.7l97,55.9L1311.6,246.3z"/>
				<path class="st1" d="M1311.6,246.9L913.2,16.4l-0.8-0.4l132.1-76.9l0.3-0.1l4.6,2.7l0,0.3c0.6,54.3,21,105.2,57.4,143.5
					c36.5,38.2,84.8,59.3,136.1,59.3c36.7,0,72.4-10.9,103.2-31.6l0.3-0.2l98,56.5L1311.6,246.9z M1243,145.7
					c-51.6,0-100.2-21.2-136.9-59.6c-36.6-38.3-57.1-89.4-57.7-143.9l-3.6-2.1L914.5,15.9l397.2,229.8l130.8-76.3l-95.9-55.3
					C1315.6,134.7,1279.8,145.7,1243,145.7z"/>
			</g>
			<g>
				<path class="st1" d="M1346.8,113.9l-0.3,0.2L1048.6-57.7l-0.3-0.1l0-1.2c0-0.5,0-1,0-1.5V-61h389.3v0.5
					C1437.6,10.7,1403.7,75.8,1346.8,113.9z M1049.4-59l0,0.6l297.1,171.3c56.3-37.8,89.9-102.4,90.1-172.8h-387.2
					C1049.4-59.6,1049.4-59.3,1049.4-59z"/>
			</g>
			<g>
				<path class="st2" d="M1048.9-58.1l297.6,171.6c-30,20.1-65.5,31.7-103.5,31.7C1136.5,145.2,1050.1,54.4,1048.9-58.1z"/>
				<path class="st2" d="M1346.8,113.9c-31,20.8-66.9,31.8-103.8,31.8c-51.6,0-100.2-21.2-136.9-59.6
					c-36.6-38.4-57.1-89.6-57.7-144.2l0-0.9l298.4,172l0.7,0.4L1346.8,113.9z M1106.8,85.3c36.5,38.2,84.8,59.3,136.1,59.3
					c36.4,0,71.8-10.8,102.6-31.1L1049.4-57.2C1050.2-3.2,1070.6,47.3,1106.8,85.3z"/>
			</g>
		</g>
		<g>
			<polygon class="st1" points="1601.7,260.1 1655.8,228.8 1655.8,291.4 			"/>
		</g>
		<g>
			
				<rect x="1478.6" y="-162.9" transform="matrix(0.5012 -0.8653 0.8653 0.5012 701.2375 1301.5084)" class="st1" width="2" height="410.8"/>
		</g>
		<g>
			<g>
				<polygon class="st1" points="855,152 987.7,75.4 987.7,228.6 				"/>
			</g>
			<g>
				<path class="st1" d="M1346.3,114l312.1-180.2v360.3L1346.3,114z M1350.4,114l305.9,176.6V-62.6L1350.4,114z"/>
			</g>
			<g>
				<polygon class="st2" points="987.7,67.5 912.2,111.1 912.2,24 				"/>
			</g>
			<g>
				<polygon class="st1" points="1027.9,-96.4 1048.5,-60.9 1007.4,-60.9 				"/>
				<path class="st1" d="M1006.5-60.4l21.4-37.1l21.4,37.1H1006.5z M1008.3-61.4h39.3l-19.6-34L1008.3-61.4z"/>
			</g>
			<g>
				<polygon class="st1" points="1007.5,-132.3 1028,-96.7 986.9,-96.7 				"/>
				<path class="st1" d="M986-96.2l21.4-37.1l21.4,37.1H986z M987.8-97.2h39.3l-19.6-34L987.8-97.2z"/>
			</g>
			<g>
				<polygon class="st2" points="970.6,-56.2 961.3,-72.3 979.8,-72.3 				"/>
				<path class="st2" d="M970.6-55.2l-10.2-17.6h20.3L970.6-55.2z M970.6-57.3l8.4-14.5h-16.8L970.6-57.3z"/>
			</g>
			<g>
				
					<rect x="1458.8" y="140.8" transform="matrix(0.7071 -0.7071 0.7071 0.7071 346.2835 1119.6553)" class="st1" width="131.8" height="2"/>
			</g>
			<g>
				
					<rect x="1484" y="155.9" transform="matrix(0.7071 -0.7071 0.7071 0.7071 342.8754 1141.6455)" class="st1" width="131.1" height="2"/>
			</g>
		</g>
		<g>
			
				<rect x="1509" y="169.5" transform="matrix(0.7071 -0.7071 0.7071 0.7071 340.6642 1163.4987)" class="st1" width="131.8" height="2"/>
		</g>
	</g>
	<g>
		<path class="st2" d="M-115.6-12.7c0.3-102.8,89.5-186.4,199.2-186.4c109.7,0,198.9,83.6,199.2,186.4H-115.6z"/>
		<path class="st1" d="M-116.2-12.7h399.5c0-103.5-89.4-187.3-199.7-187.3C-26.8-200-116.2-116.1-116.2-12.7z M224-144.5
			c18.3,17.1,32.6,37.1,42.6,59.3c10.2,22.7,15.5,46.8,15.6,71.6h-397.4c0.1-24.8,5.4-48.9,15.6-71.6c10-22.2,24.3-42.1,42.6-59.3
			c18.2-17.1,39.5-30.6,63.2-39.9c24.5-9.7,50.5-14.6,77.3-14.6c26.8,0,52.8,4.9,77.3,14.6C184.5-175,205.8-161.6,224-144.5z"/>
		<path class="st1" d="M401.3,220.3c0,44,33.7,79.7,75.3,79.7c41.6,0,75.3-35.7,75.3-79.7H401.3z"/>
		<path class="st1" d="M567.3-83.9L168.8,146.6l131.4,76.5l4.1-2.4C305.6,108.2,392,17.3,498.6,17.3c38.1,0,73.6,11.6,103.6,31.7
			l97-55.9L567.3-83.9z"/>
		<path class="st1" d="M700.2-6.9l-98.1,56.5l-0.3-0.2C571,28.8,535.3,17.9,498.6,17.9c-51.4,0-99.7,21.1-136.2,59.3
			c-36.5,38.2-56.9,89.2-57.5,143.6l0,0.3l-4.6,2.7l-0.3-0.1l-132.2-76.9l0.8-0.4L567.3-84.5L700.2-6.9z M602.2,48.4l96-55.3
			L567.3-83.3L169.8,146.6l130.4,75.9l3.6-2.1c0.7-54.5,21.2-105.6,57.8-144c36.7-38.5,85.3-59.7,137-59.7
			C535.4,16.8,571.2,27.8,602.2,48.4z"/>
		<path class="st1" d="M693.3,223.1v0.5H303.8v-0.5c0-0.5,0-1,0-1.5l0-1.2l0.3-0.1L602.2,48.4l0.3,0.2
			C659.4,86.7,693.3,151.9,693.3,223.1z M304.8,222.6h387.5c-0.2-70.5-33.8-135.1-90.2-173L304.9,221l0,0.6
			C304.8,222,304.8,222.3,304.8,222.6z"/>
		<path class="st2" d="M304.3,220.7L602.2,49c-30-20.1-65.5-31.7-103.6-31.7C392,17.3,305.6,108.2,304.3,220.7z"/>
		<path class="st1" d="M603.2,49.1l-0.7,0.4L303.8,221.6l0-0.9c0.6-54.6,21.1-105.8,57.8-144.3c36.7-38.5,85.3-59.7,137-59.7
			c36.9,0,72.8,11,103.9,31.8L603.2,49.1z M304.9,219.9L601.2,49C570.5,28.6,535,17.9,498.6,17.9c-51.4,0-99.7,21.1-136.2,59.3
			C326.1,115.2,305.7,165.9,304.9,219.9z"/>
		<polygon class="st1" points="857.5,-97.7 911.7,-66.4 911.7,-129 		"/>
		
			<rect x="529.8" y="119.1" transform="matrix(0.8653 -0.5012 0.5012 0.8653 38.8458 384.7702)" class="st1" width="411.1" height="2.1"/>
		<polygon class="st3" points="110.3,10.5 243.1,87.1 243.1,-66.2 		"/>
		<path class="st1" d="M914.3-131.8v360.6L602,48.5L914.3-131.8z M912.2,225.3v-353.5L606.1,48.5L912.2,225.3z"/>
		<polygon class="st2" points="243.1,95 167.6,51.4 167.6,138.6 		"/>
		<polygon class="st1" points="283.4,259.1 303.9,223.5 262.8,223.5 		"/>
		<path class="st1" d="M304.8,223l-21.4,37.1L261.9,223H304.8z M283.4,258.1l19.7-34h-39.3L283.4,258.1z"/>
		<polygon class="st1" points="262.9,295 283.4,259.4 242.3,259.4 		"/>
		<path class="st1" d="M284.3,258.9L262.9,296l-21.4-37.1H284.3z M262.9,294l19.7-34h-39.3L262.9,294z"/>
		<polygon class="st1" points="226,218.9 216.7,234.9 235.2,234.9 		"/>
		<path class="st1" d="M236.1,235.5h-20.3l10.2-17.6L236.1,235.5z M217.6,234.4h16.8l-8.4-14.5L217.6,234.4z"/>
		
			<rect x="779.5" y="-45.3" transform="matrix(0.7071 -0.7071 0.7071 0.7071 213.982 557.9355)" class="st1" width="2" height="131.9"/>
		
			<rect x="804.3" y="-60.1" transform="matrix(0.7071 -0.7071 0.7071 0.7071 231.9546 571.0847)" class="st1" width="2.1" height="131.2"/>
		
			<rect x="829.7" y="-74" transform="matrix(0.7071 -0.7071 0.7071 0.7071 249.0137 585.0698)" class="st1" width="2.1" height="131.9"/>
		<path class="st1" d="M41.5,45v183.1l-158.6-91.5L41.5,45z M40.4,226.3V46.8L-115,136.6L40.4,226.3z"/>
		<polygon class="st1" points="-52.3,174 40.7,120.2 41.2,121.1 -51.2,174.6 		"/>
		<polygon class="st1" points="94.1,89.6 65,106.4 94.1,123.2 		"/>
		<polygon class="st1" points="94.1,203.7 94.1,169.5 64.5,186.6 		"/>
		<polygon class="st1" points="64.4,106.7 64.4,186.6 -4.6,146.7 		"/>
		<polygon class="st1" points="64.5,186.7 64.5,186.6 64.5,186.6 		"/>
		<polygon class="st1" points="64.5,106.2 64.5,106.7 65,106.4 		"/>
		<polygon class="st2" points="79.3,123.5 79.3,169.8 119.3,146.6 		"/>
	</g>
</g>
</svg>
