<?xml version="1.0" encoding="utf-8"?>
<!-- Generator: Adobe Illustrator 25.0.1, SVG Export Plug-In . SVG Version: 6.00 Build 0)  -->
<svg version="1.1" id="Calque_1" xmlns="http://www.w3.org/2000/svg" xmlns:xlink="http://www.w3.org/1999/xlink" x="0px" y="0px"
	 viewBox="0 0 500 500" style="enable-background:new 0 0 500 500;" xml:space="preserve">
<style type="text/css">
	.st0{fill:#212529;}
	.st1{fill:#0D6EFD;}
	.st2{fill:#FFFFFF;}
	.st3{fill:#959BAB;}
	.st4{fill:#8D9DB5;}
</style>
<rect class="st0" width="500" height="500"/>
<g>
	<g>
		<polygon class="st1" points="657.8,234.8 657.9,234.8 657.9,254.5 657.8,254.5 657.8,332 667.1,332 667.1,214.9 657.8,214.9 		"/>
		<path class="st1" d="M402.6,58.5c0,0-0.3,0.9-0.7,2.2c0.7,0.2,1.3,0.4,2,0.6c0.7-0.9,1.4-1.6,2.1-2.1c-0.1-1.1-0.2-3.2,0.4-5.7
			h-3.1C403.3,55,403.2,56.6,402.6,58.5z"/>
		<path class="st1" d="M407.9,58.5c0.6,0,1.1,0.1,1.7,0.1c0.6-1.4,1.9-3.4,4-5.1h-2.9c-1.3,1.7-2.6,3.5-3.8,5.2
			C407.2,58.6,407.5,58.5,407.9,58.5z"/>
		<path class="st1" d="M413.4,59.7c1.8,0.5,4.4,2,7.3,3.9h80L451,129.8c1.5,0.1,3,0.4,4.6,1.1c7,3.2,3.2,17.2,3.2,17.2s0,0,0,0
			c-1.7,7.4-6.1,14.5-10.7,16c5.5,9.3,14.4,24.8,14,28.5c-0.2,1.7-2.2,5-5.2,8.9c0,0.1,0,0.2,0,0.2c0.1,0.5-0.2,1-0.8,1.1
			c-0.1,0-0.1,0-0.2,0c0,0-0.1,0-0.1,0c-4,5.1-9.4,10.9-14.5,15.6c-0.9,2.1-1.6,3.5-1.7,3.6c-0.2,0.3-0.5,0.5-0.8,0.5
			c-0.2,0-0.3,0-0.5-0.1c-0.3-0.2-0.4-0.6-0.4-0.9c-2.2,1.9-4.3,3.4-6.1,4.4c-2.5,2.1-5.1,4.1-7.8,6l4,22.5l10.7,3.3
			c-4.3-1.8-7.3-3.1-7.3-3.1l42.4,10.9l66.3-97.5v-19.4h13.2l57.8-85.1h33.7v-0.1h12.9v85.2h9.3V53.5h-0.6v85.6h-3.8v-81h-66.5
			c0,0,2.6-3.7,2.7-4.7H422.1c-3.4,1.5-7.6,3.5-11.1,5.4C411.8,59.1,412.6,59.4,413.4,59.7z"/>
		<path class="st1" d="M657.8,478.2h-0.4v5.2H319.6c0,0.1,0,0.2,0,0.2h-31.2c0,0,0-0.1-0.1-0.2h-0.2l0,0.3h-80l0-0.3h-86.4v-4.7
			l-0.1,0V350.4c-6.9,3-10.9,4.5-10.9,4.5v60.3c0.8-0.7,1.6-1.4,1.6-1.4V490h70.7v4.1H592V490h70.7v-76.1c0,0,4.3,4,4.3,2.9v77.3
			h0.1V375.5h-9.3V478.2z"/>
		<rect x="657.8" y="334.1" class="st1" width="9.3" height="39.3"/>
		<rect x="640.8" y="214.9" class="st0" width="17" height="19.9"/>
		<polygon class="st0" points="640.8,111.4 640.8,148.7 657.8,148.7 657.8,63.5 644.9,63.5 644.9,63.6 611.2,63.6 553.3,148.7 
			621,148.7 		"/>
		<path class="st0" d="M440.6,82.8c3.2,8,1.3,49.1,1.3,49.1s4.1-2.5,9.2-2.1l49.7-66.2h-80C428.5,68.8,438.5,77.6,440.6,82.8z"/>
		<path class="st0" d="M479.5,290.8c0,0-0.4-1-1.1-2.5l-4.5,1.8c1.1,0.6,2.1,1.2,3.2,1.7c-0.1-0.1-0.1-0.1-0.1-0.1s0.4,0.2,1,0.6
			c7.6,4.3,14.9,8.8,21.7,13.4c10.5,6.6,22,14,28,18.4l37-69.5H538v-19.7h37.1l10.6-19.9h-45.6v-46.8l-66.3,97.5l3.7,1L479.5,290.8z
			"/>
		<polygon class="st1" points="428.7,257.8 428.1,254.5 428.6,257.8 		"/>
		<path class="st1" d="M441.4,189.8c-0.2,0.4-0.5,0.8-0.7,1.1c0.4-0.3,0.7-0.7,1-1.1C441.6,189.8,441.5,189.8,441.4,189.8z"/>
		<path class="st1" d="M443.6,183.8c-0.2,1.5-0.7,2.9-1.2,4.1c0.1,0,0.2,0,0.3,0C443.1,186.7,443.4,185.3,443.6,183.8z"/>
		<polygon class="st1" points="199.2,465.8 207.2,465.8 210.6,465.7 213,447.3 		"/>
		<polygon class="st1" points="621,148.7 640.8,148.7 640.8,111.4 		"/>
		<polygon class="st1" points="640.8,234.8 640.8,214.9 585.8,214.9 575.1,234.8 		"/>
		<path class="st1" d="M527.7,324.1c1.6,1.2,2.8,2.2,3.5,2.9c5,5,15.3,63.5,19.1,86l7.3,30.8l1.1,0l82.1-170.1v-19h-76.2
			L527.7,324.1z"/>
		<path class="st0" d="M121.7,478.7l0.1,0v4.7h86.4l2.4-17.7l-3.4,0h-8l13.9-18.5l14-104.8c0-0.6,0.1-1.2,0.2-1.6l0.1-1
			c0,0,0,0,0.1,0c3.7-18.4,34.6-36.6,62.8-50.1l-4.6-1.8l2.6-18.8l47.6-14.2l-0.5,2.8l-28.6,11.4l18.8,6l1,0.5l6.1-3l0,0l2.6-15h0
			l4.1-23.7c0.2,0.1,0.3,0.2,0.5,0.3c15.3,7.6,37.6,17.1,64.4,7.9c1.7-0.6,3.5-1.3,5.3-2c5.1-2.2,9.9-5,14.4-8.2
			c2.7-1.9,5.3-3.9,7.8-6c-0.2,0.1-0.4,0.3-0.6,0.4c0,0,5.7-7.6,10.9-16.3c0.3-1.4,0.6-2.9,0.8-4.4l-10.5,4.2l-1.4,5.4l-1.6-4.1
			l-0.2,0.1c-0.6,0.3-1.3,0.5-1.9,0.8c-0.3,6.2-1.7,16.6-1.8,17.1c-0.1,0.5-0.5,0.8-0.9,0.8c0,0-0.1,0-0.1,0
			c-0.5-0.1-0.9-0.5-0.8-1.1c0-0.1,1.3-9.9,1.7-16.1c-1.2,0.4-2.4,0.8-3.6,1.2l-4.5,6.2v-5c-14.2,3.2-25.3,1.4-26.2,1.2
			c0,0-0.1,0-0.1,0s-2.8,0.4-7,0.4c-5.8,0.1-14.3-0.3-21.8-2.8c-8.8-3-23.2-10.1-31.9-16.7c-3.6-2.7-6.2-5.3-7.1-7.4
			c0.3,0.4,0.5,0.7,0.9,1c-0.5-0.6-0.9-1.3-1.2-1.9c-1.5-7.4,7.1-24.5,7.1-31.9c0-7.5-2.2-12.9-2.2-12.9l-9.8,20.5
			c-0.5,0-1-0.1-1.6-0.1c-0.4-0.1-0.7-0.2-1.1-0.3c-0.4,2-1.1,3.9-2.3,5.2c-0.9,0.9-1.9,1.3-3.1,1.3c-0.1,0-0.2,0-0.3,0
			c-2.3-0.2-4.1-1.6-4.7-3.7c-0.6-2.2,0.4-4.3,2.4-5.7c0.4-0.3,1-0.2,1.3,0.3c0.3,0.4,0.2,1-0.3,1.3c-1.6,1-1.9,2.5-1.6,3.6
			c0.3,1.1,1.2,2.2,3,2.3c0.8,0,1.4-0.2,1.9-0.7c1-1,1.5-2.8,1.8-4.7c-6.9-4.6-12.6-20.4-7.5-28.3c4.3-6.7,13.6-3.5,18.2-1.4
			c-0.5-6.3-1.1-13.2-1.4-18.3c1.4-1.9,3.6-4.6,6.8-7.2c2-1.6,4.4-3.3,7.2-4.6c11.1-5.5,23.7-8.7,23.7-8.7l-27.4,15
			c0,0,33.1-9.6,44.8-15c11.7-5.3,19.4-22.7,19.4-22.7l0,0c0,0,0,0,0,0c0-0.1,0.1-0.1,0.1-0.2c0,0,0,0,0,0
			c3.1-6.2,1.2-13.4-3.9-17.6c0.1,0.1,0.3,0.2,0.4,0.4c0.3,0.4,0.3,1-0.1,1.3c-0.4,0.3-1,0.3-1.3-0.1c-1.8-2.2-6.4-4.4-12.8-6.1
			c-0.6,0-1.1,0-1.7,0c-4.9,0.4-14.8,1.2-25.3,3.8c8.6-0.9,15.3,0.3,16,0.9c0.4,0.3,0.5,0.9,0.3,1.3c-0.3,0.4-0.8,0.5-1.2,0.3
			c-2.5-1-22.8-3.6-39.3,8.6c-3.1,2.4-5.8,5.3-7.9,8.6c-9.5,15.3-10.9,34.9-11,43.3c1.2,4.9,2.7,7.8,2.7,7.9c0.2,0.5,0.1,1-0.4,1.3
			c-0.1,0.1-0.3,0.1-0.5,0.1c-0.3,0-0.7-0.2-0.8-0.5c0-0.1-0.7-1.4-1.6-3.8c-0.7,1.2-1,1.9-1,1.9s-11.8-29.3,9.2-58.8
			c3.3-4.7,7.1-8.3,11.1-11.2h-3.2c-5.7,2.7-10.5,6.2-13.9,10.4c-20.3,25.1-11.8,53.7-11.7,54c0.2,0.5-0.1,1-0.6,1.2
			c-0.1,0-0.2,0-0.3,0c-0.4,0-0.8-0.3-0.9-0.6c-0.1-0.3-8.9-29.8,12-55.7c2.9-3.6,6.7-6.7,11.2-9.2H176.2c0.1,1,2.7,4.7,2.7,4.7
			h-66.5v81h-1.6v46.6l0.8,0.8l-0.8,0.8v55.7H146v58h-35.2v53.8c0,0,3.9-1.5,10.9-4.5V478.7z M322.8,114.6c-0.1-2.2-0.2-3.9-0.2-5.1
			c0-0.7,0-1.4,0.1-2.1c2.1-1.4,4-2.6,5-3.1c0.4-0.2,0.6-0.4,0.6-0.4l0,0L322.8,114.6z M316.1,112.6c0.9-1,2.2-2.1,3.6-3.1
			C318.4,110.5,317.2,111.6,316.1,112.6C316.1,112.6,316.1,112.6,316.1,112.6z"/>
		<rect x="110.8" y="245.2" class="st0" width="33" height="53.8"/>
		<path class="st0" d="M640.8,254.5v19l-82.1,170.1l-1.1,0l9.4,39.6h-48.7l0,0h-34.9l0,0H319.6c0,0.1,0,0.2,0,0.2h337.8v-5.2h0.4
			V375.5h-23.7V332h23.7v-77.5H640.8z"/>
		<rect x="636.2" y="334.1" class="st0" width="21.6" height="39.3"/>
		<path class="st0" d="M288.2,483.2l0,0.2h0.2c0-0.1,0-0.1-0.1-0.2H288.2z"/>
		<path class="st2" d="M662.7,58.2v81h3.8V53.5v-0.2h-67.7c0.1,0,0.2,0.1,0.1,0.2c-0.1,1-2.7,4.7-2.7,4.7H662.7z"/>
		<path class="st2" d="M662.7,413.9V490H592v4.1v0.2h75v-0.2v-77.3C667,417.8,662.7,413.9,662.7,413.9z"/>
		<path class="st2" d="M112.4,58.2h66.5c0,0-2.6-3.7-2.7-4.7c0-0.2,0-0.2,0.1-0.2h-67.7v85.9h2.2h1.6V58.2z"/>
		<path class="st2" d="M112.4,490v-76.1c0,0-0.7,0.7-1.6,1.4c-1.2,1-2.7,2.2-2.7,1.6v77.5h75v-0.2V490H112.4z"/>
		<polygon class="st1" points="667.9,310 685.8,310 685.8,332 667.1,332 657.8,332 634.1,332 634.1,375.5 657.8,375.5 667.1,375.5 
			678.3,375.5 678.3,373.4 667.1,373.4 657.8,373.4 636.2,373.4 636.2,334.1 657.8,334.1 667.1,334.1 688,334.1 688,307.8 
			667.9,307.8 		"/>
		<path class="st1" d="M478,292.3c2.9,1.8,11.9,7.2,21.7,13.4C492.9,301.1,485.5,296.5,478,292.3z"/>
		<path class="st1" d="M288.2,482.7l0,0.6h0.2C288.3,483.1,288.3,482.9,288.2,482.7z"/>
		<path class="st1" d="M277.4,424.9c-3.2-24.5-8.2-49-14.4-57.4c-2.6-3.6-12.1-11.9-19.7-12.6c-1.3-0.1-2.4-0.3-3.5-0.5
			c-1.5,15.9-6.3,74.5,4.8,92.4c10.4,16.8,32.8,22.3,40.9,23.8C283.1,460.1,279.9,444,277.4,424.9z"/>
		<path class="st3" d="M369.1,298.4l13.8,26l0.2,0.1l0,0l13.6-26.2l42.9-23.1l-9.7-4.2c-1,5.6-5.3,10.3-11.2,11.5
			c-11.9,2.4-30,5.4-47.5,5.4c-6.5-5.8-15.3-14.1-16.3-17.8c-1.5-5.8-2.6-22.8-2.6-22.8c3.1,3.3,30.7,8.4,41.6,3
			c2.8-1.4,6.5-4.5,10.3-8.2c-26.8,9.2-49.1-0.3-64.4-7.9c-0.2-0.1-0.3-0.2-0.5-0.3l-4.1,23.7h0l-2.6,15l0,0l-6.1,3L369.1,298.4z"/>
		<path class="st2" d="M352.5,247.4c0,0,1.1,17,2.6,22.8c1,3.6,9.8,12,16.3,17.8c17.5-0.1,35.5-3,47.5-5.4
			c5.9-1.2,10.2-5.9,11.2-11.5l-0.5-0.2l-0.9-13.1h0l-0.6-3.2l0,0h0l-4-22.5c-4.5,3.2-9.4,6-14.4,8.2c-1.8,0.8-3.5,1.4-5.3,2
			c-3.8,3.7-7.5,6.8-10.3,8.2C383.2,255.8,355.6,250.7,352.5,247.4z M398.7,255.4c0,0-1.6,10.9-20.5,14.8
			c-18.9,4-11.8-14.1-11.8-14.1s5.7,5.7,17.4,5.7C394,261.8,398.7,255.4,398.7,255.4z"/>
		<path class="st3" d="M366.5,256.1c0,0-7.1,18.1,11.8,14.1c18.9-4,20.5-14.8,20.5-14.8s-4.8,6.4-14.9,6.4
			C372.2,261.8,366.5,256.1,366.5,256.1z"/>
		<path class="st2" d="M360.4,161.8c0.2,0.6,0.3,1,0.3,1s-7.4-2.3-7.6-0.9c-0.6,4.7,6.1,4.1,7.2,3.6c0.3-0.1,1.4-0.6,2.9-1.3
			C361.8,163.3,360.8,162.5,360.4,161.8z"/>
		<path class="st2" d="M379.6,174.9C379.6,174.9,379.6,174.9,379.6,174.9C379.6,174.9,379.6,174.9,379.6,174.9
			C379.7,174.9,379.9,174.9,379.6,174.9z"/>
		<path class="st2" d="M387.7,167.7c0.3,0.1,0.7,0.1,1,0.2C388.4,167.8,388.1,167.7,387.7,167.7z"/>
		<path class="st2" d="M379.6,174.9C379.6,174.9,379.6,174.9,379.6,174.9C379.6,174.9,379.6,174.9,379.6,174.9
			C379.6,174.9,379.6,174.9,379.6,174.9z"/>
		<path class="st2" d="M325.5,192c-0.9-1-1.7-2-2.6-3.1c0.3,0.6,0.7,1.2,1.2,1.9c0.1,0.1,0.1,0.2,0.2,0.3
			C324.7,191.4,325.1,191.7,325.5,192z"/>
		<path class="st2" d="M423.9,202.5c-0.2-0.4-0.2-0.9,0.2-1.2c0.4-0.3,1-0.2,1.3,0.2c0,0,0,0.1,0.1,0.1c6.7-4.1,12.1-8,15-10.4
			c0.1-0.1,0.1-0.1,0.2-0.2c0.3-0.4,0.5-0.8,0.7-1.1c-0.2-0.1-0.4-0.3-0.4-0.6c-0.1-0.5,0.2-1,0.7-1.1c0,0,0.3-0.1,0.7-0.1
			c0.6-1.3,1-2.6,1.2-4.1c0-0.1,0-0.2,0-0.3c-0.2-0.7-6.2-21.9-9.9-28.7c-3.8-6.9,2.3-13.4,2.3-13.4l5.9,12.2
			c-0.1-0.4-0.2-0.9-0.2-1.4c-0.2-6.8,4.1-18.6,10.7-16.1c-7.3-2.9-13.4-0.3-13.4-0.3s-5.9-4.5-6.1-6.9c-0.2-2.4,1.2-10.6,1.2-10.6
			s-6.7-2.4-8.6-8.3c0,0,0-0.1-0.1-0.2c0-0.2-0.1-0.3-0.2-0.4c0,0,0-0.1,0-0.1c-1.6-4.3-2.5-11.9-4.8-17.9c-1.6-3.7-3.9-6.9-7.2-8.5
			c-8.4-4.3-17.4-2.7-17.4-2.7s3.5-13,7.9-18.8c-0.7-0.2-1.3-0.4-2-0.6c-0.9,2.6-2.5,7-4.6,11.2c0,0,0,0,0,0c0,0.1-0.1,0.1-0.1,0.2
			v0c0,0-7.7,17.3-19.4,22.7c-11.7,5.3-44.8,15-44.8,15l27.4-15c0,0-12.6,3.2-23.7,8.7c-2.8,1.4-5.2,3-7.2,4.6
			c0.3,2.1,0.6,3.8,0.7,4.5c0.3,3.1,1.8,49.7,6.6,62.1c7.4,19.2,42,39.2,47.2,42.1c4.2-0.1,7-0.4,7-0.4s0.1,0,0.1,0c0,0,0.1,0,0.1,0
			C402.6,214,414.4,208.2,423.9,202.5z M410.8,133.3c0,2.5-2,4.5-4.5,4.5c-2.5,0-4.5-2-4.5-4.5c0-0.8,0.2-1.5,0.6-2.1
			c-4.4,0-6.4-0.7-6.4-0.7s8.1-4.3,13.8-1.6c5.7,2.7,7.7,4.9,7.7,4.9s-3.2-0.9-6.9-1.6C410.7,132.6,410.8,132.9,410.8,133.3z
			 M396.3,110.6c0,0,1.1,3.9,3.8,4.4c5.1,1,29.5,4.5,29.5,4.5s-1.4,6-2.8,6.4c-1.3,0.4-31.4,0.8-36.1-1.9l0,0c0,0-0.2-0.1-0.4-0.3
			c0,0-0.2-0.1-0.2-0.1c0,0,0-0.1,0-0.1c-0.7-0.7-1.7-2.3-2.1-5c-0.7-4.5,3.1-8.9,3.1-8.9l-0.2,9.2
			C392.7,114.9,396.3,110.6,396.3,110.6z M387.8,123.4c0,0-2-1.2-2.9-5.4c-1-4.4,2-9.1,2-9.1L387.8,123.4z M363,191.7
			c-7-5.6-14.7-14.3-17.5-20c-0.3,2.2-0.9,5.1-0.9,5.1s-4-8-1.2-10.1c0.4-0.3,0.9-0.5,1.4-0.7c1.7-4.3,7.7-7.6,10.3-8.9
			c0.2-0.1,0.3-0.1,0.5-0.2c0.4-0.2,0.6-0.3,0.6-0.3c0.7-0.2,1.3-0.3,1.7,0c1,0.7,2,3.2,2.5,4.8c-0.4-2.7,7.9-26,7.9-26.6
			c0-1.4-0.7-2.8-1.9-3.9c-1,0.2-2.6,0.3-4.6,0.3c0.3,0.6,0.6,1.3,0.6,2.1c0,2.5-2,4.5-4.5,4.5c-2.5,0-4.5-2-4.5-4.5
			c0-0.4,0.1-0.8,0.2-1.1c-3.6,0.7-6.9,1.6-6.9,1.6s1.8-2,6.8-4.5c-5.1,0-10.8-1.2-12.5-3c-1.3,0-2.1-0.1-2.3-0.2
			c-1.3-0.4-4-6.6-4-6.6s24.5-2.6,29-4.6c4.5-2,6.8-5.6,6.8-5.6s1.5,5.3,1.8,9.6l2.2-10.2c0,0,2.6,4.8,1,8.9
			c-0.5,1.3-1.1,2.4-1.7,3.3c2.2,1.1,4.2,3.2,4.2,7.1c0,0.3-0.2,0.8-0.4,1.6c0.2-0.1,0.5-0.1,0.8,0c0.5,0.2,0.7,0.8,0.4,1.3
			c-5.2,10.6-10.3,23.2-9.5,24.9c0.9,1.4,10.2,1.6,18.3,0.8c0.5,0,1,0.3,1,0.8c0,0.5-0.3,1-0.8,1c-0.1,0-0.3,0-0.5,0
			c-0.3,0.5-0.7,1.2-1.4,2.1c4.7,1.6,11.5,4.6,12.3,5c1.2,0.5,7.8,1.1,7.2-3.6c-0.2-1.4-7.6,0.9-7.6,0.9s1.5-5.2,3-6.2
			c1.5-1.1,6.5,2.9,6.5,3.7c0.2,2,0.5,3.6,0.6,4.9c1.4,0.2,3.1,0.5,4.3,1.5c2.8,2.1-1.2,10.1-1.2,10.1s-0.6-2.9-0.9-5.1
			c-0.1-0.9-1-2.1-2-3.2c0,0.6-0.1,1-0.3,1.4l0,0l0,0c-0.2,0.5-0.7,0.8-1.2,1.1c-2.3,2-7,5.9-9.3,6.5c-2.8,0.7-15-2-17.6-2.5
			c0,0-0.1,0,0,0c-1.8,0.4-15.3,3.3-18.3,2.5c-0.4-0.1-0.9-0.3-1.4-0.6h-4.7c0,0,6,5.1,13,8.7c0.3,0.5,0.5,1,0.8,1.4
			c1.8,3.4,5.1,5.7,8.9,6.3c5.2,0.7,11.8-1.5,11.7-0.7c-0.3,6.5-15.9,7.1-16.5,7C371.8,199.5,366.8,194.7,363,191.7z"/>
		<path class="st3" d="M389.5,192.5c0-0.9-6.6,1.4-11.7,0.7c-3.8-0.5-7.1-2.9-8.9-6.3c-0.2-0.5-0.5-0.9-0.8-1.4
			c-7-3.5-13-8.7-13-8.7h4.7c-2.5-1.3-6-4.3-7.9-5.9c-0.7-0.6-1.2-1-1.2-1.1c-0.8-1.5-0.1-4.1,0.5-9.6c0.1-0.5,2-2.2,3.8-3.2
			c-2.5,1.2-8.6,4.6-10.3,8.9c-0.5,0.2-0.9,0.4-1.4,0.7c-2.8,2.1,1.2,10.1,1.2,10.1s0.6-2.8,0.9-5.1c2.9,5.7,10.6,14.5,17.5,20
			c3.8,3,8.8,7.8,10,7.8C373.6,199.6,389.2,199.1,389.5,192.5z"/>
		<path class="st3" d="M355.4,156.9c0.2-0.1,0.4-0.2,0.6-0.3C356.1,156.6,355.8,156.7,355.4,156.9z"/>
		<path class="st3" d="M363.3,164.2c4.6-2,12.9-5.4,13.9-4.6c0.7,0.6,1.5,2,2.1,3.1c0.6-1.1,1.4-2.5,2.1-3.1
			c0.4-0.3,2.2,0.1,4.5,0.9c0.7-0.8,1.1-1.5,1.4-2.1c-2,0.2-5.5,0.4-9.1,0.4c-4.7,0-9.4-0.5-10.5-2.2c-1.9-3,6-19.7,9.4-26.7
			c0.1-0.2,0.3-0.3,0.5-0.4c0.3-0.7,0.4-1.3,0.4-1.6c0-4-2-6-4.2-7.1c-0.8,1.2-1.6,2.1-2.1,2.6c0,0,0,0,0,0.1c0,0.1-0.1,0.1-0.2,0.2
			c-0.2,0.2-0.3,0.3-0.3,0.3l0,0c-3.6,2.3-23.4,2.5-30.2,2.3c1.8,1.8,7.4,3,12.5,3c0.3-0.1,0.5-0.3,0.9-0.4
			c5.7-2.7,13.8,1.6,13.8,1.6s-0.6,0.2-1.8,0.4c1.2,1.1,1.9,2.5,1.9,3.9c0,0.6-8.3,23.8-7.9,26.6c0.1,0.2,0.1,0.3,0.2,0.4
			C360.8,162.5,361.8,163.3,363.3,164.2z"/>
		<path class="st1" d="M450.6,190.1c0-0.3,0.1-0.5,0-0.8c-0.5-9.5-5.8-28.4-6.8-31.7l-2-4.1l-5.9-12.2c0,0-6.2,6.6-2.3,13.4
			c3.7,6.8,9.7,28,9.9,28.7c0,0.1,0,0.2,0,0.3c-0.2,1.5-0.5,2.9-0.9,4.1C444.1,187.8,447.3,187.8,450.6,190.1z"/>
		<path class="st1" d="M325.5,192c-0.4-0.3-0.8-0.7-1.1-0.9c-0.1-0.1-0.1-0.2-0.2-0.3c-0.3-0.3-0.6-0.6-0.9-1
			c0.9,2.2,3.5,4.8,7.1,7.4C328.8,195.7,327.2,193.9,325.5,192z"/>
		<path class="st0" d="M367.6,156.7c1.1,1.7,5.8,2.2,10.5,2.2c3.6,0,7.1-0.3,9.1-0.4c0.1,0,0.4,0,0.5,0c0.5,0,0.9-0.5,0.8-1
			c0-0.5-0.5-0.9-1-0.8c-8.1,0.7-17.4,0.6-18.3-0.8c-0.8-1.7,4.3-14.2,9.5-24.9c0.2-0.5,0-1-0.4-1.3c-0.3-0.1-0.5-0.1-0.8,0
			c-0.2,0.1-0.4,0.2-0.5,0.4C373.6,137,365.7,153.7,367.6,156.7z"/>
		<path class="st1" d="M371.1,124L371.1,124c0,0,0.1-0.1,0.3-0.3c0-0.1,0.2-0.1,0.2-0.2c0,0,0,0,0-0.1c0.5-0.5,1.3-1.4,2.1-2.6
			c0.6-0.9,1.2-2,1.7-3.3c1.6-4.2-1-8.9-1-8.9l-2.2,10.2c-0.3-4.3-1.8-9.6-1.8-9.6s-2.3,3.7-6.8,5.6c-4.5,2-29,4.6-29,4.6
			s2.7,6.2,4,6.6c0.2,0.1,1.1,0.1,2.3,0.2C347.7,126.5,367.5,126.2,371.1,124z"/>
		<path class="st0" d="M368.1,130.5c0,0-8.1-4.3-13.8-1.6c-0.3,0.1-0.6,0.3-0.9,0.4c-5,2.5-6.8,4.5-6.8,4.5s3.2-0.9,6.9-1.6
			c-0.1,0.4-0.2,0.7-0.2,1.1c0,2.5,2,4.5,4.5,4.5c2.5,0,4.5-2,4.5-4.5c0-0.8-0.2-1.5-0.6-2.1c2,0,3.6-0.2,4.6-0.3
			C367.5,130.7,368.1,130.5,368.1,130.5z"/>
		<path class="st1" d="M388,118.4c0.4,2.7,1.4,4.3,2.1,5c0,0,0,0.1,0,0.1c0,0,0.1,0.1,0.2,0.1c0.2,0.2,0.4,0.3,0.4,0.3l0,0
			c4.7,2.7,34.8,2.3,36.1,1.9c1.4-0.4,2.8-6.4,2.8-6.4S405.1,116,400,115c-2.7-0.5-3.8-4.4-3.8-4.4s-3.6,4.3-5.4,8.1l0.2-9.2
			C391.1,109.5,387.3,114,388,118.4z"/>
		<path class="st1" d="M384.9,118.1c0.9,4.1,2.9,5.4,2.9,5.4l-0.9-14.4C386.9,109,384,113.7,384.9,118.1z"/>
		<path class="st0" d="M409.8,128.9c-5.7-2.7-13.8,1.6-13.8,1.6s2,0.7,6.4,0.7c-0.3,0.6-0.6,1.3-0.6,2.1c0,2.5,2,4.5,4.5,4.5
			c2.5,0,4.5-2,4.5-4.5c0-0.4-0.1-0.8-0.2-1.1c3.6,0.7,6.9,1.6,6.9,1.6S415.5,131.5,409.8,128.9z"/>
		<path class="st3" d="M327.7,104.3c-0.9,0.6-2.9,1.7-5,3.1c-0.1,0.8-0.1,1.5-0.1,2.1c0,1.1,0.1,2.9,0.2,5.1l5.4-10.7
			C328,104.1,327.9,104.2,327.7,104.3z"/>
		<path class="st3" d="M336.9,174.7c-4.8-12.4-6.3-59-6.6-62.1c-0.1-0.7-0.3-2.4-0.7-4.5c-3.2,2.6-5.4,5.3-6.8,7.2
			c0.3,5.1,0.9,12,1.4,18.3c-4.6-2.1-13.9-5.3-18.2,1.4c-5.1,7.9,0.7,23.7,7.5,28.3c0.4-2.2,0.4-4.5,0.3-5.7c0-0.5,0.4-1,0.9-1
			c0.5-0.1,1,0.4,1,0.9c0,0.2,0.2,3.5-0.4,6.7c0.4,0.1,0.7,0.3,1.1,0.3c0.5,0.1,1.1,0.1,1.6,0.1l9.8-20.5c0,0,2.2,5.4,2.2,12.9
			c0,7.5-8.6,24.6-7.1,31.9c0.9,1.1,1.7,2.1,2.6,3.1c1.6,1.9,3.2,3.6,4.8,5.3c8.7,6.6,23.2,13.7,31.9,16.7c7.5,2.6,16,2.9,21.8,2.8
			C378.9,213.9,344.3,193.9,336.9,174.7z M316.7,159.3c0,0,0.3-10.7-2.8-13.7c-3.2-3-6,0-6,0s-1.6-7.8,3.2-9.6
			c6.6-2.5,10.9,9.4,10.7,16.1C321.7,158.9,316.7,159.3,316.7,159.3z"/>
		<path class="st1" d="M425.7,109.9c0-0.1,0-0.1-0.1-0.2C425.6,109.8,425.6,109.8,425.7,109.9z"/>
		<path class="st1" d="M425.4,109.2c-1-4-2.1-11.7-4.8-17.9C422.9,97.3,423.8,104.8,425.4,109.2z"/>
		<path class="st1" d="M393.5,54.2c5,4.2,7,11.5,3.9,17.6c2-4.2,3.7-8.6,4.6-11.2c0.5-1.3,0.7-2.2,0.7-2.2c0.5-1.8,0.7-3.5,0.6-5
			c-0.4-8-8.5-11.3-17-9.3c-6.3,1.5-23.8-2.4-41,1.8c3.6-0.5,7.4-0.7,11.2-0.7C372.9,45.2,388.5,48.9,393.5,54.2z"/>
		<path class="st1" d="M356.5,47.1c-8.5,0.1-16.3,1.2-23.1,3.3c-1.7,0.9-3.5,1.9-5.1,3.1c-4,2.8-7.8,6.5-11.1,11.2
			c-20.9,29.4-9.2,58.8-9.2,58.8s0.3-0.7,1-1.9c-2.7-7.6-6.7-26,7-46.6c9.1-13.7,22-18.7,31.2-20.6c1.9-0.4,3.7-0.6,5.4-0.8
			c10.5-2.7,20.4-3.4,25.3-3.8c0.6,0,1.1,0,1.7,0c-6.1-1.6-13.8-2.6-22.3-2.6C357.1,47.1,356.8,47.1,356.5,47.1z"/>
		<path class="st1" d="M317.5,75.9c-11.1,16.7-10.2,31.8-8.1,40.5c0.1-8.4,1.5-28,11-43.3c2.1-3.3,4.8-6.2,7.9-8.6
			C324.4,67.5,320.7,71.2,317.5,75.9z"/>
		<path class="st1" d="M316.1,112.6C316.1,112.6,316.1,112.6,316.1,112.6c1.1-1,2.3-2.1,3.6-3.1C318.3,110.5,317,111.6,316.1,112.6z
			"/>
		<polygon class="st1" points="397.2,72 397.2,72 397.2,72 		"/>
		<path class="st1" d="M328.3,103.9c0,0-0.2,0.1-0.6,0.4C327.9,104.2,328,104.1,328.3,103.9L328.3,103.9z"/>
		<path class="st1" d="M406,59.2c-0.7,0.5-1.4,1.2-2.1,2.1c-4.4,5.8-7.9,18.8-7.9,18.8s9.1-1.6,17.4,2.7c0,0,0,0,0,0
			c0,0,0.9,0.5,5.1,0l4.2-0.5l2.8,6.4v-7.2l5.4-1l3.4,12l0-4.5c-0.3-1.9-0.5-3.5-0.7-4.6c-1.9-9.6-22-23.9-22-23.9
			c0.4-0.1,1,0,1.8,0.2c-0.8-0.3-1.6-0.6-2.3-0.8c3.5-2,7.7-3.9,11.1-5.4C425.5,52,428,51,428,51s-5-2.2-11.3,0.5
			c-1.2,0.5-2.2,1.2-3.1,2c-2.1,1.7-3.3,3.7-4,5.1c-0.6-0.1-1.2-0.1-1.7-0.1c-0.3,0-0.6,0.1-1,0.2c1.1-1.7,2.4-3.5,3.8-5.2
			c3.8-4.9,7.8-9.3,7.8-9.3s-6.5-1.1-10.3,5c-0.9,1.5-1.4,2.9-1.8,4.3C405.8,56,405.9,58.1,406,59.2z"/>
		<path class="st2" d="M311.1,136.1c-4.8,1.8-3.2,9.6-3.2,9.6s2.8-3,6,0c3.2,3,2.8,13.7,2.8,13.7s4.9-0.4,5.1-7.2
			C322.1,145.4,317.8,133.6,311.1,136.1z"/>
		<path class="st2" d="M452.5,136.1c4.8,1.8,3.2,9.6,3.2,9.6s-2.8-3-6,0c-3.2,3-2.8,13.7-2.8,13.7s-1.1-0.1-2.3-0.9
			c0.8,1.3,2,3.3,3.5,5.8c4.6-1.6,9.1-8.7,10.7-16C458.8,147.8,459.6,138.9,452.5,136.1z"/>
		<path class="st3" d="M443.9,157.6c-0.1-0.3-0.2-0.6-0.2-0.6s0.3,0.5,0.8,1.3c1.2,0.8,2.3,0.9,2.3,0.9s-0.3-10.7,2.8-13.7
			c3.2-3,6,0,6,0s1.6-7.8-3.2-9.6c-6.6-2.5-10.9,9.4-10.7,16.1c0,0.5,0.1,0.9,0.2,1.4L443.9,157.6z"/>
		<path class="st0" d="M420.6,91.3c2.7,6.2,3.8,13.9,4.8,17.9c0,0,0,0.1,0,0.1c0,0.2,0.1,0.3,0.2,0.4c0,0.1,0,0.1,0.1,0.2
			c2,5.9,8.6,8.3,8.6,8.3s-1.4,8.2-1.2,10.6c0.2,2.4,6.1,6.9,6.1,6.9s-2.8-33.4-4.8-47.7l0,4.5l-3.4-12l-5.4,1v7.2l-2.8-6.4
			l-4.2,0.5c-4.2,0.5-5.1,0-5.1,0c0,0,0,0,0,0C416.7,84.4,418.9,87.6,420.6,91.3z"/>
		<path class="st3" d="M408.1,168.4c1,1.1,1.9,2.3,2,3.2c0.3,2.3,0.9,5.1,0.9,5.1s4-8,1.2-10.1c-1.3-0.9-2.9-1.3-4.3-1.5
			C408.1,166.6,408.2,167.6,408.1,168.4z"/>
		<path class="st0" d="M444.9,204.9c0,0.2,0,0.3,0,0.5c0,0,0,0,0,0c0.1-0.2,0.2-0.4,0.3-0.6L444.9,204.9z"/>
		<path class="st1" d="M425.6,209.8c0-5-1.7-7.2-1.7-7.2c0,0,0-0.1,0-0.1c-9.5,5.7-21.4,11.5-32.6,13.8c0,0-0.1,0-0.1,0
			c0.9,0.2,12,2,26.2-1.2v5l4.5-6.2c1.2-0.3,2.4-0.8,3.6-1.2C425.6,211.6,425.6,210.6,425.6,209.8z"/>
		<path class="st1" d="M439.3,195.1c-0.5-0.2-0.7-0.8-0.4-1.3c0.2-0.5,0.8-0.7,1.2-0.4c0.2,0.1,5.3,2.7,4.7,11.4l0.3-0.1
			c2.4-4.5,4.4-8.9,5.1-12.4c-0.2-0.2-0.4-0.4-0.7-0.6c-3.8-2.6-7.4-1.8-7.5-1.8c-0.2,0-0.3,0-0.5-0.1c-0.3,0.4-0.6,0.8-1,1.1
			c-0.1,0.1-0.1,0.2-0.2,0.2c-2.9,2.4-8.3,6.4-15,10.4c0.3,0.4,2,3,2,8.3c0,0.6,0,1.4-0.1,2.2c0.6-0.2,1.3-0.5,1.9-0.8l0.2-0.1
			l1.6,4.1l1.4-5.4l10.5-4.2c0-0.2,0.1-0.3,0.1-0.5C443.7,197.4,439.5,195.2,439.3,195.1z"/>
		<path class="st2" d="M438,221.2c0-0.1,2.7-5,4.2-11.2c-5.2,8.7-10.9,16.3-10.9,16.3c0.2-0.1,0.4-0.3,0.6-0.4
			c1.7-1,3.8-2.5,6.1-4.4C437.9,221.4,437.9,221.3,438,221.2z"/>
		<path class="st2" d="M455,202.2c0-0.1-1.3-6.9-4.7-9.9c-0.7,3.5-2.7,7.9-5.1,12.4c-0.1,0.2-0.2,0.4-0.3,0.6
			c-0.5,5.2-2.2,10-3.5,13.2c5.1-4.7,10.5-10.5,14.5-15.6C455.4,202.9,455.1,202.6,455,202.2z"/>
		<path class="st2" d="M443.7,157.1c0,0,0.1,0.2,0.2,0.6c1,3.3,6.3,22.2,6.8,31.7c0,0.2,0,0.5,0,0.8c0,0,0.1,0,0.1,0.1
			c4.2,3,5.8,10.4,6.1,11.5c3-3.9,5.1-7.3,5.2-8.9c0.3-3.8-8.5-19.3-14-28.5c-1.5-2.5-2.7-4.5-3.5-5.8
			C444,157.5,443.7,157.1,443.7,157.1z"/>
		<path class="st0" d="M438,221.2c-0.1,0.1,0,0.2,0,0.4c0,0.4,0.1,0.7,0.4,0.9c0.1,0.1,0.3,0.1,0.5,0.1c0.3,0,0.6-0.2,0.8-0.5
			c0.1-0.1,0.8-1.5,1.7-3.6c1.4-3.1,3.1-8,3.5-13.2c0,0,0,0,0,0c0-0.2,0-0.3,0-0.5c0.6-8.7-4.5-11.3-4.7-11.4c-0.5-0.2-1,0-1.2,0.4
			c-0.2,0.5,0,1,0.4,1.3c0.2,0.1,4.3,2.3,3.7,10.1c0,0.2-0.1,0.3-0.1,0.5c-0.2,1.5-0.4,3-0.8,4.4C440.7,216.2,438,221.1,438,221.2z"
			/>
		<path class="st0" d="M427.5,209.8c0-5.3-1.7-7.9-2-8.3c0,0-0.1-0.1-0.1-0.1c-0.3-0.4-0.9-0.5-1.3-0.2c-0.4,0.3-0.4,0.8-0.2,1.2
			c0,0,0,0.1,0,0.1c0,0,1.7,2.3,1.7,7.2c0,0.8,0,1.8-0.1,2.9c-0.4,6.2-1.7,16-1.7,16.1c-0.1,0.5,0.3,1,0.8,1.1c0,0,0.1,0,0.1,0
			c0.5,0,0.9-0.3,0.9-0.8c0.1-0.5,1.5-11,1.8-17.1C427.5,211.2,427.5,210.5,427.5,209.8z"/>
		<path class="st0" d="M450.8,190.1c0,0-0.1,0-0.1-0.1c-3.3-2.2-6.5-2.3-8-2.1c-0.1,0-0.2,0-0.3,0c-0.4,0-0.6,0.1-0.7,0.1
			c-0.5,0.1-0.8,0.6-0.7,1.1c0.1,0.2,0.2,0.4,0.4,0.6c0.1,0,0.1,0,0.2,0.1c0.2,0.1,0.3,0.1,0.5,0.1c0.2,0,3.7-0.9,7.5,1.8
			c0.2,0.2,0.4,0.4,0.7,0.6c3.3,3.1,4.7,9.9,4.7,9.9c0.1,0.4,0.4,0.7,0.8,0.7c0,0,0.1,0,0.1,0c0.1,0,0.1,0,0.2,0
			c0.5-0.1,0.8-0.6,0.8-1.1c0,0,0-0.1,0-0.2C456.6,200.5,455,193.1,450.8,190.1z"/>
		<path class="st0" d="M309.7,62.7c-20.9,25.9-12.1,55.4-12,55.7c0.1,0.4,0.5,0.6,0.9,0.6c0.1,0,0.2,0,0.3,0
			c0.5-0.2,0.8-0.7,0.6-1.2c-0.1-0.3-8.6-28.8,11.7-54c3.4-4.2,8.2-7.7,13.9-10.4c2.6-1.2,5.4-2.3,8.3-3.1c6.9-2,14.6-3.2,23.1-3.3
			c0.3,0,0.5,0,0.8,0c8.5,0,16.2,1,22.3,2.6c6.4,1.6,11,3.9,12.8,6.1c0.3,0.4,0.9,0.4,1.3,0.1c0.4-0.3,0.5-0.9,0.1-1.3
			c-0.1-0.1-0.2-0.2-0.4-0.4c-4.9-5.3-20.6-9-37-9c-3.9,0-7.7,0.3-11.2,0.7c-9.4,1.2-17.7,3.8-24.3,7.5
			C316.4,56.1,312.6,59.1,309.7,62.7z"/>
		<path class="st0" d="M316,74.9c-13.7,20.6-9.7,39-7,46.6c0.8,2.4,1.5,3.7,1.6,3.8c0.2,0.3,0.5,0.5,0.8,0.5c0.2,0,0.3,0,0.5-0.1
			c0.5-0.3,0.6-0.8,0.4-1.3c0-0.1-1.6-3-2.7-7.9c-2.1-8.8-3-23.9,8.1-40.5c3.2-4.8,6.9-8.5,10.8-11.4c16.5-12.2,36.8-9.6,39.3-8.6
			c0.4,0.2,1,0.1,1.2-0.3c0.3-0.4,0.2-1-0.3-1.3c-0.8-0.5-7.5-1.7-16-0.9c-1.7,0.2-3.6,0.4-5.4,0.8C338,56.2,325.1,61.2,316,74.9z"
			/>
		<path class="st1" d="M407.8,169.8c-0.1,0.1-0.5,0.5-1.2,1.1C407.1,170.7,407.5,170.3,407.8,169.8z"/>
		<path class="st1" d="M351.2,160.3c-0.6,5.5-1.3,8.1-0.5,9.6c2.4,1.4,9.4,2.4,11.4,1.8c2.2-0.7,4.6-2.5,7.6-3.7
			c3-1.2,9.6,0.9,9.6,0.9s5.1-1.7,8.3-1.1c0.4,0,0.7,0.1,1,0.2c3,1.2,5.4,2.9,7.6,3.7c2.1,0.7,9-0.3,11.4-1.7
			c0.2-0.4,0.3-0.8,0.3-1.4c0.1-0.8,0-1.9-0.2-3.2c-0.2-1.3-0.4-2.9-0.6-4.9c-0.1-0.8-5.1-4.8-6.5-3.7c-1.5,1.1-3,6.2-3,6.2
			s7.4-2.3,7.6-0.9c0.6,4.7-6.1,4.1-7.2,3.6c-0.8-0.4-7.6-3.4-12.3-5c-2.3-0.8-4.1-1.2-4.5-0.9c-0.7,0.6-1.5,2-2.1,3.1
			c-0.6-1.1-1.4-2.5-2.1-3.1c-0.9-0.8-9.3,2.6-13.9,4.6c-1.5,0.6-2.6,1.1-2.9,1.3c-1.2,0.5-7.8,1.1-7.2-3.6c0.2-1.4,7.6,0.9,7.6,0.9
			s-0.1-0.4-0.3-1c0-0.1-0.1-0.3-0.2-0.4c-0.6-1.6-1.6-4.1-2.5-4.8c-0.4-0.3-1-0.2-1.7,0c-0.2,0.1-0.4,0.2-0.6,0.3
			c-0.2,0.1-0.3,0.1-0.5,0.2C353.2,158.1,351.3,159.8,351.2,160.3z"/>
		<path class="st0" d="M379.6,174.9C379.6,174.9,379.6,174.9,379.6,174.9C379.6,174.9,379.6,174.9,379.6,174.9
			C379.6,174.9,379.6,174.9,379.6,174.9z"/>
		<path class="st0" d="M396.4,171.6c-2.2-0.7-4.6-2.5-7.6-3.7c-0.3-0.1-0.6-0.2-1-0.2c-3.2-0.6-8.3,1.1-8.3,1.1s-6.6-2.1-9.6-0.9
			c-3,1.2-5.4,2.9-7.6,3.7c-2.1,0.7-9-0.3-11.4-1.8c0.1,0.1,0.5,0.5,1.2,1.1c1.9,1.6,5.5,4.6,7.9,5.9c0.5,0.3,1,0.5,1.4,0.6
			c3,0.8,16.5-2.1,18.3-2.5c0,0,0,0,0,0c0,0,0,0,0,0c0,0,0,0,0,0c0.3,0,0.1,0,0,0c2.6,0.5,14.8,3.2,17.6,2.5c2.3-0.6,7-4.5,9.3-6.5
			c0.7-0.6,1.2-1,1.2-1.1C405.4,171.3,398.4,172.3,396.4,171.6z"/>
		<path class="st1" d="M290.8,290l5.3,2l0,0l64.5,24.9l7.2-15.9l13.2,26.3l-18.9-1.5L293.8,301c-26.3,7.7-50.4,31.4-48.4,38.6
			c2,7.2,36.7,46.1,46.9,60.7c12.6,18.1,26.1,77.8,27.3,82.9h163.9c0-0.1,3.1-68.2,5.4-82c2.3-13.8,16.1-32.2,16.1-32.2
			s-5.4,16.9-7.7,39.1c-2.3,22.2,21,74.9,21,75.1H567l-9.4-39.6l-7.3-30.8c0.9,5.4,1.5,8.7,1.5,8.7s-12.5-59.8-25.5-76
			c-12.7-15.7-47-51.6-49.2-53.8c-1-0.6-2.1-1.2-3.2-1.7l4.5-1.8c-2-4.3-6.1-12.8-8.8-15.5c-2.6-2.6-20.5-10.5-30.7-15l-10.7-3.3h0
			l0,0l0.7,3.3l29.5,11.4l-18.6,6l-42.9,23.1l-13.6,26.2l0,0l-0.2-0.1l-13.8-26l-42.5-22.6l-1-0.5l-18.8-6l28.6-11.4l0.5-2.8
			l-47.6,14.2l-2.6,18.8l4.6,1.8c0,0,0,0,0.1,0C290.4,289.8,290.5,289.8,290.8,290z M398.1,301l7.1,15.9l68.6-26.9l8.2,6.9
			l-78.2,28.9h-20.1L398.1,301z"/>
		<path class="st0" d="M362.1,325.9l18.9,1.5L367.8,301l-7.2,15.9L296.1,292l0,0l-5.3-2c1.7,1,8.7,5.8,7.9,6.4
			c-1.9,1.4-2.8,4-4.8,4.6c0,0-0.1,0-0.1,0L362.1,325.9z"/>
		<polygon class="st0" points="428.6,257.8 429.5,270.8 430,271.1 439.7,275.2 458.3,269.2 428.7,257.8 428.6,257.8 		"/>
		<polygon class="st0" points="383.7,325.9 403.8,325.9 482,297 473.8,290.1 405.2,316.9 398.1,301 		"/>
		<path class="st0" d="M497.2,408.2c2.3-22.2,7.7-39.1,7.7-39.1s-13.8,18.4-16.1,32.2c-2.3,13.8-5.4,81.8-5.4,82l0,0h34.9l0,0
			C518.2,483.1,494.9,430.4,497.2,408.2z"/>
		<path class="st0" d="M292.3,400.4c-10.2-14.6-44.8-53.5-46.9-60.7c-2-7.2,22-30.9,48.4-38.6c0,0,0.1,0,0.1,0
			c2-0.6,2.9-3.2,4.8-4.6c0.8-0.6-6.2-5.4-7.9-6.4c-0.2-0.1-0.4-0.2-0.4-0.2c0,0,0,0-0.1,0c-28.2,13.5-59.1,31.7-62.8,50.1
			c-0.1,0-0.1,0-0.1,0l-0.1,1c-0.1,0.4-0.2,0.9-0.2,1.6l-14,104.8l-2.5,18.4l-2.4,17.7l0,0.3h80l0-0.3l0-0.2l0-0.6
			c0.1,0.2,0.1,0.4,0.1,0.6c0,0.1,0,0.1,0.1,0.2c0,0.1,0.1,0.2,0.1,0.2h31.2c0,0,0-0.1,0-0.2c0,0,0-0.1,0-0.2
			C318.4,478.2,304.9,418.5,292.3,400.4z M244.5,446.9c-11.1-17.9-6.3-76.5-4.8-92.4c1.1,0.2,2.3,0.4,3.5,0.5
			c7.6,0.7,17.1,9,19.7,12.6c6.1,8.4,11.2,32.9,14.4,57.4c2.5,19.1,5.7,35.3,8,45.8C277.2,469.2,254.9,463.7,244.5,446.9z"/>
		<path class="st0" d="M315.8,157.5c0-0.5-0.5-0.9-1-0.9c-0.5,0-0.9,0.5-0.9,1c0.1,1.2,0.1,3.5-0.3,5.7c-0.3,1.9-0.8,3.7-1.8,4.7
			c-0.5,0.5-1.2,0.8-1.9,0.7c-1.8-0.1-2.7-1.3-3-2.3c-0.3-1.1,0-2.6,1.6-3.6c0.4-0.3,0.6-0.9,0.3-1.3c-0.3-0.4-0.9-0.6-1.3-0.3
			c-2,1.3-3,3.5-2.4,5.7c0.6,2.1,2.4,3.6,4.7,3.7c0.1,0,0.2,0,0.3,0c1.2,0,2.2-0.4,3.1-1.3c1.2-1.2,1.9-3.2,2.3-5.2
			C316,160.9,315.8,157.7,315.8,157.5z"/>
		<path class="st2" d="M469.5,272.7c2.8,2.8,6.9,11.3,8.8,15.5c0.7,1.5,1.1,2.5,1.1,2.5l-1.9-24.3l-3.7-1l-42.4-10.9
			c0,0,3,1.2,7.3,3.1C449.1,262.2,466.9,270.1,469.5,272.7z"/>
		<path class="st2" d="M527.7,324.1c-6-4.4-17.5-11.8-28-18.4c-9.8-6.1-18.7-11.6-21.7-13.4c-0.7-0.4-1-0.6-1-0.6s0,0,0.1,0.1
			c2.2,2.3,36.5,38.2,49.2,53.8c13.1,16.2,25.5,76,25.5,76s-0.5-3.3-1.5-8.7c-3.8-22.4-14.1-80.9-19.1-86
			C530.5,326.2,529.3,325.2,527.7,324.1z"/>
		<path class="st2" d="M439.1,135.7c0,0,6.1-2.5,13.4,0.3c7.1,2.8,6.3,11.7,6.3,12.1c0,0,0,0,0,0s3.8-14-3.2-17.2
			c-1.6-0.7-3.1-1-4.6-1.1c-5.1-0.4-9.2,2.1-9.2,2.1s1.9-41.2-1.3-49.1c-2.1-5.2-12.1-14-19.9-19.2c-2.9-2-5.5-3.4-7.3-3.9
			c-0.8-0.2-1.4-0.3-1.8-0.2c0,0,20.1,14.4,22,23.9c0.2,1.1,0.5,2.7,0.7,4.6C436.3,102.3,439.1,135.7,439.1,135.7z"/>
		<path class="st2" d="M640.8,148.7H621h-67.6h-13.2v19.4v46.8h45.6h55.1h17h9.3h99.3v-66.2h-99.3h-9.3H640.8z M665.2,197.6H571
			v-8.5h94.2V197.6z M722.3,197.6h-39.9v-8.5h39.9V197.6z M722.7,170.6v8.5H571v-8.5H722.7z"/>
		<polygon class="st2" points="640.8,234.8 575.1,234.8 538,234.8 538,254.5 564.7,254.5 640.8,254.5 657.8,254.5 657.9,254.5 
			657.9,234.8 657.8,234.8 		"/>
		<rect x="673" y="234.8" class="st2" width="30.8" height="19.7"/>
		<rect x="720" y="234.8" class="st2" width="46.5" height="19.7"/>
		<polygon class="st1" points="146,301.1 146,243.1 110.8,243.1 97.4,243.1 97.4,200.8 110.8,187.3 111.6,186.5 110.8,185.7 
			110.1,185 95.2,199.9 95.2,245.2 110.8,245.2 143.9,245.2 143.9,299 110.8,299 98.3,299 98.3,335.2 108.9,345.8 110.4,344.3 
			100.4,334.3 100.4,301.1 110.8,301.1 		"/>
		<rect x="571" y="170.6" class="st1" width="151.7" height="8.5"/>
		<rect x="571" y="189.1" class="st1" width="94.2" height="8.5"/>
		<rect x="682.4" y="189.1" class="st1" width="39.9" height="8.5"/>
	</g>
	<g>
		<path class="st0" d="M145.5,50C145.5,50,145.5,50,145.5,50c-0.6,1.6-1.4,3.3-2.1,4.8c3.7-5.3,8.6-13.5,9.7-21.8h-4.5
			C149.4,41,145.5,50,145.5,50z"/>
		<path class="st0" d="M70.9,33.1h-5.5c1,3,2.6,5.7,4.7,8C69.8,38.3,70,35.7,70.9,33.1z"/>
		<path class="st0" d="M144.9,57.6c-0.3-0.1-0.5-0.2-0.8-0.3c-0.1,0.1-0.2,0.2-0.2,0.3C144.2,57.6,144.5,57.6,144.9,57.6z"/>
		<path class="st0" d="M63.3,33.1h-6.3c0.1,0.2,0.1,0.5,0.1,0.7c4,12.9,13.3,20,18.8,22.8c-2.3-3.6-4.3-7.8-5.4-12.1
			C67.4,41.5,64.7,37.6,63.3,33.1z"/>
		<path class="st0" d="M27.3,459.7c-0.7-2.5-1.4-5.2-2.1-8C26,455.2,26.7,457.9,27.3,459.7z"/>
		<polygon class="st0" points="-149.9,312.1 -149.9,227.8 -174.3,203.3 -174.3,336.5 		"/>
		<path class="st2" d="M-172.6,38h70.4c0,0-2.8-3.9-2.9-4.9c0-0.2,0-0.3,0.1-0.3h-71.7v91h2.3h1.7V38z"/>
		<path class="st2" d="M-172.6,495.4v-80.6c0,0-0.8,0.7-1.7,1.5c-1.3,1.1-2.9,2.3-2.9,1.7V500h79.4v-0.2v-4.4H-172.6z"/>
		<polygon class="st1" points="-118.6,373.9 -118.6,371.7 -174.3,371.7 -182.1,371.7 -182.1,347.5 -174.3,339.7 -147.6,313 
			-147.6,226.8 -174.3,200.2 -191,183.4 -191,170.7 -175.8,170.7 -175.8,168.5 -193.2,168.5 -193.2,184.4 -174.3,203.3 
			-149.9,227.8 -149.9,312.1 -174.3,336.5 -184.3,346.5 -184.3,373.9 -174.3,373.9 		"/>
		<rect x="237.2" y="300.5" class="st2" width="38.9" height="20.9"/>
		<rect x="235.4" y="333.5" class="st2" width="38.9" height="20.9"/>
		<path class="st2" d="M89.9,226.9c0,1.4-0.1,2.9-0.1,4.6C89.8,229.6,89.9,228,89.9,226.9C89.9,226.9,89.9,226.9,89.9,226.9z"/>
		<path class="st2" d="M85.8,284.4c0,0-0.1,0.1-0.1,0.1c0,0,0,0,0,0C85.8,284.5,85.8,284.5,85.8,284.4z"/>
		<path class="st2" d="M130.2,243c-5.7,4.9-15.2,9.4-21.5,12c-3.7,1.6-6.3,5-6.8,8.9c-0.8,5.8-2.1,14.2-3.8,19.9
			c-0.4,1.4-1,2.7-1.6,3.9l19.1,5.7l25.1-7.5c-0.1-7.3,2.2-29.3,2.2-30l0,0c0-11.2,0.2-23.3,0.4-30.2c-0.1,0-0.1,0.1-0.2,0.1
			C142.3,227.9,138,236.4,130.2,243z"/>
		<path class="st4" d="M96,287.6L96,287.6l0.6,0.2c0.6-1.2,1.2-2.5,1.6-3.9c1.8-5.7,3.1-14.1,3.8-19.9c0.5-4,3.1-7.4,6.8-8.9
			c6.2-2.6,15.8-7.1,21.5-12c7.8-6.7,12.1-15.1,13-17.1c-7.9,5.6-14.1,7.4-14.1,7.4s0,0,0,0c-4.3,1.5-8.7,2.3-13.3,2.3
			c-1.2,0-2.5-0.1-3.7-0.2c-0.4-0.1-10.1-2.4-22.1-14.7c-12.2-12.5-20.7-43.4-20-57.2c0.1-1.1,0.2-2.4,0.4-3.8
			c-5.1-1.2-7.5-3.4-7.5-3.4c-0.7,0.5-1.3,0-2.3-0.8c-0.2,6-0.2,11.1-0.2,14.3c0,4.4,0.4,9,1.4,13.7c1.1,5.3,2.9,10.7,5.8,16.3
			c0.1,0.3,0.3,0.5,0.4,0.8c0.1,0.2,0.2,0.3,0.3,0.5c2.5,4.8,5.8,9.8,10,14.9c0.1,0.1,0.1,0.2,0.2,0.3c0.2,0.2,0.3,0.4,0.5,0.6
			c0.1,0.1,0.2,0.2,0.3,0.3c3.5,4.1,7.2,7.3,10.7,9.8c0,0,0,0,0,0c0,1.1-0.1,2.6-0.1,4.6c-0.3,13.9-1.4,47.4-4,52.9
			c0,0,0,0.1-0.1,0.1L96,287.6z"/>
		<path class="st2" d="M60.4,169.8c0-3.3,0-8.3,0.2-14.3c-0.3-0.3-0.8-0.6-1.2-1c-1.3-0.9-2.5-1.6-3.6-2.1c-1.4-0.6-2.6-0.9-3.5-1.1
			c-3.5-0.2-6.9,0.6-9.1,4c-5.8,9.2,2.5,28.6,10.5,30c0.3,0,0.5,0.1,0.7,0.1c-0.7-1.6-1.3-2.7-1.3-2.7c-0.3-0.5-0.1-1.1,0.3-1.4
			c0.5-0.3,1.1-0.1,1.4,0.3c0.1,0.2,0.9,1.6,1.8,3.7c2-0.2,3.7-1,5.1-1.9C60.8,178.8,60.4,174.3,60.4,169.8z M42.8,158.3l3-3.7
			c0.3-0.4,1-0.5,1.4-0.1c0.4,0.3,0.5,1,0.1,1.4l-3,3.7c-0.2,0.2-0.5,0.4-0.8,0.4c-0.2,0-0.4-0.1-0.6-0.2
			C42.6,159.4,42.5,158.7,42.8,158.3z M43.8,171.6c0,0-0.1,0-0.1,0c-0.5,0-0.9-0.4-1-0.9l-0.7-4.8c-0.1-0.5,0.3-1,0.8-1.1
			c0.5-0.1,1,0.3,1.1,0.8l0.7,4.8C44.7,171,44.3,171.5,43.8,171.6z M49.7,179.6c-0.2,0.2-0.4,0.2-0.6,0.2c-0.3,0-0.6-0.1-0.8-0.4
			l-2.5-3c-0.3-0.4-0.3-1.1,0.1-1.4c0.4-0.4,1.1-0.3,1.4,0.1l2.5,3C50.2,178.6,50.1,179.3,49.7,179.6z M54.1,180.1
			c0,0,0.3-10.8-2.9-13.9c-3.2-3.1-6.1,0-6.1,0s-1.6-7.9,3.2-9.7c6.7-2.5,11.1,9.5,10.9,16.3C59.1,179.7,54.1,180.1,54.1,180.1z"/>
		<path class="st4" d="M48.4,156.5c-4.9,1.8-3.2,9.7-3.2,9.7s2.8-3.1,6.1,0c3.2,3.1,2.9,13.9,2.9,13.9s5-0.4,5.2-7.3
			C59.5,166,55.1,154,48.4,156.5z"/>
		<path class="st1" d="M140.2,28.1c-6.2-11-20.1-14.2-21.1-14.4c-13.6-2-29.4,0.3-40.7,9.1c-4,3.1-6.4,6.6-7.6,10.2
			c-0.8,2.6-1,5.3-0.8,8c3.5,3.9,7.9,6.6,11.1,7.5c0.4,0.1,0.8,0.2,1.2,0.3c7.9-5.5,18-1.9,23.2,0.6l-12.3-6.8c0,0,2.5-2.8,9.2-3.4
			c6.7-0.6,13.3,1.6,13.3,1.6s-5.7-4.5-17.5-5.2c-8.2-0.5-17.1,3.7-17.1,3.7s2.3-5.1,7.3-8.6c5.5-3.8,15.3-3.9,15.3-3.9
			s-5.7-2.1-13.1,0C83.2,29,76.5,36.9,76.5,36.9s3-13.3,16.5-17.8c10.7-3.6,28.3-2.7,40.5,4.8c4.4,2.7,7,7.5,8.5,12.7
			c0.3-0.9,0.5-1.9,0.7-2.8C142.1,31.9,141.2,30,140.2,28.1z"/>
		<path class="st1" d="M145.5,50c0.1-0.6,0.4-5.8-1.6-12.7c-0.3,1.1-0.7,2.1-1,3.1c1.1,6.3,0.8,12.3,0.1,14.9
			c0.1-0.1,0.2-0.3,0.3-0.5C144.1,53.3,144.9,51.7,145.5,50z"/>
		<path class="st1" d="M78.3,60c0-0.1,0-0.2,0-0.3c-0.1,0-0.2,0-0.3-0.1C78.2,59.8,78.3,59.9,78.3,60z"/>
		<path class="st1" d="M76,56.6c0.9,0.5,1.7,0.8,2.3,1.1c0.1-2.3,0.7-5.1,2.3-7.2c-2.9-0.8-6.6-2.9-10-6C71.7,48.8,73.7,53,76,56.6z
			"/>
		<path class="st1" d="M141.4,60.7c2.3-0.2,4.6-0.3,6.7-0.3h0.2c0.8,0,1.6,0.1,2.4,0.2c-2.4-1.3-4.5-2.2-6-2.9c-0.3,0-0.7,0-1,0
			C142.9,58.9,142,60,141.4,60.7z"/>
		<path class="st1" d="M50,133.5c-0.7-2-1.7-5.1-3.2-9.6C47.8,127.6,48.9,130.8,50,133.5z"/>
		<path class="st2" d="M79.6,150.6c6.3-3,9.5-1.7,9.5-1.7c-0.6-2-5.2-5.5-8.1-7.7l-5.6-0.3c-1.9,5.8-3.5,11.4-4.5,16.2
			c0.7-0.1,1.5-0.2,2.3-0.4C73.7,155.7,75.4,152.6,79.6,150.6z"/>
		<path class="st2" d="M152.2,134.1c0.3,0.8,0.5,1.6,0.7,2.6c2.3,0.9,4.5,2,6,2.7c-2.1-1.8-4.4-3.8-6.9-5.9
			C152.1,133.7,152.2,133.9,152.2,134.1z"/>
		<path class="st2" d="M78.2,216c-4.2-5.1-7.5-10-10-14.9C70.9,206.4,74.3,211.5,78.2,216z"/>
		<path class="st2" d="M79.2,217.2c-0.1-0.1-0.2-0.2-0.3-0.3C79,217,79.1,217.1,79.2,217.2z"/>
		<path class="st2" d="M68,200.6c-0.1-0.3-0.3-0.5-0.4-0.8C67.7,200.1,67.8,200.4,68,200.6z"/>
		<path class="st2" d="M149.4,177.8c-1.6-2.2-1-8.1,0.2-17.4c-1.1,0.1-2.3,0.1-3.6,0c0.2,0.7,0.4,1.4,0.4,2.2c0,4-3.3,7.3-7.3,7.3
			s-7.3-3.3-7.3-7.3c0-1.7,0.6-3.2,1.5-4.4c-5.2-0.9-7.9-0.4-7.9-0.4s11.8-7,21-2.8c1.3,0.6,2.5,1,3.7,1.4c0.7-5.5,1.3-11,1.1-15.5
			l-30.2,1.5c0,0,20.1-8.7,25.2-7.8c1.2,0.2,2.7,0.7,4.3,1.2c-0.1-0.3-0.2-0.7-0.3-1c-0.6-1.5-2.2-3.8-4.5-6.4
			c-17.4-14.3-39.6-31.3-44.8-28.9c-5.5,2.5-10.6,5.6-12.5,9c-2.5,4.6-7.1,15.1-11.1,26.2c0.4-0.1,0.7-0.2,1-0.2
			c5.1-0.9,25.2,7.8,25.2,7.8l-7.7-0.4c0,0,0,0,0,0c5.5,2.6,10.1,7.9,12.7,17.5c0.5-0.1,1,0.1,1.2,0.6c0.1,0.2,1.8,5.6,1.5,9.6
			c-0.1,1.3-0.8,2.7-1.7,4.4c-1.4,2.8-3,5.9-1.3,7.9c0.2,0.2,0.6,0.4,1,0.5c0.2,0.1,0.5,0.1,0.8,0.2c2.2,0.5,5.9,0.4,8.2-0.5
			c2.1-0.9,2.2-2.5,2.2-2.6c0-0.5,0.5-0.9,1.1-0.9c0.5,0,1,0.5,0.9,1c0,0.1-0.2,2.8-3.3,4.2c0.4,0,0.6,0,0.6,0s-11.2,13.2-18.1-1.9
			c-2-4.4,2.1-7.9,1.9-13.9c-0.2-5.1-3.2-9-8.5-10.5c-1,0.1-2.3,0.2-3.7,0.5c1,1.2,1.5,2.8,1.5,4.4c0,4-3.3,7.3-7.3,7.3
			s-7.3-3.3-7.3-7.3c0-0.8,0.1-1.5,0.4-2.2c-3.3,0.2-6.1-0.1-8.4-0.7c-0.2,1.4-0.4,2.6-0.4,3.8c-0.7,13.8,7.8,44.7,20,57.2
			c12,12.3,21.8,14.6,22.1,14.7c1.2,0.1,2.4,0.2,3.7,0.2c4.6,0,9.1-0.8,13.3-2.3c0.1-0.1,19.9-17.1,28.1-28.4
			c5.4-7.5,11.5-17.9,11.6-18c0,0,0,0,0,0c-3.5-1.1-6.7-2.4-9.3-3.9C155.1,181.5,150.9,179.7,149.4,177.8z M115.9,174.6
			c-1,0-1.7-0.8-1.7-1.7c0-1,0.8-1.7,1.7-1.7c1,0,1.7,0.8,1.7,1.7C117.6,173.8,116.8,174.6,115.9,174.6z M79.7,179.3l-2.9-1.5
			l-2.9,1.5l0.5-3.2l-2.3-2.3l3.2-0.5l1.4-2.9l1.4,2.9l3.2,0.5l-2.3,2.3L79.7,179.3z M132.7,183.4c0,0.7-0.5,1.2-1.2,1.2
			c-0.7,0-1.2-0.5-1.2-1.2c0-0.7,0.5-1.2,1.2-1.2C132.2,182.2,132.7,182.8,132.7,183.4z M130,173.5c1,0,1.8,0.8,1.8,1.8
			c0,1-0.8,1.8-1.8,1.8c-1,0-1.8-0.8-1.8-1.8C128.2,174.3,129,173.5,130,173.5z M112.5,195.7c5-0.4,10.5,1.6,10.5,1.6
			s-3.6,4.6-10.1,4.8c-3.4,0.1-8.3-3.1-9.5-3.8C103.4,198.4,107.8,196.1,112.5,195.7z M107.6,208.8c0,0,0.6,0.1,1.6,0.1
			c-3-1.2-4.6-3.1-4.6-3.3c-0.3-0.4-0.3-1,0.2-1.4c0.4-0.3,1.1-0.3,1.4,0.2c0.1,0.2,3,3.6,8.7,3.6c5.5-0.1,7.1-3.9,7.2-4.1
			c0.2-0.5,0.8-0.8,1.3-0.6c0.5,0.2,0.8,0.8,0.6,1.3c-0.1,0.1-1,2.3-3.4,3.8c-1.3,1.9-3.6,4.9-6.4,6.2c-4.3,2-11.3-1-11.3-1
			L107.6,208.8z M95.1,175.8c0.4,0,0.8,0.3,0.8,0.8c0,0.4-0.3,0.8-0.8,0.8c-0.4,0-0.8-0.3-0.8-0.8C94.3,176.1,94.7,175.8,95.1,175.8
			z M89.6,182.2c-0.6,0-1.1-0.5-1.1-1.1c0-0.6,0.5-1.1,1.1-1.1c0.6,0,1.1,0.5,1.1,1.1C90.7,181.7,90.2,182.2,89.6,182.2z M143,176.8
			l0.5,2.7l-2.4-1.3l-2.4,1.3l0.5-2.7l-2-1.9l2.7-0.4l1.2-2.4l1.2,2.4l2.7,0.4L143,176.8z"/>
		<path class="st2" d="M168.8,187.1c-0.2,0.9-1.3,4.5-3.1,9.1C167,193.2,168.1,190.1,168.8,187.1z"/>
		<path class="st2" d="M156.3,157.3c0.4-1.3,0.8-2.6,1.3-4c0,0,0,0,0,0c1.2-4.2,2.4-8.4,3.1-12.3c-0.2-0.2-0.4-0.3-0.6-0.5l-6.8,0.3
			c0.2,4.7-0.5,10.5-1.2,16.1C153.7,157.1,155,157.3,156.3,157.3z"/>
		<path class="st2" d="M154.7,178.5c0,0-1-1.2-1.1-4.9c0-0.1,0-0.3,0-0.4c-0.1-3,0.4-7.4,2.1-13.9c-1.2,0.3-2.5,0.6-4,0.8
			c-0.9,7-1.9,14.8-0.7,16.4c0.6,0.9,2.2,1.7,4.1,2.6C155,179,154.9,178.8,154.7,178.5C154.7,178.6,154.7,178.5,154.7,178.5z"/>
		<path class="st4" d="M160.7,140.3l-0.7,0c0.2,0.2,0.4,0.3,0.6,0.5C160.7,140.7,160.7,140.5,160.7,140.3z"/>
		<path class="st4" d="M70.9,157.1c0.9-4.8,2.6-10.4,4.5-16.2l-4.8-0.2c-4.7,14.3-6.6,15-7.6,15.7C62.9,156.3,66,157.7,70.9,157.1z"
			/>
		<path class="st4" d="M152,133.5c2.5,2.1,4.9,4.1,6.9,5.9c1,0.5,1.6,0.8,1.9,0.9c0.1-0.5,0.2-1,0.3-1.5c0.6-4.8,0.3-8.4-0.7-10.3
			c0,0,0-0.1-0.1-0.1c-0.1-0.1-0.2-0.3-0.3-0.4c-0.1-0.1-0.1-0.1-0.1-0.1c0,0,0.1,0.1,0.1,0.1c0.1,0.1,0.1,0.2,0.2,0.3
			c-5.4-7.8-36.7-27.9-50.2-36.4c-0.1-0.1-0.3-0.2-0.4-0.2C121,101.5,147.8,124.9,152,133.5z"/>
		<path class="st4" d="M88.6,108.5c1.9-3.5,7-6.6,12.5-9c5.2-2.3,27.4,14.6,44.8,28.9c-12-13.8-42.4-39.2-42.8-39.5
			c-0.2-0.2-0.3-0.4-0.3-0.6c-1.8,0.3-3.8,0.7-6,1.3c-12.5,7.1-15.4,12.5-18.3,23.7c-2.6,10-4.8,17.6-6.6,23.4
			c1.9-0.8,3.9-1.5,5.6-2C81.5,123.6,86,113.1,88.6,108.5z"/>
		<path class="st4" d="M114.1,214.7c2.8-1.3,5.1-4.3,6.4-6.2c-1.4,0.8-3.2,1.5-5.6,1.5c-0.1,0-0.2,0-0.3,0c-2.2,0-3.9-0.5-5.4-1.1
			c-1-0.1-1.6-0.1-1.6-0.1l-4.9,4.9C102.8,213.8,109.8,216.7,114.1,214.7z"/>
		<path class="st4" d="M109.4,182.5c0.2,0.1,0.5,0.1,0.8,0.2C109.9,182.6,109.6,182.6,109.4,182.5z"/>
		<path class="st4" d="M80.9,141.2c2.9,2.1,7.5,5.7,8.1,7.7c0,0-3.2-1.3-9.5,1.7c-4.1,2-5.9,5.1-6.4,6.1c1.6-0.4,3.3-0.9,5.2-1.7
			c9.2-4.3,21,2.8,21,2.8s-1.4-0.3-4.2-0.1c5.3,1.5,8.3,5.4,8.5,10.5c0.2,6.1-3.9,9.6-1.9,13.9c7,15.1,18.1,1.9,18.1,1.9
			s-0.2,0-0.6,0c-0.1,0-0.1,0.1-0.2,0.1c-1.6,0.6-3.8,1-5.9,1c-2.8,0-5.4-0.6-6.4-1.7c-2.5-2.9-0.5-6.9,1.1-10
			c0.7-1.4,1.4-2.8,1.5-3.7c0.3-3.6-1.4-8.7-1.4-8.8c-0.2-0.5,0.1-1.1,0.6-1.3c0,0,0,0,0.1,0c-2.6-9.6-7.2-15-12.7-17.5c0,0,0,0,0,0
			L80.9,141.2z"/>
		<path class="st2" d="M186.4,166.2c0,0-2.3-2.5-5.2-0.7c-0.3,0.9-0.6,1.8-0.9,2.6c-0.5,1.9-0.8,3.5-0.6,4.4c0.2,1.6,0.6,3,1,4.3
			c0.8,1.6,1.8,3.2,2.7,4.6c5.6-6.4,9.3-19.2,4.8-26.2c-0.7-1.2-1.6-2-2.6-2.7c-0.5,1.5-0.9,3-1.4,4.4
			C187.8,159.6,186.4,166.2,186.4,166.2z"/>
		<path class="st4" d="M186.4,166.2c0,0,1.4-6.6-2.2-9.1c-1.1,3.2-2.1,6.1-3,8.5C184.1,163.8,186.4,166.2,186.4,166.2z"/>
		<path class="st0" d="M150.2,156.3c-1.2-0.3-2.4-0.8-3.7-1.4c-9.2-4.3-21,2.8-21,2.8s2.7-0.5,7.9,0.4c-1,1.2-1.5,2.8-1.5,4.4
			c0,4,3.3,7.3,7.3,7.3s7.3-3.3,7.3-7.3c0-0.8-0.1-1.5-0.4-2.2c1.3,0.1,2.5,0.1,3.6,0c0-0.2,0.1-0.5,0.1-0.7
			C149.9,158.6,150,157.4,150.2,156.3z"/>
		<path class="st0" d="M70.4,159.7c2.3,0.5,5.1,0.8,8.4,0.7c-0.2,0.7-0.4,1.4-0.4,2.2c0,4,3.3,7.3,7.3,7.3s7.3-3.3,7.3-7.3
			c0-1.7-0.6-3.2-1.5-4.4c1.4-0.3,2.7-0.4,3.7-0.5c2.8-0.2,4.2,0.1,4.2,0.1s-11.8-7-21-2.8c-1.9,0.9-3.6,1.4-5.2,1.7
			c-0.8,0.2-1.6,0.3-2.3,0.4c-4.9,0.6-7.9-0.8-7.9-0.8S65.3,158.5,70.4,159.7z"/>
		<path class="st0" d="M80.9,141.2l15.1,0.8l7.7,0.4c0,0-20.1-8.7-25.2-7.8c-0.3,0.1-0.7,0.1-1,0.2c-1.7,0.4-3.7,1.2-5.6,2
			c-0.4,1.4-0.9,2.7-1.3,4l4.8,0.2L80.9,141.2z"/>
		<path class="st0" d="M108,160.7c0,0.1,1.7,5.2,1.4,8.8c-0.1,0.9-0.8,2.3-1.5,3.7c-1.6,3.2-3.6,7.1-1.1,10c1,1.2,3.6,1.7,6.4,1.7
			c2.1,0,4.4-0.3,5.9-1c0.1,0,0.1-0.1,0.2-0.1c3.1-1.4,3.2-4.1,3.3-4.2c0-0.5-0.4-1-0.9-1c-0.5,0-1,0.4-1.1,0.9
			c0,0.1-0.2,1.7-2.2,2.6c-2.4,1-6,1-8.2,0.5c-0.3-0.1-0.5-0.1-0.8-0.2c-0.5-0.2-0.9-0.3-1-0.5c-1.6-1.9-0.1-5.1,1.3-7.9
			c0.8-1.7,1.6-3.2,1.7-4.4c0.3-4-1.4-9.3-1.5-9.6c-0.2-0.5-0.7-0.8-1.2-0.6c0,0,0,0-0.1,0C108.1,159.6,107.8,160.2,108,160.7z"/>
		<path class="st0" d="M123,197.3c0,0-5.5-2.1-10.5-1.6c-4.7,0.4-9.1,2.6-9.1,2.6c1.2,0.7,6.2,3.9,9.5,3.8
			C119.4,201.9,123,197.3,123,197.3z"/>
		<path class="st0" d="M114.6,210c0.1,0,0.2,0,0.3,0c2.4,0,4.2-0.7,5.6-1.5c2.5-1.5,3.4-3.7,3.4-3.8c0.2-0.5,0-1.1-0.6-1.3
			c-0.5-0.2-1.1,0-1.3,0.6c-0.1,0.2-1.7,4-7.2,4.1c-5.7,0-8.6-3.4-8.7-3.6c-0.3-0.4-1-0.5-1.4-0.2c-0.4,0.3-0.5,1-0.2,1.4
			c0.1,0.1,1.7,2,4.6,3.3C110.7,209.6,112.4,210,114.6,210z"/>
		<path class="st1" d="M184.2,184c0.1,0.7-0.2,1.4-0.8,1.9c-0.4,0.3-0.9,0.5-1.4,0.5c-0.7,0-1.3-0.3-1.7-0.8c-0.1-0.2-2.5-3.2-4-7.9
			c-0.7-0.6-1.3-1.3-1.8-1.9c-1.3,0.4-2.9,0.9-4.7,1.3c0.5,0.8,0.9,1.4,0.9,1.4c0.6,0.8,0.6,1.8,0.1,2.5c0,0,0,0,0,0
			c1.2,0.2,2.1,1.3,1.9,2.5c0,0.2-0.1,0.4-0.2,0.5c0.5,0.1,1,0.2,1.4,0.3c0.5,0.1,0.9,0.6,0.8,1.2c-0.1,0.5-0.5,0.8-1,0.8
			c-0.1,0-0.1,0-0.2,0c-0.7-0.1-3.1-0.6-6.2-1.4c-0.4-0.1-0.9-0.2-1.4-0.3c-2-0.5-4.2-1.1-6.4-1.8c2.6,1.5,5.9,2.8,9.3,3.9
			c11.1,3.5,24.2,4.8,24.2,4.8s-3.1-2.5-6.4-6c0,0,0,0,0,0S185.7,185,184.2,184z"/>
		<path class="st1" d="M157.6,153.2c1.8-5.4,3-10.3,3.4-14.4c-0.1,0.5-0.2,1-0.3,1.5c0,0,0,0,0,0.1c0,0.2-0.1,0.4-0.1,0.5
			C159.9,144.7,158.7,149,157.6,153.2z"/>
		<path class="st1" d="M162.7,178.8c1.1,0.5,2.3,1,3.6,1.4c-0.3-0.5-0.7-1.1-1-1.9c-0.2,0-0.3,0.1-0.5,0.1
			C164,178.6,163.3,178.7,162.7,178.8z"/>
		<path class="st1" d="M155.2,179.2c0.5,0.2,1,0.4,1.5,0.6c-0.2-0.2-0.3-0.5-0.5-0.7c-0.9-0.1-1.3-0.4-1.4-0.5
			C154.9,178.8,155,179,155.2,179.2z"/>
		<path class="st1" d="M153.5,173.7c0-0.1,0-0.3,0-0.4C153.5,173.4,153.5,173.5,153.5,173.7z"/>
		<path class="st1" d="M125.5,90.9c0.1,0,13.1,5.6,27.2,12.7c0.1,0,0.2-0.1,0.3-0.1C143,98.4,132.5,93.8,125.5,90.9z"/>
		<path class="st1" d="M176,128.6c0.1,1.6-0.2,3.7-0.9,6.3c2.6-1.1,5-3.1,6.8-4.6c-0.4-1.2-3.2-3.4-7.2-6.1
			C175.4,125.7,175.9,127.2,176,128.6z"/>
		<path class="st1" d="M160.3,128.5c0,0-0.1-0.1-0.1-0.1C160.2,128.5,160.2,128.5,160.3,128.5z"/>
		<path class="st1" d="M51,136.9c-1.2,8.5-2,14.4-2,14.4L51,136.9z"/>
		<path class="st1" d="M55.9,152.5C55.9,152.5,55.9,152.5,55.9,152.5c1,0.5,2.2,1.2,3.5,2C58.5,153.8,57.4,153.1,55.9,152.5z"/>
		<path class="st1" d="M102.9,87.5c0.4-0.4,1-0.5,1.4-0.1c0.4,0.3,2.3,1.9,5.2,4.4c0.1,0.1,0.3,0.2,0.4,0.2
			c13.5,8.5,44.9,28.6,50.2,36.4c0.2,0.3,0.5,0.7,0.9,1.1c1.5,1.7,4.3,4.3,8,6c0.3,0.1,0.7,0.2,1,0.3c0.9-2.9,1.5-5.4,1.4-6.8
			c-0.2-3-3.3-7.1-7.3-11.1c-5.3-3-11.1-6.2-16.8-9c-1.1-0.6-1.6-1.9-1-3c0.2-0.5,0.7-0.8,1.1-1c-11.8-7.6-22.1-13.8-22.1-13.8
			c-5.1-2.1-8.4-3.4-8.4-3.4s13.4,0.9,20.4,0c3.3-0.4,5.5-1,6.9-1.5c-3.7-5.1-7.8-10.7-10.8-11.7c-5.7-1.8-19.3,3.7-19.4,3.7
			c-0.5,0.2-1.1,0-1.3-0.5c-0.2-0.5,0-1.1,0.5-1.3c0.6-0.2,14.4-5.8,20.8-3.8c3.7,1.2,7.9,7,12,12.7c0.1-0.1,0.2-0.1,0.2-0.1l8,2.5
			l-3.4-4.6c0,0,4.9-3.3,6.1-5.1c1.1-1.8,2.5-2.5,2.5-2.5l11,7.6l-7-10.6l1.9-2.9c-1.8-1.3-3.6-2.6-5.4-3.7
			c-3.7-2.1-7.7-3.5-11.7-3.5h-0.2c-14.4,0-34.2,5.7-34.4,5.7c-0.5,0.2-1.1-0.2-1.2-0.7c-0.2-0.5,0.2-1.1,0.7-1.2
			c0.2,0,12.9-3.7,25.5-5.2c0-0.1,0-0.2,0.1-0.3c0-0.1,1.3-1.5,3.1-3.8c-3.9,1.4-24.3,3.9-26.1,4.5c-1.9,0.5-13.2-3.7-19.4-4.3
			c-6.2-0.5-18,4.3-18,4.3s0-0.2-0.1-0.5c-8.7,3-18,7.6-24.9,13.8c0,0,1.1,2.3,2.8,4.9c5.9-4.6,14.9-11,21.8-14.1
			c11.4-5.1,30.6,5.6,31.4,6.1c0.5,0.3,0.6,0.9,0.4,1.4c-0.3,0.5-0.9,0.6-1.4,0.4c-0.2-0.1-19.1-10.7-29.6-6
			c-6.8,3-15.8,9.6-21.7,14.1c-0.9,2.3-1.3,7.3-1.3,7.3l4.6-3.7c0.8,0.8,1.6,1.5,2.4,1.9c0.9,0.5,1.8,0.9,2.7,1.2
			c-2.2,3.4-1.5,12.7-1.5,12.7s2.2-4.4,4.2-6.9c1.1-1.4,2.7-2.6,4-3.5c1.7,0.4,3.2,0.7,4.3,0.9c3.4-3.6,6.9-6.9,9.5-8
			c4.9-2.2,19.4-6.8,20-7c0.5-0.2,1.1,0.1,1.2,0.6c0.2,0.5-0.1,1.1-0.7,1.2c-0.1,0-14.9,4.7-19.8,6.9c-5,2.2-13.9,13.1-18,18.4
			c-2.3,4.7-4.2,10.4-6,16.7c-3.9,13.3-11.8,16.7-11.9,16.7c0,0,0,0,0,0c0,0,6.1,1.4,11-1.9c7.5-5.1,12.2-22.8,16.4-33.7
			c4.2-11,21-13.1,21-13.1c-0.9,0.5-1.8,1-2.6,1.4c2.2-0.6,4.2-1,6-1.3C102.7,88,102.7,87.7,102.9,87.5z"/>
		<path class="st1" d="M75.4,58.5c0.7,0.4,1.7,0.8,2.6,1.1c0.1,0,0.2,0,0.3,0.1c0-0.6,0-1.3,0-2.1c-0.6-0.2-1.4-0.6-2.3-1.1
			c-5.5-2.8-14.8-9.9-18.8-22.8c-0.1-0.2-0.1-0.5-0.1-0.7c-1-4.7,2.4-8.9,5.5-11.7c0.5-0.5,1.2-0.9,1.7-1.4c-2.1,4.6-2,8.8-1.3,12
			c0.1,0.4,0.3,0.8,0.4,1.2c1.3,4.6,4.1,8.5,7.3,11.4c3.3,3,7,5.1,10,6c0.4-0.5,0.8-1,1.4-1.4c0.1-0.1,0.3-0.2,0.4-0.3
			c-0.4-0.1-0.8-0.1-1.2-0.3c-3.2-0.9-7.6-3.6-11.1-7.5c-2-2.3-3.7-4.9-4.7-8c-0.2-0.5-0.4-1.1-0.5-1.6c-1.1-4.8,0.1-9.6,3.3-14.2
			C80.4,9.6,101.3,3.9,120.9,6c11.7,4.3,20.5,11,21.9,15.4c0.1,0.4,0.2,0.8,0.3,1.1c0.9,0.8,1.7,1.7,2.4,2.6
			c-0.1-1.5-0.4-2.9-0.8-4.3c-1.3-4.3-7.6-9.5-15.8-13.6c3.4,0.8,6.7,1.8,9.8,3.1c8,3.4,12.8,8.4,14.2,14.9c0.6,2.5,0.5,5.1,0.2,7.8
			c-1.1,8.2-6,16.5-9.7,21.8c-0.1,0.1-0.2,0.3-0.3,0.5c-0.2,0.7-0.4,1.2-0.6,1.3c0,0,0.8,0,2.1,0c4-5.5,9.4-14.4,10.5-23.6
			c0.3-2.7,0.3-5.5-0.2-8.2c-1.6-7.1-6.7-12.6-15.4-16.3C134,6.3,128,4.8,121.7,4.2c-1.7-0.6-3.4-1.2-5.2-1.7
			c-10.1-2.9-29.3-5.7-44.1,7.1c-2.4,2.1-4.3,4.2-5.7,6.2c-2,1.3-3.9,2.6-5.4,4.1c-4.8,4.3-6.9,8.9-6.2,13.2
			c0.1,0.4,0.1,0.9,0.3,1.3C60.1,49.8,71.9,56.8,75.4,58.5z M73.7,11.1C86.5-0.1,102.8,1.2,113,3.6c-14.7-0.1-29.9,3.5-41.1,9.1
			C72.5,12.2,73,11.6,73.7,11.1z"/>
		<path class="st0" d="M138.8,60.7c-0.1,0.1-0.1,0.2-0.1,0.3c-12.6,1.5-25.3,5.1-25.5,5.2c-0.5,0.2-0.8,0.7-0.7,1.2
			c0.2,0.5,0.7,0.8,1.2,0.7c0.2-0.1,20-5.7,34.4-5.7h0.2c4,0,8,1.5,11.7,3.5c-3.3-2.1-6.5-3.9-9.3-5.3c-0.8-0.1-1.6-0.2-2.4-0.2
			h-0.2c-2.2,0-4.4,0.1-6.7,0.3c0.6-0.7,1.5-1.8,2.4-3.1c0.1-0.1,0.2-0.2,0.2-0.3c-1-0.4-1.6-0.7-1.6-0.7c-0.1,0.1-0.3,0.2-0.5,0.2
			C140.2,59.2,138.9,60.6,138.8,60.7z"/>
		<path class="st0" d="M142.8,33.7c-0.2,1-0.5,1.9-0.7,2.8c0.4,1.3,0.7,2.6,0.9,3.8c0.3-1,0.7-2,1-3.1
			C143.6,36.1,143.2,35,142.8,33.7z"/>
		<path class="st0" d="M53.6,181.4c-0.5,0.3-0.6,0.9-0.3,1.4c0,0,0.6,1.1,1.3,2.7c1.5,3.5,3.4,9.7,0.5,14.6
			c-1.6,2.7-4.4,3.2-6.6,2.6c-2-0.6-4.1-2.5-3.9-6.1c0.4-6.5,3.4-9,3.4-9c0.4-0.3,0.5-1,0.2-1.4c-0.3-0.4-1-0.5-1.4-0.2
			c-0.2,0.1-3.7,2.9-4.2,10.4c-0.3,4.7,2.5,7.3,5.3,8.2c0.7,0.2,1.5,0.3,2.3,0.3c2.7,0,5.2-1.4,6.6-3.8c3.1-5.3,1.5-11.6-0.1-15.6
			c-0.8-2.1-1.7-3.6-1.8-3.7C54.6,181.2,54,181.1,53.6,181.4z"/>
		<path class="st0" d="M47.4,175.2c-0.3-0.4-1-0.5-1.4-0.1c-0.4,0.3-0.5,1-0.1,1.4l2.5,3c0.2,0.2,0.5,0.4,0.8,0.4
			c0.2,0,0.4-0.1,0.6-0.2c0.4-0.3,0.5-1,0.1-1.4L47.4,175.2z"/>
		<path class="st0" d="M42.8,164.8c-0.5,0.1-0.9,0.6-0.8,1.1l0.7,4.8c0.1,0.5,0.5,0.9,1,0.9c0,0,0.1,0,0.1,0
			c0.5-0.1,0.9-0.6,0.8-1.1l-0.7-4.8C43.8,165.1,43.3,164.7,42.8,164.8z"/>
		<path class="st0" d="M43.6,159.9c0.3,0,0.6-0.1,0.8-0.4l3-3.7c0.3-0.4,0.3-1.1-0.1-1.4c-0.4-0.3-1.1-0.3-1.4,0.1l-3,3.7
			c-0.3,0.4-0.3,1.1,0.1,1.4C43.2,159.8,43.4,159.9,43.6,159.9z"/>
		<path class="st0" d="M170.5,83l-11-7.6c0,0-1.3,0.7-2.5,2.5c-1.1,1.8-6.1,5.1-6.1,5.1l3.4,4.6l-8-2.5c0,0-0.1,0.1-0.2,0.1
			c0.1,0.1,0.1,0.2,0.2,0.3c2.8,3.9,5.7,8,7.6,9.1c0.5,0.3,0.6,0.9,0.4,1.4c-0.2,0.3-0.5,0.5-0.9,0.5c-0.2,0-0.3,0-0.5-0.1
			c-2.2-1.3-5-5.2-8.2-9.7c-0.1-0.2-0.3-0.4-0.4-0.6c-1.4,0.5-3.6,1.1-6.9,1.5c-7,0.9-20.4,0-20.4,0s3.3,1.3,8.4,3.4h0c0,0,0,0,0,0
			c7.1,2.9,17.5,7.5,27.5,12.6c0.6-0.2,1.3-0.1,1.8,0.3c0.2,0.2,0.6,0.5,1.2,0.8c0.6-0.2,1.2-0.2,1.8,0.1c1.9,1,13.8,7.2,22.1,14.7
			c3.8,2.9,6.6,5.5,7.8,7.8c0-14.8-1.4-33.5-7.5-43c-0.7-1.1-1.4-2.1-2.2-3.1c-0.1,0.1-0.3,0.1-0.4,0.1c-0.2,0-0.3,0-0.5-0.1
			c-0.3-0.2-0.5-0.5-0.5-0.8c-0.4-0.9-3.2-4.3-7.2-7.9c-1.2-1-2.5-2-3.8-3l-1.9,2.9L170.5,83z"/>
		<path class="st0" d="M159.9,128.1c0,0-0.1-0.1-0.1-0.1C159.8,127.9,159.9,128,159.9,128.1z"/>
		<path class="st0" d="M160.2,128.4c0,0,0.1,0.1,0.1,0.1c1,1.8,1.3,5.5,0.7,10.3c-0.5,4.1-1.6,9-3.4,14.4c0,0,0,0,0,0
			c-0.5,1.4-0.9,2.8-1.3,4c-1.2,0-2.6-0.1-4.1-0.4c-0.1,1-0.3,2.1-0.4,3.1c0,0.1,0,0.2,0,0.3c1.5-0.2,2.8-0.5,4-0.8
			c-1.8,6.5-2.2,10.9-2.1,13.9c0,0.1,0,0.3,0,0.4c0.2,3.6,1.1,4.9,1.1,4.9s0,0,0.1,0.1c0.1,0.1,0.5,0.4,1.4,0.5
			c-0.3-0.4-0.5-0.8-0.7-1.3c-1.1-2.9,1.2-8.9,7.2-23.1c2.6-6.3,5.7-13.6,7.4-19c-0.4-0.1-0.7-0.2-1-0.3c-3.8-1.6-6.5-4.3-8-6
			C160.7,129,160.3,128.6,160.2,128.4c-0.1-0.2-0.2-0.3-0.3-0.4C160,128.2,160.1,128.3,160.2,128.4z"/>
		<path class="st0" d="M175,134.9c-1.4,5.2-4.3,12.4-8.2,21.6c-3.2,7.5-7.5,17.7-7.1,19.8c0.4,0.9,1.5,1.7,2.9,2.5
			c0.6-0.1,1.3-0.2,2.1-0.4c0.2,0,0.3-0.1,0.5-0.1c-1.4-2.8-2.7-7.2-0.3-11c4.2-6.8,17.6-32.5,16.9-37c0,0,0,0,0-0.1
			C180.1,131.8,177.6,133.7,175,134.9z"/>
		<path class="st0" d="M168.8,169.6c-1.5,2.5-0.1,5.8,1,7.6c1.8-0.5,3.4-0.9,4.7-1.3c-0.9-1-1.7-2-2.2-3c-1.4-2.8,2.4-11.7,5.9-20.8
			C173.6,161.2,168.9,169.5,168.8,169.6z"/>
		<path class="st0" d="M180.4,168.2c-0.4,1.3-0.7,2.3-0.9,3c-0.3,1.7,0.3,3.7,1.2,5.8c-0.4-1.3-0.8-2.7-1-4.3
			C179.6,171.7,179.9,170.1,180.4,168.2z"/>
		<path class="st0" d="M180.3,185.6c0.4,0.5,1.1,0.8,1.7,0.8c0.5,0,1-0.2,1.4-0.5c0.6-0.5,0.8-1.2,0.8-1.9c-2.1-1.5-5.3-3.8-7.9-6.3
			C177.8,182.5,180.2,185.5,180.3,185.6z"/>
		<path class="st0" d="M157.8,104.8c-0.6-0.3-1.3-0.3-1.8-0.1c-0.5-0.4-0.9-0.7-1.2-0.8c-0.6-0.4-1.2-0.5-1.8-0.3
			c-0.1,0-0.2,0.1-0.3,0.1c9.9,5,20.2,10.7,27.2,15.9C171.6,112,159.7,105.8,157.8,104.8z"/>
		<path class="st0" d="M146.4,105.8c-0.6,1.1-0.1,2.5,1,3c5.6,2.8,11.5,6,16.8,9c3.9,4,7.1,8.2,7.3,11.1c0.1,1.4-0.4,3.9-1.4,6.8
			c-1.7,5.5-4.8,12.7-7.4,19c-6,14.2-8.3,20.2-7.2,23.1c0.2,0.4,0.4,0.9,0.7,1.3c0.2,0.2,0.3,0.5,0.5,0.7c-0.5-0.2-1-0.4-1.5-0.6
			c-2-0.9-3.5-1.7-4.1-2.6c-1.2-1.7-0.3-9.5,0.7-16.4c0-0.1,0-0.2,0-0.3c0.1-1,0.3-2.1,0.4-3.1c0.7-5.6,1.3-11.4,1.2-16.1l6.8-0.3
			l0.7,0c0,0,0,0,0-0.1c-0.2-0.1-0.9-0.5-1.9-0.9c-1.5-0.7-3.7-1.8-6-2.7c-0.2-0.9-0.4-1.8-0.7-2.6c-0.1-0.2-0.2-0.4-0.3-0.6
			c-4.2-8.6-31-32-42.5-41.8c-2.9-2.5-4.8-4.1-5.2-4.4c-0.4-0.4-1-0.3-1.4,0.1c-0.2,0.2-0.2,0.5-0.2,0.8c0,0.2,0.1,0.5,0.3,0.6
			c0.4,0.3,30.8,25.7,42.8,39.5c2.3,2.7,4,4.9,4.5,6.4c0.1,0.3,0.2,0.6,0.3,1c-1.6-0.6-3-1-4.3-1.2c-5.1-0.9-25.2,7.8-25.2,7.8
			l30.2-1.5c0.1,4.5-0.4,10.1-1.1,15.5c-0.1,1.1-0.3,2.2-0.4,3.3c0,0.2-0.1,0.5-0.1,0.7c-1.2,9.4-1.8,15.3-0.2,17.4
			c1.4,1.9,5.6,3.7,10.1,5.1c2.1,0.7,4.4,1.3,6.4,1.8c0.5,0.1,0.9,0.2,1.4,0.3c3.1,0.8,5.5,1.2,6.2,1.4c0.1,0,0.1,0,0.2,0
			c0.5,0,0.9-0.3,1-0.8c0.1-0.5-0.2-1.1-0.8-1.2c-0.4-0.1-0.9-0.2-1.4-0.3c0.1-0.2,0.1-0.3,0.2-0.5c0.2-1.2-0.7-2.4-1.9-2.5
			c0,0,0,0,0,0c0.5-0.8,0.5-1.8-0.1-2.5c0,0-0.4-0.6-0.9-1.4c-1.1-1.8-2.5-5.1-1-7.6c0.1-0.2,4.9-8.4,9.4-17.5
			c3.4-9,6.4-18.2,3.9-22.1c-2.8-4.3-19.9-15.8-34.5-25.3C147.1,105,146.6,105.3,146.4,105.8z M181.8,130.2
			C181.8,130.2,181.9,130.3,181.8,130.2c0.7,4.5-12.7,30.2-16.9,37c-2.4,3.8-1.1,8.2,0.3,11c0.4,0.7,0.7,1.4,1,1.9
			c-1.3-0.4-2.5-0.8-3.6-1.4c-1.5-0.7-2.6-1.6-2.9-2.5c-0.4-2.1,3.9-12.4,7.1-19.8c3.9-9.2,6.8-16.4,8.2-21.6
			c0.7-2.6,1.1-4.7,0.9-6.3c-0.1-1.4-0.6-2.9-1.3-4.4C178.7,126.9,181.4,129,181.8,130.2z"/>
		<path class="st0" d="M176.5,80.4c0,0.3,0.2,0.6,0.5,0.8c0.2,0.1,0.3,0.1,0.5,0.1c0.2,0,0.3,0,0.4-0.1c-2.5-3.2-5.5-6.1-8.6-8.7
			C173.3,76.1,176.1,79.5,176.5,80.4z"/>
		<path class="st0" d="M78.9,67.3c10.5-4.7,29.4,5.9,29.6,6c0.5,0.3,1.1,0.1,1.4-0.4c0.3-0.5,0.1-1.1-0.4-1.4
			c-0.8-0.5-20-11.2-31.4-6.1c-6.9,3.1-15.8,9.5-21.8,14.1c-3.6,2.8-6.1,4.9-6.4,5.1c-0.4,0.4-0.5,1-0.1,1.4
			c0.2,0.2,0.5,0.4,0.8,0.4c0.2,0,0.5-0.1,0.6-0.2c0.1-0.1,2.4-2,6-4.8C63.1,76.9,72.1,70.3,78.9,67.3z"/>
		<path class="st0" d="M86.9,85.1c4.8-2.2,19.6-6.8,19.8-6.9c0.5-0.2,0.8-0.7,0.7-1.2c-0.2-0.5-0.7-0.8-1.2-0.6
			c-0.6,0.2-15.1,4.7-20,7c-2.6,1.2-6.1,4.4-9.5,8c-5.7,6.1-11.1,13.3-11.4,13.8c-0.3,0.4-0.2,1.1,0.2,1.4c0.2,0.1,0.4,0.2,0.6,0.2
			c0.3,0,0.6-0.1,0.8-0.4c0,0,0.9-1.2,2.2-2.8C73,98.2,81.9,87.3,86.9,85.1z"/>
		<path class="st0" d="M153,96.3c0.2,0.1,0.3,0.1,0.5,0.1c0.3,0,0.7-0.2,0.9-0.5c0.3-0.5,0.1-1.1-0.4-1.4c-1.9-1.1-4.8-5.2-7.6-9.1
			c-0.1-0.1-0.1-0.2-0.2-0.3c-4.1-5.7-8.3-11.5-12-12.7c-6.4-2-20.2,3.5-20.8,3.8c-0.5,0.2-0.8,0.8-0.5,1.3c0.2,0.5,0.8,0.7,1.3,0.5
			c0.1-0.1,13.7-5.6,19.4-3.7c3,1,7.1,6.6,10.8,11.7c0.1,0.2,0.3,0.4,0.4,0.6C148,91.1,150.8,95,153,96.3z"/>
		<path class="st4" d="M95.1,177.3c0.4,0,0.8-0.3,0.8-0.8c0-0.4-0.3-0.8-0.8-0.8c-0.4,0-0.8,0.3-0.8,0.8
			C94.3,177,94.7,177.3,95.1,177.3z"/>
		<path class="st4" d="M90.7,181.1c0-0.6-0.5-1.1-1.1-1.1c-0.6,0-1.1,0.5-1.1,1.1c0,0.6,0.5,1.1,1.1,1.1
			C90.2,182.2,90.7,181.7,90.7,181.1z"/>
		<path class="st4" d="M130.3,183.4c0,0.7,0.5,1.2,1.2,1.2c0.7,0,1.2-0.5,1.2-1.2c0-0.7-0.5-1.2-1.2-1.2
			C130.9,182.2,130.3,182.8,130.3,183.4z"/>
		<path class="st4" d="M130,177.1c1,0,1.8-0.8,1.8-1.8c0-1-0.8-1.8-1.8-1.8c-1,0-1.8,0.8-1.8,1.8C128.2,176.3,129,177.1,130,177.1z"
			/>
		<path class="st4" d="M115.9,171.1c-1,0-1.7,0.8-1.7,1.7c0,1,0.8,1.7,1.7,1.7c1,0,1.7-0.8,1.7-1.7
			C117.6,171.9,116.8,171.1,115.9,171.1z"/>
		<polygon class="st4" points="78.2,173.3 76.8,170.4 75.4,173.3 72.1,173.8 74.5,176.1 73.9,179.3 76.8,177.8 79.7,179.3 
			79.1,176.1 81.5,173.8 		"/>
		<polygon class="st4" points="141,172.1 139.8,174.5 137.1,174.9 139,176.8 138.6,179.5 141,178.3 143.4,179.5 143,176.8 
			144.9,174.9 142.2,174.5 		"/>
		<path class="st1" d="M18.7,341.2c-3.2,53.7,2.5,92.6,6.5,110.5c0.7,2.8,1.4,5.5,2.1,8c0.6,1.8,1,2.8,1.3,3
			c0.7,0.5,11.7-24,10.8-35.3c-2.1-28.1-3.1-52.7-2.9-65.2C36.5,360.5,24.6,347.9,18.7,341.2z"/>
		<path class="st1" d="M187.5,305.6c5.3,3.2,10.4,6.5,15,9.9C197.9,312,192.8,308.7,187.5,305.6z"/>
		<path class="st1" d="M211.5,331.1c-6-5.9-37.7-23.4-56.5-34.2l-38.8,13.3l-44.4-12c-17.6,8-39.1,18.7-43.6,24.8
			c-4.3,5.7-7.1,11.5-8.8,15.9c6.2,4.4,18,14.5,18.3,14.8c3.2,3.6,2.3,4,2.4,8.2c0.3,12.5,2.6,35,4.5,47.1c2,12.9,12.9,79,13,79.2
			h116.3c0,0,9.5-56.9,13.3-76.9c2.1-10.6,7.5-30.1,4.1-49.4c-2.5-14.6,4.1-7.3,4.1-7.3s-1.5,69.6-6.8,105.7
			c-3.1,21.6,33,27.9,33,27.9s5.1-78.8,0.1-133.8c-0.1-1.2-0.2-2.3-0.3-3.5C221.2,349.4,219.5,339,211.5,331.1z M45,389.9
			c-0.2-0.5,0-1.1,0.5-1.3c0.5-0.2,1.1,0,1.3,0.5c0.1,0.2,7.7,18.1,29,21.6c21.4,3.5,32.9-2.4,33-2.4c0.5-0.3,1.1-0.1,1.3,0.4
			c0.3,0.5,0.1,1.1-0.4,1.3c-0.4,0.2-7.4,3.8-20.6,3.8c-4,0-8.5-0.3-13.6-1.2C53.1,409,45,390.1,45,389.9z M157.1,412.7
			c-5.1,0.8-9.7,1.2-13.6,1.2c-13.3,0-20.3-3.6-20.7-3.8c-0.5-0.3-0.7-0.9-0.4-1.3c0.3-0.5,0.9-0.7,1.3-0.4c0.1,0.1,11.6,6,33,2.4
			c21.2-3.5,28.9-21.4,29-21.6c0.2-0.5,0.8-0.8,1.3-0.5c0.5,0.2,0.7,0.8,0.5,1.3C187.5,390.1,179.5,409,157.1,412.7z"/>
		<path class="st1" d="M220.2,340.4c-0.2-1.6-0.4-3.1-0.7-4.6c-0.1-0.8-0.3-1.6-0.6-2.3c-0.2-0.6-0.5-1.3-0.8-1.9
			C219,334.2,219.7,337.4,220.2,340.4z"/>
		<path class="st1" d="M77.1,295.8l39,11.2l35.5-12c-6.2-3.6-10.4-6.2-10.7-6.8c-0.1-0.3-0.2-1.1-0.2-2.2l-25.1,7.5l-19.1-5.7
			l-0.6-0.2C96,287.6,87.8,291,77.1,295.8z"/>
		<path class="st0" d="M188.6,460.3c5.2-36.1,6.8-105.7,6.8-105.7s-6.6-7.3-4.1,7.3c3.3,19.3-2.1,38.8-4.1,49.4
			c-3.9,19.9-13.3,76.9-13.3,76.9h47.8C221.6,488.1,185.5,481.9,188.6,460.3z"/>
		<path class="st0" d="M89.1,413.8c13.3,0,20.3-3.6,20.6-3.8c0.5-0.3,0.7-0.9,0.4-1.3c-0.3-0.5-0.9-0.7-1.3-0.4
			c-0.1,0.1-11.6,6-33,2.4c-21.2-3.5-28.9-21.4-29-21.6c-0.2-0.5-0.8-0.8-1.3-0.5c-0.5,0.2-0.7,0.8-0.5,1.3
			c0.1,0.2,8.1,19.1,30.5,22.8C80.5,413.5,85.1,413.8,89.1,413.8z"/>
		<path class="st0" d="M187.1,388.6c-0.5-0.2-1.1,0-1.3,0.5c-0.1,0.2-7.7,18.1-29,21.6c-21.4,3.5-32.9-2.4-33-2.4
			c-0.5-0.2-1.1-0.1-1.3,0.4c-0.3,0.5-0.1,1.1,0.4,1.3c0.4,0.2,7.4,3.8,20.7,3.8c4,0,8.5-0.3,13.6-1.2c22.3-3.7,30.4-22.6,30.5-22.8
			C187.8,389.4,187.6,388.8,187.1,388.6z"/>
		<path class="st0" d="M44.6,409c-1.9-12.1-4.1-34.6-4.5-47.1c-0.1-4.2,0.8-4.6-2.4-8.2c-0.3-0.3-12.1-10.5-18.3-14.8
			c1.7-4.4,4.5-10.2,8.8-15.9c4.6-6,26-16.7,43.6-24.8l44.4,12l38.8-13.3c-1.1-0.7-2.3-1.3-3.3-1.9l-35.5,12l-39-11.2
			c10.7-4.8,18.9-8.2,18.9-8.2h0l-10.2-3c0,0,0,0,0,0c-0.6,0.2-31.7,11.5-53,25.9c-17.9,12.1-20.4,20.6-20.8,23.9c0,0,0,0,0,0
			s-1.9,2-3.9,30.7c-0.8,10.9,8.6,123.1,8.6,123.1h40.9c0,0,0,0,0,0C57.5,488,46.6,421.9,44.6,409z M39.4,427.5
			c0.8,11.3-10.1,35.8-10.8,35.3c-0.2-0.2-0.7-1.2-1.3-3c-0.6-1.9-1.3-4.5-2.1-8c-4-17.9-9.7-56.8-6.5-110.5
			c5.8,6.7,17.8,19.3,17.8,21.1C36.3,374.7,37.3,399.3,39.4,427.5z"/>
		<path class="st2" d="M142.5,56.6c0,0,0.6,0.3,1.6,0.7c0.2,0.1,0.5,0.2,0.8,0.3c1.5,0.7,3.5,1.6,6,2.9c2.8,1.4,5.9,3.2,9.3,5.3
			c1.8,1.1,3.6,2.4,5.4,3.7c1.3,0.9,2.6,1.9,3.8,3c3.2,2.6,6.2,5.5,8.6,8.7c0.8,1,1.5,2.1,2.2,3.1c6.1,9.5,7.5,28.2,7.5,43
			c-1.1-2.3-3.9-5-7.8-7.8c-7-5.2-17.4-10.9-27.2-15.9c-14.2-7.1-27.2-12.7-27.2-12.7c0,0,0,0,0,0h0c0,0,10.3,6.2,22.1,13.8
			c14.6,9.4,31.7,20.9,34.5,25.3c2.6,3.9-0.5,13.1-3.9,22.1c-3.4,9.1-7.2,18-5.9,20.8c0.5,1,1.2,2,2.2,3c0.6,0.6,1.2,1.3,1.8,1.9
			c2.6,2.5,5.8,4.8,7.9,6.3c1.5,1,2.4,1.6,2.4,1.6s0,0,0,0c0-0.1-1.6-1.8-3.2-4.1c-1-1.4-2-3-2.7-4.6c-1-2-1.5-4.1-1.2-5.8
			c0.1-0.7,0.4-1.7,0.9-3c0.3-0.8,0.6-1.6,0.9-2.6c0.9-2.4,1.9-5.3,3-8.5c0.5-1.4,1-2.9,1.4-4.4c0.4-1.4,0.8-2.7,1.2-4.1
			c0,0,0,0,0,0s15.4-52.1,3.4-72.2c-10.2-17.2-37.9-19.4-45.7-19.7C143.2,56.6,142.5,56.6,142.5,56.6z"/>
		<path class="st2" d="M119.1,13.7c0.9,0.2,14.9,3.4,21.1,14.4c1.1,1.9,1.9,3.8,2.6,5.6c0.5,1.2,0.8,2.4,1.2,3.5
			c1.9,6.8,1.6,12.1,1.6,12.7c0,0,0,0.1,0,0.1s3.9-9,3.1-17c-0.2-2.4-0.8-4.6-2.1-6.5c-0.3-0.5-0.7-0.9-1.1-1.4
			c-0.8-0.9-1.6-1.8-2.4-2.6C134,14.5,119,13.7,119.1,13.7C119,13.7,119.1,13.7,119.1,13.7z"/>
		<path class="st2" d="M129.2,233.3C129.2,233.3,129.1,233.3,129.2,233.3c0,0,6.2-1.7,14.1-7.4c0.1,0,0.1-0.1,0.2-0.1
			c3.6-2.6,7.5-6,11.2-10.3c5.1-5.9,8.7-13.4,11.1-19.2c1.8-4.6,2.9-8.2,3.1-9.1c0-0.1,0.1-0.2,0.1-0.2s0,0,0,0
			c-0.1,0.2-6.2,10.5-11.6,18C149.1,216.2,129.3,233.2,129.2,233.3z"/>
		<path class="st2" d="M140.8,286c0,1.1,0.1,1.9,0.2,2.2c0.3,0.6,4.5,3.2,10.7,6.8c1,0.6,2.1,1.2,3.3,1.9
			c18.8,10.8,50.5,28.2,56.5,34.2c8,7.9,9.7,18.3,9.9,19.7c0.1,1.2,0.2,2.3,0.3,3.5h0.4v-20.9h-3.3c0.3,0.8,0.5,1.6,0.6,2.3
			c0.2,1.5,0.5,3,0.7,4.6c-0.5-3-1.2-6.2-2.1-8.8c-0.6-1.8-1.4-3.3-2.2-4.3c-1.6-1.9-3.6-3.8-5.8-5.8h12.2v-20.9h-38.9v2.5
			c-18.8-11-37.8-19.8-37.8-19.8c-0.1-4.1-2.5-27.3-2.5-27.3l0,0C143,256.7,140.7,278.7,140.8,286z M202.5,315.4
			c-4.6-3.3-9.7-6.7-15-9.9C192.8,308.7,197.9,312,202.5,315.4z"/>
	</g>
</g>
</svg>
