<?xml version="1.0" encoding="utf-8"?>
<!-- Generator: Adobe Illustrator 25.0.1, SVG Export Plug-In . SVG Version: 6.00 Build 0)  -->
<svg version="1.1" id="Calque_1" xmlns="http://www.w3.org/2000/svg" xmlns:xlink="http://www.w3.org/1999/xlink" x="0px" y="0px"
	 viewBox="0 0 500 500" style="enable-background:new 0 0 500 500;" xml:space="preserve">
<style type="text/css">
	.st0{fill:#212529;}
	.st1{fill:#0D6EFD;}
	.st2{fill:#FFFFFF;}
	.st3{fill:#959BAB;}
	.st4{fill:#8D9DB5;}
</style>
<rect class="st0" width="500" height="500"/>
<g>
	<polygon class="st1" points="501.7,-522.1 501.8,-522.1 501.8,-500.3 501.7,-500.3 501.7,-414.4 512,-414.4 512,-544.2 
		501.7,-544.2 	"/>
	<path class="st1" d="M218.6-717.8c0,0-0.3,0.9-0.8,2.4c0.7,0.2,1.5,0.4,2.2,0.7c0.7-1,1.5-1.8,2.3-2.3c-0.1-1.2-0.2-3.6,0.5-6.3
		h-3.5C219.4-721.6,219.2-719.8,218.6-717.8z"/>
	<path class="st1" d="M224.4-717.8c0.6,0,1.3,0.1,1.9,0.2c0.7-1.5,2.1-3.8,4.4-5.7h-3.2c-1.5,1.9-2.9,3.9-4.2,5.7
		C223.7-717.7,224.1-717.8,224.4-717.8z"/>
	<path class="st1" d="M230.6-716.4c2,0.6,4.9,2.2,8.1,4.3h88.8l-55.1,73.5c1.6,0.1,3.3,0.5,5.1,1.3c7.8,3.5,3.5,19.1,3.5,19.1
		s0,0,0,0c-1.8,8.2-6.8,16.1-11.9,17.8c6.1,10.3,15.9,27.5,15.5,31.7c-0.2,1.8-2.4,5.5-5.8,9.9c0,0.1,0,0.2,0,0.2
		c0.1,0.6-0.3,1.1-0.8,1.2c-0.1,0-0.1,0-0.2,0c-0.1,0-0.1,0-0.1-0.1c-4.5,5.6-10.4,12.1-16.1,17.3c-1,2.3-1.8,3.8-1.9,4
		c-0.2,0.3-0.5,0.5-0.9,0.5c-0.2,0-0.4,0-0.5-0.1c-0.4-0.2-0.5-0.6-0.4-1c-2.5,2.1-4.8,3.8-6.7,4.9c-2.7,2.3-5.6,4.6-8.6,6.7
		l4.4,24.9l11.9,3.6c-4.7-2-8-3.4-8-3.4l47,12.1l73.5-108.1v-21.5h14.6l64.2-94.4h37.4v-0.1h14.3v94.5H512v-105.6h-0.7v95h-4.2
		v-89.8h-73.8c0,0,2.9-4.1,3-5.2H240.3c-3.8,1.6-8.4,3.8-12.3,6C228.8-717,229.7-716.8,230.6-716.4z"/>
	<path class="st1" d="M501.7-252.1h-0.4v5.8H126.5c0,0.1,0,0.2,0,0.2H92c0,0,0-0.1-0.1-0.2h-0.2l0,0.4H2.9l0-0.4h-95.8v-5.2l-0.2,0
		v-142.3c-7.7,3.3-12.1,5-12.1,5v66.9c0.9-0.8,1.7-1.5,1.7-1.5v84.4h78.5v4.6h453.6v-4.6h78.5v-84.4c0,0,4.7,4.4,4.7,3.3v85.8h0.1
		v-131.6h-10.3V-252.1z"/>
	<rect x="501.7" y="-412" class="st1" width="10.3" height="43.6"/>
	<rect x="482.9" y="-544.2" class="st0" width="18.8" height="22.1"/>
	<polygon class="st0" points="482.9,-659.1 482.9,-617.7 501.7,-617.7 501.7,-712.2 487.4,-712.2 487.4,-712.1 450,-712.1 
		385.8,-617.7 460.8,-617.7 	"/>
	<path class="st0" d="M260.8-690.8c3.5,8.8,1.4,54.5,1.4,54.5s4.5-2.7,10.2-2.3l55.1-73.5h-88.8
		C247.3-706.3,258.5-696.6,260.8-690.8z"/>
	<path class="st0" d="M303.9-460.1c0,0-0.5-1.1-1.3-2.8l-5,2c1.2,0.6,2.3,1.3,3.5,1.9c-0.1-0.1-0.1-0.1-0.1-0.1s0.4,0.3,1.1,0.7
		c8.4,4.7,16.6,9.7,24,14.8c11.7,7.3,24.4,15.5,31.1,20.4l41-77.1h-29.5v-21.9H410l11.8-22.1h-50.6v-51.9l-73.5,108.1l4.1,1.1
		L303.9-460.1z"/>
	<polygon class="st1" points="247.6,-496.6 246.8,-500.3 247.5,-496.7 	"/>
	<path class="st1" d="M261.7-572.1c-0.3,0.4-0.5,0.8-0.8,1.3c0.4-0.4,0.7-0.8,1.1-1.2C261.8-572.1,261.7-572.1,261.7-572.1z"/>
	<path class="st1" d="M264-578.7c-0.3,1.7-0.7,3.2-1.3,4.6c0.1,0,0.2,0,0.3,0C263.5-575.5,263.8-577,264-578.7z"/>
	<polygon class="st1" points="-7,-266 1.9,-266 5.6,-266 8.3,-286.5 	"/>
	<polygon class="st1" points="460.8,-617.7 482.9,-617.7 482.9,-659.1 	"/>
	<polygon class="st1" points="482.9,-522.1 482.9,-544.2 421.8,-544.2 410,-522.1 	"/>
	<path class="st1" d="M357.3-423.2c1.8,1.3,3.2,2.4,3.9,3.2c5.6,5.6,17,70.5,21.2,95.4l8.1,34.1l1.3,0l91-188.7v-21.1h-84.5
		L357.3-423.2z"/>
	<path class="st0" d="M-93-251.6l0.2,0v5.2H3L5.6-266l-3.7,0H-7l15.4-20.5l15.6-116.3c0.1-0.7,0.1-1.3,0.2-1.7l0.1-1.1
		c0,0,0,0,0.1,0c4.1-20.4,38.4-40.6,69.7-55.6l-5.1-2l2.8-20.9l52.8-15.8l-0.5,3.1L112.3-484l20.9,6.7l1.1,0.6l6.8-3.4l0,0l2.9-16.6
		h0l4.6-26.3c0.2,0.1,0.4,0.2,0.6,0.3c16.9,8.4,41.8,19,71.4,8.8c1.9-0.7,3.9-1.4,5.9-2.3c5.6-2.4,11-5.6,16-9.1
		c3-2.1,5.9-4.4,8.6-6.7c-0.2,0.1-0.5,0.3-0.7,0.4c0,0,6.3-8.5,12.1-18.1c0.4-1.6,0.7-3.2,0.8-4.9l-11.6,4.7l-1.5,6l-1.7-4.5
		l-0.2,0.1c-0.7,0.3-1.4,0.6-2.1,0.9c-0.4,6.8-1.9,18.4-2,19c-0.1,0.5-0.5,0.9-1,0.9c0,0-0.1,0-0.1,0c-0.6-0.1-1-0.6-0.9-1.2
		c0-0.1,1.5-11,1.9-17.9c-1.3,0.5-2.7,0.9-4,1.3l-5,6.9v-5.6c-15.8,3.6-28.1,1.5-29.1,1.4c0,0-0.1,0-0.1,0s-3.1,0.4-7.8,0.5
		c-6.5,0.1-15.9-0.3-24.2-3.1c-9.7-3.3-25.7-11.2-35.4-18.5c-4-3-6.8-5.8-7.8-8.2c0.3,0.4,0.6,0.8,1,1.1c-0.5-0.7-1-1.4-1.3-2.1
		c-1.7-8.2,7.8-27.2,7.8-35.4c0-8.3-2.4-14.3-2.4-14.3L124.8-600c-0.6,0-1.1-0.1-1.7-0.2c-0.4-0.1-0.8-0.2-1.2-0.4
		c-0.4,2.2-1.2,4.4-2.5,5.7c-0.9,0.9-2.1,1.4-3.4,1.4c-0.1,0-0.2,0-0.4,0c-2.5-0.2-4.6-1.8-5.2-4.1c-0.6-2.4,0.4-4.8,2.7-6.3
		c0.5-0.3,1.1-0.2,1.4,0.3c0.3,0.5,0.2,1.1-0.3,1.4c-1.8,1.1-2.1,2.8-1.8,4c0.3,1.2,1.3,2.5,3.3,2.6c0.9,0.1,1.6-0.2,2.1-0.8
		c1.1-1.1,1.7-3.1,2-5.2c-7.6-5.1-14-22.6-8.4-31.4c4.7-7.4,15.1-3.9,20.1-1.5c-0.5-6.9-1.2-14.7-1.6-20.3c1.6-2.2,4-5.1,7.5-8
		c2.2-1.8,4.9-3.6,7.9-5.1c12.3-6.1,26.3-9.7,26.3-9.7L141.5-661c0,0,36.8-10.7,49.7-16.6c13-5.9,21.5-25.2,21.5-25.2l0,0
		c0,0,0,0,0,0c0-0.1,0.1-0.1,0.1-0.2c0,0,0,0,0,0c3.5-6.8,1.3-14.8-4.3-19.5c0.1,0.1,0.3,0.3,0.4,0.4c0.4,0.4,0.3,1.1-0.1,1.5
		c-0.4,0.4-1.1,0.3-1.5-0.1c-2-2.4-7.1-4.9-14.2-6.7c-0.6,0-1.3,0-1.9,0c-5.4,0.4-16.4,1.3-28.1,4.2c9.5-1,16.9,0.4,17.8,0.9
		c0.5,0.3,0.6,1,0.3,1.4c-0.3,0.5-0.9,0.6-1.4,0.3c-2.7-1.1-25.3-4-43.6,9.5c-3.4,2.7-6.5,5.8-8.8,9.6c-10.5,17-12,38.7-12.2,48
		c1.3,5.4,3,8.7,3,8.7c0.3,0.5,0.1,1.1-0.4,1.4c-0.2,0.1-0.3,0.1-0.5,0.1c-0.4,0-0.7-0.2-0.9-0.5c0-0.1-0.8-1.6-1.7-4.2
		c-0.8,1.4-1.1,2.2-1.1,2.2s-13-32.6,10.2-65.2c3.7-5.2,7.9-9.3,12.4-12.4h-3.5c-6.4,3-11.7,6.9-15.4,11.6
		c-22.5,27.9-13.1,59.6-13,59.9c0.2,0.5-0.1,1.1-0.7,1.3c-0.1,0-0.2,0.1-0.3,0.1c-0.4,0-0.8-0.3-1-0.7c-0.1-0.3-9.9-33.1,13.3-61.8
		c3.2-4,7.4-7.4,12.4-10.3H-32.5c0.1,1.1,3,5.2,3,5.2h-73.8v89.8h-1.8v51.7l0.9,0.9l-0.9,0.9v61.8h39v64.4h-39v59.7
		c0,0,4.4-1.6,12.1-5V-251.6z M130.1-655.5c-0.2-2.4-0.3-4.4-0.3-5.6c0-0.7,0.1-1.5,0.1-2.4c2.3-1.6,4.5-2.8,5.5-3.5
		c0.4-0.2,0.7-0.4,0.7-0.4l0,0L130.1-655.5z M122.7-657.7c1-1.1,2.5-2.3,4-3.4C125.2-660,123.8-658.9,122.7-657.7
		C122.7-657.7,122.7-657.7,122.7-657.7z"/>
	<rect x="-105.1" y="-510.6" class="st0" width="36.7" height="59.7"/>
	<path class="st0" d="M482.9-500.3v21.1l-91,188.7l-1.3,0l10.4,43.9h-54l0,0h-38.7l0,0H126.5c0,0.1,0,0.2,0,0.2h374.7v-5.8h0.4
		v-113.9h-26.3v-48.3h26.3v-85.9H482.9z"/>
	<rect x="477.7" y="-412" class="st0" width="24" height="43.6"/>
	<path class="st0" d="M91.7-246.6l0,0.2h0.2c0-0.1,0-0.1-0.1-0.2H91.7z"/>
	<path class="st2" d="M507.1-718.1v89.8h4.2v-95v-0.3h-75.1c0.1,0,0.2,0.1,0.2,0.3c-0.1,1.1-3,5.2-3,5.2H507.1z"/>
	<path class="st2" d="M507.2-323.5v84.4h-78.5v4.6v0.2h83.2v-0.2v-85.8C511.9-319.1,507.2-323.5,507.2-323.5z"/>
	<path class="st2" d="M-103.3-718.1h73.8c0,0-2.9-4.1-3-5.2c0-0.2,0-0.3,0.2-0.3h-75.1v95.2h2.4h1.8V-718.1z"/>
	<path class="st2" d="M-103.3-239.1v-84.4c0,0-0.8,0.7-1.7,1.5c-1.4,1.1-3,2.4-3,1.7v86h83.2v-0.2v-4.6H-103.3z"/>
	<polygon class="st1" points="512.9,-438.8 532.8,-438.8 532.8,-414.4 512,-414.4 501.7,-414.4 475.4,-414.4 475.4,-366.1 
		501.7,-366.1 512,-366.1 524.4,-366.1 524.4,-368.4 512,-368.4 501.7,-368.4 477.7,-368.4 477.7,-412 501.7,-412 512,-412 
		535.1,-412 535.1,-441.2 512.9,-441.2 	"/>
	<path class="st1" d="M302.2-458.4c3.3,2,13.2,8,24,14.8C318.8-448.7,310.6-453.7,302.2-458.4z"/>
	<path class="st1" d="M91.7-247.2l0,0.6h0.2C91.8-246.7,91.8-247,91.7-247.2z"/>
	<path class="st1" d="M79.7-311.3c-3.6-27.2-9.1-54.3-16-63.6c-2.9-4-13.5-13.2-21.9-14c-1.4-0.1-2.7-0.3-3.9-0.5
		c-1.7,17.7-7,82.7,5.3,102.5c11.5,18.7,36.3,24.7,45.4,26.4C86-272.2,82.5-290.1,79.7-311.3z"/>
	<path class="st3" d="M181.5-451.7l15.3,28.9l0.3,0.2l0,0l15.1-29l47.6-25.7L249-482c-1.1,6.2-5.9,11.4-12.4,12.8
		c-13.2,2.7-33.3,6-52.6,6c-7.2-6.4-17-15.7-18-19.7c-1.7-6.4-2.9-25.3-2.9-25.3c3.4,3.6,34,9.3,46.1,3.3c3.1-1.6,7.2-5,11.4-9.1
		c-29.7,10.2-54.5-0.3-71.4-8.8c-0.2-0.1-0.4-0.2-0.6-0.3l-4.6,26.3h0l-2.9,16.6l0,0l-6.8,3.4L181.5-451.7z"/>
	<path class="st2" d="M163-508.2c0,0,1.2,18.9,2.9,25.3c1.1,4,10.9,13.3,18,19.7c19.4-0.1,39.4-3.3,52.6-6
		c6.5-1.3,11.3-6.5,12.4-12.8l-0.6-0.2l-1-14.5h0l-0.6-3.6l0,0h0l-4.4-24.9c-5,3.5-10.4,6.7-16,9.1c-2,0.8-3.9,1.6-5.9,2.3
		c-4.2,4.1-8.3,7.5-11.4,9.1C197.1-498.8,166.4-504.5,163-508.2z M214.3-499.3c0,0-1.7,12-22.7,16.4c-21,4.4-13.1-15.7-13.1-15.7
		s6.4,6.3,19.3,6.3C209-492.2,214.3-499.3,214.3-499.3z"/>
	<path class="st3" d="M178.5-498.5c0,0-7.9,20.1,13.1,15.7c21-4.4,22.7-16.4,22.7-16.4s-5.3,7.1-16.5,7.1
		C184.9-492.2,178.5-498.5,178.5-498.5z"/>
	<path class="st2" d="M171.8-603.2c0.2,0.7,0.4,1.2,0.4,1.2s-8.2-2.6-8.5-1c-0.7,5.2,6.7,4.5,8,3.9c0.3-0.1,1.5-0.7,3.2-1.4
		C173.4-601.4,172.2-602.4,171.8-603.2z"/>
	<path class="st2" d="M193.1-588.6C193.1-588.6,193.1-588.6,193.1-588.6C193.1-588.6,193.1-588.6,193.1-588.6
		C193.2-588.6,193.4-588.6,193.1-588.6z"/>
	<path class="st2" d="M202.1-596.6c0.4,0.1,0.8,0.1,1.1,0.3C202.9-596.5,202.5-596.6,202.1-596.6z"/>
	<path class="st2" d="M193-588.6C193-588.6,193-588.6,193-588.6C193-588.6,193.1-588.6,193-588.6C193.1-588.6,193-588.6,193-588.6z"
		/>
	<path class="st2" d="M133.1-569.6c-0.9-1.1-1.9-2.2-2.8-3.4c0.4,0.7,0.8,1.4,1.3,2.1c0.1,0.1,0.2,0.2,0.3,0.3
		C132.2-570.4,132.7-570,133.1-569.6z"/>
	<path class="st2" d="M242.3-558c-0.3-0.4-0.2-1,0.2-1.3c0.5-0.4,1.1-0.3,1.5,0.2c0,0,0,0.1,0.1,0.1c7.4-4.5,13.4-8.9,16.6-11.6
		c0.1-0.1,0.1-0.2,0.2-0.2c0.3-0.4,0.6-0.8,0.8-1.3c-0.2-0.1-0.4-0.3-0.5-0.6c-0.1-0.6,0.2-1.1,0.8-1.3c0,0,0.3-0.1,0.7-0.1
		c0.6-1.4,1.1-2.9,1.3-4.6c0-0.1,0-0.2,0-0.3c-0.2-0.7-6.8-24.3-11-31.8c-4.2-7.6,2.6-14.9,2.6-14.9l6.5,13.5
		c-0.1-0.5-0.2-0.9-0.2-1.5c-0.2-7.5,4.6-20.7,11.9-17.9c-8-3.2-14.8-0.4-14.8-0.4s-6.5-5-6.7-7.7c-0.2-2.7,1.3-11.8,1.3-11.8
		s-7.4-2.7-9.6-9.2c0-0.1,0-0.1-0.1-0.2c-0.1-0.2-0.1-0.3-0.2-0.5c0,0,0-0.1,0-0.2c-1.8-4.8-2.7-13.2-5.3-19.8
		c-1.8-4.1-4.3-7.7-7.9-9.5c-9.3-4.7-19.4-3-19.4-3s3.9-14.4,8.8-20.9c-0.7-0.2-1.5-0.4-2.2-0.7c-1,2.8-2.8,7.8-5.1,12.4
		c0,0,0,0,0,0c0,0.1-0.1,0.1-0.1,0.2v0c0,0-8.5,19.2-21.5,25.2c-13,5.9-49.7,16.6-49.7,16.6l30.4-16.6c0,0-14,3.6-26.3,9.7
		c-3.1,1.5-5.7,3.3-7.9,5.1c0.4,2.3,0.7,4.2,0.8,5c0.3,3.4,2,55.1,7.3,68.9c8.2,21.3,46.6,43.5,52.4,46.7c4.7-0.1,7.8-0.5,7.8-0.5
		s0.1,0,0.1,0c0,0,0.1,0,0.1,0C218.6-545.3,231.7-551.7,242.3-558z M227.7-634.7c0,2.8-2.2,5-5,5c-2.8,0-5-2.2-5-5
		c0-0.9,0.3-1.6,0.6-2.3c-4.8,0-7.1-0.8-7.1-0.8s9-4.8,15.3-1.8c6.3,2.9,8.5,5.5,8.5,5.5s-3.6-1-7.6-1.8
		C227.6-635.6,227.7-635.2,227.7-634.7z M211.6-659.9c0,0,1.2,4.3,4.2,4.9c5.6,1.1,32.7,4.9,32.7,4.9s-1.5,6.6-3.1,7.1
		c-1.4,0.4-34.8,0.8-40-2.1l0,0.1c0,0-0.2-0.1-0.4-0.4c-0.1-0.1-0.2-0.1-0.2-0.2c0,0,0-0.1,0-0.1c-0.7-0.8-1.9-2.5-2.3-5.6
		c-0.7-4.9,3.4-9.8,3.4-9.8l-0.3,10.2C207.6-655.2,211.6-659.9,211.6-659.9z M202.2-645.7c0,0-2.2-1.4-3.2-5.9
		c-1.1-4.9,2.2-10.1,2.2-10.1L202.2-645.7z M174.6-570c-7.7-6.2-16.3-15.9-19.5-22.2c-0.3,2.5-1,5.6-1,5.6s-4.5-8.9-1.3-11.2
		c0.5-0.3,1-0.6,1.5-0.8c1.8-4.8,8.6-8.5,11.4-9.8c0.2-0.1,0.3-0.2,0.5-0.2c0.4-0.2,0.7-0.3,0.7-0.3c0.8-0.3,1.4-0.3,1.8,0
		c1.1,0.8,2.2,3.5,2.8,5.3c-0.4-3,8.8-28.8,8.8-29.5c0-1.5-0.7-3.1-2.1-4.3c-1.2,0.2-2.9,0.4-5.1,0.4c0.4,0.7,0.6,1.5,0.6,2.3
		c0,2.8-2.2,5-5,5c-2.8,0-5-2.2-5-5c0-0.5,0.1-0.9,0.3-1.3c-4,0.8-7.6,1.8-7.6,1.8s2-2.3,7.5-5c-5.7,0-11.9-1.3-13.9-3.3
		c-1.4,0-2.4-0.1-2.6-0.2c-1.4-0.4-4.5-7.4-4.5-7.4s27.2-2.9,32.2-5.1c5-2.2,7.5-6.2,7.5-6.2s1.7,5.8,2,10.6l2.4-11.3
		c0,0,2.9,5.3,1.1,9.9c-0.5,1.4-1.2,2.6-1.9,3.7c2.4,1.2,4.7,3.5,4.7,7.9c0,0.3-0.2,0.9-0.5,1.7c0.3-0.1,0.6-0.2,0.9,0
		c0.5,0.3,0.7,0.9,0.5,1.4c-5.8,11.8-11.5,25.7-10.5,27.6c1,1.6,11.3,1.7,20.3,0.9c0.6,0,1.1,0.4,1.1,0.9c0.1,0.6-0.4,1.1-0.9,1.1
		c-0.1,0-0.4,0-0.5,0c-0.3,0.6-0.8,1.4-1.5,2.3c5.2,1.8,12.7,5.1,13.6,5.5c1.3,0.6,8.7,1.2,8-3.9c-0.2-1.6-8.5,1-8.5,1
		s1.7-5.7,3.4-6.9c1.7-1.2,7.2,3.2,7.3,4.1c0.3,2.2,0.5,4,0.7,5.5c1.6,0.2,3.4,0.6,4.8,1.6c3.2,2.3-1.3,11.2-1.3,11.2
		s-0.7-3.2-1-5.7c-0.1-1-1.1-2.3-2.2-3.6c0,0.6-0.2,1.1-0.4,1.6l0,0l0,0c-0.3,0.5-0.7,0.9-1.4,1.2c-2.5,2.2-7.8,6.5-10.3,7.2
		c-3.2,0.8-16.6-2.2-19.5-2.7c0,0-0.1,0-0.1,0c-2.1,0.4-17,3.6-20.3,2.8c-0.4-0.1-1-0.4-1.5-0.7H166c0,0,6.6,5.7,14.4,9.6
		c0.3,0.5,0.6,1.1,0.8,1.6c2,3.8,5.6,6.4,9.9,7c5.7,0.8,13-1.7,13-0.7c-0.4,7.3-17.6,7.8-18.3,7.8
		C184.5-561.4,178.9-566.6,174.6-570z"/>
	<path class="st3" d="M204.1-569c0-0.9-7.3,1.5-13,0.7c-4.2-0.6-7.9-3.2-9.9-7c-0.3-0.5-0.6-1-0.8-1.6c-7.8-3.9-14.4-9.6-14.4-9.6
		h5.2c-2.7-1.4-6.7-4.7-8.8-6.5c-0.8-0.7-1.3-1.2-1.4-1.2c-0.9-1.6-0.1-4.6,0.6-10.6c0.1-0.5,2.2-2.4,4.2-3.5
		c-2.8,1.4-9.5,5-11.4,9.8c-0.5,0.2-1,0.5-1.5,0.8c-3.2,2.3,1.3,11.2,1.3,11.2s0.7-3.1,1-5.6c3.2,6.3,11.7,16,19.5,22.2
		c4.2,3.4,9.8,8.6,11.1,8.7C186.5-561.2,203.7-561.8,204.1-569z"/>
	<path class="st3" d="M166.3-608.6c0.2-0.1,0.5-0.2,0.7-0.3C167-608.9,166.7-608.8,166.3-608.6z"/>
	<path class="st3" d="M175-600.5c5.1-2.2,14.4-6,15.4-5.1c0.8,0.7,1.7,2.3,2.3,3.5c0.7-1.2,1.6-2.8,2.3-3.5c0.4-0.4,2.4,0.1,4.9,1
		c0.8-0.9,1.2-1.7,1.5-2.3c-2.2,0.2-6.1,0.5-10.1,0.5c-5.2,0-10.5-0.5-11.7-2.4c-2.1-3.3,6.6-21.8,10.4-29.6
		c0.1-0.2,0.3-0.4,0.5-0.5c0.3-0.8,0.5-1.4,0.5-1.7c0-4.4-2.2-6.7-4.7-7.9c-0.9,1.4-1.7,2.3-2.3,2.9c0,0,0,0,0,0.1
		c0,0.1-0.2,0.1-0.2,0.2c-0.2,0.2-0.4,0.3-0.4,0.3l0,0c-4,2.5-25.9,2.8-33.5,2.6c2,2,8.2,3.3,13.9,3.3c0.3-0.2,0.6-0.3,1-0.5
		c6.3-2.9,15.3,1.8,15.3,1.8s-0.6,0.2-1.9,0.4c1.3,1.2,2.1,2.8,2.1,4.3c0,0.6-9.2,26.4-8.8,29.5c0.1,0.2,0.1,0.3,0.2,0.5
		C172.2-602.4,173.4-601.4,175-600.5z"/>
	<path class="st1" d="M271.9-571.8c0-0.3,0.1-0.6,0.1-0.9c-0.5-10.5-6.5-31.5-7.5-35.1l-2.2-4.5l-6.5-13.5c0,0-6.8,7.3-2.6,14.9
		c4.2,7.5,10.8,31.1,11,31.8c0,0.1,0,0.2,0,0.3c-0.2,1.7-0.5,3.2-1,4.6C264.7-574.3,268.2-574.3,271.9-571.8z"/>
	<path class="st1" d="M133.1-569.6c-0.4-0.4-0.9-0.7-1.2-1c-0.1-0.1-0.2-0.2-0.3-0.3c-0.3-0.3-0.7-0.7-1-1.1c1,2.4,3.9,5.3,7.8,8.2
		C136.7-565.6,134.9-567.5,133.1-569.6z"/>
	<path class="st0" d="M179.8-608.9c1.2,1.9,6.4,2.4,11.7,2.4c4,0,7.9-0.3,10.1-0.5c0.2,0,0.4,0,0.5,0c0.6-0.1,1-0.6,0.9-1.1
		c-0.1-0.6-0.6-1-1.1-0.9c-9,0.8-19.3,0.7-20.3-0.9c-0.9-1.9,4.7-15.8,10.5-27.6c0.3-0.5,0-1.1-0.5-1.4c-0.3-0.1-0.6-0.1-0.9,0
		c-0.2,0.1-0.4,0.2-0.5,0.5C186.4-630.6,177.7-612.2,179.8-608.9z"/>
	<path class="st1" d="M183.6-645.1L183.6-645.1c0,0,0.1-0.1,0.4-0.3c0.1-0.1,0.2-0.1,0.2-0.2c0,0,0,0,0-0.1c0.6-0.6,1.4-1.5,2.3-2.9
		c0.7-1,1.3-2.2,1.9-3.7c1.7-4.6-1.1-9.9-1.1-9.9l-2.4,11.3c-0.4-4.8-2-10.6-2-10.6s-2.5,4.1-7.5,6.2c-5,2.2-32.2,5.1-32.2,5.1
		s3,6.9,4.5,7.4c0.2,0.1,1.2,0.1,2.6,0.2C157.7-642.3,179.6-642.6,183.6-645.1z"/>
	<path class="st0" d="M180.3-637.9c0,0-9-4.8-15.3-1.8c-0.3,0.2-0.6,0.3-1,0.5c-5.5,2.7-7.5,5-7.5,5s3.6-1,7.6-1.8
		c-0.1,0.4-0.3,0.8-0.3,1.3c0,2.8,2.2,5,5,5c2.8,0,5-2.2,5-5c0-0.9-0.3-1.6-0.6-2.3c2.3,0,4-0.2,5.1-0.4
		C179.7-637.6,180.3-637.9,180.3-637.9z"/>
	<path class="st1" d="M202.4-651.3c0.5,3,1.6,4.7,2.3,5.6c0,0,0,0.1,0,0.1c0,0.1,0.2,0.1,0.2,0.2c0.3,0.2,0.4,0.4,0.4,0.4l0-0.1
		c5.2,3,38.6,2.6,40,2.1c1.5-0.4,3.1-7.1,3.1-7.1s-27.1-3.8-32.7-4.9c-3-0.6-4.2-4.9-4.2-4.9s-4,4.8-6,9l0.3-10.2
		C205.8-661.1,201.6-656.2,202.4-651.3z"/>
	<path class="st1" d="M199-651.6c1,4.6,3.2,5.9,3.2,5.9l-1-16C201.2-661.7,197.9-656.5,199-651.6z"/>
	<path class="st0" d="M226.6-639.7c-6.3-2.9-15.3,1.8-15.3,1.8s2.3,0.8,7.1,0.8c-0.4,0.7-0.6,1.5-0.6,2.3c0,2.8,2.2,5,5,5
		c2.8,0,5-2.2,5-5c0-0.5-0.1-0.9-0.3-1.3c4,0.8,7.6,1.8,7.6,1.8S232.9-636.7,226.6-639.7z"/>
	<path class="st3" d="M135.5-666.9c-1,0.6-3.2,1.9-5.5,3.5c-0.1,0.8-0.1,1.6-0.1,2.4c0,1.3,0.1,3.2,0.3,5.6l6-11.8
		C135.9-667.2,135.7-667.1,135.5-666.9z"/>
	<path class="st3" d="M145.7-588.9c-5.3-13.7-6.9-65.5-7.3-68.9c-0.1-0.8-0.4-2.7-0.8-5c-3.5,2.9-6,5.8-7.5,8
		c0.4,5.6,1,13.3,1.6,20.3c-5.1-2.4-15.4-5.9-20.1,1.5c-5.6,8.8,0.8,26.3,8.4,31.4c0.4-2.5,0.4-5,0.3-6.3c0-0.6,0.4-1.1,1-1.1
		c0.6-0.1,1.1,0.4,1.1,1c0,0.2,0.2,3.9-0.5,7.4c0.4,0.2,0.8,0.3,1.2,0.4c0.6,0.1,1.2,0.1,1.7,0.2l10.9-22.7c0,0,2.4,6,2.4,14.3
		c0,8.3-9.5,27.2-7.8,35.4c0.9,1.2,1.9,2.3,2.8,3.4c1.8,2.1,3.6,4,5.4,5.8c9.7,7.3,25.7,15.2,35.4,18.5c8.3,2.8,17.7,3.3,24.2,3.1
		C192.3-545.4,153.9-567.6,145.7-588.9z M123.4-605.9c0,0,0.4-11.9-3.2-15.2c-3.5-3.3-6.6,0-6.6,0s-1.8-8.6,3.5-10.6
		c7.4-2.8,12.1,10.4,11.9,17.9C128.8-606.3,123.4-605.9,123.4-605.9z"/>
	<path class="st1" d="M244.2-660.7c0-0.1,0-0.1-0.1-0.2C244.1-660.8,244.1-660.8,244.2-660.7z"/>
	<path class="st1" d="M243.9-661.5c-1.2-4.5-2.3-12.9-5.3-19.8C241.1-674.7,242.1-666.4,243.9-661.5z"/>
	<path class="st1" d="M208.5-722.5c5.6,4.7,7.8,12.7,4.3,19.5c2.3-4.6,4.1-9.5,5.1-12.4c0.5-1.5,0.8-2.4,0.8-2.4
		c0.6-2,0.8-3.8,0.7-5.5c-0.4-8.9-9.4-12.6-18.8-10.4c-7,1.7-26.4-2.7-45.5,2c4-0.5,8.2-0.8,12.5-0.8
		C185.7-732.5,203-728.3,208.5-722.5z"/>
	<path class="st1" d="M167.5-730.4c-9.4,0.1-18,1.4-25.6,3.6c-1.9,1-3.8,2.2-5.7,3.5c-4.5,3.2-8.7,7.2-12.4,12.4
		c-23.2,32.6-10.2,65.2-10.2,65.2s0.3-0.8,1.1-2.2c-3-8.5-7.4-28.8,7.8-51.7c10.1-15.2,24.4-20.8,34.6-22.8c2.1-0.4,4.1-0.7,6-0.9
		c11.7-2.9,22.7-3.8,28.1-4.2c0.6,0,1.3,0,1.9,0c-6.7-1.7-15.3-2.9-24.7-2.9C168.1-730.4,167.8-730.4,167.5-730.4z"/>
	<path class="st1" d="M124.2-698.4c-12.3,18.5-11.3,35.3-9,45c0.2-9.3,1.7-31.1,12.2-48c2.3-3.7,5.3-6.8,8.8-9.6
		C131.9-707.8,127.8-703.7,124.2-698.4z"/>
	<path class="st1" d="M122.7-657.7C122.7-657.7,122.7-657.7,122.7-657.7c1.2-1.1,2.6-2.3,4-3.4C125.1-660,123.7-658.8,122.7-657.7z"
		/>
	<polygon class="st1" points="212.7,-702.8 212.7,-702.8 212.7,-702.8 	"/>
	<path class="st1" d="M136.1-667.3c0,0-0.3,0.1-0.7,0.4C135.7-667.1,135.9-667.2,136.1-667.3L136.1-667.3z"/>
	<path class="st1" d="M222.3-717c-0.8,0.5-1.5,1.3-2.3,2.3c-4.9,6.5-8.8,20.9-8.8,20.9s10.1-1.8,19.4,3c0,0,0,0,0,0
		c0,0,1.1,0.5,5.7,0l4.6-0.5l3.1,7.1v-8l6-1.1l3.8,13.3l0-5c-0.3-2.1-0.6-3.8-0.8-5.1c-2.1-10.6-24.4-26.5-24.4-26.5
		c0.4-0.1,1.2,0,2,0.2c-0.9-0.3-1.7-0.6-2.6-0.8c3.8-2.2,8.5-4.4,12.3-6c3.7-1.6,6.5-2.7,6.5-2.7s-5.6-2.5-12.5,0.6
		c-1.4,0.6-2.5,1.4-3.5,2.2c-2.3,1.9-3.7,4.1-4.4,5.7c-0.7-0.1-1.3-0.2-1.9-0.2c-0.4,0-0.7,0.1-1.1,0.2c1.2-1.9,2.7-3.8,4.2-5.7
		c4.2-5.5,8.7-10.4,8.7-10.4s-7.2-1.2-11.4,5.6c-1,1.6-1.6,3.2-2,4.8C222.2-720.6,222.2-718.2,222.3-717z"/>
	<path class="st2" d="M117.1-631.7c-5.3,2-3.5,10.6-3.5,10.6s3.1-3.3,6.6,0c3.5,3.3,3.2,15.2,3.2,15.2s5.5-0.4,5.7-7.9
		C129.3-621.3,124.5-634.5,117.1-631.7z"/>
	<path class="st2" d="M274-631.7c5.3,2,3.5,10.6,3.5,10.6s-3.1-3.3-6.6,0c-3.5,3.3-3.2,15.2-3.2,15.2s-1.2-0.1-2.6-1
		c0.9,1.4,2.2,3.7,3.9,6.4c5.1-1.7,10.1-9.6,11.9-17.8C281-618.7,281.8-628.6,274-631.7z"/>
	<path class="st3" d="M264.4-607.8c-0.1-0.4-0.2-0.6-0.2-0.6s0.3,0.5,0.9,1.5c1.3,0.9,2.6,1,2.6,1s-0.4-11.9,3.2-15.2
		c3.5-3.3,6.6,0,6.6,0s1.8-8.6-3.5-10.6c-7.4-2.8-12.1,10.4-11.9,17.9c0,0.6,0.1,1,0.2,1.5L264.4-607.8z"/>
	<path class="st0" d="M238.5-681.4c3,6.9,4.2,15.4,5.3,19.8c0,0,0,0.1,0,0.2c0,0.2,0.1,0.3,0.2,0.5c0,0.1,0,0.1,0.1,0.2
		c2.2,6.5,9.6,9.2,9.6,9.2s-1.6,9.1-1.3,11.8c0.2,2.7,6.7,7.7,6.7,7.7s-3.1-37-5.3-52.9l0,5l-3.8-13.3l-6,1.1v8l-3.1-7.1l-4.6,0.5
		c-4.6,0.5-5.7,0-5.7,0c0,0,0,0,0,0C234.2-689.1,236.7-685.5,238.5-681.4z"/>
	<path class="st3" d="M224.7-595.8c1.1,1.2,2.1,2.6,2.2,3.6c0.3,2.5,1,5.7,1,5.7s4.5-8.9,1.3-11.2c-1.4-1-3.2-1.5-4.8-1.6
		C224.7-597.9,224.8-596.7,224.7-595.8z"/>
	<path class="st0" d="M265.5-555.4c0,0.2,0,0.3,0,0.5c0,0,0,0,0,0c0.1-0.2,0.2-0.5,0.4-0.7L265.5-555.4z"/>
	<path class="st1" d="M244.1-549.9c0-5.5-1.8-8-1.8-8c0,0,0-0.1,0-0.1c-10.5,6.3-23.7,12.7-36.2,15.3c0,0-0.1,0-0.1,0
		c1,0.2,13.3,2.2,29.1-1.4v5.6l5-6.9c1.3-0.4,2.6-0.8,4-1.3C244.1-547.9,244.1-549,244.1-549.9z"/>
	<path class="st1" d="M259.3-566.2c-0.5-0.3-0.7-0.9-0.5-1.4c0.3-0.5,0.9-0.7,1.4-0.5c0.2,0.1,5.9,3,5.2,12.7l0.4-0.1
		c2.7-5,4.9-9.9,5.7-13.8c-0.2-0.2-0.5-0.5-0.7-0.7c-4.2-2.9-8.2-2-8.4-2c-0.2,0-0.4,0-0.6-0.1c-0.3,0.5-0.7,0.9-1.1,1.2
		c-0.1,0.1-0.1,0.2-0.2,0.2c-3.3,2.7-9.2,7.1-16.6,11.6c0.3,0.5,2.2,3.3,2.2,9.2c0,0.7,0,1.5-0.1,2.4c0.7-0.3,1.4-0.6,2.1-0.9
		l0.2-0.1l1.7,4.5l1.5-6l11.6-4.7c0-0.2,0.1-0.4,0.1-0.5C264.2-563.7,259.5-566.1,259.3-566.2z"/>
	<path class="st2" d="M257.8-537.3c0-0.1,3-5.5,4.6-12.4c-5.8,9.6-12.1,18.1-12.1,18.1c0.2-0.1,0.5-0.3,0.7-0.4
		c1.9-1.1,4.2-2.8,6.7-4.9C257.8-537,257.8-537.1,257.8-537.3z"/>
	<path class="st2" d="M276.7-558.3c0-0.1-1.5-7.6-5.2-11c-0.8,3.9-3,8.8-5.7,13.8c-0.1,0.2-0.2,0.5-0.4,0.7
		c-0.5,5.8-2.4,11.1-3.9,14.6c5.6-5.2,11.6-11.7,16.1-17.3C277.2-557.6,276.8-557.9,276.7-558.3z"/>
	<path class="st2" d="M264.2-608.4c0,0,0.1,0.3,0.2,0.6c1.1,3.7,7,24.6,7.5,35.1c0,0.3,0,0.6-0.1,0.9c0,0,0.1,0.1,0.1,0.1
		c4.7,3.3,6.5,11.5,6.7,12.8c3.4-4.4,5.6-8,5.8-9.9c0.4-4.2-9.4-21.4-15.5-31.7c-1.6-2.8-3-5-3.9-6.4
		C264.6-607.9,264.2-608.4,264.2-608.4z"/>
	<path class="st0" d="M257.8-537.3c-0.1,0.1,0,0.3,0,0.4c0,0.4,0.1,0.8,0.4,1c0.2,0.1,0.3,0.1,0.5,0.1c0.4,0,0.7-0.2,0.9-0.5
		c0.1-0.1,0.9-1.7,1.9-4c1.5-3.5,3.4-8.8,3.9-14.6c0,0,0,0,0,0c0-0.2,0-0.3,0-0.5c0.6-9.7-5-12.6-5.2-12.7c-0.5-0.2-1.1,0-1.4,0.5
		c-0.3,0.5,0,1.1,0.5,1.4c0.2,0.1,4.8,2.5,4.1,11.1c0,0.2-0.1,0.4-0.1,0.5c-0.2,1.7-0.5,3.3-0.8,4.9
		C260.9-542.8,257.9-537.3,257.8-537.3z"/>
	<path class="st0" d="M246.2-549.9c0-5.9-1.9-8.7-2.2-9.2c0,0-0.1-0.1-0.1-0.1c-0.4-0.4-1-0.5-1.5-0.2c-0.4,0.3-0.5,0.9-0.2,1.3
		c0,0,0,0.1,0,0.1c0,0,1.9,2.5,1.8,8c0,0.9-0.1,2-0.1,3.2c-0.4,6.9-1.9,17.8-1.9,17.9c-0.1,0.6,0.3,1.1,0.9,1.2c0,0,0.1,0,0.1,0
		c0.5,0,1-0.4,1-0.9c0.1-0.6,1.6-12.2,2-19C246.2-548.3,246.2-549.2,246.2-549.9z"/>
	<path class="st0" d="M272-571.7c0,0-0.1-0.1-0.1-0.1c-3.7-2.5-7.2-2.5-8.9-2.4c-0.1,0-0.2,0-0.3,0c-0.4,0.1-0.7,0.1-0.7,0.1
		c-0.6,0.1-0.9,0.7-0.8,1.3c0.1,0.3,0.2,0.5,0.5,0.6c0.1,0,0.2,0,0.2,0.1c0.2,0.1,0.4,0.1,0.6,0.1c0.2,0,4.2-1,8.4,2
		c0.3,0.2,0.5,0.4,0.7,0.7c3.7,3.4,5.2,10.9,5.2,11c0.1,0.4,0.5,0.7,0.9,0.8c0.1,0,0.1,0.1,0.1,0.1c0.1,0,0.1,0,0.2,0
		c0.6-0.1,0.9-0.6,0.8-1.2c0,0,0-0.2,0-0.2C278.5-560.2,276.7-568.4,272-571.7z"/>
	<path class="st0" d="M115.5-713c-23.2,28.7-13.5,61.5-13.3,61.8c0.1,0.4,0.5,0.7,1,0.7c0.1,0,0.2,0,0.3-0.1
		c0.5-0.2,0.8-0.8,0.7-1.3c-0.1-0.3-9.5-32,13-59.9c3.8-4.7,9.1-8.6,15.4-11.6c2.9-1.3,6-2.5,9.2-3.5c7.6-2.3,16.2-3.5,25.6-3.6
		c0.3,0,0.6,0,0.9,0c9.4,0,18,1.2,24.7,2.9c7.1,1.8,12.2,4.3,14.2,6.7c0.4,0.4,1,0.5,1.5,0.1c0.4-0.4,0.5-1,0.1-1.5
		c-0.1-0.1-0.3-0.3-0.4-0.4c-5.5-5.8-22.8-10-41-10c-4.3,0-8.5,0.3-12.5,0.8c-10.4,1.3-19.6,4.2-27,8.4
		C123-720.4,118.7-717,115.5-713z"/>
	<path class="st0" d="M122.5-699.5c-15.2,22.8-10.8,43.2-7.8,51.7c0.9,2.6,1.7,4.1,1.7,4.2c0.2,0.3,0.5,0.5,0.9,0.5
		c0.2,0,0.3,0,0.5-0.1c0.5-0.3,0.7-0.9,0.4-1.4c0-0.1-1.7-3.3-3-8.7c-2.3-9.7-3.3-26.5,9-45c3.5-5.3,7.6-9.4,12-12.6
		c18.3-13.5,40.9-10.6,43.6-9.5c0.5,0.3,1.1,0.1,1.4-0.3c0.3-0.5,0.2-1.1-0.3-1.4c-0.9-0.6-8.3-1.9-17.8-0.9c-1.9,0.2-4,0.5-6,0.9
		C146.9-720.3,132.6-714.7,122.5-699.5z"/>
	<path class="st1" d="M224.3-594.2c-0.1,0.1-0.6,0.5-1.4,1.2C223.6-593.3,224.1-593.7,224.3-594.2z"/>
	<path class="st1" d="M161.6-604.8c-0.7,6.1-1.4,9-0.6,10.6c2.7,1.6,10.4,2.7,12.7,1.9c2.4-0.8,5.1-2.7,8.5-4.1
		c3.3-1.4,10.7,0.9,10.7,0.9s5.7-1.9,9.3-1.2c0.4,0.1,0.8,0.1,1.1,0.3c3.3,1.4,6,3.3,8.5,4.1c2.3,0.8,10-0.4,12.7-1.9
		c0.2-0.4,0.3-0.9,0.4-1.6c0.1-0.9,0-2.1-0.2-3.6c-0.2-1.5-0.4-3.3-0.7-5.5c-0.1-0.9-5.6-5.3-7.3-4.1c-1.7,1.2-3.4,6.9-3.4,6.9
		s8.2-2.6,8.5-1c0.7,5.2-6.7,4.5-8,3.9c-0.9-0.4-8.4-3.7-13.6-5.5c-2.5-0.9-4.5-1.4-4.9-1c-0.8,0.7-1.7,2.3-2.3,3.5
		c-0.7-1.2-1.6-2.8-2.3-3.5c-1-0.9-10.3,2.9-15.4,5.1c-1.7,0.7-2.9,1.3-3.2,1.4c-1.3,0.6-8.7,1.2-8-3.9c0.2-1.6,8.5,1,8.5,1
		s-0.1-0.5-0.4-1.2c-0.1-0.1-0.1-0.3-0.2-0.5c-0.6-1.8-1.7-4.5-2.8-5.3c-0.4-0.3-1.1-0.2-1.8,0c-0.2,0.1-0.5,0.2-0.7,0.3
		c-0.2,0.1-0.3,0.1-0.5,0.2C163.8-607.3,161.6-605.4,161.6-604.8z"/>
	<path class="st0" d="M193-588.6C193-588.6,193.1-588.6,193-588.6C193.1-588.6,193.1-588.6,193-588.6
		C193.1-588.6,193-588.6,193-588.6z"/>
	<path class="st0" d="M211.7-592.3c-2.4-0.8-5.1-2.7-8.5-4.1c-0.3-0.1-0.7-0.2-1.1-0.3c-3.6-0.6-9.3,1.2-9.3,1.2s-7.4-2.3-10.7-0.9
		c-3.3,1.4-6,3.3-8.5,4.1c-2.3,0.8-10-0.4-12.7-1.9c0.1,0.1,0.6,0.5,1.4,1.2c2.1,1.8,6.1,5.1,8.8,6.5c0.6,0.3,1.1,0.5,1.5,0.7
		c3.4,0.9,18.3-2.3,20.3-2.8c0,0,0,0,0,0c0,0,0,0,0,0c0,0,0,0,0,0c0.3,0,0.1,0,0,0c2.9,0.5,16.4,3.6,19.5,2.7
		c2.5-0.6,7.8-5,10.3-7.2c0.8-0.7,1.3-1.2,1.4-1.2C221.7-592.6,214-591.5,211.7-592.3z"/>
	<path class="st1" d="M94.5-461l5.9,2.3l0,0L172-431l8-17.6l14.6,29.2l-20.9-1.6l-75.8-27.6c-29.2,8.6-55.9,34.9-53.7,42.8
		c2.3,8,40.7,51.2,52,67.3c14,20.1,29,86.3,30.3,91.9h181.8c0-0.1,3.4-75.6,6-90.9c2.6-15.3,17.9-35.7,17.9-35.7s-6,18.7-8.5,43.4
		c-2.5,24.6,23.3,83.1,23.3,83.3h54l-10.4-43.9l-8.1-34.1c1,6,1.6,9.7,1.6,9.7s-13.8-66.3-28.3-84.3c-14.1-17.4-52.2-57.2-54.6-59.7
		c-1.2-0.6-2.3-1.3-3.5-1.9l5-2c-2.2-4.7-6.7-14.2-9.8-17.2c-2.9-2.9-22.7-11.7-34.1-16.6l-11.9-3.6h0l0,0l0.8,3.7l32.7,12.6
		l-20.6,6.7l-47.6,25.7l-15.1,29l0,0l-0.3-0.2l-15.3-28.9l-47.2-25l-1.1-0.6l-20.9-6.7l31.7-12.7l0.5-3.1L91.7-484l-2.8,20.9l5.1,2
		c0,0,0,0,0.1,0C94.1-461.2,94.3-461.1,94.5-461z M213.7-448.7l7.9,17.6l76.1-29.8l9,7.7l-86.8,32h-22.3L213.7-448.7z"/>
	<path class="st0" d="M173.6-421.1l20.9,1.6L180-448.7l-8,17.6l-71.5-27.6l0,0l-5.9-2.3c1.9,1.2,9.7,6.4,8.8,7.1
		c-2.1,1.6-3.1,4.5-5.3,5.1c-0.1,0-0.1,0-0.2,0L173.6-421.1z"/>
	<polygon class="st0" points="247.5,-496.7 248.5,-482.2 249,-482 259.7,-477.3 280.3,-484 247.6,-496.6 247.5,-496.7 	"/>
	<polygon class="st0" points="197.6,-421.1 219.9,-421.1 306.7,-453.2 297.6,-460.9 221.5,-431 213.7,-448.7 	"/>
	<path class="st0" d="M323.6-329.8c2.6-24.7,8.5-43.4,8.5-43.4s-15.3,20.4-17.9,35.7c-2.6,15.3-6,90.8-6,90.9l0,0h38.7l0,0
		C346.8-246.7,321-305.2,323.6-329.8z"/>
	<path class="st0" d="M96.2-338.5c-11.3-16.2-49.7-59.4-52-67.3c-2.3-8,24.4-34.3,53.7-42.8c0.1,0,0.1,0,0.2,0
		c2.2-0.7,3.2-3.5,5.3-5.1c0.9-0.7-6.9-6-8.8-7.1c-0.2-0.1-0.4-0.2-0.4-0.2c0,0-0.1,0-0.1,0c-31.3,15-65.5,35.1-69.7,55.6
		c-0.1,0-0.1,0-0.1,0l-0.1,1.1c-0.1,0.4-0.2,1-0.2,1.7L8.3-286.5L5.6-266L3-246.4l0,0.4h88.8l0-0.4l0-0.2l0-0.6
		c0.1,0.3,0.1,0.5,0.2,0.6c0,0.1,0,0.2,0.1,0.2c0,0.1,0.1,0.2,0.1,0.2h34.6c0,0,0-0.1,0-0.2c0-0.1,0-0.2,0-0.2
		C125.2-252.2,110.2-318.4,96.2-338.5z M43.2-286.9c-12.3-19.9-7-84.9-5.3-102.5c1.2,0.2,2.5,0.4,3.9,0.5c8.4,0.7,19,10,21.9,14
		c6.8,9.3,12.4,36.4,16,63.6c2.8,21.2,6.3,39.1,8.9,50.8C79.5-262.2,54.7-268.2,43.2-286.9z"/>
	<path class="st0" d="M122.3-608c0-0.6-0.5-1-1.1-1c-0.6,0-1,0.5-1,1.1c0.1,1.3,0.1,3.8-0.3,6.3c-0.3,2.1-0.9,4.1-2,5.2
		c-0.6,0.6-1.3,0.9-2.1,0.8c-2-0.1-3-1.4-3.3-2.6c-0.3-1.2,0-2.9,1.8-4c0.5-0.3,0.6-1,0.3-1.4c-0.3-0.5-1-0.6-1.4-0.3
		c-2.3,1.5-3.3,3.9-2.7,6.3c0.6,2.4,2.6,4,5.2,4.1c0.1,0,0.2,0,0.4,0c1.3,0,2.4-0.5,3.4-1.4c1.3-1.3,2.1-3.5,2.5-5.7
		C122.5-604.1,122.3-607.7,122.3-608z"/>
	<path class="st2" d="M292.8-480.1c3.1,3.1,7.6,12.5,9.8,17.2c0.8,1.7,1.3,2.8,1.3,2.8l-2.1-26.9l-4.1-1.1l-47-12.1
		c0,0,3.3,1.4,8,3.4C270.1-491.8,289.9-483,292.8-480.1z"/>
	<path class="st2" d="M357.3-423.2c-6.7-4.9-19.4-13.1-31.1-20.4c-10.9-6.8-20.8-12.8-24-14.8c-0.7-0.4-1.1-0.7-1.1-0.7s0,0,0.1,0.1
		c2.4,2.5,40.5,42.3,54.6,59.7c14.5,18,28.3,84.3,28.3,84.3s-0.6-3.7-1.6-9.7c-4.2-24.9-15.6-89.8-21.2-95.4
		C360.5-420.7,359.1-421.8,357.3-423.2z"/>
	<path class="st2" d="M259.1-632.1c0,0,6.8-2.8,14.8,0.4c7.9,3.1,7,13,7,13.4c0,0,0,0,0,0s4.2-15.6-3.5-19.1
		c-1.7-0.8-3.4-1.1-5.1-1.3c-5.7-0.4-10.2,2.3-10.2,2.3s2.1-45.7-1.4-54.5c-2.3-5.8-13.4-15.5-22.1-21.3c-3.3-2.2-6.1-3.7-8.1-4.3
		c-0.8-0.3-1.6-0.4-2-0.2c0,0,22.3,15.9,24.4,26.5c0.2,1.2,0.5,3,0.8,5.1C256-669.1,259.1-632.1,259.1-632.1z"/>
	<path class="st2" d="M482.9-617.7h-22h-75h-14.6v21.5v51.9h50.6h61.1h18.8H512h110.1v-73.5H512h-10.3H482.9z M509.9-563.4H405.4
		v-9.4h104.5V-563.4z M573.2-563.4h-44.2v-9.4h44.2V-563.4z M573.7-593.4v9.4H405.4v-9.4H573.7z"/>
	<polygon class="st2" points="482.9,-522.1 410,-522.1 368.8,-522.1 368.8,-500.3 398.4,-500.3 482.9,-500.3 501.7,-500.3 
		501.8,-500.3 501.8,-522.1 501.7,-522.1 	"/>
	<rect x="518.6" y="-522.1" class="st2" width="34.1" height="21.9"/>
	<rect x="570.7" y="-522.1" class="st2" width="51.6" height="21.9"/>
	<polygon class="st1" points="-66.1,-448.6 -66.1,-513 -105.1,-513 -120,-513 -120,-559.9 -105.1,-574.8 -104.2,-575.7 
		-105.1,-576.6 -105.8,-577.4 -122.3,-560.9 -122.3,-510.6 -105.1,-510.6 -68.4,-510.6 -68.4,-451 -105.1,-451 -119,-451 
		-119,-410.9 -107.2,-399 -105.5,-400.7 -116.6,-411.8 -116.6,-448.6 -105.1,-448.6 	"/>
	<rect x="405.4" y="-593.4" class="st1" width="168.3" height="9.4"/>
	<rect x="405.4" y="-572.8" class="st1" width="104.5" height="9.4"/>
	<rect x="528.9" y="-572.8" class="st1" width="44.2" height="9.4"/>
</g>
<path class="st0" d="M554.1,33.1h-0.6v90.7h-4V38H479c0,0,2.8-3.9,2.9-4.9h-56v63h36.9V33.2h2.2v65.2h-41.4V33.1h-27.4v0.1h-2.2
	v-0.1h-99.7c-1.1,9.1-6.6,18.1-10.5,23.6c7.8,0.3,35.5,2.5,45.7,19.7c12,20.1-3.4,72.2-3.4,72.2s0,0,0,0c-0.4,1.4-0.8,2.8-1.2,4.1
	c1,0.6,1.9,1.5,2.6,2.7c4.4,6.9,0.7,19.7-4.8,26.2c1.6,2.4,3.2,4.1,3.2,4.1c3.3,3.5,6.4,6,6.4,6s-13.1-1.3-24.2-4.8c0,0,0,0,0,0
	c0,0,0,0,0,0s0,0.1-0.1,0.2c-0.8,3-1.8,6.1-3.1,9.1c-2.3,5.8-6,13.3-11.1,19.2c-3.8,4.4-7.7,7.8-11.2,10.3c-0.2,6.9-0.4,19-0.4,30.2
	c0,0.1,2.4,23.2,2.5,27.3c0,0,19,8.7,37.8,19.8v-2.5h38.9v20.9h-12.2c2.3,2,4.2,3.9,5.8,5.8c0.9,1,1.6,2.5,2.2,4.3
	c0.3,0.6,0.6,1.3,0.8,1.9h3.3v20.9h-0.4c5,55.1-0.1,133.8-0.1,133.8H313H196.7c0,0,0,0,0,0h-40.9c0,0-9.4-112.2-8.6-123.1
	c2-28.7,3.9-30.7,3.9-30.7s0,0,0,0c0.4-3.3,2.8-11.9,20.8-23.9c21.3-14.4,52.4-25.6,53-25.9c0,0,0.1-0.1,0.1-0.1
	c2.6-5.6,3.6-39,4-52.9c0-1.7,0.1-3.2,0.1-4.6c-3.5-2.5-7.1-5.7-10.7-9.8c-0.1-0.1-0.2-0.2-0.3-0.3c-0.2-0.2-0.3-0.4-0.5-0.6
	c-0.1-0.1-0.1-0.2-0.2-0.3c-3.9-4.6-7.3-9.6-10-14.9c-0.1-0.2-0.2-0.3-0.3-0.5c-0.1-0.3-0.3-0.5-0.4-0.8c-2.8-5.6-4.7-11-5.8-16.3
	c-1.4,0.9-3.1,1.7-5.1,1.9c1.6,3.9,3.1,10.3,0.1,15.6c-1.4,2.4-4,3.8-6.6,3.8c-0.7,0-1.5-0.1-2.3-0.3c-2.7-0.8-5.6-3.4-5.3-8.2
	c0.5-7.5,4-10.3,4.2-10.4c0.4-0.3,1.1-0.3,1.4,0.2c0.3,0.4,0.3,1.1-0.2,1.4c0,0-3,2.4-3.4,9c-0.2,3.6,1.8,5.5,3.9,6.1
	c2.2,0.6,5,0.1,6.6-2.6c2.8-4.9,1-11.1-0.5-14.6c-0.2,0-0.5,0-0.7-0.1c-8.1-1.4-16.4-20.8-10.5-30c2.2-3.4,5.6-4.3,9.1-4
	c0.9,0.2,2.1,0.5,3.5,1.1c0,0,0,0,0,0c1.6,0.7,2.7,1.4,3.5,2c0.5,0.4,0.9,0.7,1.2,1c1,0.8,1.5,1.3,2.3,0.8c1-0.7,2.9-1.4,7.6-15.7
	c0.4-1.2,0.8-2.5,1.3-4c1.8-5.8,4-13.4,6.6-23.4c2.9-11.2,5.8-16.7,18.3-23.7c0.8-0.5,1.7-0.9,2.6-1.4c0,0-16.7,2.1-21,13.1
	c-4.2,11-8.9,28.7-16.4,33.7c-4.9,3.3-11,1.9-11,1.9c0,0,0,0,0,0c0,0,7.9-3.3,11.9-16.7c1.8-6.3,3.7-11.9,6-16.7
	c-1.3,1.7-2.2,2.8-2.2,2.8c-0.2,0.3-0.5,0.4-0.8,0.4c-0.2,0-0.4-0.1-0.6-0.2c-0.4-0.3-0.5-1-0.2-1.4c0.4-0.5,5.7-7.7,11.4-13.8
	c-1.1-0.2-2.6-0.5-4.3-0.9c-1.3,0.9-2.9,2.1-4,3.5c-2,2.5-4.2,6.9-4.2,6.9s-0.7-9.3,1.5-12.7c-0.9-0.4-1.8-0.8-2.7-1.2
	c-0.8-0.4-1.6-1.1-2.4-1.9l-4.6,3.7c0,0,0.4-5,1.3-7.3c-3.5,2.7-5.9,4.7-6,4.8c-0.2,0.2-0.4,0.2-0.6,0.2c-0.3,0-0.6-0.1-0.8-0.4
	c-0.4-0.4-0.3-1,0.1-1.4c0.3-0.2,2.8-2.3,6.4-5.1c-1.7-2.6-2.8-4.9-2.8-4.9c6.9-6.2,16.3-10.8,24.9-13.8c0,0.3,0.1,0.5,0.1,0.5
	s11.8-4.8,18-4.3c6.2,0.5,17.5,4.8,19.4,4.3c1.8-0.5,22.2-3.1,26.1-4.5c0.2-0.1,0.4-0.2,0.5-0.2c0.2-0.1,0.4-0.6,0.6-1.3
	c0.7-2.6,1-8.6-0.1-14.9c-0.2-1.3-0.5-2.6-0.9-3.8c-1.5-5.1-4.1-10-8.5-12.7c-12.2-7.4-29.8-8.3-40.5-4.8
	c-13.6,4.5-16.5,17.8-16.5,17.8s6.6-8,14.1-10.1c7.4-2.1,13.1,0,13.1,0s-9.8,0.1-15.3,3.9c-5,3.4-7.3,8.6-7.3,8.6s9-4.2,17.1-3.7
	c11.8,0.8,17.5,5.2,17.5,5.2s-6.6-2.1-13.3-1.6c-6.7,0.6-9.2,3.4-9.2,3.4l12.3,6.8c-5.2-2.5-15.2-6.1-23.2-0.6
	c-0.1,0.1-0.3,0.2-0.4,0.3c-0.5,0.4-1,0.9-1.4,1.4c-1.6,2.1-2.2,5-2.3,7.2c0,0.8,0,1.5,0,2.1c0,0.1,0,0.2,0,0.3
	c-0.1-0.1-0.2-0.2-0.3-0.4c-0.9-0.3-1.9-0.8-2.6-1.1c-3.5-1.8-15.4-8.7-20.1-24.2c-0.1-0.4-0.2-0.9-0.3-1.3H34.1
	c0.1,1,2.9,4.9,2.9,4.9h-70.4v85.8h-1.7v76.4l26.7,26.7V313l-26.7,26.7v12.6v19.4h55.7v2.2h-55.7v42.3c0.9-0.8,1.7-1.5,1.7-1.5v80.6
	h74.9v4.4h433.1v-4.4h74.9v-80.6c0,0,4.5,4.2,4.5,3.1v81.9h0.1V33.1z M431.1,321.4v-20.9h32.6v20.9H431.1z M324.8,279.4v-70.1h190.8
	v70.1H324.8z M415.3,321.4h-38.9v-20.9h38.9V321.4z M374.5,354.3v-20.9h38.9v20.9H374.5z M188.3,151.3c0,0,0.7-6,2-14.4L188.3,151.3
	z M189.1,133.5c-1.1-2.7-2.2-5.9-3.2-9.6C187.4,128.4,188.5,131.5,189.1,133.5z"/>
<path class="st0" d="M284.7,50C284.7,50,284.7,50,284.7,50c-0.6,1.6-1.4,3.3-2.1,4.8c3.7-5.3,8.6-13.5,9.7-21.8h-4.5
	C288.6,41,284.7,50,284.7,50z"/>
<path class="st0" d="M210,33.1h-5.5c1,3,2.6,5.7,4.7,8C209,38.3,209.2,35.7,210,33.1z"/>
<path class="st0" d="M284,57.6c-0.3-0.1-0.5-0.2-0.8-0.3c-0.1,0.1-0.2,0.2-0.2,0.3C283.4,57.6,283.7,57.6,284,57.6z"/>
<path class="st0" d="M202.5,33.1h-6.3c0.1,0.2,0.1,0.5,0.1,0.7c4,12.9,13.3,20,18.8,22.8c-2.3-3.6-4.3-7.8-5.4-12.1
	C206.6,41.5,203.8,37.6,202.5,33.1z"/>
<path class="st0" d="M166.5,459.7c-0.7-2.5-1.4-5.2-2.1-8C165.2,455.2,165.9,457.9,166.5,459.7z"/>
<polygon class="st0" points="-10.7,312.1 -10.7,227.8 -35.1,203.3 -35.1,336.5 "/>
<path class="st2" d="M549.4,38v85.8h4V33.1v-0.3h-71.7c0.1,0,0.2,0.1,0.1,0.3c-0.1,1-2.9,4.9-2.9,4.9H549.4z"/>
<path class="st2" d="M549.5,414.8v80.6h-74.9v4.4v0.2H554v-0.2v-81.9C554,419,549.5,414.8,549.5,414.8z"/>
<path class="st2" d="M-33.4,38H37c0,0-2.8-3.9-2.9-4.9c0-0.2,0-0.3,0.1-0.3h-71.7v91h2.3h1.7V38z"/>
<path class="st2" d="M-33.5,495.4v-80.6c0,0-0.8,0.7-1.7,1.5c-1.3,1.1-2.9,2.3-2.9,1.7V500h79.4v-0.2v-4.4H-33.5z"/>
<polygon class="st1" points="20.6,373.9 20.6,371.7 -35.1,371.7 -42.9,371.7 -42.9,347.5 -35.1,339.7 -8.4,313 -8.4,226.8 
	-35.1,200.2 -51.8,183.4 -51.8,170.7 -36.6,170.7 -36.6,168.5 -54.1,168.5 -54.1,184.4 -35.1,203.3 -10.7,227.8 -10.7,312.1 
	-35.1,336.5 -45.1,346.5 -45.1,373.9 -35.1,373.9 "/>
<polygon class="st1" points="396.2,33.2 396.2,33.1 396.2,10.4 423.6,10.4 423.6,33.1 423.6,98.3 465,98.3 465,33.2 462.8,33.2 
	462.8,96.1 425.8,96.1 425.8,33.1 425.8,8.1 393.9,8.1 393.9,33.1 393.9,33.2 "/>
<path class="st2" d="M515.5,279.4v-70.1H324.8v70.1H515.5z M338.2,228.7h160.1v9H338.2V228.7z M338.2,256.9v-9h160.1v9H338.2z"/>
<rect x="376.4" y="300.5" class="st2" width="38.9" height="20.9"/>
<rect x="374.5" y="333.5" class="st2" width="38.9" height="20.9"/>
<rect x="431.1" y="300.5" class="st2" width="32.6" height="20.9"/>
<path class="st2" d="M229.1,226.9c0,1.4-0.1,2.9-0.1,4.6C229,229.6,229,228,229.1,226.9C229.1,226.9,229.1,226.9,229.1,226.9z"/>
<path class="st2" d="M225,284.4c0,0-0.1,0.1-0.1,0.1c0,0,0,0,0,0C224.9,284.5,225,284.5,225,284.4z"/>
<path class="st2" d="M269.4,243c-5.7,4.9-15.2,9.4-21.5,12c-3.7,1.6-6.3,5-6.8,8.9c-0.8,5.8-2.1,14.2-3.8,19.9
	c-0.4,1.4-1,2.7-1.6,3.9l19.1,5.7L280,286c-0.1-7.3,2.2-29.3,2.2-30l0,0c0-11.2,0.2-23.3,0.4-30.2c-0.1,0-0.1,0.1-0.2,0.1
	C281.5,227.9,277.2,236.4,269.4,243z"/>
<path class="st4" d="M235.1,287.6L235.1,287.6l0.6,0.2c0.6-1.2,1.2-2.5,1.6-3.9c1.8-5.7,3.1-14.1,3.8-19.9c0.5-4,3.1-7.4,6.8-8.9
	c6.2-2.6,15.8-7.1,21.5-12c7.8-6.7,12.1-15.1,13-17.1c-7.9,5.6-14.1,7.4-14.1,7.4s0,0,0,0c-4.3,1.5-8.7,2.3-13.3,2.3
	c-1.2,0-2.5-0.1-3.7-0.2c-0.4-0.1-10.1-2.4-22.1-14.7c-12.2-12.5-20.7-43.4-20-57.2c0.1-1.1,0.2-2.4,0.4-3.8
	c-5.1-1.2-7.5-3.4-7.5-3.4c-0.7,0.5-1.3,0-2.3-0.8c-0.2,6-0.2,11.1-0.2,14.3c0,4.4,0.4,9,1.4,13.7c1.1,5.3,2.9,10.7,5.8,16.3
	c0.1,0.3,0.3,0.5,0.4,0.8c0.1,0.2,0.2,0.3,0.3,0.5c2.5,4.8,5.8,9.8,10,14.9c0.1,0.1,0.1,0.2,0.2,0.3c0.2,0.2,0.3,0.4,0.5,0.6
	c0.1,0.1,0.2,0.2,0.3,0.3c3.5,4.1,7.2,7.3,10.7,9.8c0,0,0,0,0,0c0,1.1-0.1,2.6-0.1,4.6c-0.3,13.9-1.4,47.4-4,52.9c0,0,0,0.1-0.1,0.1
	L235.1,287.6z"/>
<path class="st2" d="M199.6,169.8c0-3.3,0-8.3,0.2-14.3c-0.3-0.3-0.8-0.6-1.2-1c-1.3-0.9-2.5-1.6-3.6-2.1c-1.4-0.6-2.6-0.9-3.5-1.1
	c-3.5-0.2-6.9,0.6-9.1,4c-5.8,9.2,2.5,28.6,10.5,30c0.3,0,0.5,0.1,0.7,0.1c-0.7-1.6-1.3-2.7-1.3-2.7c-0.3-0.5-0.1-1.1,0.3-1.4
	c0.5-0.3,1.1-0.1,1.4,0.3c0.1,0.2,0.9,1.6,1.8,3.7c2-0.2,3.7-1,5.1-1.9C200,178.8,199.6,174.3,199.6,169.8z M182,158.3l3-3.7
	c0.3-0.4,1-0.5,1.4-0.1c0.4,0.3,0.5,1,0.1,1.4l-3,3.7c-0.2,0.2-0.5,0.4-0.8,0.4c-0.2,0-0.4-0.1-0.6-0.2
	C181.7,159.4,181.7,158.7,182,158.3z M182.9,171.6c0,0-0.1,0-0.1,0c-0.5,0-0.9-0.4-1-0.9l-0.7-4.8c-0.1-0.5,0.3-1,0.8-1.1
	c0.5-0.1,1,0.3,1.1,0.8l0.7,4.8C183.8,171,183.5,171.5,182.9,171.6z M188.9,179.6c-0.2,0.2-0.4,0.2-0.6,0.2c-0.3,0-0.6-0.1-0.8-0.4
	l-2.5-3c-0.3-0.4-0.3-1.1,0.1-1.4c0.4-0.4,1.1-0.3,1.4,0.1l2.5,3C189.4,178.6,189.3,179.3,188.9,179.6z M193.2,180.1
	c0,0,0.3-10.8-2.9-13.9c-3.2-3.1-6.1,0-6.1,0s-1.6-7.9,3.2-9.7c6.7-2.5,11.1,9.5,10.9,16.3C198.2,179.7,193.2,180.1,193.2,180.1z"/>
<path class="st4" d="M187.5,156.5c-4.9,1.8-3.2,9.7-3.2,9.7s2.8-3.1,6.1,0c3.2,3.1,2.9,13.9,2.9,13.9s5-0.4,5.2-7.3
	C198.6,166,194.3,154,187.5,156.5z"/>
<path class="st1" d="M279.3,28.1c-6.2-11-20.1-14.2-21.1-14.4c-13.6-2-29.4,0.3-40.7,9.1c-4,3.1-6.4,6.6-7.6,10.2
	c-0.8,2.6-1,5.3-0.8,8c3.5,3.9,7.9,6.6,11.1,7.5c0.4,0.1,0.8,0.2,1.2,0.3c7.9-5.5,18-1.9,23.2,0.6l-12.3-6.8c0,0,2.5-2.8,9.2-3.4
	c6.7-0.6,13.3,1.6,13.3,1.6s-5.7-4.5-17.5-5.2c-8.2-0.5-17.1,3.7-17.1,3.7s2.3-5.1,7.3-8.6c5.5-3.8,15.3-3.9,15.3-3.9
	s-5.7-2.1-13.1,0c-7.4,2.1-14.1,10.1-14.1,10.1s3-13.3,16.5-17.8c10.7-3.6,28.3-2.7,40.5,4.8c4.4,2.7,7,7.5,8.5,12.7
	c0.3-0.9,0.5-1.9,0.7-2.8C281.3,31.9,280.4,30,279.3,28.1z"/>
<path class="st1" d="M284.7,50c0.1-0.6,0.4-5.8-1.6-12.7c-0.3,1.1-0.7,2.1-1,3.1c1.1,6.3,0.8,12.3,0.1,14.9c0.1-0.1,0.2-0.3,0.3-0.5
	C283.3,53.3,284,51.7,284.7,50z"/>
<path class="st1" d="M217.5,60c0-0.1,0-0.2,0-0.3c-0.1,0-0.2,0-0.3-0.1C217.3,59.8,217.4,59.9,217.5,60z"/>
<path class="st1" d="M215.2,56.6c0.9,0.5,1.7,0.8,2.3,1.1c0.1-2.3,0.7-5.1,2.3-7.2c-2.9-0.8-6.6-2.9-10-6
	C210.8,48.8,212.9,53,215.2,56.6z"/>
<path class="st1" d="M280.6,60.7c2.3-0.2,4.6-0.3,6.7-0.3h0.2c0.8,0,1.6,0.1,2.4,0.2c-2.4-1.3-4.5-2.2-6-2.9c-0.3,0-0.7,0-1,0
	C282.1,58.9,281.2,60,280.6,60.7z"/>
<path class="st1" d="M189.1,133.5c-0.7-2-1.7-5.1-3.2-9.6C186.9,127.6,188.1,130.8,189.1,133.5z"/>
<path class="st2" d="M218.7,150.6c6.3-3,9.5-1.7,9.5-1.7c-0.6-2-5.2-5.5-8.1-7.7l-5.6-0.3c-1.9,5.8-3.5,11.4-4.5,16.2
	c0.7-0.1,1.5-0.2,2.3-0.4C212.8,155.7,214.6,152.6,218.7,150.6z"/>
<path class="st2" d="M291.4,134.1c0.3,0.8,0.5,1.6,0.7,2.6c2.3,0.9,4.5,2,6,2.7c-2.1-1.8-4.4-3.8-6.9-5.9
	C291.2,133.7,291.3,133.9,291.4,134.1z"/>
<path class="st2" d="M217.4,216c-4.2-5.1-7.5-10-10-14.9C210.1,206.4,213.5,211.5,217.4,216z"/>
<path class="st2" d="M218.4,217.2c-0.1-0.1-0.2-0.2-0.3-0.3C218.2,217,218.3,217.1,218.4,217.2z"/>
<path class="st2" d="M207.1,200.6c-0.1-0.3-0.3-0.5-0.4-0.8C206.9,200.1,207,200.4,207.1,200.6z"/>
<path class="st2" d="M288.6,177.8c-1.6-2.2-1-8.1,0.2-17.4c-1.1,0.1-2.3,0.1-3.6,0c0.2,0.7,0.4,1.4,0.4,2.2c0,4-3.3,7.3-7.3,7.3
	c-4,0-7.3-3.3-7.3-7.3c0-1.7,0.6-3.2,1.5-4.4c-5.2-0.9-7.9-0.4-7.9-0.4s11.8-7,21-2.8c1.3,0.6,2.5,1,3.7,1.4
	c0.7-5.5,1.3-11,1.1-15.5l-30.2,1.5c0,0,20.1-8.7,25.2-7.8c1.2,0.2,2.7,0.7,4.3,1.2c-0.1-0.3-0.2-0.7-0.3-1
	c-0.6-1.5-2.2-3.8-4.5-6.4c-17.4-14.3-39.6-31.3-44.8-28.9c-5.5,2.5-10.6,5.6-12.5,9c-2.5,4.6-7.1,15.1-11.1,26.2
	c0.4-0.1,0.7-0.2,1-0.2c5.1-0.9,25.2,7.8,25.2,7.8l-7.7-0.4c0,0,0,0,0,0c5.5,2.6,10.1,7.9,12.7,17.5c0.5-0.1,1,0.1,1.2,0.6
	c0.1,0.2,1.8,5.6,1.5,9.6c-0.1,1.3-0.8,2.7-1.7,4.4c-1.4,2.8-3,5.9-1.3,7.9c0.2,0.2,0.6,0.4,1,0.5c0.2,0.1,0.5,0.1,0.8,0.2
	c2.2,0.5,5.9,0.4,8.2-0.5c2.1-0.9,2.2-2.5,2.2-2.6c0-0.5,0.5-0.9,1.1-0.9c0.5,0,1,0.5,0.9,1c0,0.1-0.2,2.8-3.3,4.2
	c0.4,0,0.6,0,0.6,0s-11.2,13.2-18.1-1.9c-2-4.4,2.1-7.9,1.9-13.9c-0.2-5.1-3.2-9-8.5-10.5c-1,0.1-2.3,0.2-3.7,0.5
	c1,1.2,1.5,2.8,1.5,4.4c0,4-3.3,7.3-7.3,7.3c-4,0-7.3-3.3-7.3-7.3c0-0.8,0.1-1.5,0.4-2.2c-3.3,0.2-6.1-0.1-8.4-0.7
	c-0.2,1.4-0.4,2.6-0.4,3.8c-0.7,13.8,7.8,44.7,20,57.2c12,12.3,21.8,14.6,22.1,14.7c1.2,0.1,2.4,0.2,3.7,0.2c4.6,0,9.1-0.8,13.3-2.3
	c0.1-0.1,19.9-17.1,28.1-28.4c5.4-7.5,11.5-17.9,11.6-18c0,0,0,0,0,0c-3.5-1.1-6.7-2.4-9.3-3.9C294.2,181.5,290,179.7,288.6,177.8z
	 M255.1,174.6c-1,0-1.7-0.8-1.7-1.7c0-1,0.8-1.7,1.7-1.7c1,0,1.7,0.8,1.7,1.7C256.8,173.8,256,174.6,255.1,174.6z M218.8,179.3
	l-2.9-1.5l-2.9,1.5l0.5-3.2l-2.3-2.3l3.2-0.5l1.4-2.9l1.4,2.9l3.2,0.5l-2.3,2.3L218.8,179.3z M271.9,183.4c0,0.7-0.5,1.2-1.2,1.2
	c-0.7,0-1.2-0.5-1.2-1.2c0-0.7,0.5-1.2,1.2-1.2C271.4,182.2,271.9,182.8,271.9,183.4z M269.2,173.5c1,0,1.8,0.8,1.8,1.8
	c0,1-0.8,1.8-1.8,1.8c-1,0-1.8-0.8-1.8-1.8C267.4,174.3,268.2,173.5,269.2,173.5z M251.6,195.7c5-0.4,10.5,1.6,10.5,1.6
	s-3.6,4.6-10.1,4.8c-3.4,0.1-8.3-3.1-9.5-3.8C242.6,198.4,246.9,196.1,251.6,195.7z M246.8,208.8c0,0,0.6,0.1,1.6,0.1
	c-3-1.2-4.6-3.1-4.6-3.3c-0.3-0.4-0.3-1,0.2-1.4c0.4-0.3,1.1-0.3,1.4,0.2c0.1,0.2,3,3.6,8.7,3.6c5.5-0.1,7.1-3.9,7.2-4.1
	c0.2-0.5,0.8-0.8,1.3-0.6c0.5,0.2,0.8,0.8,0.6,1.3c-0.1,0.1-1,2.3-3.4,3.8c-1.3,1.9-3.6,4.9-6.4,6.2c-4.3,2-11.3-1-11.3-1
	L246.8,208.8z M234.2,175.8c0.4,0,0.8,0.3,0.8,0.8c0,0.4-0.3,0.8-0.8,0.8c-0.4,0-0.8-0.3-0.8-0.8
	C233.5,176.1,233.8,175.8,234.2,175.8z M228.8,182.2c-0.6,0-1.1-0.5-1.1-1.1c0-0.6,0.5-1.1,1.1-1.1c0.6,0,1.1,0.5,1.1,1.1
	C229.9,181.7,229.4,182.2,228.8,182.2z M282.1,176.8l0.5,2.7l-2.4-1.3l-2.4,1.3l0.5-2.7l-2-1.9l2.7-0.4l1.2-2.4l1.2,2.4l2.7,0.4
	L282.1,176.8z"/>
<path class="st2" d="M308,187.1c-0.2,0.9-1.3,4.5-3.1,9.1C306.2,193.2,307.2,190.1,308,187.1z"/>
<path class="st2" d="M295.4,157.3c0.4-1.3,0.8-2.6,1.3-4c0,0,0,0,0,0c1.2-4.2,2.4-8.4,3.1-12.3c-0.2-0.2-0.4-0.3-0.6-0.5l-6.8,0.3
	c0.1,4.7-0.5,10.5-1.2,16.1C292.8,157.1,294.2,157.3,295.4,157.3z"/>
<path class="st2" d="M293.8,178.5c0,0-1-1.2-1.1-4.9c0-0.1,0-0.3,0-0.4c-0.1-3,0.4-7.4,2.1-13.9c-1.2,0.3-2.5,0.6-4,0.8
	c-0.9,7-1.9,14.8-0.7,16.4c0.6,0.9,2.2,1.7,4.1,2.6C294.2,179,294,178.8,293.8,178.5C293.9,178.6,293.8,178.5,293.8,178.5z"/>
<path class="st4" d="M299.9,140.3l-0.7,0c0.2,0.2,0.4,0.3,0.6,0.5C299.8,140.7,299.9,140.5,299.9,140.3z"/>
<path class="st4" d="M210,157.1c0.9-4.8,2.6-10.4,4.5-16.2l-4.8-0.2c-4.7,14.3-6.6,15-7.6,15.7C202.1,156.3,205.1,157.7,210,157.1z"
	/>
<path class="st4" d="M291.1,133.5c2.5,2.1,4.9,4.1,6.9,5.9c1,0.5,1.6,0.8,1.9,0.9c0.1-0.5,0.2-1,0.3-1.5c0.6-4.8,0.3-8.4-0.7-10.3
	c0,0,0-0.1-0.1-0.1c-0.1-0.1-0.2-0.3-0.3-0.4c-0.1-0.1-0.1-0.1-0.1-0.1c0,0,0.1,0.1,0.1,0.1c0.1,0.1,0.1,0.2,0.2,0.3
	c-5.4-7.8-36.7-27.9-50.2-36.4c-0.1-0.1-0.3-0.2-0.4-0.2C260.1,101.5,287,124.9,291.1,133.5z"/>
<path class="st4" d="M227.7,108.5c1.9-3.5,7-6.6,12.5-9c5.2-2.3,27.4,14.6,44.8,28.9c-12-13.8-42.4-39.2-42.8-39.5
	c-0.2-0.2-0.3-0.4-0.3-0.6c-1.8,0.3-3.8,0.7-6,1.3c-12.5,7.1-15.4,12.5-18.3,23.7c-2.6,10-4.8,17.6-6.6,23.4c1.9-0.8,3.9-1.5,5.6-2
	C220.6,123.6,225.2,113.1,227.7,108.5z"/>
<path class="st4" d="M253.3,214.7c2.8-1.3,5.1-4.3,6.4-6.2c-1.4,0.8-3.2,1.5-5.6,1.5c-0.1,0-0.2,0-0.3,0c-2.2,0-3.9-0.5-5.4-1.1
	c-1-0.1-1.6-0.1-1.6-0.1l-4.9,4.9C241.9,213.8,249,216.7,253.3,214.7z"/>
<path class="st4" d="M248.5,182.5c0.2,0.1,0.5,0.1,0.8,0.2C249,182.6,248.8,182.6,248.5,182.5z"/>
<path class="st4" d="M220.1,141.2c2.9,2.1,7.5,5.7,8.1,7.7c0,0-3.2-1.3-9.5,1.7c-4.1,2-5.9,5.1-6.4,6.1c1.6-0.4,3.3-0.9,5.2-1.7
	c9.2-4.3,21,2.8,21,2.8s-1.4-0.3-4.2-0.1c5.3,1.5,8.3,5.4,8.5,10.5c0.2,6.1-3.9,9.6-1.9,13.9c7,15.1,18.1,1.9,18.1,1.9s-0.2,0-0.6,0
	c-0.1,0-0.1,0.1-0.2,0.1c-1.6,0.6-3.8,1-5.9,1c-2.8,0-5.4-0.6-6.4-1.7c-2.5-2.9-0.5-6.9,1.1-10c0.7-1.4,1.4-2.8,1.5-3.7
	c0.3-3.6-1.4-8.7-1.4-8.8c-0.2-0.5,0.1-1.1,0.6-1.3c0,0,0,0,0.1,0c-2.6-9.6-7.2-15-12.7-17.5c0,0,0,0,0,0L220.1,141.2z"/>
<path class="st2" d="M325.6,166.2c0,0-2.3-2.5-5.2-0.7c-0.3,0.9-0.6,1.8-0.9,2.6c-0.5,1.9-0.8,3.5-0.6,4.4c0.2,1.6,0.6,3,1,4.3
	c0.8,1.6,1.8,3.2,2.7,4.6c5.6-6.4,9.3-19.2,4.8-26.2c-0.7-1.2-1.6-2-2.6-2.7c-0.5,1.5-0.9,3-1.4,4.4
	C326.9,159.6,325.6,166.2,325.6,166.2z"/>
<path class="st4" d="M325.6,166.2c0,0,1.4-6.6-2.2-9.1c-1.1,3.2-2.1,6.1-3,8.5C323.3,163.8,325.6,166.2,325.6,166.2z"/>
<path class="st0" d="M289.3,156.3c-1.2-0.3-2.4-0.8-3.7-1.4c-9.2-4.3-21,2.8-21,2.8s2.7-0.5,7.9,0.4c-1,1.2-1.5,2.8-1.5,4.4
	c0,4,3.3,7.3,7.3,7.3c4,0,7.3-3.3,7.3-7.3c0-0.8-0.1-1.5-0.4-2.2c1.3,0.1,2.5,0.1,3.6,0c0-0.2,0.1-0.5,0.1-0.7
	C289.1,158.6,289.2,157.4,289.3,156.3z"/>
<path class="st0" d="M209.6,159.7c2.3,0.5,5.1,0.8,8.4,0.7c-0.2,0.7-0.4,1.4-0.4,2.2c0,4,3.3,7.3,7.3,7.3c4,0,7.3-3.3,7.3-7.3
	c0-1.7-0.6-3.2-1.5-4.4c1.4-0.3,2.7-0.4,3.7-0.5c2.8-0.2,4.2,0.1,4.2,0.1s-11.8-7-21-2.8c-1.9,0.9-3.6,1.4-5.2,1.7
	c-0.8,0.2-1.6,0.3-2.3,0.4c-4.9,0.6-7.9-0.8-7.9-0.8S204.5,158.5,209.6,159.7z"/>
<path class="st0" d="M220.1,141.2l15.1,0.8l7.7,0.4c0,0-20.1-8.7-25.2-7.8c-0.3,0.1-0.7,0.1-1,0.2c-1.7,0.4-3.7,1.2-5.6,2
	c-0.4,1.4-0.9,2.7-1.3,4l4.8,0.2L220.1,141.2z"/>
<path class="st0" d="M247.2,160.7c0,0.1,1.7,5.2,1.4,8.8c-0.1,0.9-0.8,2.3-1.5,3.7c-1.6,3.2-3.6,7.1-1.1,10c1,1.2,3.6,1.7,6.4,1.7
	c2.1,0,4.4-0.3,5.9-1c0.1,0,0.1-0.1,0.2-0.1c3.1-1.4,3.2-4.1,3.3-4.2c0-0.5-0.4-1-0.9-1c-0.5,0-1,0.4-1.1,0.9c0,0.1-0.2,1.7-2.2,2.6
	c-2.4,1-6,1-8.2,0.5c-0.3-0.1-0.5-0.1-0.8-0.2c-0.5-0.2-0.9-0.3-1-0.5c-1.6-1.9-0.1-5.1,1.3-7.9c0.8-1.7,1.6-3.2,1.7-4.4
	c0.3-4-1.4-9.3-1.5-9.6c-0.2-0.5-0.7-0.8-1.2-0.6c0,0,0,0-0.1,0C247.3,159.6,247,160.2,247.2,160.7z"/>
<path class="st0" d="M262.2,197.3c0,0-5.5-2.1-10.5-1.6c-4.7,0.4-9.1,2.6-9.1,2.6c1.2,0.7,6.2,3.9,9.5,3.8
	C258.5,201.9,262.2,197.3,262.2,197.3z"/>
<path class="st0" d="M253.8,210c0.1,0,0.2,0,0.3,0c2.4,0,4.2-0.7,5.6-1.5c2.5-1.5,3.4-3.7,3.4-3.8c0.2-0.5,0-1.1-0.6-1.3
	c-0.5-0.2-1.1,0-1.3,0.6c-0.1,0.2-1.7,4-7.2,4.1c-5.7,0-8.6-3.4-8.7-3.6c-0.3-0.4-1-0.5-1.4-0.2c-0.4,0.3-0.5,1-0.2,1.4
	c0.1,0.1,1.7,2,4.6,3.3C249.8,209.6,251.6,210,253.8,210z"/>
<path class="st1" d="M323.4,184c0.1,0.7-0.2,1.4-0.8,1.9c-0.4,0.3-0.9,0.5-1.4,0.5c-0.7,0-1.3-0.3-1.7-0.8c-0.1-0.2-2.5-3.2-4-7.9
	c-0.7-0.6-1.3-1.3-1.8-1.9c-1.3,0.4-2.9,0.9-4.7,1.3c0.5,0.8,0.9,1.4,0.9,1.4c0.6,0.8,0.6,1.8,0.1,2.5c0,0,0,0,0,0
	c1.2,0.2,2.1,1.3,1.9,2.5c0,0.2-0.1,0.4-0.2,0.5c0.5,0.1,1,0.2,1.4,0.3c0.5,0.1,0.9,0.6,0.8,1.2c-0.1,0.5-0.5,0.8-1,0.8
	c-0.1,0-0.1,0-0.2,0c-0.7-0.1-3.1-0.6-6.2-1.4c-0.4-0.1-0.9-0.2-1.4-0.3c-2-0.5-4.2-1.1-6.4-1.8c2.6,1.5,5.9,2.8,9.3,3.9
	c11.1,3.5,24.2,4.8,24.2,4.8s-3.1-2.5-6.4-6c0,0,0,0,0,0S324.9,185,323.4,184z"/>
<path class="st1" d="M296.7,153.2c1.8-5.4,3-10.3,3.4-14.4c-0.1,0.5-0.2,1-0.3,1.5c0,0,0,0,0,0.1c0,0.2-0.1,0.4-0.1,0.5
	C299.1,144.7,297.9,149,296.7,153.2z"/>
<path class="st1" d="M301.8,178.8c1.1,0.5,2.3,1,3.6,1.4c-0.3-0.5-0.7-1.1-1-1.9c-0.2,0-0.3,0.1-0.5,0.1
	C303.1,178.6,302.5,178.7,301.8,178.8z"/>
<path class="st1" d="M294.3,179.2c0.5,0.2,1,0.4,1.5,0.6c-0.2-0.2-0.3-0.5-0.5-0.7c-0.9-0.1-1.3-0.4-1.4-0.5
	C294,178.8,294.2,179,294.3,179.2z"/>
<path class="st1" d="M292.7,173.7c0-0.1,0-0.3,0-0.4C292.7,173.4,292.7,173.5,292.7,173.7z"/>
<path class="st1" d="M264.6,90.9c0.1,0,13.1,5.6,27.2,12.7c0.1,0,0.2-0.1,0.3-0.1C282.2,98.4,271.7,93.8,264.6,90.9z"/>
<path class="st1" d="M315.1,128.6c0.1,1.6-0.2,3.7-0.9,6.3c2.6-1.1,5-3.1,6.8-4.6c-0.4-1.2-3.2-3.4-7.2-6.1
	C314.5,125.7,315,127.2,315.1,128.6z"/>
<path class="st1" d="M299.4,128.5c0,0-0.1-0.1-0.1-0.1C299.4,128.5,299.4,128.5,299.4,128.5z"/>
<path class="st1" d="M190.2,136.9c-1.2,8.5-2,14.4-2,14.4L190.2,136.9z"/>
<path class="st1" d="M195,152.5C195,152.5,195,152.5,195,152.5c1,0.5,2.2,1.2,3.5,2C197.7,153.8,196.6,153.1,195,152.5z"/>
<path class="st1" d="M242.1,87.5c0.4-0.4,1-0.5,1.4-0.1c0.4,0.3,2.3,1.9,5.2,4.4c0.1,0.1,0.3,0.2,0.4,0.2
	c13.5,8.5,44.9,28.6,50.2,36.4c0.2,0.3,0.5,0.7,0.9,1.1c1.5,1.7,4.3,4.3,8,6c0.3,0.1,0.7,0.2,1,0.3c0.9-2.9,1.5-5.4,1.4-6.8
	c-0.2-3-3.3-7.1-7.3-11.1c-5.3-3-11.1-6.2-16.8-9c-1.1-0.6-1.6-1.9-1-3c0.2-0.5,0.7-0.8,1.1-1c-11.8-7.6-22.1-13.8-22.1-13.8
	c-5.1-2.1-8.4-3.4-8.4-3.4s13.4,0.9,20.4,0c3.3-0.4,5.5-1,6.9-1.5c-3.7-5.1-7.8-10.7-10.8-11.7c-5.7-1.8-19.3,3.7-19.4,3.7
	c-0.5,0.2-1.1,0-1.3-0.5c-0.2-0.5,0-1.1,0.5-1.3c0.6-0.2,14.4-5.8,20.8-3.8c3.7,1.2,7.9,7,12,12.7c0.1-0.1,0.2-0.1,0.2-0.1l8,2.5
	l-3.4-4.6c0,0,4.9-3.3,6.1-5.1c1.1-1.8,2.5-2.5,2.5-2.5l11,7.6l-7-10.6l1.9-2.9c-1.8-1.3-3.6-2.6-5.4-3.7c-3.7-2.1-7.7-3.5-11.7-3.5
	h-0.2c-14.4,0-34.2,5.7-34.4,5.7c-0.5,0.2-1.1-0.2-1.2-0.7c-0.2-0.5,0.2-1.1,0.7-1.2c0.2,0,12.9-3.7,25.5-5.2c0-0.1,0-0.2,0.1-0.3
	c0-0.1,1.3-1.5,3.1-3.8c-3.9,1.4-24.3,3.9-26.1,4.5c-1.9,0.5-13.2-3.7-19.4-4.3c-6.2-0.5-18,4.3-18,4.3s0-0.2-0.1-0.5
	c-8.7,3-18,7.6-24.9,13.8c0,0,1.1,2.3,2.8,4.9c5.9-4.6,14.9-11,21.8-14.1c11.4-5.1,30.6,5.6,31.4,6.1c0.5,0.3,0.6,0.9,0.4,1.4
	c-0.3,0.5-0.9,0.6-1.4,0.4c-0.2-0.1-19.1-10.7-29.6-6c-6.8,3-15.8,9.6-21.7,14.1c-0.9,2.3-1.3,7.3-1.3,7.3l4.6-3.7
	c0.8,0.8,1.6,1.5,2.4,1.9c0.9,0.5,1.8,0.9,2.7,1.2c-2.2,3.4-1.5,12.7-1.5,12.7s2.2-4.4,4.2-6.9c1.1-1.4,2.7-2.6,4-3.5
	c1.7,0.4,3.2,0.7,4.3,0.9c3.4-3.6,6.9-6.9,9.5-8c4.9-2.2,19.4-6.8,20-7c0.5-0.2,1.1,0.1,1.2,0.6c0.2,0.5-0.1,1.1-0.7,1.2
	c-0.1,0-14.9,4.7-19.8,6.9c-5,2.2-13.9,13.1-18,18.4c-2.3,4.7-4.2,10.4-6,16.7c-3.9,13.3-11.8,16.7-11.9,16.7c0,0,0,0,0,0
	c0,0,6.1,1.4,11-1.9c7.5-5.1,12.2-22.8,16.4-33.7c4.2-11,21-13.1,21-13.1c-0.9,0.5-1.8,1-2.6,1.4c2.2-0.6,4.2-1,6-1.3
	C241.9,88,241.9,87.7,242.1,87.5z"/>
<path class="st1" d="M214.6,58.5c0.7,0.4,1.7,0.8,2.6,1.1c0.1,0,0.2,0,0.3,0.1c0-0.6,0-1.3,0-2.1c-0.6-0.2-1.4-0.6-2.3-1.1
	c-5.5-2.8-14.8-9.9-18.8-22.8c-0.1-0.2-0.1-0.5-0.1-0.7c-1-4.7,2.4-8.9,5.5-11.7c0.5-0.5,1.2-0.9,1.7-1.4c-2.1,4.6-2,8.8-1.3,12
	c0.1,0.4,0.3,0.8,0.4,1.2c1.3,4.6,4.1,8.5,7.3,11.4c3.3,3,7,5.1,10,6c0.4-0.5,0.8-1,1.4-1.4c0.1-0.1,0.3-0.2,0.4-0.3
	c-0.4-0.1-0.8-0.1-1.2-0.3c-3.2-0.9-7.6-3.6-11.1-7.5c-2-2.3-3.7-4.9-4.7-8c-0.2-0.5-0.4-1.1-0.5-1.6c-1.1-4.8,0.1-9.6,3.3-14.2
	C219.6,9.6,240.5,3.9,260.1,6c11.7,4.3,20.5,11,21.9,15.4c0.1,0.4,0.2,0.8,0.3,1.1c0.9,0.8,1.7,1.7,2.4,2.6
	c-0.1-1.5-0.4-2.9-0.8-4.3c-1.3-4.3-7.6-9.5-15.8-13.6c3.4,0.8,6.7,1.8,9.8,3.1c8,3.4,12.8,8.4,14.2,14.9c0.6,2.5,0.5,5.1,0.2,7.8
	c-1.1,8.2-6,16.5-9.7,21.8c-0.1,0.1-0.2,0.3-0.3,0.5c-0.2,0.7-0.4,1.2-0.6,1.3c0,0,0.8,0,2.1,0c4-5.5,9.4-14.4,10.5-23.6
	c0.3-2.7,0.3-5.5-0.2-8.2c-1.6-7.1-6.7-12.6-15.4-16.3c-5.5-2.3-11.5-3.7-17.8-4.4c-1.7-0.6-3.4-1.2-5.2-1.7
	c-10.1-2.9-29.3-5.7-44.1,7.1c-2.4,2.1-4.3,4.2-5.7,6.2c-2,1.3-3.9,2.6-5.4,4.1c-4.8,4.3-6.9,8.9-6.2,13.2c0.1,0.4,0.1,0.9,0.3,1.3
	C199.2,49.8,211.1,56.8,214.6,58.5z M212.8,11.1c12.8-11.1,29.1-9.8,39.3-7.5c-14.7-0.1-29.9,3.5-41.1,9.1
	C211.6,12.2,212.2,11.6,212.8,11.1z"/>
<path class="st0" d="M278,60.7c-0.1,0.1-0.1,0.2-0.1,0.3c-12.6,1.5-25.3,5.1-25.5,5.2c-0.5,0.2-0.8,0.7-0.7,1.2
	c0.2,0.5,0.7,0.8,1.2,0.7c0.2-0.1,20-5.7,34.4-5.7h0.2c4,0,8,1.5,11.7,3.5c-3.3-2.1-6.5-3.9-9.3-5.3c-0.8-0.1-1.6-0.2-2.4-0.2h-0.2
	c-2.2,0-4.4,0.1-6.7,0.3c0.6-0.7,1.5-1.8,2.4-3.1c0.1-0.1,0.2-0.2,0.2-0.3c-1-0.4-1.6-0.7-1.6-0.7c-0.1,0.1-0.3,0.2-0.5,0.2
	C279.3,59.2,278.1,60.6,278,60.7z"/>
<path class="st0" d="M281.9,33.7c-0.2,1-0.5,1.9-0.7,2.8c0.4,1.3,0.7,2.6,0.9,3.8c0.3-1,0.7-2,1-3.1C282.8,36.1,282.4,35,281.9,33.7
	z"/>
<path class="st0" d="M192.7,181.4c-0.5,0.3-0.6,0.9-0.3,1.4c0,0,0.6,1.1,1.3,2.7c1.5,3.5,3.4,9.7,0.5,14.6c-1.6,2.7-4.4,3.2-6.6,2.6
	c-2-0.6-4.1-2.5-3.9-6.1c0.4-6.5,3.4-9,3.4-9c0.4-0.3,0.5-1,0.2-1.4c-0.3-0.4-1-0.5-1.4-0.2c-0.2,0.1-3.7,2.9-4.2,10.4
	c-0.3,4.7,2.5,7.3,5.3,8.2c0.7,0.2,1.5,0.3,2.3,0.3c2.7,0,5.2-1.4,6.6-3.8c3.1-5.3,1.5-11.6-0.1-15.6c-0.8-2.1-1.7-3.6-1.8-3.7
	C193.8,181.2,193.2,181.1,192.7,181.4z"/>
<path class="st0" d="M186.6,175.2c-0.3-0.4-1-0.5-1.4-0.1c-0.4,0.3-0.5,1-0.1,1.4l2.5,3c0.2,0.2,0.5,0.4,0.8,0.4
	c0.2,0,0.4-0.1,0.6-0.2c0.4-0.3,0.5-1,0.1-1.4L186.6,175.2z"/>
<path class="st0" d="M181.9,164.8c-0.5,0.1-0.9,0.6-0.8,1.1l0.7,4.8c0.1,0.5,0.5,0.9,1,0.9c0,0,0.1,0,0.1,0c0.5-0.1,0.9-0.6,0.8-1.1
	l-0.7-4.8C183,165.1,182.5,164.7,181.9,164.8z"/>
<path class="st0" d="M182.8,159.9c0.3,0,0.6-0.1,0.8-0.4l3-3.7c0.3-0.4,0.3-1.1-0.1-1.4c-0.4-0.3-1.1-0.3-1.4,0.1l-3,3.7
	c-0.3,0.4-0.3,1.1,0.1,1.4C182.3,159.8,182.6,159.9,182.8,159.9z"/>
<path class="st0" d="M309.6,83l-11-7.6c0,0-1.3,0.7-2.5,2.5c-1.1,1.8-6.1,5.1-6.1,5.1l3.4,4.6l-8-2.5c0,0-0.1,0.1-0.2,0.1
	c0.1,0.1,0.1,0.2,0.2,0.3c2.8,3.9,5.7,8,7.6,9.1c0.5,0.3,0.6,0.9,0.4,1.4c-0.2,0.3-0.5,0.5-0.9,0.5c-0.2,0-0.3,0-0.5-0.1
	c-2.2-1.3-5-5.2-8.2-9.7c-0.1-0.2-0.3-0.4-0.4-0.6c-1.4,0.5-3.6,1.1-6.9,1.5c-7,0.9-20.4,0-20.4,0s3.3,1.3,8.4,3.4h0c0,0,0,0,0,0
	c7.1,2.9,17.5,7.5,27.5,12.6c0.6-0.2,1.3-0.1,1.8,0.3c0.2,0.2,0.6,0.5,1.2,0.8c0.6-0.2,1.2-0.2,1.8,0.1c1.9,1,13.8,7.2,22.1,14.7
	c3.8,2.9,6.6,5.5,7.8,7.8c0-14.8-1.4-33.5-7.5-43c-0.7-1.1-1.4-2.1-2.2-3.1c-0.1,0.1-0.3,0.1-0.4,0.1c-0.2,0-0.3,0-0.5-0.1
	c-0.3-0.2-0.5-0.5-0.5-0.8c-0.4-0.9-3.2-4.3-7.2-7.9c-1.2-1-2.5-2-3.8-3l-1.9,2.9L309.6,83z"/>
<path class="st0" d="M299.1,128.1c0,0-0.1-0.1-0.1-0.1C299,127.9,299,128,299.1,128.1z"/>
<path class="st0" d="M299.4,128.4c0,0,0.1,0.1,0.1,0.1c1,1.8,1.3,5.5,0.7,10.3c-0.5,4.1-1.6,9-3.4,14.4c0,0,0,0,0,0
	c-0.5,1.4-0.9,2.8-1.3,4c-1.2,0-2.6-0.1-4.1-0.4c-0.1,1-0.3,2.1-0.4,3.1c0,0.1,0,0.2,0,0.3c1.5-0.2,2.8-0.5,4-0.8
	c-1.8,6.5-2.2,10.9-2.1,13.9c0,0.1,0,0.3,0,0.4c0.2,3.6,1.1,4.9,1.1,4.9s0,0,0.1,0.1c0.1,0.1,0.5,0.4,1.4,0.5
	c-0.3-0.4-0.5-0.8-0.7-1.3c-1.1-2.9,1.2-8.9,7.2-23.1c2.6-6.3,5.7-13.6,7.4-19c-0.4-0.1-0.7-0.2-1-0.3c-3.8-1.6-6.5-4.3-8-6
	C299.8,129,299.5,128.6,299.4,128.4c-0.1-0.2-0.2-0.3-0.3-0.4C299.2,128.2,299.3,128.3,299.4,128.4z"/>
<path class="st0" d="M314.2,134.9c-1.4,5.2-4.3,12.4-8.2,21.6c-3.2,7.5-7.5,17.7-7.1,19.8c0.4,0.9,1.5,1.7,2.9,2.5
	c0.6-0.1,1.3-0.2,2.1-0.4c0.2,0,0.3-0.1,0.5-0.1c-1.4-2.8-2.7-7.2-0.3-11c4.2-6.8,17.6-32.5,16.9-37c0,0,0,0,0-0.1
	C319.3,131.8,316.8,133.7,314.2,134.9z"/>
<path class="st0" d="M307.9,169.6c-1.5,2.5-0.1,5.8,1,7.6c1.8-0.5,3.4-0.9,4.7-1.3c-0.9-1-1.7-2-2.2-3c-1.4-2.8,2.4-11.7,5.9-20.8
	C312.8,161.2,308,169.5,307.9,169.6z"/>
<path class="st0" d="M319.5,168.2c-0.4,1.3-0.7,2.3-0.9,3c-0.3,1.7,0.3,3.7,1.2,5.8c-0.4-1.3-0.8-2.7-1-4.3
	C318.8,171.7,319,170.1,319.5,168.2z"/>
<path class="st0" d="M319.5,185.6c0.4,0.5,1.1,0.8,1.7,0.8c0.5,0,1-0.2,1.4-0.5c0.6-0.5,0.8-1.2,0.8-1.9c-2.1-1.5-5.3-3.8-7.9-6.3
	C317,182.5,319.3,185.5,319.5,185.6z"/>
<path class="st0" d="M297,104.8c-0.6-0.3-1.3-0.3-1.8-0.1c-0.5-0.4-0.9-0.7-1.2-0.8c-0.6-0.4-1.2-0.5-1.8-0.3
	c-0.1,0-0.2,0.1-0.3,0.1c9.9,5,20.2,10.7,27.2,15.9C310.7,112,298.8,105.8,297,104.8z"/>
<path class="st0" d="M285.6,105.8c-0.6,1.1-0.1,2.5,1,3c5.6,2.8,11.5,6,16.8,9c3.9,4,7.1,8.2,7.3,11.1c0.1,1.4-0.4,3.9-1.4,6.8
	c-1.7,5.5-4.8,12.7-7.4,19c-6,14.2-8.3,20.2-7.2,23.1c0.2,0.4,0.4,0.9,0.7,1.3c0.2,0.2,0.3,0.5,0.5,0.7c-0.5-0.2-1-0.4-1.5-0.6
	c-2-0.9-3.5-1.7-4.1-2.6c-1.2-1.7-0.3-9.5,0.7-16.4c0-0.1,0-0.2,0-0.3c0.1-1,0.3-2.1,0.4-3.1c0.7-5.6,1.3-11.4,1.2-16.1l6.8-0.3
	l0.7,0c0,0,0,0,0-0.1c-0.2-0.1-0.9-0.5-1.9-0.9c-1.5-0.7-3.7-1.8-6-2.7c-0.2-0.9-0.4-1.8-0.7-2.6c-0.1-0.2-0.2-0.4-0.3-0.6
	c-4.2-8.6-31-32-42.5-41.8c-2.9-2.5-4.8-4.1-5.2-4.4c-0.4-0.4-1-0.3-1.4,0.1c-0.2,0.2-0.2,0.5-0.2,0.8c0,0.2,0.1,0.5,0.3,0.6
	c0.4,0.3,30.8,25.7,42.8,39.5c2.3,2.7,4,4.9,4.5,6.4c0.1,0.3,0.2,0.6,0.3,1c-1.6-0.6-3-1-4.3-1.2c-5.1-0.9-25.2,7.8-25.2,7.8
	l30.2-1.5c0.1,4.5-0.4,10.1-1.1,15.5c-0.1,1.1-0.3,2.2-0.4,3.3c0,0.2-0.1,0.5-0.1,0.7c-1.2,9.4-1.8,15.3-0.2,17.4
	c1.4,1.9,5.6,3.7,10.1,5.1c2.1,0.7,4.4,1.3,6.4,1.8c0.5,0.1,0.9,0.2,1.4,0.3c3.1,0.8,5.5,1.2,6.2,1.4c0.1,0,0.1,0,0.2,0
	c0.5,0,0.9-0.3,1-0.8c0.1-0.5-0.2-1.1-0.8-1.2c-0.4-0.1-0.9-0.2-1.4-0.3c0.1-0.2,0.1-0.3,0.2-0.5c0.2-1.2-0.7-2.4-1.9-2.5
	c0,0,0,0,0,0c0.5-0.8,0.5-1.8-0.1-2.5c0,0-0.4-0.6-0.9-1.4c-1.1-1.8-2.5-5.1-1-7.6c0.1-0.2,4.9-8.4,9.4-17.5
	c3.4-9,6.4-18.2,3.9-22.1c-2.8-4.3-19.9-15.8-34.5-25.3C286.2,105,285.8,105.3,285.6,105.8z M321,130.2
	C321,130.2,321,130.3,321,130.2c0.7,4.5-12.7,30.2-16.9,37c-2.4,3.8-1.1,8.2,0.3,11c0.4,0.7,0.7,1.4,1,1.9c-1.3-0.4-2.5-0.8-3.6-1.4
	c-1.5-0.7-2.6-1.6-2.9-2.5c-0.4-2.1,3.9-12.4,7.1-19.8c3.9-9.2,6.8-16.4,8.2-21.6c0.7-2.6,1.1-4.7,0.9-6.3c-0.1-1.4-0.6-2.9-1.3-4.4
	C317.8,126.9,320.6,129,321,130.2z"/>
<path class="st0" d="M315.7,80.4c0,0.3,0.2,0.6,0.5,0.8c0.2,0.1,0.3,0.1,0.5,0.1c0.2,0,0.3,0,0.4-0.1c-2.5-3.2-5.5-6.1-8.6-8.7
	C312.5,76.1,315.2,79.5,315.7,80.4z"/>
<path class="st0" d="M218,67.3c10.5-4.7,29.4,5.9,29.6,6c0.5,0.3,1.1,0.1,1.4-0.4c0.3-0.5,0.1-1.1-0.4-1.4
	c-0.8-0.5-20-11.2-31.4-6.1c-6.9,3.1-15.8,9.5-21.8,14.1c-3.6,2.8-6.1,4.9-6.4,5.1c-0.4,0.4-0.5,1-0.1,1.4c0.2,0.2,0.5,0.4,0.8,0.4
	c0.2,0,0.5-0.1,0.6-0.2c0.1-0.1,2.4-2,6-4.8C202.2,76.9,211.3,70.3,218,67.3z"/>
<path class="st0" d="M226.1,85.1c4.8-2.2,19.6-6.8,19.8-6.9c0.5-0.2,0.8-0.7,0.7-1.2c-0.2-0.5-0.7-0.8-1.2-0.6
	c-0.6,0.2-15.1,4.7-20,7c-2.6,1.2-6.1,4.4-9.5,8c-5.7,6.1-11.1,13.3-11.4,13.8c-0.3,0.4-0.2,1.1,0.2,1.4c0.2,0.1,0.4,0.2,0.6,0.2
	c0.3,0,0.6-0.1,0.8-0.4c0,0,0.9-1.2,2.2-2.8C212.2,98.2,221.1,87.3,226.1,85.1z"/>
<path class="st0" d="M292.2,96.3c0.2,0.1,0.3,0.1,0.5,0.1c0.3,0,0.7-0.2,0.9-0.5c0.3-0.5,0.1-1.1-0.4-1.4c-1.9-1.1-4.8-5.2-7.6-9.1
	c-0.1-0.1-0.1-0.2-0.2-0.3c-4.1-5.7-8.3-11.5-12-12.7c-6.4-2-20.2,3.5-20.8,3.8c-0.5,0.2-0.8,0.8-0.5,1.3c0.2,0.5,0.8,0.7,1.3,0.5
	c0.1-0.1,13.7-5.6,19.4-3.7c3,1,7.1,6.6,10.8,11.7c0.1,0.2,0.3,0.4,0.4,0.6C287.2,91.1,289.9,95,292.2,96.3z"/>
<path class="st4" d="M234.2,177.3c0.4,0,0.8-0.3,0.8-0.8c0-0.4-0.3-0.8-0.8-0.8c-0.4,0-0.8,0.3-0.8,0.8
	C233.5,177,233.8,177.3,234.2,177.3z"/>
<path class="st4" d="M229.9,181.1c0-0.6-0.5-1.1-1.1-1.1c-0.6,0-1.1,0.5-1.1,1.1c0,0.6,0.5,1.1,1.1,1.1
	C229.4,182.2,229.9,181.7,229.9,181.1z"/>
<path class="st4" d="M269.5,183.4c0,0.7,0.5,1.2,1.2,1.2c0.7,0,1.2-0.5,1.2-1.2c0-0.7-0.5-1.2-1.2-1.2
	C270,182.2,269.5,182.8,269.5,183.4z"/>
<path class="st4" d="M269.2,177.1c1,0,1.8-0.8,1.8-1.8c0-1-0.8-1.8-1.8-1.8c-1,0-1.8,0.8-1.8,1.8
	C267.4,176.3,268.2,177.1,269.2,177.1z"/>
<path class="st4" d="M255.1,171.1c-1,0-1.7,0.8-1.7,1.7c0,1,0.8,1.7,1.7,1.7c1,0,1.7-0.8,1.7-1.7C256.8,171.9,256,171.1,255.1,171.1
	z"/>
<polygon class="st4" points="217.4,173.3 216,170.4 214.5,173.3 211.3,173.8 213.6,176.1 213.1,179.3 216,177.8 218.8,179.3 
	218.3,176.1 220.6,173.8 "/>
<polygon class="st4" points="280.2,172.1 279,174.5 276.3,174.9 278.2,176.8 277.7,179.5 280.2,178.3 282.6,179.5 282.1,176.8 
	284.1,174.9 281.4,174.5 "/>
<path class="st1" d="M157.9,341.2c-3.2,53.7,2.5,92.6,6.5,110.5c0.7,2.8,1.4,5.5,2.1,8c0.6,1.8,1,2.8,1.3,3
	c0.7,0.5,11.7-24,10.8-35.3c-2.1-28.1-3.1-52.7-2.9-65.2C175.7,360.5,163.7,347.9,157.9,341.2z"/>
<path class="st1" d="M326.7,305.6c5.3,3.2,10.4,6.5,15,9.9C337.1,312,332,308.7,326.7,305.6z"/>
<path class="st1" d="M350.7,331.1c-6-5.9-37.7-23.4-56.5-34.2l-38.8,13.3l-44.4-12c-17.6,8-39.1,18.7-43.6,24.8
	c-4.3,5.7-7.1,11.5-8.8,15.9c6.2,4.4,18,14.5,18.3,14.8c3.2,3.6,2.3,4,2.4,8.2c0.3,12.5,2.6,35,4.5,47.1c2,12.9,12.9,79,13,79.2H313
	c0,0,9.5-56.9,13.3-76.9c2.1-10.6,7.5-30.1,4.1-49.4c-2.5-14.6,4.1-7.3,4.1-7.3s-1.5,69.6-6.8,105.7c-3.1,21.6,33,27.9,33,27.9
	s5.1-78.8,0.1-133.8c-0.1-1.2-0.2-2.3-0.3-3.5C360.4,349.4,358.7,339,350.7,331.1z M184.1,389.9c-0.2-0.5,0-1.1,0.5-1.3
	c0.5-0.2,1.1,0,1.3,0.5c0.1,0.2,7.7,18.1,29,21.6c21.4,3.5,32.9-2.4,33-2.4c0.5-0.3,1.1-0.1,1.3,0.4c0.3,0.5,0.1,1.1-0.4,1.3
	c-0.4,0.2-7.4,3.8-20.6,3.8c-4,0-8.5-0.3-13.6-1.2C192.3,409,184.2,390.1,184.1,389.9z M296.3,412.7c-5.1,0.8-9.7,1.2-13.6,1.2
	c-13.3,0-20.3-3.6-20.7-3.8c-0.5-0.3-0.7-0.9-0.4-1.3c0.3-0.5,0.9-0.7,1.3-0.4c0.1,0.1,11.6,6,33,2.4c21.2-3.5,28.9-21.4,29-21.6
	c0.2-0.5,0.8-0.8,1.3-0.5c0.5,0.2,0.7,0.8,0.5,1.3C326.7,390.1,318.6,409,296.3,412.7z"/>
<path class="st1" d="M359.4,340.4c-0.2-1.6-0.4-3.1-0.7-4.6c-0.1-0.8-0.3-1.6-0.6-2.3c-0.2-0.6-0.5-1.3-0.8-1.9
	C358.2,334.2,358.8,337.4,359.4,340.4z"/>
<path class="st1" d="M216.3,295.8l39,11.2l35.5-12c-6.2-3.6-10.4-6.2-10.7-6.8c-0.1-0.3-0.2-1.1-0.2-2.2l-25.1,7.5l-19.1-5.7
	l-0.6-0.2C235.1,287.6,227,291,216.3,295.8z"/>
<path class="st0" d="M327.8,460.3c5.2-36.1,6.8-105.7,6.8-105.7s-6.6-7.3-4.1,7.3c3.3,19.3-2.1,38.8-4.1,49.4
	c-3.9,19.9-13.3,76.9-13.3,76.9h47.8C360.8,488.1,324.7,481.9,327.8,460.3z"/>
<path class="st0" d="M228.2,413.8c13.3,0,20.3-3.6,20.6-3.8c0.5-0.3,0.7-0.9,0.4-1.3c-0.3-0.5-0.9-0.7-1.3-0.4
	c-0.1,0.1-11.6,6-33,2.4c-21.2-3.5-28.9-21.4-29-21.6c-0.2-0.5-0.8-0.8-1.3-0.5c-0.5,0.2-0.7,0.8-0.5,1.3
	c0.1,0.2,8.1,19.1,30.5,22.8C219.7,413.5,224.3,413.8,228.2,413.8z"/>
<path class="st0" d="M326.2,388.6c-0.5-0.2-1.1,0-1.3,0.5c-0.1,0.2-7.7,18.1-29,21.6c-21.4,3.5-32.9-2.4-33-2.4
	c-0.5-0.2-1.1-0.1-1.3,0.4c-0.3,0.5-0.1,1.1,0.4,1.3c0.4,0.2,7.4,3.8,20.7,3.8c4,0,8.5-0.3,13.6-1.2c22.3-3.7,30.4-22.6,30.5-22.8
	C327,389.4,326.7,388.8,326.2,388.6z"/>
<path class="st0" d="M183.7,409c-1.9-12.1-4.1-34.6-4.5-47.1c-0.1-4.2,0.8-4.6-2.4-8.2c-0.3-0.3-12.1-10.5-18.3-14.8
	c1.7-4.4,4.5-10.2,8.8-15.9c4.6-6,26-16.7,43.6-24.8l44.4,12l38.8-13.3c-1.1-0.7-2.3-1.3-3.3-1.9l-35.5,12l-39-11.2
	c10.7-4.8,18.9-8.2,18.9-8.2h0l-10.2-3c0,0,0,0,0,0c-0.6,0.2-31.7,11.5-53,25.9c-17.9,12.1-20.4,20.6-20.8,23.9c0,0,0,0,0,0
	s-1.9,2-3.9,30.7c-0.8,10.9,8.6,123.1,8.6,123.1h40.9c0,0,0,0,0,0C196.7,488,185.8,421.9,183.7,409z M178.5,427.5
	c0.8,11.3-10.1,35.8-10.8,35.3c-0.2-0.2-0.7-1.2-1.3-3c-0.6-1.9-1.3-4.5-2.1-8c-4-17.9-9.7-56.8-6.5-110.5
	c5.8,6.7,17.8,19.3,17.8,21.1C175.4,374.7,176.4,399.3,178.5,427.5z"/>
<path class="st2" d="M281.6,56.6c0,0,0.6,0.3,1.6,0.7c0.2,0.1,0.5,0.2,0.8,0.3c1.5,0.7,3.5,1.6,6,2.9c2.8,1.4,5.9,3.2,9.3,5.3
	c1.8,1.1,3.6,2.4,5.4,3.7c1.3,0.9,2.6,1.9,3.8,3c3.2,2.6,6.2,5.5,8.6,8.7c0.8,1,1.5,2.1,2.2,3.1c6.1,9.5,7.5,28.2,7.5,43
	c-1.1-2.3-3.9-5-7.8-7.8c-7-5.2-17.4-10.9-27.2-15.9c-14.2-7.1-27.2-12.7-27.2-12.7c0,0,0,0,0,0h0c0,0,10.3,6.2,22.1,13.8
	c14.6,9.4,31.7,20.9,34.5,25.3c2.6,3.9-0.5,13.1-3.9,22.1c-3.4,9.1-7.2,18-5.9,20.8c0.5,1,1.2,2,2.2,3c0.6,0.6,1.2,1.3,1.8,1.9
	c2.6,2.5,5.8,4.8,7.9,6.3c1.5,1,2.4,1.6,2.4,1.6s0,0,0,0c0-0.1-1.6-1.8-3.2-4.1c-1-1.4-2-3-2.7-4.6c-1-2-1.5-4.1-1.2-5.8
	c0.1-0.7,0.4-1.7,0.9-3c0.3-0.8,0.6-1.6,0.9-2.6c0.9-2.4,1.9-5.3,3-8.5c0.5-1.4,1-2.9,1.4-4.4c0.4-1.4,0.8-2.7,1.2-4.1c0,0,0,0,0,0
	s15.4-52.1,3.4-72.2c-10.2-17.2-37.9-19.4-45.7-19.7C282.4,56.6,281.6,56.6,281.6,56.6z"/>
<path class="st2" d="M258.3,13.7c0.9,0.2,14.9,3.4,21.1,14.4c1.1,1.9,1.9,3.8,2.6,5.6c0.5,1.2,0.8,2.4,1.2,3.5
	c1.9,6.8,1.6,12.1,1.6,12.7c0,0,0,0.1,0,0.1s3.9-9,3.1-17c-0.2-2.4-0.8-4.6-2.1-6.5c-0.3-0.5-0.7-0.9-1.1-1.4
	c-0.8-0.9-1.6-1.8-2.4-2.6C273.2,14.5,258.2,13.7,258.3,13.7C258.2,13.7,258.2,13.7,258.3,13.7z"/>
<path class="st2" d="M268.3,233.3C268.3,233.3,268.3,233.3,268.3,233.3c0,0,6.2-1.7,14.1-7.4c0.1,0,0.1-0.1,0.2-0.1
	c3.6-2.6,7.5-6,11.2-10.3c5.1-5.9,8.7-13.4,11.1-19.2c1.8-4.6,2.9-8.2,3.1-9.1c0-0.1,0.1-0.2,0.1-0.2s0,0,0,0
	c-0.1,0.2-6.2,10.5-11.6,18C288.2,216.2,268.5,233.2,268.3,233.3z"/>
<path class="st2" d="M280,286c0,1.1,0.1,1.9,0.2,2.2c0.3,0.6,4.5,3.2,10.7,6.8c1,0.6,2.1,1.2,3.3,1.9c18.8,10.8,50.5,28.2,56.5,34.2
	c8,7.9,9.7,18.3,9.9,19.7c0.1,1.2,0.2,2.3,0.3,3.5h0.4v-20.9h-3.3c0.3,0.8,0.5,1.6,0.6,2.3c0.2,1.5,0.5,3,0.7,4.6
	c-0.5-3-1.2-6.2-2.1-8.8c-0.6-1.8-1.4-3.3-2.2-4.3c-1.6-1.9-3.6-3.8-5.8-5.8h12.2v-20.9h-38.9v2.5c-18.8-11-37.8-19.8-37.8-19.8
	c-0.1-4.1-2.5-27.3-2.5-27.3l0,0C282.2,256.7,279.9,278.7,280,286z M341.7,315.4c-4.6-3.3-9.7-6.7-15-9.9
	C332,308.7,337.1,312,341.7,315.4z"/>
<rect x="338.2" y="228.7" class="st1" width="160.1" height="9"/>
<rect x="338.2" y="247.9" class="st1" width="160.1" height="9"/>
</svg>
