<?xml version="1.0" encoding="utf-8"?>
<!-- Generator: Adobe Illustrator 25.0.1, SVG Export Plug-In . SVG Version: 6.00 Build 0)  -->
<svg version="1.1" id="Calque_1" xmlns="http://www.w3.org/2000/svg" xmlns:xlink="http://www.w3.org/1999/xlink" x="0px" y="0px"
	 viewBox="0 0 150 150" style="enable-background:new 0 0 150 150;" xml:space="preserve">
<style type="text/css">
	.st0{fill:#0D6EFD;}
	.st1{fill:#FFFFFF;}
	.st2{fill:#212529;}
</style>
<rect class="st0" width="150" height="150"/>
<g>
	<g>
		<g>
			<path class="st1" d="M-156.8,122.5c8.4,8.4,21.7,8.8,29.6,0.9s7.5-21.2-0.9-29.6L-156.8,122.5z"/>
		</g>
		<g>
			<g>
				<path class="st1" d="M-102.7,94.2l47.1,27.1c14.6-9.8,31.8-15.4,50.3-15.4c51.7,0,93.7,44.1,94.3,98.8l2,1.1l63.8-37.1
					l-193.6-112L-102.7,94.2z"/>
				<path class="st1" d="M-38.6,56.4l193.7,112.1l0.5,0.3l-64.5,37.5l-2.3-1.4v-0.2c-0.3-26.3-10.2-51.1-27.9-69.6
					c-17.7-18.6-41.2-28.8-66.1-28.8c-17.8,0-35.1,5.3-50.1,15.4l-0.2,0.1l-47.8-27.5L-38.6,56.4z M-5.2,105.6
					c25.1,0,48.7,10.3,66.6,29c17.7,18.6,27.7,43.5,28.1,69.9l1.7,1l63.2-36.8L-38.6,57.2l-63.4,37l46.5,26.8
					C-40.5,111-23.1,105.7-5.2,105.6z"/>
			</g>
			<g>
				<path class="st1" d="M-55.7,121.1l0.2-0.1l144.8,83.5l0.2,0.1v0.6c0,0.3,0,0.5,0,0.8v0.3H-99.9v-0.3
					C-99.9,171.3-83.4,139.6-55.7,121.1z M88.8,205.2V205l-144.3-83.2c-27.3,18.4-43.6,49.6-43.7,83.8h188
					C88.8,205.5,88.8,205.4,88.8,205.2z"/>
			</g>
			<g>
				<path class="st2" d="M-5.2,106c-18.5,0-35.8,5.6-50.3,15.4l144.6,83.4C88.6,150.1,46.5,106-5.2,106z"/>
				<path class="st2" d="M-55.7,121.2c15.1-10.2,32.6-15.5,50.5-15.5c25.1,0,48.7,10.3,66.6,29c17.8,18.7,27.8,43.5,28.1,70.1v0.6
					l-145.1-83.7l-0.4-0.3L-55.7,121.2z M60.9,135.1c-17.7-18.6-41.2-28.8-66.1-28.8c-17.6,0-34.8,5.2-49.7,15l143.7,82.8
					C88.3,178.1,78.5,153.6,60.9,135.1z"/>
			</g>
		</g>
		<g>
			<path class="st1" d="M-55.1,121.2L-207.3,209V33.3L-55.1,121.2z M-57.7,121.2l-148.2-85.6v171.1L-57.7,121.2z"/>
		</g>
		<g>
			<g>
				<polygon class="st1" points="-206.6,34.4 -206.6,61.5 -183.2,48 				"/>
			</g>
		</g>
		<g>
			<g>
				
					<rect x="-120.9" y="56.1" transform="matrix(0.5012 -0.8653 0.8653 0.5012 -194.856 -26.26)" class="st1" width="1.3" height="199.6"/>
			</g>
		</g>
		<g>
			
				<rect x="-174.2" y="107" transform="matrix(0.7071 -0.7071 0.7071 0.7071 -117.7354 -68.9761)" class="st1" width="64.1" height="1.3"/>
		</g>
		<g>
			
				<rect x="-186.1" y="99.7" transform="matrix(0.7071 -0.7071 0.7071 0.7071 -116.1017 -79.6657)" class="st1" width="63.7" height="1.3"/>
		</g>
		<g>
			
				<rect x="-198.5" y="93" transform="matrix(0.7071 -0.7071 0.7071 0.7071 -115.0209 -90.2977)" class="st1" width="64.1" height="1.3"/>
		</g>
	</g>
	<g>
		<g>
			<ellipse class="st1" cx="-181.5" cy="158.6" rx="7.4" ry="7.4"/>
			<path class="st1" d="M-174.8,162.1c-2,3.7-6.6,5.2-10.4,3.2c-3.7-2-5.2-6.6-3.2-10.4c2-3.7,6.6-5.2,10.4-3.2
				C-174.2,153.7-172.8,158.4-174.8,162.1z M-175.2,161.9c1.8-3.5,0.5-7.9-3-9.7c-3.5-1.8-7.9-0.5-9.7,3c-1.8,3.5-0.5,7.9,3,9.7
				C-181.4,166.8-177.1,165.4-175.2,161.9z"/>
		</g>
		<g>
			<ellipse class="st1" cx="-142.8" cy="143.1" rx="5.3" ry="5.3"/>
			<path class="st1" d="M-137.9,145.7c-1.4,2.7-4.8,3.8-7.5,2.3c-2.7-1.4-3.8-4.8-2.3-7.5c1.4-2.7,4.8-3.8,7.5-2.3
				C-137.5,139.7-136.5,143-137.9,145.7z M-138.3,145.5c1.3-2.5,0.4-5.6-2.1-6.9c-2.5-1.3-5.6-0.4-6.9,2.1c-1.3,2.5-0.4,5.6,2.1,6.9
				C-142.7,148.9-139.6,148-138.3,145.5z"/>
		</g>
	</g>
</g>
<g>
	<path class="st1" d="M29.2,71.1v2.7h4.6v3.5h-4.6v6.3H25V67.6h9.2v3.5L29.2,71.1L29.2,71.1z"/>
	<path class="st1" d="M40.6,68.5c0,1.2-1,2.2-2.2,2.2s-2.2-1-2.2-2.2s1-2.2,2.2-2.2C39.6,66.4,40.6,67.3,40.6,68.5z M40.3,83.6h-3.9
		V72.7h3.9V83.6z"/>
	<path class="st1" d="M46.8,83.6h-3.9V65.9h3.9V83.6z"/>
	<path class="st1" d="M60.5,78.8h-8.2c0,1.6,0.8,2.4,2.4,2.4c0.8,0,1.4-0.3,1.9-1h3.8c-0.3,1.3-1.1,2.2-2.1,2.8
		c-1,0.6-2.3,0.9-3.5,0.9c-3.6,0-6.3-2.1-6.3-5.8c0-3.7,2.5-5.9,6-5.9c3.8,0,6,2.3,6,6.1L60.5,78.8L60.5,78.8z M56.9,76.6
		c-0.2-1-1.2-1.7-2.2-1.7c-1.1,0-2.1,0.6-2.3,1.7H56.9z"/>
	<path class="st1" d="M71.2,71.7c-0.8-0.7-1.7-1.1-2.8-1.1c-0.8,0-1.8,0.5-1.8,1.4c0,0.9,1.1,1.3,1.9,1.5l1.1,0.3
		c2.3,0.7,4,1.8,4,4.4c0,1.6-0.4,3.2-1.6,4.3c-1.3,1.1-3,1.5-4.5,1.5c-2,0-4-0.7-5.6-1.8l1.8-3.4c1,0.9,2.3,1.6,3.7,1.6
		c1,0,2-0.5,2-1.6s-1.6-1.6-2.5-1.8c-2.6-0.8-4.4-1.4-4.4-4.5c0-3.3,2.3-5.4,5.5-5.4c1.6,0,3.6,0.5,5,1.3L71.2,71.7z"/>
	<path class="st1" d="M79.3,65.9v8.2h0c0.9-1.2,2-1.7,3.5-1.7c2.8,0,4.1,1.8,4.1,4.6v6.7h-3.9V78c0-1.3-0.2-2.6-1.7-2.6
		s-2,1.3-2,2.6v5.6h-3.9V65.9H79.3z"/>
	<path class="st1" d="M101.5,83.6h-3.9v-1.2h0c-0.7,1.1-2,1.6-3.3,1.6c-3.2,0-5.5-2.7-5.5-5.9s2.3-5.8,5.5-5.8
		c1.3,0,2.6,0.5,3.4,1.4v-1.1h3.9L101.5,83.6L101.5,83.6z M92.7,78.2c0,1.4,0.9,2.4,2.5,2.4c1.6,0,2.5-1.1,2.5-2.4s-0.9-2.5-2.5-2.5
		C93.7,75.7,92.7,76.9,92.7,78.2z"/>
	<path class="st1" d="M107.9,74.5L107.9,74.5c0.8-1.4,2.1-1.9,3.6-1.9h0.8v3.8c-0.5-0.3-1-0.4-1.6-0.4c-2.2,0-2.7,1.4-2.7,3.3v4.4
		H104V72.7h3.9L107.9,74.5L107.9,74.5z"/>
	<path class="st1" d="M125,78.8h-8.2c0,1.6,0.8,2.4,2.4,2.4c0.8,0,1.4-0.3,1.9-1h3.8c-0.3,1.3-1.1,2.2-2.1,2.8
		c-1,0.6-2.3,0.9-3.5,0.9c-3.6,0-6.3-2.1-6.3-5.8c0-3.7,2.5-5.9,6-5.9c3.8,0,6,2.3,6,6.1L125,78.8L125,78.8z M121.3,76.6
		c-0.2-1-1.2-1.7-2.2-1.7c-1.1,0-2.1,0.6-2.3,1.7H121.3z"/>
</g>
<g>
	<g>
		<g>
			<path class="st1" d="M150.2,15c-4.1-11.2-15.9-17.1-26.4-13.3S108,17.6,112,28.8L150.2,15z"/>
		</g>
		<g>
			<g>
				<path class="st1" d="M89.2,17.6L58-27c-17.3,2.7-35.3,0.5-52.1-7.4C-41-56.2-60.4-114-37.7-163.8l-1.3-1.9l-73.6,6.6L15.3,24.3
					L89.2,17.6z"/>
				<path class="st1" d="M15.1,24.7l-128-183.6l-0.3-0.5l74.3-6.7l1.6,2.2l-0.1,0.2c-10.9,24-12.4,50.6-4.2,74.9
					c8.2,24.3,25.1,43.5,47.7,54.1c16.1,7.5,34.1,10.1,51.9,7.3l0.2,0l31.6,45.2L15.1,24.7z M5.7-34C-17-44.7-34-64-42.3-88.5
					c-8.2-24.4-6.7-51.1,4.2-75.2l-1.1-1.6l-72.8,6.5L15.4,24l73.1-6.7L57.8-26.6C39.9-23.9,21.9-26.5,5.7-34z"/>
			</g>
			<g>
				<path class="st1" d="M58-26.6l-0.2,0l-95.8-137l-0.1-0.2l0.3-0.5c0.1-0.2,0.2-0.4,0.3-0.7l0.1-0.3l171.5,80.2l-0.1,0.3
					C119.3-53.4,90.9-31.7,58-26.6z M-37.3-164l-0.1,0.2L58.1-27.4c32.5-5.1,60.5-26.5,75.1-57.4l-170.3-79.6
					C-37.1-164.3-37.2-164.2-37.3-164z"/>
			</g>
			<g>
				<path class="st2" d="M5.9-34.4c16.8,7.8,34.8,10,52.1,7.4l-95.7-136.8C-60.4-114.1-41-56.3,5.9-34.4z"/>
				<path class="st2" d="M58-26.7C40-23.9,22-26.5,5.7-34.1C-17-44.7-34-64-42.3-88.5c-8.2-24.5-6.7-51.2,4.3-75.4l0.3-0.5l96,137.3
					l0.3,0.4L58-26.7z M-41.7-88.7C-33.5-64.4-16.5-45.2,6-34.7c15.9,7.5,33.7,10,51.4,7.4l-95.1-135.9
					C-48.4-139.3-49.8-112.9-41.7-88.7z"/>
			</g>
		</g>
		<g>
			<path class="st1" d="M57.5-27l175.1-15.1l-74.4,159.1L57.5-27z M59.8-25.9l98,140.3l72.5-155L59.8-25.9z"/>
		</g>
		<g>
			<g>
				<polygon class="st1" points="158,115.8 169.4,91.3 142.5,93.6 				"/>
			</g>
		</g>
		<g>
			<g>
				
					<rect x="130.5" y="-130.7" transform="matrix(0.8206 -0.5715 0.5715 0.8206 41.1677 69.4369)" class="st1" width="1.3" height="199.6"/>
			</g>
		</g>
		<g>
			<rect x="98.6" y="21.5" transform="matrix(0.9401 -0.341 0.341 0.9401 0.2719 45.8598)" class="st1" width="64.1" height="1.3"/>
		</g>
		<g>
			
				<rect x="106.6" y="33.2" transform="matrix(0.9401 -0.341 0.341 0.9401 -3.2636 49.2406)" class="st1" width="63.7" height="1.3"/>
		</g>
		<g>
			
				<rect x="114.7" y="44.5" transform="matrix(0.9401 -0.341 0.341 0.9401 -6.5852 52.7534)" class="st1" width="64.1" height="1.3"/>
		</g>
	</g>
	<g>
		<g>
			<ellipse class="st1" cx="187.9" cy="-7.3" rx="7.4" ry="7.4"/>
			<path class="st1" d="M183.2-13.4c3.4-2.6,8.2-1.9,10.8,1.5c2.6,3.4,1.9,8.2-1.5,10.8c-3.4,2.6-8.2,1.9-10.8-1.5
				C179.2-6,179.9-10.8,183.2-13.4z M183.5-13c-3.2,2.4-3.8,6.9-1.4,10.1c2.4,3.2,6.9,3.8,10.1,1.4c3.2-2.4,3.8-6.9,1.4-10.1
				C191.2-14.8,186.7-15.4,183.5-13z"/>
		</g>
		<g>
			<ellipse class="st1" cx="146.3" cy="-9.7" rx="5.3" ry="5.3"/>
			<path class="st1" d="M142.9-14.2c2.4-1.9,6-1.4,7.8,1.1c1.9,2.4,1.4,6-1.1,7.8c-2.4,1.9-6,1.4-7.8-1.1
				C140-8.8,140.5-12.3,142.9-14.2z M143.2-13.8c-2.2,1.7-2.7,4.9-1,7.1c1.7,2.2,4.9,2.7,7.1,1c2.2-1.7,2.7-4.9,1-7.1
				S145.4-15.5,143.2-13.8z"/>
		</g>
	</g>
</g>
</svg>
