<?xml version="1.0" encoding="utf-8"?>
<!-- Generator: Adobe Illustrator 25.0.1, SVG Export Plug-In . SVG Version: 6.00 Build 0)  -->
<svg version="1.1" id="Calque_1" xmlns="http://www.w3.org/2000/svg" xmlns:xlink="http://www.w3.org/1999/xlink" x="0px" y="0px"
	 viewBox="0 0 360 200" style="enable-background:new 0 0 360 200;" xml:space="preserve">
<style type="text/css">
	.st0{fill:#0D6EFD;}
	.st1{fill:#FFFFFF;}
	.st2{fill:#212529;}
</style>
<rect class="st0" width="360" height="200"/>
<g>
	<path class="st1" d="M115.6,83.8v3.8h6.5v5h-6.5v8.9h-5.9V78.8h13v4.9L115.6,83.8L115.6,83.8z"/>
	<path class="st1" d="M131.6,80.1c0,1.7-1.4,3-3,3c-1.7,0-3-1.4-3-3s1.4-3,3-3C130.2,77.1,131.6,78.5,131.6,80.1z M131.3,101.4h-5.5
		V86h5.5V101.4z"/>
	<path class="st1" d="M140.3,101.4h-5.5V76.5h5.5V101.4z"/>
	<path class="st1" d="M159.7,94.6h-11.5c0,2.2,1.2,3.4,3.4,3.4c1.2,0,2-0.4,2.6-1.4h5.3c-0.4,1.8-1.5,3.1-2.9,4
		c-1.4,0.9-3.2,1.3-4.9,1.3c-5.1,0-8.9-2.9-8.9-8.2c0-5.1,3.5-8.2,8.5-8.2c5.3,0,8.4,3.3,8.4,8.6L159.7,94.6L159.7,94.6z
		 M154.7,91.5c-0.3-1.5-1.7-2.4-3.1-2.4c-1.6,0-2.9,0.9-3.2,2.4H154.7z"/>
	<path class="st1" d="M174.8,84.6c-1.1-0.9-2.4-1.5-3.9-1.5c-1.1,0-2.5,0.7-2.5,1.9c0,1.3,1.6,1.8,2.6,2.2l1.5,0.5
		c3.2,0.9,5.6,2.5,5.6,6.2c0,2.2-0.5,4.6-2.3,6.1c-1.8,1.5-4.2,2.1-6.4,2.1c-2.8,0-5.6-1-7.9-2.6l2.5-4.8c1.5,1.3,3.2,2.3,5.2,2.3
		c1.4,0,2.8-0.7,2.8-2.3s-2.3-2.2-3.6-2.6c-3.7-1.1-6.1-2-6.1-6.4c0-4.6,3.3-7.6,7.8-7.6c2.3,0,5.1,0.7,7.1,1.8L174.8,84.6z"/>
	<path class="st1" d="M186.2,76.5V88h0.1c1.3-1.6,2.8-2.4,4.9-2.4c3.9,0,5.8,2.6,5.8,6.5v9.4h-5.5v-7.9c0-1.8-0.3-3.6-2.4-3.6
		s-2.8,1.8-2.8,3.6v7.9h-5.5V76.5H186.2z"/>
	<path class="st1" d="M217.4,101.4h-5.5v-1.7h-0.1c-1,1.5-2.8,2.2-4.6,2.2c-4.6,0-7.8-3.8-7.8-8.2c0-4.4,3.2-8.2,7.7-8.2
		c1.8,0,3.6,0.7,4.8,2V86h5.5L217.4,101.4L217.4,101.4z M205.1,93.7c0,2,1.3,3.4,3.5,3.4c2.2,0,3.5-1.5,3.5-3.4
		c0-1.9-1.3-3.5-3.5-3.5C206.4,90.3,205.1,91.8,205.1,93.7z"/>
	<path class="st1" d="M226.5,88.5L226.5,88.5c1.1-1.9,2.9-2.7,5-2.7h1.1v5.3c-0.7-0.4-1.5-0.5-2.3-0.5c-3,0-3.8,2-3.8,4.6v6.2H221
		V86h5.5L226.5,88.5L226.5,88.5z"/>
	<path class="st1" d="M250.4,94.6h-11.5c0,2.2,1.2,3.4,3.4,3.4c1.2,0,2-0.4,2.6-1.4h5.3c-0.4,1.8-1.5,3.1-2.9,4
		c-1.4,0.9-3.2,1.3-4.9,1.3c-5.1,0-8.9-2.9-8.9-8.2c0-5.1,3.5-8.2,8.5-8.2c5.3,0,8.4,3.3,8.4,8.6L250.4,94.6L250.4,94.6z
		 M245.3,91.5c-0.3-1.5-1.6-2.4-3.1-2.4c-1.6,0-2.9,0.9-3.2,2.4H245.3z"/>
	<path class="st1" d="M16.6,118.1h3.4l-0.2,1.3H15l1.8-11.3h1.4L16.6,118.1z"/>
	<path class="st1" d="M27.2,119.4h-1.3l0.2-1.1l0,0c-0.7,0.8-1.6,1.3-2.6,1.3c-2.2,0-3.1-1.8-2.8-3.8c0.3-1.9,1.8-3.7,3.9-3.7
		c1.1,0,1.8,0.5,2.2,1.4l0,0l0.2-1.2h1.3L27.2,119.4z M26.5,115.9c0.2-1.4-0.4-2.5-1.8-2.5c-1.4,0-2.4,1.2-2.6,2.5
		c-0.2,1.3,0.4,2.6,1.8,2.6C25.3,118.4,26.3,117.3,26.5,115.9z"/>
	<path class="st1" d="M35.5,113.6L35.5,113.6c0.7-0.9,1.7-1.4,2.7-1.4c2,0,3,1.8,2.7,3.7c-0.3,2-1.8,3.8-4,3.8c-1,0-1.8-0.5-2.2-1.3
		l0,0l-0.8,5.1h-1.3l1.7-11h1.3L35.5,113.6z M39.6,115.9c0.2-1.4-0.4-2.5-1.8-2.5c-1.4,0-2.4,1.2-2.6,2.5c-0.2,1.3,0.4,2.6,1.8,2.6
		C38.3,118.4,39.3,117.3,39.6,115.9z"/>
	<path class="st1" d="M43,119.4h-1.3l2-13h1.3L43,119.4z"/>
	<path class="st1" d="M51.6,119.4h-1.3l0.2-1.1l0,0c-0.7,0.8-1.6,1.3-2.6,1.3c-2.2,0-3.1-1.8-2.8-3.8c0.3-1.9,1.8-3.7,3.9-3.7
		c1.1,0,1.8,0.5,2.2,1.4l0,0l0.2-1.2h1.3L51.6,119.4z M50.8,115.9c0.2-1.4-0.4-2.5-1.8-2.5c-1.4,0-2.4,1.2-2.6,2.5
		c-0.2,1.3,0.4,2.6,1.8,2.6C49.7,118.4,50.6,117.3,50.8,115.9z"/>
	<path class="st1" d="M54.9,119.4h-1.3l0.9-5.7h-0.7l0.2-1.3h0.7l0.4-2.7h1.3l-0.4,2.7h1.3l-0.2,1.3h-1.3L54.9,119.4z"/>
	<path class="st1" d="M58.2,116.1c-0.2,1.2,0.5,2.3,1.7,2.3c1.1,0,1.7-0.5,2.3-1.4l1.1,0.7c-0.9,1.2-2.2,1.9-3.6,1.9
		c-2.2,0-3.2-1.7-2.8-3.7c0.3-2.2,1.8-3.8,4-3.8c2.2,0,3,1.7,2.7,3.8v0.2L58.2,116.1L58.2,116.1z M62.4,115.1c0-1.1-0.6-1.8-1.7-1.8
		s-2,0.7-2.3,1.8H62.4z"/>
	<path class="st1" d="M69.6,107.8c-0.3-0.1-0.6-0.3-0.9-0.3c-1,0-1.2,1.2-1.3,1.9l-0.5,3h1.8l-0.2,1.3h-1.8l-0.9,5.7h-1.3l0.9-5.7
		h-0.6l0.2-1.3h0.6l0.5-3.4c0.3-1.5,1-2.8,2.7-2.8c0.3,0,0.7,0.1,0.9,0.2L69.6,107.8z"/>
	<path class="st1" d="M75.8,115.9c-0.3,2.1-2.2,3.8-4.4,3.8c-2.1,0-3.5-1.6-3.2-3.8s2.2-3.8,4.4-3.8
		C74.7,112.2,76.1,113.8,75.8,115.9z M69.6,115.9c-0.2,1.3,0.7,2.4,2,2.4s2.6-1.1,2.8-2.4s-0.7-2.4-2-2.4S69.8,114.6,69.6,115.9z"/>
	<path class="st1" d="M78.8,113.5L78.8,113.5c0.5-0.9,1.3-1.3,2.2-1.3c0.4,0,0.8,0.1,1.1,0.3l-0.8,1.3c-0.2-0.2-0.5-0.3-0.8-0.3
		c-1.5,0-1.8,1.3-2,2.5l-0.5,3.4h-1.3l1.1-7H79L78.8,113.5z"/>
	<path class="st1" d="M84.1,113.3L84.1,113.3c0.5-0.6,1.3-1.1,2-1.1c0.9,0,1.5,0.5,1.8,1.3c0.5-0.7,1.5-1.3,2.4-1.3
		c1.8,0,2.1,1.5,1.8,3l-0.7,4.2h-1.3l0.7-4c0.1-0.9,0.2-2-1-2c-1.5,0-1.8,1.5-2,2.6l-0.5,3.4h-1.3l0.6-3.7c0.1-0.9,0.3-2.3-0.9-2.3
		c-1.5,0-1.8,1.5-2,2.6l-0.5,3.4h-1.3l1.1-7h1.3L84.1,113.3z"/>
	<path class="st1" d="M94.7,116.1c-0.2,1.2,0.5,2.3,1.7,2.3c1.1,0,1.7-0.5,2.3-1.4l1.1,0.7c-0.9,1.2-2.2,1.9-3.6,1.9
		c-2.2,0-3.2-1.7-2.8-3.7c0.3-2.2,1.8-3.8,4-3.8c2.2,0,3,1.7,2.7,3.8v0.2L94.7,116.1L94.7,116.1z M98.8,115.1c0-1.1-0.6-1.8-1.7-1.8
		s-2,0.7-2.3,1.8H98.8z"/>
	<path class="st1" d="M110.4,118.3L110.4,118.3c-0.7,0.8-1.7,1.3-2.6,1.3c-2.2,0-3.1-1.8-2.8-3.8c0.3-1.9,1.8-3.7,3.9-3.7
		c1.1,0,1.8,0.5,2.2,1.4l0,0l1.1-7.2h1.3l-2,13h-1.3L110.4,118.3z M110.9,115.9c0.2-1.4-0.4-2.5-1.8-2.5c-1.4,0-2.4,1.2-2.6,2.5
		c-0.2,1.3,0.4,2.6,1.8,2.6C109.6,118.4,110.6,117.3,110.9,115.9z"/>
	<path class="st1" d="M114.7,116.1c-0.2,1.2,0.5,2.3,1.7,2.3c1.1,0,1.7-0.5,2.3-1.4l1.1,0.7c-0.9,1.2-2.2,1.9-3.6,1.9
		c-2.2,0-3.2-1.7-2.8-3.7c0.3-2.2,1.8-3.8,4-3.8c2.2,0,3,1.7,2.7,3.8v0.2L114.7,116.1L114.7,116.1z M118.8,115.1
		c0-1.1-0.6-1.8-1.7-1.8s-2,0.7-2.3,1.8H118.8z"/>
	<path class="st1" d="M127.2,113.6L127.2,113.6c0.7-0.9,1.7-1.4,2.7-1.4c2,0,3,1.8,2.7,3.7c-0.3,2-1.8,3.8-4,3.8
		c-1,0-1.8-0.5-2.2-1.3l0,0l-0.8,5.1h-1.3l1.7-11h1.3L127.2,113.6z M131.2,115.9c0.2-1.4-0.4-2.5-1.8-2.5c-1.4,0-2.4,1.2-2.6,2.5
		s0.4,2.6,1.8,2.6S131,117.3,131.2,115.9z"/>
	<path class="st1" d="M139.9,119.4h-1.3l0.2-1.1l0,0c-0.7,0.8-1.6,1.3-2.6,1.3c-2.2,0-3.1-1.8-2.8-3.8c0.3-1.9,1.8-3.7,3.9-3.7
		c1.1,0,1.8,0.5,2.2,1.4l0,0l0.2-1.2h1.3L139.9,119.4z M139.2,115.9c0.2-1.4-0.4-2.5-1.8-2.5c-1.4,0-2.4,1.2-2.6,2.5
		c-0.2,1.3,0.4,2.6,1.8,2.6S139,117.3,139.2,115.9z"/>
	<path class="st1" d="M144,113.5L144,113.5c0.5-0.9,1.3-1.3,2.2-1.3c0.4,0,0.8,0.1,1.1,0.3l-0.8,1.3c-0.2-0.2-0.5-0.3-0.8-0.3
		c-1.5,0-1.8,1.3-2,2.5l-0.5,3.4h-1.3l1.1-7h1.3L144,113.5z"/>
	<path class="st1" d="M148.8,119.4h-1.3l0.9-5.7h-0.7l0.2-1.3h0.7l0.4-2.7h1.3l-0.4,2.7h1.3l-0.2,1.3h-1.3L148.8,119.4z"/>
	<path class="st1" d="M157.4,119.4h-1.3l0.2-1.1l0,0c-0.7,0.8-1.6,1.3-2.6,1.3c-2.2,0-3.1-1.8-2.8-3.8c0.3-1.9,1.8-3.7,3.9-3.7
		c1.1,0,1.8,0.5,2.2,1.4l0,0l0.2-1.2h1.3L157.4,119.4z M156.7,115.9c0.2-1.4-0.4-2.5-1.8-2.5c-1.4,0-2.4,1.2-2.6,2.5
		c-0.2,1.3,0.4,2.6,1.8,2.6S156.5,117.3,156.7,115.9z"/>
	<path class="st1" d="M165.8,119.3c-0.4,2.4-1.3,4.2-4.1,4.2c-2,0-3.2-1.2-2.9-3.2h1.3c-0.2,1.3,0.5,2,1.8,2c1.6,0,2.2-1.1,2.4-2.6
		l0.2-1.3l0,0c-0.7,0.8-1.6,1.3-2.6,1.3c-2.2,0-3.1-1.8-2.8-3.8c0.3-1.9,1.8-3.7,3.9-3.7c1.1,0,1.8,0.5,2.2,1.4l0,0l0.2-1.2h1.3
		L165.8,119.3z M165,115.9c0.2-1.4-0.4-2.5-1.8-2.5c-1.4,0-2.4,1.2-2.6,2.5s0.4,2.6,1.8,2.6S164.8,117.3,165,115.9z"/>
	<path class="st1" d="M168.8,116.1c-0.2,1.2,0.5,2.3,1.7,2.3c1.1,0,1.7-0.5,2.3-1.4l1.1,0.7c-0.9,1.2-2.2,1.9-3.6,1.9
		c-2.2,0-3.2-1.7-2.8-3.7c0.3-2.2,1.8-3.8,4-3.8c2.2,0,3,1.7,2.7,3.8v0.2L168.8,116.1L168.8,116.1z M173,115.1
		c0-1.1-0.6-1.8-1.6-1.8s-2,0.7-2.3,1.8H173z"/>
	<path class="st1" d="M184.6,118.3L184.6,118.3c-0.7,0.8-1.6,1.3-2.6,1.3c-2.2,0-3.1-1.8-2.8-3.8c0.3-1.9,1.8-3.7,3.9-3.7
		c1.1,0,1.8,0.5,2.2,1.4l0,0l1.1-7.2h1.3l-2,13h-1.3L184.6,118.3z M185,115.9c0.2-1.4-0.4-2.5-1.8-2.5c-1.4,0-2.4,1.2-2.6,2.5
		c-0.2,1.3,0.4,2.6,1.8,2.6C183.8,118.4,184.8,117.3,185,115.9z"/>
	<path class="st1" d="M188.8,116.1c-0.2,1.2,0.5,2.3,1.7,2.3c1.1,0,1.7-0.5,2.3-1.4l1.1,0.7c-0.9,1.2-2.2,1.9-3.6,1.9
		c-2.2,0-3.2-1.7-2.8-3.7c0.3-2.2,1.8-3.8,4-3.8c2.2,0,3,1.7,2.7,3.8v0.2L188.8,116.1L188.8,116.1z M193,115.1
		c0-1.1-0.6-1.8-1.7-1.8s-2,0.7-2.3,1.8H193z"/>
	<path class="st1" d="M204.5,107.8c-0.3-0.1-0.6-0.3-0.9-0.3c-1,0-1.2,1.2-1.3,1.9l-0.5,3h1.8l-0.2,1.3h-1.8l-0.9,5.7h-1.3l0.9-5.7
		h-0.6l0.2-1.3h0.6l0.5-3.4c0.3-1.5,1-2.8,2.7-2.8c0.3,0,0.7,0.1,0.9,0.2L204.5,107.8z M204.7,119.4h-1.3l1.1-7h1.3L204.7,119.4z
		 M206.6,109.2c-0.1,0.5-0.6,0.9-1.1,0.9c-0.5,0-0.9-0.4-0.8-0.9c0.1-0.5,0.6-0.9,1.1-0.9C206.3,108.3,206.7,108.7,206.6,109.2z"/>
	<path class="st1" d="M212.8,114.4c-0.5-0.6-1.1-0.9-1.8-0.9c-1.3,0-2.5,1.2-2.7,2.4c-0.2,1.5,0.6,2.5,2,2.5c0.8,0,1.5-0.3,2-0.9
		l-0.3,1.7c-0.7,0.3-1.3,0.5-2,0.5c-2,0-3.5-1.6-3.2-3.7c0.3-2.2,2.3-3.8,4.4-3.8c0.7,0,1.3,0.1,1.8,0.5L212.8,114.4z"/>
	<path class="st1" d="M216.9,106.4l-1.1,6.9l0,0c0.5-0.7,1.5-1.2,2.3-1.2c2,0,2.3,1.3,2,3l-0.7,4.2h-1.3l0.7-4c0.2-1.2,0.1-2-1.2-2
		c-1.7,0-2,1.5-2.2,2.8l-0.5,3.2h-1.3l2-13H216.9z"/>
	<path class="st1" d="M223,119.4h-1.3l1.1-7h1.3L223,119.4z M224.8,109.2c-0.1,0.5-0.6,0.9-1.1,0.9c-0.5,0-0.9-0.4-0.8-0.9
		c0.1-0.5,0.6-0.9,1.1-0.9C224.6,108.2,224.9,108.7,224.8,109.2z"/>
	<path class="st1" d="M226.5,116.1c-0.2,1.2,0.5,2.3,1.7,2.3c1.1,0,1.7-0.5,2.3-1.4l1.1,0.7c-0.9,1.2-2.2,1.9-3.6,1.9
		c-2.2,0-3.2-1.7-2.8-3.7c0.3-2.2,1.8-3.8,4-3.8c2.2,0,3,1.7,2.7,3.8v0.2L226.5,116.1L226.5,116.1z M230.6,115.1
		c0-1.1-0.6-1.8-1.6-1.8c-1.1,0-2,0.7-2.3,1.8H230.6z"/>
	<path class="st1" d="M234.8,113.5L234.8,113.5c0.5-0.9,1.3-1.3,2.2-1.3c0.4,0,0.8,0.1,1.1,0.3l-0.8,1.3c-0.2-0.2-0.5-0.3-0.8-0.3
		c-1.5,0-1.8,1.3-2,2.5l-0.5,3.4h-1.3l1.1-7h1.3L234.8,113.5z"/>
	<path class="st1" d="M241.4,114c-0.1-0.3-0.4-0.6-0.8-0.6c-0.4,0-0.8,0.3-0.9,0.7c-0.1,0.6,0.7,0.9,1.5,1.3c0.8,0.4,1.5,0.9,1.3,2
		c-0.2,1.3-1.5,2.3-2.8,2.3c-1,0-2-0.6-2.2-1.6l1.3-0.5c0.2,0.5,0.5,0.9,1.1,0.9c0.6,0,1.1-0.4,1.3-1c0.1-0.4-0.1-0.5-0.4-0.8
		l-1.2-0.7c-0.7-0.4-1.2-0.8-1.1-1.8c0.2-1.1,1.3-2,2.4-2c0.9,0,1.5,0.5,1.7,1.3L241.4,114z"/>
	<path class="st1" d="M250.3,109.4l1-1.3h2.5l-1.8,11.3h-1.3l1.6-10L250.3,109.4L250.3,109.4z"/>
	<path class="st1" d="M256.8,113.8c0.3-2.3,2-5.9,4.9-5.9s3.4,3.6,3,5.9c-0.4,2.3-2,5.9-4.9,5.9C257,119.6,256.5,116.1,256.8,113.8z
		 M258.2,113.8c-0.3,1.6-0.1,4.6,1.8,4.6c2,0,3.1-3.1,3.3-4.6c0.3-1.6,0.1-4.7-1.8-4.7C259.5,109.1,258.4,112.2,258.2,113.8z"/>
	<path class="st1" d="M265.5,113.8c0.3-2.3,2-5.9,4.9-5.9c2.9,0,3.4,3.6,3,5.9c-0.4,2.3-2,5.9-4.9,5.9
		C265.6,119.6,265.1,116.1,265.5,113.8z M266.9,113.8c-0.3,1.6-0.1,4.6,1.8,4.6c2,0,3.1-3.1,3.3-4.6c0.3-1.6,0.1-4.7-1.8-4.7
		C268.2,109.1,267.1,112.2,266.9,113.8z"/>
	<path class="st1" d="M279.9,110.5c-0.2,1.5-1.7,2.6-3,2.6c-1.4,0-2.4-1.1-2.2-2.6c0.2-1.5,1.6-2.6,3-2.6
		C279.1,107.9,280.1,109,279.9,110.5z M283.6,108.2l-8.4,11.4l-0.7-0.4l8.4-11.4L283.6,108.2z M275.4,110.5
		c-0.1,0.9,0.5,1.6,1.5,1.6s1.8-0.7,2-1.7c0.1-0.9-0.5-1.7-1.5-1.7C276.6,108.7,275.6,109.5,275.4,110.5z M283.6,117.1
		c-0.2,1.5-1.6,2.6-3,2.6s-2.4-1.1-2.2-2.6c0.2-1.5,1.6-2.6,3-2.6C282.8,114.5,283.9,115.7,283.6,117.1z M279.3,117.1
		c-0.1,0.9,0.5,1.7,1.5,1.7s1.8-0.7,2-1.7c0.1-0.9-0.5-1.7-1.5-1.7C280.3,115.4,279.4,116.1,279.3,117.1z"/>
	<path class="st1" d="M295.4,119.3c-0.4,2.4-1.3,4.2-4.1,4.2c-2,0-3.2-1.2-2.9-3.2h1.3c-0.2,1.3,0.5,2,1.8,2c1.6,0,2.2-1.1,2.4-2.6
		l0.2-1.3l0,0c-0.7,0.8-1.6,1.3-2.6,1.3c-2.2,0-3.1-1.8-2.8-3.8c0.3-1.9,1.8-3.7,3.9-3.7c1.1,0,1.8,0.5,2.2,1.4l0,0l0.2-1.2h1.3
		L295.4,119.3z M294.6,115.9c0.2-1.4-0.4-2.5-1.8-2.5c-1.4,0-2.4,1.2-2.6,2.5s0.4,2.6,1.8,2.6C293.4,118.4,294.4,117.3,294.6,115.9z
		"/>
	<path class="st1" d="M299.5,113.5L299.5,113.5c0.5-0.9,1.3-1.3,2.2-1.3c0.4,0,0.8,0.1,1.1,0.3l-0.8,1.3c-0.2-0.2-0.5-0.3-0.8-0.3
		c-1.5,0-1.8,1.3-2,2.5l-0.5,3.4h-1.3l1.1-7h1.3L299.5,113.5z"/>
	<path class="st1" d="M309,119.4h-1.3l0.2-1.1l0,0c-0.7,0.8-1.6,1.3-2.6,1.3c-2.2,0-3.1-1.8-2.8-3.8c0.3-1.9,1.8-3.7,3.9-3.7
		c1.1,0,1.8,0.5,2.2,1.4l0,0l0.2-1.2h1.3L309,119.4z M308.2,115.9c0.2-1.4-0.4-2.5-1.8-2.5c-1.4,0-2.4,1.2-2.6,2.5s0.4,2.6,1.8,2.6
		S308,117.3,308.2,115.9z"/>
	<path class="st1" d="M312.3,119.4h-1.3l0.9-5.7h-0.7l0.2-1.3h0.7l0.4-2.7h1.3l-0.4,2.7h1.3l-0.2,1.3h-1.3L312.3,119.4z"/>
	<path class="st1" d="M316.7,112.4l-0.6,3.9c-0.2,1.1-0.1,2.1,1.3,2.1c1.3,0,1.8-1,2-2.1l0.6-3.9h1.3l-0.7,4
		c-0.3,1.9-1.5,3.2-3.5,3.2c-2,0-2.8-1.3-2.4-3.2l0.7-4H316.7z"/>
	<path class="st1" d="M323.6,119.4h-1.3l1.1-7h1.3L323.6,119.4z M325.5,109.2c-0.1,0.5-0.6,0.9-1.1,0.9c-0.5,0-0.9-0.4-0.8-0.9
		c0.1-0.5,0.6-0.9,1.1-0.9C325.2,108.3,325.6,108.7,325.5,109.2z"/>
	<path class="st1" d="M327.3,119.4H326l0.9-5.7h-0.7l0.2-1.3h0.7l0.4-2.7h1.3l-0.4,2.7h1.3l-0.2,1.3h-1.3L327.3,119.4z"/>
	<path class="st1" d="M330.7,116.1c-0.2,1.2,0.5,2.3,1.7,2.3c1.1,0,1.6-0.5,2.3-1.4l1.1,0.7c-0.9,1.2-2.2,1.9-3.6,1.9
		c-2.2,0-3.2-1.7-2.8-3.7c0.3-2.2,1.8-3.8,4-3.8s3,1.7,2.7,3.8v0.2L330.7,116.1L330.7,116.1z M334.9,115.1c0-1.1-0.6-1.8-1.7-1.8
		c-1.1,0-2,0.7-2.3,1.8H334.9z"/>
	<path class="st1" d="M343.5,118.8c-0.1,0.5-0.5,0.9-1,0.9s-0.8-0.4-0.7-0.9s0.5-0.9,1-0.9C343.3,117.9,343.6,118.3,343.5,118.8z
		 M343.7,108.1h1.3l-1.4,8.7h-1.3L343.7,108.1z"/>
</g>
<g>
	<g>
		<g>
			<path class="st1" d="M79.9,229.7c12.2-6.8,16.8-21.6,10.4-33.1c-6.4-11.4-21.5-15.2-33.6-8.4L79.9,229.7z"/>
		</g>
		<g>
			<g>
				<path class="st1" d="M169.1,299.7l253.6-64.7l-60.2-62.1l-2.6,0.6c-18,61.4-79.3,97.8-137.6,81.4c-20.9-5.9-38.5-17.7-51.8-33.3
					l-61.7,15.6L169.1,299.7z"/>
				<path class="st1" d="M306.4,243.6c-26,15.4-55.9,19.5-84.2,11.6c-6.3-1.8-12.4-4.1-18.2-7c5.8,2.9,11.9,5.2,18.2,7
					C250.4,263.2,280.3,259.1,306.4,243.6c9.9-5.8,18.8-13,26.5-21.4C325.1,230.6,316.2,237.8,306.4,243.6z M170.5,222L170.5,222
					c3.2,3.8,6.7,7.3,10.4,10.6C177.2,229.3,173.7,225.8,170.5,222z M306.4,243.6c-26,15.4-55.9,19.5-84.2,11.6
					c-6.3-1.8-12.4-4.1-18.2-7c5.8,2.9,11.9,5.2,18.2,7C250.4,263.2,280.3,259.1,306.4,243.6c9.9-5.8,18.8-13,26.5-21.4
					C325.1,230.6,316.2,237.8,306.4,243.6z M170.5,222L170.5,222c3.2,3.8,6.7,7.3,10.4,10.6C177.2,229.3,173.7,225.8,170.5,222z
					 M362.6,172.4l-2.1,0.5l-0.1,0l-0.9,0.2l0,0.2c0,0,0,0.1,0,0.2c0,0.1-0.1,0.3-0.1,0.5c0,0,0,0,0,0.1c-0.2,0.7-0.4,1.4-0.6,2.1
					c-0.3,0.9-0.6,1.8-0.9,2.7c-0.3,0.9-0.6,1.8-1,2.7c-0.3,0.9-0.7,1.8-1,2.7c-0.3,0.8-0.7,1.7-1,2.5c-0.2,0.5-0.4,0.9-0.6,1.4
					c-0.3,0.6-0.5,1.2-0.8,1.8c-0.3,0.7-0.6,1.4-1,2.1c-0.4,0.9-0.8,1.7-1.2,2.5c-0.3,0.6-0.6,1.2-0.9,1.7c-0.2,0.4-0.4,0.7-0.6,1.1
					c-0.8,1.5-1.7,3-2.6,4.5c-0.3,0.6-0.7,1.1-1.1,1.7c-1.1,1.8-2.3,3.6-3.5,5.4c-0.4,0.6-0.8,1.1-1.2,1.7c-1.2,1.7-2.5,3.4-3.8,5
					c-0.4,0.5-0.8,1-1.2,1.4c-0.8,1-1.6,1.9-2.4,2.8c-0.3,0.4-0.6,0.7-1,1.1c-0.3,0.4-0.7,0.8-1.1,1.2c-1.4,1.5-2.9,3-4.4,4.5
					c-0.5,0.5-1,0.9-1.4,1.4c-0.7,0.6-1.4,1.2-2,1.9c-5.5,4.9-11.5,9.3-17.9,13.1c-25.9,15.3-55.6,19.3-83.6,11.5
					c-0.6-0.2-1.2-0.4-1.9-0.6c-1.2-0.4-2.4-0.8-3.7-1.2c-1.9-0.6-3.7-1.3-5.5-2.1c-1.1-0.5-2.3-1-3.4-1.5c-0.2-0.1-0.4-0.2-0.5-0.2
					c-0.5-0.2-0.9-0.4-1.4-0.6c-0.8-0.4-1.6-0.8-2.4-1.2c-0.4-0.2-0.7-0.4-1.1-0.5c-1.3-0.6-2.5-1.3-3.8-2c-0.4-0.2-0.9-0.5-1.3-0.8
					c-0.8-0.5-1.7-1-2.5-1.5c0,0,0,0,0,0c-0.8-0.5-1.6-1-2.4-1.6c-0.5-0.4-1.1-0.7-1.6-1.1c-1.1-0.7-2.1-1.5-3.1-2.3
					c-0.5-0.4-1-0.8-1.5-1.2c-1.4-1.1-2.7-2.2-4-3.3c-1-0.8-2-1.7-2.9-2.6c-2.9-2.7-5.6-5.5-8.1-8.5c0,0,0,0,0,0
					c-0.1-0.1-0.2-0.2-0.3-0.3c0,0-0.1-0.1-0.1-0.2l-0.2-0.1l-0.4,0.1l-0.4,0.1l0,0L108,237l0.7,0.8l60.2,62.3l253.8-64.8l0.6-0.1
					L362.6,172.4z M169.2,299.2l-59.6-61.7l-0.1-0.1l60.9-15.4c0,0,0,0,0.1,0.1c3.3,3.8,6.7,7.3,10.4,10.6c0.5,0.5,1.1,0.9,1.6,1.4
					c0.6,0.5,1.2,1,1.9,1.5c0.5,0.5,1.1,0.9,1.7,1.3c1,0.8,2,1.5,3,2.3c1.1,0.8,2.3,1.6,3.4,2.4c0.5,0.3,1,0.7,1.5,1
					c1.1,0.7,2.2,1.4,3.3,2c1.1,0.6,2.1,1.2,3.2,1.8c0.1,0,0.1,0.1,0.2,0.1c1.1,0.6,2.2,1.2,3.4,1.8c0,0,0,0,0,0
					c5.8,2.9,11.9,5.2,18.2,7c28.3,8,58.1,3.8,84.2-11.6c9.9-5.8,18.8-13.1,26.5-21.4c1.8-1.9,3.5-3.9,5.1-5.9
					c0.6-0.7,1.2-1.5,1.7-2.2c0,0,0-0.1,0.1-0.1c0.6-0.7,1.1-1.5,1.7-2.2c1.6-2.2,3.2-4.5,4.7-6.9c0.5-0.8,1-1.6,1.5-2.4
					c1-1.6,1.9-3.2,2.8-4.9c0.9-1.7,1.8-3.3,2.6-5.1s1.6-3.4,2.3-5.2c0.4-0.9,0.7-1.8,1.1-2.6c0.3-0.9,0.7-1.8,1-2.7
					c0.2-0.5,0.4-1,0.5-1.5c0.2-0.5,0.3-0.9,0.5-1.4c0.6-1.7,1.2-3.5,1.7-5.3l2.2-0.6l59.5,61.4L169.2,299.2z M170.5,222L170.5,222
					c3.2,3.8,6.7,7.3,10.4,10.6C177.2,229.3,173.7,225.8,170.5,222z M306.4,243.6c-26,15.4-55.9,19.5-84.2,11.6
					c-6.3-1.8-12.4-4.1-18.2-7c5.8,2.9,11.9,5.2,18.2,7C250.4,263.2,280.3,259.1,306.4,243.6c9.9-5.8,18.8-13,26.5-21.4
					C325.1,230.6,316.2,237.8,306.4,243.6z"/>
			</g>
			<g>
				<path class="st1" d="M221.6,132.7l-0.6-0.2l-1.5,0.4l2.2,0.6l138,38.9c-0.1,0.2-0.2,0.3-0.2,0.5l-0.1,0.2l-188.9,47.9l0,0
					c-16-18.9-25.3-42.5-26.9-67.2c0-0.5-0.1-1-0.1-1.5l-0.8,0.2c0,0.5,0,1,0.1,1.6c1.6,23.4,9.9,45.7,24.4,64.1
					c0.8,1,1.6,2.1,2.5,3.1c0.1,0.1,0.2,0.2,0.3,0.3c0,0,0.1,0.1,0.1,0.2l0.2,0.2l0.1,0l0.3-0.1l0.1,0h0l0.4-0.1l0,0L359.3,174h0
					l0.4-0.1l0,0l0.3-0.1l0.1,0l0.1,0l0.1-0.4l0.1-0.2c0-0.1,0-0.1,0-0.2c0.1-0.2,0.1-0.5,0.2-0.7l0.1-0.4L221.6,132.7z"/>
			</g>
			<g>
				<path class="st2" d="M359.9,173.4l-189.4,48.1c13.3,15.6,31,27.5,51.8,33.3C280.6,271.2,341.9,234.8,359.9,173.4z"/>
				<path class="st2" d="M359.6,173.1l-188.9,47.9l-0.3,0.1l-0.2,0.1l-0.4,0.1l0,0l0.3,0.3l0.1,0.1c0.1,0.1,0.1,0.1,0.2,0.2
					c0,0,0,0,0.1,0.1c3.2,3.8,6.7,7.3,10.4,10.6c0.5,0.5,1.1,0.9,1.6,1.4c0.6,0.5,1.2,1,1.9,1.5c0.5,0.5,1.1,0.9,1.7,1.3
					c1,0.8,2,1.5,3,2.3c1.1,0.8,2.3,1.6,3.4,2.4c0.5,0.3,1,0.7,1.5,1c1.1,0.7,2.2,1.4,3.3,2c1.1,0.6,2.1,1.2,3.2,1.8
					c0.1,0,0.1,0.1,0.2,0.1c1.1,0.6,2.2,1.2,3.4,1.8c0,0,0,0,0,0c5.8,2.9,11.9,5.2,18.2,7c28.3,8,58.2,3.8,84.2-11.6
					c9.9-5.8,18.7-13,26.5-21.4c1.8-1.9,3.5-3.9,5.1-5.9c0.6-0.7,1.2-1.5,1.7-2.2c0,0,0-0.1,0.1-0.1c0.6-0.7,1.1-1.5,1.7-2.2
					c1.6-2.2,3.2-4.5,4.7-6.9c0.5-0.8,1-1.6,1.5-2.4c1-1.6,1.9-3.2,2.8-4.9c0.9-1.7,1.8-3.3,2.6-5.1c0.8-1.7,1.6-3.4,2.3-5.2
					c0.4-0.9,0.7-1.8,1.1-2.6c0.3-0.9,0.7-1.8,1-2.7c0.2-0.5,0.4-1,0.5-1.5c0.2-0.5,0.3-0.9,0.5-1.4c0.6-1.7,1.2-3.5,1.7-5.3v0
					c0-0.1,0.1-0.2,0.1-0.2l0.1-0.2l0.1-0.4l0-0.1L359.6,173.1z M354.8,186.7c-0.2,0.5-0.4,0.9-0.6,1.4c-0.3,0.6-0.5,1.2-0.8,1.8
					c-0.3,0.7-0.6,1.4-1,2.1c-0.4,0.9-0.8,1.7-1.2,2.5c-0.3,0.6-0.6,1.2-0.9,1.7c-0.2,0.4-0.4,0.7-0.6,1.1c-0.8,1.5-1.7,3-2.6,4.5
					c-0.3,0.6-0.7,1.1-1.1,1.7c-1.1,1.8-2.3,3.6-3.5,5.4c-0.4,0.6-0.8,1.1-1.2,1.7c-1.2,1.7-2.5,3.4-3.8,5c-0.4,0.5-0.8,1-1.2,1.4
					c-0.8,1-1.6,1.9-2.4,2.8c-0.3,0.4-0.6,0.7-1,1.1c-0.3,0.4-0.7,0.8-1.1,1.2c-1.4,1.5-2.9,3-4.4,4.5c-0.5,0.5-1,0.9-1.4,1.4
					c-0.7,0.6-1.4,1.2-2,1.9c-5.5,4.9-11.5,9.3-17.9,13.1c-25.9,15.3-55.6,19.3-83.6,11.5c-0.6-0.2-1.2-0.4-1.9-0.6
					c-1.2-0.4-2.4-0.8-3.7-1.2c-1.9-0.6-3.7-1.3-5.5-2.1c-1.1-0.5-2.3-1-3.4-1.5c-0.2-0.1-0.4-0.2-0.5-0.2c-0.5-0.2-0.9-0.4-1.4-0.6
					c-0.8-0.4-1.6-0.8-2.4-1.2c-0.4-0.2-0.7-0.4-1.1-0.5c-1.3-0.6-2.5-1.3-3.8-2c-0.5-0.2-0.9-0.5-1.3-0.8c-0.8-0.5-1.7-1-2.5-1.5
					c0,0,0,0,0,0c-0.8-0.5-1.6-1-2.4-1.6c-0.5-0.4-1.1-0.7-1.6-1.1c-1.1-0.7-2.1-1.5-3.1-2.3c-0.5-0.4-1-0.8-1.5-1.2
					c-1.4-1.1-2.7-2.2-4-3.3c-1-0.8-2-1.7-2.9-2.6c-2.9-2.7-5.6-5.5-8.2-8.5c0,0,0,0,0,0l0,0L359.3,174h0c0,0,0,0,0,0.1
					c-0.2,0.7-0.4,1.4-0.7,2.1c-0.3,0.9-0.6,1.8-0.9,2.7c-0.3,0.9-0.6,1.8-1,2.7c-0.3,0.9-0.7,1.8-1,2.7
					C355.5,185.1,355.1,185.9,354.8,186.7z"/>
			</g>
		</g>
		<g>
			<path class="st1" d="M-4.8,190.4l0.4,1.5l0.4-0.1l0.5-1.7L-4.8,190.4z M2.7,263.1l-28.9,7.4l8.1-28.8l-0.6-0.6l-8.6,30.5
				l30.6-7.8L2.7,263.1z M55.5,249.7l-1.5,0.4l0.3,0.5l1.3-0.8L55.5,249.7z M71.3,245.7l-1.5,0.4l0.5,0.8l1.3-0.8L71.3,245.7z
				 M87.4,241.6l-1.5,0.4l0.4,0.6l1.3-0.7L87.4,241.6z M111.1,160.7l-1.7,0.4l1.2,1.3l1.7-0.4L111.1,160.7z M170.8,221.9
				L170.8,221.9l-0.1-0.1l-0.5-0.5l0,0l-2.9-2.9c0.8,1,1.6,2.1,2.5,3.1L108,237l0.7,0.8l0.4-0.1l0.4-0.1l60.8-15.5l0.1,0
				L170.8,221.9L170.8,221.9L170.8,221.9L170.8,221.9z"/>
		</g>
		<g>
			<g>
				<polygon class="st1" points="3.4,263.8 -27.3,271.6 -18.7,241.1 -18.1,241.8 2.7,263.1 				"/>
			</g>
		</g>
		<g>
			<g>
				<polygon class="st1" points="221.9,133.9 143.7,153.9 142.9,154.1 112.4,161.9 110.7,162.4 85.5,168.8 85.2,168.9 84.9,169 
					73.6,171.9 73.3,171.9 73,172 51.4,177.5 51.4,177.5 49.9,177.9 49.9,177.9 35.3,181.7 33.8,182 33.8,182 19.7,185.7 
					18.1,186.1 -4,191.7 -4.5,191.8 -4.8,190.4 -3.5,190 72.6,170.5 72.9,170.5 72.9,170.5 73.1,170.4 84.7,167.5 84.9,167.4 
					85.2,167.3 109.4,161.1 111.1,160.7 142.8,152.6 143.6,152.4 219.6,132.9 221,132.5 221.5,132.4 221.6,132.7 221.8,133.5 				
					"/>
			</g>
		</g>
		<g>
			<polygon class="st1" points="87.5,241.9 86.2,242.6 85.8,242 49.9,177.9 49.9,177.9 49.5,177.2 50.8,176.5 51.4,177.5 
				51.4,177.5 57.2,187.9 80.5,229.3 87.4,241.6 			"/>
		</g>
		<g>
			<polygon class="st1" points="71.5,246.1 70.2,246.9 69.7,246.1 33.8,182 33.8,182 33.7,181.8 35,181.1 35.3,181.7 71.3,245.7 			
				"/>
		</g>
		<g>
			<polygon class="st1" points="55.6,249.9 54.3,250.6 54,250.1 18.1,186.1 17.6,185.2 19,184.5 19.7,185.7 55.5,249.7 			"/>
		</g>
	</g>
	<g>
		<g>
			<ellipse transform="matrix(0.8723 -0.489 0.489 0.8723 -72.7145 60.2697)" class="st1" cx="79" cy="169.3" rx="6.2" ry="6.2"/>
			<path class="st1" d="M85.4,168c0-0.2-0.1-0.4-0.2-0.7c-1-3.1-4.3-5.1-7.6-4.4c-3.5,0.7-5.8,4.1-5.1,7.6c0,0,0,0.1,0,0.2
				c0.1,0.5,0.2,0.9,0.4,1.3c1.2,2.8,4.3,4.4,7.3,3.7c3.2-0.7,5.4-3.7,5.1-6.9C85.5,168.5,85.5,168.2,85.4,168z M73.6,171.9
				c-0.2-0.4-0.3-0.8-0.4-1.3c0-0.1,0-0.1,0-0.2c-0.6-3.2,1.4-6.2,4.6-6.9c3-0.6,6,1.1,6.9,4c0.1,0.2,0.1,0.4,0.2,0.6
				c0.1,0.3,0.1,0.6,0.1,0.9c0.2,2.9-1.8,5.6-4.7,6.2C77.5,175.8,74.7,174.3,73.6,171.9z"/>
		</g>
	</g>
</g>
<g>
	<g>
		<g>
			<path class="st1" d="M280.9-29.7c-12.2,6.8-16.8,21.6-10.4,33.1s21.5,15.2,33.6,8.4L280.9-29.7z"/>
		</g>
		<g>
			<g>
				<path class="st1" d="M191.8-99.7L-61.8-34.9l60.2,62.1L1,26.5c18-61.4,79.3-97.8,137.6-81.4c20.9,5.9,38.5,17.7,51.8,33.3
					l61.7-15.6L191.8-99.7z"/>
				<path class="st1" d="M54.4-43.6c26-15.4,55.9-19.5,84.2-11.6c6.3,1.8,12.4,4.1,18.2,7c-5.8-2.9-11.9-5.2-18.2-7
					C110.4-63.2,80.5-59.1,54.4-43.6c-9.9,5.8-18.8,13-26.5,21.4C35.7-30.6,44.6-37.8,54.4-43.6z M190.4-22L190.4-22
					c-3.2-3.8-6.7-7.3-10.4-10.6C183.7-29.3,187.1-25.8,190.4-22z M54.4-43.6c26-15.4,55.9-19.5,84.2-11.6c6.3,1.8,12.4,4.1,18.2,7
					c-5.8-2.9-11.9-5.2-18.2-7C110.4-63.2,80.5-59.1,54.4-43.6c-9.9,5.8-18.8,13-26.5,21.4C35.7-30.6,44.6-37.8,54.4-43.6z
					 M190.4-22L190.4-22c-3.2-3.8-6.7-7.3-10.4-10.6C183.7-29.3,187.1-25.8,190.4-22z M-1.8,27.6L0.3,27l0.1,0l0.9-0.2l0-0.2
					c0,0,0-0.1,0-0.2c0-0.1,0.1-0.3,0.1-0.5c0,0,0,0,0-0.1c0.2-0.7,0.4-1.4,0.6-2.1C2.4,23,2.7,22,3.1,21.1c0.3-0.9,0.6-1.8,1-2.7
					c0.3-0.9,0.7-1.8,1-2.7c0.3-0.8,0.7-1.7,1-2.5c0.2-0.5,0.4-0.9,0.6-1.4c0.3-0.6,0.5-1.2,0.8-1.8c0.3-0.7,0.6-1.4,1-2.1
					c0.4-0.9,0.8-1.7,1.2-2.5c0.3-0.6,0.6-1.2,0.9-1.7c0.2-0.4,0.4-0.7,0.6-1.1C12,1,12.9-0.5,13.8-2c0.3-0.6,0.7-1.1,1.1-1.7
					c1.1-1.8,2.3-3.6,3.5-5.4c0.4-0.6,0.8-1.1,1.2-1.7c1.2-1.7,2.5-3.4,3.8-5c0.4-0.5,0.8-1,1.2-1.4c0.8-1,1.6-1.9,2.4-2.8
					c0.3-0.4,0.6-0.7,1-1.1c0.3-0.4,0.7-0.8,1.1-1.2c1.4-1.5,2.9-3,4.4-4.5c0.5-0.5,1-0.9,1.4-1.4c0.7-0.6,1.4-1.2,2-1.9
					c5.5-4.9,11.5-9.3,17.9-13.1c25.9-15.3,55.6-19.3,83.6-11.5c0.6,0.2,1.2,0.4,1.9,0.6c1.2,0.4,2.4,0.8,3.7,1.2
					c1.9,0.6,3.7,1.3,5.5,2.1c1.1,0.5,2.3,1,3.4,1.5c0.2,0.1,0.4,0.2,0.5,0.2c0.5,0.2,0.9,0.4,1.4,0.6c0.8,0.4,1.6,0.8,2.4,1.2
					c0.4,0.2,0.7,0.4,1.1,0.5c1.3,0.6,2.5,1.3,3.8,2c0.4,0.2,0.9,0.5,1.3,0.8c0.8,0.5,1.7,1,2.5,1.5c0,0,0,0,0,0
					c0.8,0.5,1.6,1,2.4,1.6c0.5,0.4,1.1,0.7,1.6,1.1c1.1,0.7,2.1,1.5,3.1,2.3c0.5,0.4,1,0.8,1.5,1.2c1.4,1.1,2.7,2.2,4,3.3
					c1,0.8,2,1.7,2.9,2.6c2.9,2.7,5.6,5.5,8.1,8.5c0,0,0,0,0,0c0.1,0.1,0.2,0.2,0.3,0.3c0,0,0.1,0.1,0.1,0.2l0.2,0.1l0.4-0.1
					l0.4-0.1l0,0L252.8-37l-0.7-0.8l-60.2-62.3L-61.9-35.3l-0.6,0.1L-1.8,27.6z M191.6-99.2l59.6,61.7l0.1,0.1L190.5-22
					c0,0,0,0-0.1-0.1c-3.3-3.8-6.7-7.3-10.4-10.6c-0.5-0.5-1.1-0.9-1.6-1.4c-0.6-0.5-1.2-1-1.9-1.5c-0.5-0.5-1.1-0.9-1.7-1.3
					c-1-0.8-2-1.5-3-2.3c-1.1-0.8-2.3-1.6-3.4-2.4c-0.5-0.3-1-0.7-1.5-1c-1.1-0.7-2.2-1.4-3.3-2c-1.1-0.6-2.1-1.2-3.2-1.8
					c-0.1,0-0.1-0.1-0.2-0.1c-1.1-0.6-2.2-1.2-3.4-1.8c0,0,0,0,0,0c-5.8-2.9-11.9-5.2-18.2-7c-28.3-8-58.1-3.8-84.2,11.6
					C44.6-37.9,35.7-30.6,28-22.3c-1.8,1.9-3.5,3.9-5.1,5.9c-0.6,0.7-1.2,1.5-1.7,2.2c0,0,0,0.1-0.1,0.1c-0.6,0.7-1.1,1.5-1.7,2.2
					c-1.6,2.2-3.2,4.5-4.7,6.9c-0.5,0.8-1,1.6-1.5,2.4c-1,1.6-1.9,3.2-2.8,4.9C9.5,4,8.7,5.7,7.9,7.4s-1.6,3.4-2.3,5.2
					c-0.4,0.9-0.7,1.8-1.1,2.6c-0.3,0.9-0.7,1.8-1,2.7c-0.2,0.5-0.4,1-0.5,1.5c-0.2,0.5-0.3,0.9-0.5,1.4c-0.6,1.7-1.2,3.5-1.7,5.3
					l-2.2,0.6l-59.5-61.4L191.6-99.2z M190.4-22L190.4-22c-3.2-3.8-6.7-7.3-10.4-10.6C183.7-29.3,187.1-25.8,190.4-22z M54.4-43.6
					c26-15.4,55.9-19.5,84.2-11.6c6.3,1.8,12.4,4.1,18.2,7c-5.8-2.9-11.9-5.2-18.2-7C110.4-63.2,80.5-59.1,54.4-43.6
					c-9.9,5.8-18.8,13-26.5,21.4C35.7-30.6,44.6-37.8,54.4-43.6z"/>
			</g>
			<g>
				<path class="st1" d="M139.2,67.3l0.6,0.2l1.5-0.4l-2.2-0.6L1,27.6c0.1-0.2,0.2-0.3,0.2-0.5l0.1-0.2l188.9-47.9l0,0
					c16,18.9,25.3,42.5,26.9,67.2c0,0.5,0.1,1,0.1,1.5l0.8-0.2c0-0.5,0-1-0.1-1.6c-1.6-23.4-9.9-45.7-24.4-64.1
					c-0.8-1-1.6-2.1-2.5-3.1c-0.1-0.1-0.2-0.2-0.3-0.3c0,0-0.1-0.1-0.1-0.2l-0.2-0.2l-0.1,0l-0.3,0.1l-0.1,0h0l-0.4,0.1l0,0L1.5,26
					h0l-0.4,0.1l0,0l-0.3,0.1l-0.1,0l-0.1,0l-0.1,0.4l-0.1,0.2c0,0.1,0,0.1,0,0.2c-0.1,0.2-0.1,0.5-0.2,0.7L0,28.1L139.2,67.3z"/>
			</g>
			<g>
				<path class="st2" d="M0.9,26.6l189.4-48.1c-13.3-15.6-31-27.5-51.8-33.3C80.2-71.2,18.9-34.8,0.9,26.6z"/>
				<path class="st2" d="M1.2,26.9l188.9-47.9l0.3-0.1l0.2-0.1l0.4-0.1l0,0l-0.3-0.3l-0.1-0.1c-0.1-0.1-0.1-0.1-0.2-0.2
					c0,0,0,0-0.1-0.1c-3.2-3.8-6.7-7.3-10.4-10.6c-0.5-0.5-1.1-0.9-1.6-1.4c-0.6-0.5-1.2-1-1.9-1.5c-0.5-0.5-1.1-0.9-1.7-1.3
					c-1-0.8-2-1.5-3-2.3c-1.1-0.8-2.3-1.6-3.4-2.4c-0.5-0.3-1-0.7-1.5-1c-1.1-0.7-2.2-1.4-3.3-2c-1.1-0.6-2.1-1.2-3.2-1.8
					c-0.1,0-0.1-0.1-0.2-0.1c-1.1-0.6-2.2-1.2-3.4-1.8c0,0,0,0,0,0c-5.8-2.9-11.9-5.2-18.2-7c-28.3-8-58.2-3.8-84.2,11.6
					c-9.9,5.8-18.7,13-26.5,21.4c-1.8,1.9-3.5,3.9-5.1,5.9c-0.6,0.7-1.2,1.5-1.7,2.2c0,0,0,0.1-0.1,0.1c-0.6,0.7-1.1,1.5-1.7,2.2
					c-1.6,2.2-3.2,4.5-4.7,6.9c-0.5,0.8-1,1.6-1.5,2.4c-1,1.6-1.9,3.2-2.8,4.9C9.5,4,8.7,5.7,7.9,7.4C7,9.2,6.2,10.9,5.5,12.6
					c-0.4,0.9-0.7,1.8-1.1,2.6c-0.3,0.9-0.7,1.8-1,2.7c-0.2,0.5-0.4,1-0.5,1.5c-0.2,0.5-0.3,0.9-0.5,1.4c-0.6,1.7-1.2,3.5-1.7,5.3v0
					c0,0.1-0.1,0.2-0.1,0.2l-0.1,0.2L0.4,27l0,0.1L1.2,26.9z M6.1,13.3c0.2-0.5,0.4-0.9,0.6-1.4c0.3-0.6,0.5-1.2,0.8-1.8
					c0.3-0.7,0.6-1.4,1-2.1c0.4-0.9,0.8-1.7,1.2-2.5c0.3-0.6,0.6-1.2,0.9-1.7c0.2-0.4,0.4-0.7,0.6-1.1C12,1,12.9-0.5,13.8-2
					c0.3-0.6,0.7-1.1,1.1-1.7c1.1-1.8,2.3-3.6,3.5-5.4c0.4-0.6,0.8-1.1,1.2-1.7c1.2-1.7,2.5-3.4,3.8-5c0.4-0.5,0.8-1,1.2-1.4
					c0.8-1,1.6-1.9,2.4-2.8c0.3-0.4,0.6-0.7,1-1.1c0.3-0.4,0.7-0.8,1.1-1.2c1.4-1.5,2.9-3,4.4-4.5c0.5-0.5,1-0.9,1.4-1.4
					c0.7-0.6,1.4-1.2,2-1.9c5.5-4.9,11.5-9.3,17.9-13.1c25.9-15.3,55.6-19.3,83.6-11.5c0.6,0.2,1.2,0.4,1.9,0.6
					c1.2,0.4,2.4,0.8,3.7,1.2c1.9,0.6,3.7,1.3,5.5,2.1c1.1,0.5,2.3,1,3.4,1.5c0.2,0.1,0.4,0.2,0.5,0.2c0.5,0.2,0.9,0.4,1.4,0.6
					c0.8,0.4,1.6,0.8,2.4,1.2c0.4,0.2,0.7,0.4,1.1,0.5c1.3,0.6,2.5,1.3,3.8,2c0.5,0.2,0.9,0.5,1.3,0.8c0.8,0.5,1.7,1,2.5,1.5
					c0,0,0,0,0,0c0.8,0.5,1.6,1,2.4,1.6c0.5,0.4,1.1,0.7,1.6,1.1c1.1,0.7,2.1,1.5,3.1,2.3c0.5,0.4,1,0.8,1.5,1.2
					c1.4,1.1,2.7,2.2,4,3.3c1,0.8,2,1.7,2.9,2.6c2.9,2.7,5.6,5.5,8.2,8.5c0,0,0,0,0,0l0,0L1.5,26h0c0,0,0,0,0-0.1
					c0.2-0.7,0.4-1.4,0.7-2.1C2.4,23,2.7,22,3.1,21.1c0.3-0.9,0.6-1.8,1-2.7c0.3-0.9,0.7-1.8,1-2.7C5.4,14.9,5.7,14.1,6.1,13.3z"/>
			</g>
		</g>
		<g>
			<path class="st1" d="M365.6,9.6l-0.4-1.5l-0.4,0.1l-0.5,1.7L365.6,9.6z M358.1-63.1l28.9-7.4l-8.1,28.8l0.6,0.6l8.6-30.5
				l-30.6,7.8L358.1-63.1z M305.3-49.7l1.5-0.4l-0.3-0.5l-1.3,0.8L305.3-49.7z M289.6-45.7l1.5-0.4l-0.5-0.8l-1.3,0.8L289.6-45.7z
				 M273.5-41.6L275-42l-0.4-0.6l-1.3,0.7L273.5-41.6z M249.7,39.3l1.7-0.4l-1.2-1.3l-1.7,0.4L249.7,39.3z M190-21.9L190-21.9
				l0.1,0.1l0.5,0.5l0,0l2.9,2.9c-0.8-1-1.6-2.1-2.5-3.1L252.8-37l-0.7-0.8l-0.4,0.1l-0.4,0.1l-60.8,15.5l-0.1,0L190-21.9L190-21.9
				L190-21.9L190-21.9z"/>
		</g>
		<g>
			<g>
				<polygon class="st1" points="357.5,-63.8 388.1,-71.6 379.5,-41.1 378.9,-41.8 358.1,-63.1 				"/>
			</g>
		</g>
		<g>
			<g>
				<polygon class="st1" points="138.9,66.1 217.1,46.1 217.9,45.9 248.5,38.1 250.2,37.6 275.3,31.2 275.6,31.1 275.9,31 
					287.2,28.1 287.5,28.1 287.8,28 309.4,22.5 309.4,22.5 310.9,22.1 310.9,22.1 325.5,18.3 327,18 327,18 341.2,14.3 342.7,13.9 
					364.8,8.3 365.3,8.2 365.6,9.6 364.4,10 288.2,29.5 287.9,29.5 287.9,29.5 287.7,29.6 276.2,32.5 275.9,32.6 275.6,32.7 
					251.4,38.9 249.7,39.3 218,47.4 217.2,47.6 141.2,67.1 139.8,67.5 139.3,67.6 139.2,67.3 139,66.5 				"/>
			</g>
		</g>
		<g>
			<polygon class="st1" points="273.3,-41.9 274.6,-42.6 275,-42 310.9,22.1 310.9,22.1 311.3,22.8 310,23.5 309.4,22.5 309.4,22.5 
				303.6,12.1 280.3,-29.3 273.5,-41.6 			"/>
		</g>
		<g>
			<polygon class="st1" points="289.3,-46.1 290.6,-46.9 291.1,-46.1 327,18 327,18 327.1,18.2 325.8,18.9 325.5,18.3 289.6,-45.7 
							"/>
		</g>
		<g>
			<polygon class="st1" points="305.2,-49.9 306.5,-50.6 306.8,-50.1 342.7,13.9 343.2,14.8 341.8,15.5 341.2,14.3 305.3,-49.7 			
				"/>
		</g>
	</g>
	<g>
		<g>
			<ellipse transform="matrix(0.8723 -0.489 0.489 0.8723 20.997 141.7265)" class="st1" cx="281.8" cy="30.7" rx="6.2" ry="6.2"/>
			<path class="st1" d="M275.4,32c0,0.2,0.1,0.4,0.2,0.7c1,3.1,4.3,5.1,7.6,4.4c3.5-0.7,5.8-4.1,5.1-7.6c0,0,0-0.1,0-0.2
				c-0.1-0.5-0.2-0.9-0.4-1.3c-1.2-2.8-4.3-4.4-7.3-3.7c-3.2,0.7-5.4,3.7-5.1,6.9C275.3,31.5,275.4,31.8,275.4,32z M287.2,28.1
				c0.2,0.4,0.3,0.8,0.4,1.3c0,0.1,0,0.1,0,0.2c0.6,3.2-1.4,6.2-4.6,6.9c-3,0.6-6-1.1-6.9-4c-0.1-0.2-0.1-0.4-0.2-0.6
				c-0.1-0.3-0.1-0.6-0.1-0.9c-0.2-2.9,1.8-5.6,4.7-6.2C283.3,24.2,286.1,25.7,287.2,28.1z"/>
		</g>
	</g>
</g>
</svg>
